<svg xmlns="http://www.w3.org/2000/svg" width="49" height="49" viewBox="0 0 49 49">
  <g id="aprendizaje" transform="translate(-1.001 -1)">
    <path id="Trazado_882942" data-name="Trazado 882942" d="M40.156,34.812l.125.036a.792.792,0,0,0,1.009-.759V20.652a.79.79,0,0,0-.572-.76l-.125-.036h0a13.467,13.467,0,0,0-10.812,1.525l-1.134.708-1.135-.709A13.462,13.462,0,0,0,16.7,19.856h0l-.125.036a.792.792,0,0,0-.571.76V34.088a.791.791,0,0,0,1.008.76l.123-.036a11.874,11.874,0,0,1,9.54,1.346l1.554.971c.006,0,.014.006.021.009l.016.012a.91.91,0,0,0,.108.043.734.734,0,0,0,.069.028.831.831,0,0,0,.206.028.8.8,0,0,0,.206-.028.734.734,0,0,0,.069-.028.7.7,0,0,0,.108-.043l.016-.012c.006,0,.014,0,.021-.009l1.554-.971A11.882,11.882,0,0,1,40.156,34.812ZM20.382,32.777a13.428,13.428,0,0,0-2.8.3V21.258a11.881,11.881,0,0,1,9.092,1.464l1.182.739V35.032l-.345-.215A13.458,13.458,0,0,0,20.382,32.777Zm9.4,2.041-.345.215V23.461l1.182-.739a11.881,11.881,0,0,1,9.092-1.464V33.072a13.47,13.47,0,0,0-9.93,1.745Z" transform="translate(-3.145 -3.846)" fill="#ea3a70"/>
    <path id="Trazado_882943" data-name="Trazado 882943" d="M41.938,32.8l.154-1.573a13.381,13.381,0,0,0-7.558,1.48l.737,1.4A11.821,11.821,0,0,1,41.938,32.8Z" transform="translate(-7.031 -6.324)" fill="#ea3a70"/>
    <path id="Trazado_882944" data-name="Trazado 882944" d="M41.938,26.8l.154-1.573a13.368,13.368,0,0,0-7.558,1.48l.737,1.4A11.807,11.807,0,0,1,41.938,26.8Z" transform="translate(-7.031 -5.066)" fill="#ea3a70"/>
    <path id="Trazado_882945" data-name="Trazado 882945" d="M19.9,31.225l.154,1.573A11.814,11.814,0,0,1,26.724,34.1l.737-1.4A13.413,13.413,0,0,0,19.9,31.225Z" transform="translate(-3.963 -6.324)" fill="#ea3a70"/>
    <path id="Trazado_882946" data-name="Trazado 882946" d="M19.9,25.225l.154,1.573A11.807,11.807,0,0,1,26.724,28.1l.737-1.4A13.4,13.4,0,0,0,19.9,25.225Z" transform="translate(-3.963 -5.066)" fill="#ea3a70"/>
    <path id="Trazado_882947" data-name="Trazado 882947" d="M36.6,5.766a.79.79,0,0,0-.63-.53l-3.406-.521-1.531-3.26a.789.789,0,0,0-1.43,0l-1.531,3.26-3.406.521a.791.791,0,0,0-.447,1.333l2.487,2.55-.589,3.609a.791.791,0,0,0,1.163.82l3.038-1.679,3.037,1.679a.79.79,0,0,0,1.162-.82l-.589-3.609,2.487-2.55a.787.787,0,0,0,.184-.8ZM32.523,8.3a.789.789,0,0,0-.214.679l.391,2.4-1.995-1.1a.787.787,0,0,0-.763,0l-1.995,1.1.391-2.4a.792.792,0,0,0-.214-.679L26.432,6.565l2.3-.352a.792.792,0,0,0,.6-.445l.993-2.118.994,2.118a.79.79,0,0,0,.6.445l2.3.352Z" transform="translate(-4.822)" fill="#ea3a70"/>
    <path id="Trazado_882948" data-name="Trazado 882948" d="M3.788,49.558a.816.816,0,0,1,.374.667v2a.79.79,0,0,0,.79.79H9.694a.79.79,0,0,0,.79-.79v-2a.8.8,0,0,1,.365-.659A6.319,6.319,0,0,0,7.215,38,6.393,6.393,0,0,0,1,44.09a6.286,6.286,0,0,0,2.783,5.467Zm3.454-9.976a4.738,4.738,0,0,1,2.726,8.671A2.375,2.375,0,0,0,8.9,50.223v1.212H5.742V50.225a2.393,2.393,0,0,0-1.07-1.977,4.72,4.72,0,0,1-2.089-4.1A4.8,4.8,0,0,1,7.241,39.582Z" transform="translate(0 -7.758)" fill="#ea3a70"/>
    <path id="Trazado_882949" data-name="Trazado 882949" d="M6.581,45.161a1.582,1.582,0,0,1,1.581-1.581V42A3.164,3.164,0,0,0,5,45.161v.79H6.581Z" transform="translate(-0.839 -8.597)" fill="#ea3a70"/>
    <path id="Trazado_882950" data-name="Trazado 882950" d="M6,58h4.742v1.581H6Z" transform="translate(-1.048 -11.952)" fill="#ea3a70"/>
    <path id="Trazado_882951" data-name="Trazado 882951" d="M7,61h3.161v1.581H7Z" transform="translate(-1.258 -12.581)" fill="#ea3a70"/>
    <path id="Trazado_882952" data-name="Trazado 882952" d="M18.2,12.065l-.7-1.419A20.43,20.43,0,0,0,6,29.1H7.581A18.858,18.858,0,0,1,18.2,12.065Z" transform="translate(-1.048 -2.023)" fill="#ea3a70"/>
    <path id="Trazado_882953" data-name="Trazado 882953" d="M28.729,56.994A18.8,18.8,0,0,1,17.349,53.2L16.4,54.466a20.37,20.37,0,0,0,12.329,4.109,20.58,20.58,0,0,0,5.771-.822l-.443-1.517A18.986,18.986,0,0,1,28.729,56.994Z" transform="translate(-3.229 -10.946)" fill="#ea3a70"/>
    <path id="Trazado_882954" data-name="Trazado 882954" d="M53.928,33.916A20.577,20.577,0,0,0,42.041,10.081l-.62,1.453a19,19,0,0,1,10.973,22Z" transform="translate(-8.475 -1.904)" fill="#ea3a70"/>
    <path id="Trazado_882955" data-name="Trazado 882955" d="M49.952,46A3.952,3.952,0,1,0,53.9,49.952,3.956,3.956,0,0,0,49.952,46Zm0,6.323a2.371,2.371,0,1,1,2.371-2.371A2.374,2.374,0,0,1,49.952,52.323Z" transform="translate(-9.435 -9.435)" fill="#ea3a70"/>
    <path id="Trazado_882956" data-name="Trazado 882956" d="M56.387,46.113h-1.2a7.407,7.407,0,0,0-.285-.69l.85-.851a1.583,1.583,0,0,0,0-2.236l-1.118-1.118a1.582,1.582,0,0,0-2.235,0l-.851.85a7.113,7.113,0,0,0-.69-.285v-1.2A1.582,1.582,0,0,0,49.275,39H47.694a1.582,1.582,0,0,0-1.581,1.581v1.2a7.113,7.113,0,0,0-.69.285l-.851-.85a1.582,1.582,0,0,0-2.235,0L41.22,42.336a1.583,1.583,0,0,0,0,2.236l.85.851a7.2,7.2,0,0,0-.285.69h-1.2A1.582,1.582,0,0,0,39,47.694v1.581a1.582,1.582,0,0,0,1.581,1.581h1.2a7.406,7.406,0,0,0,.285.69l-.85.851a1.583,1.583,0,0,0,0,2.236l1.118,1.118a1.582,1.582,0,0,0,2.235,0l.851-.85a7.112,7.112,0,0,0,.69.285v1.2a1.582,1.582,0,0,0,1.581,1.581h1.581a1.582,1.582,0,0,0,1.581-1.581v-1.2a7.113,7.113,0,0,0,.69-.285l.851.85a1.582,1.582,0,0,0,2.235,0l1.118-1.118a1.583,1.583,0,0,0,0-2.236l-.85-.851a7.2,7.2,0,0,0,.285-.69h1.2a1.582,1.582,0,0,0,1.581-1.581V47.694A1.582,1.582,0,0,0,56.387,46.113Zm0,3.161H54.6a.79.79,0,0,0-.765.593,5.5,5.5,0,0,1-.59,1.423.791.791,0,0,0,.122.96l1.265,1.265-1.118,1.118-1.265-1.264a.79.79,0,0,0-.961-.122,5.5,5.5,0,0,1-1.422.588.79.79,0,0,0-.592.765v1.788H47.694V54.6a.791.791,0,0,0-.593-.765,5.5,5.5,0,0,1-1.422-.588.791.791,0,0,0-.961.122l-1.265,1.264-1.118-1.118L43.6,52.25a.79.79,0,0,0,.122-.96,5.5,5.5,0,0,1-.59-1.423.789.789,0,0,0-.764-.593H40.581V47.694h1.788a.79.79,0,0,0,.765-.593,5.5,5.5,0,0,1,.59-1.423.791.791,0,0,0-.122-.96l-1.265-1.265,1.118-1.118L44.719,43.6a.789.789,0,0,0,.961.122,5.5,5.5,0,0,1,1.422-.588.791.791,0,0,0,.593-.765V40.581h1.581v1.788a.791.791,0,0,0,.593.765,5.5,5.5,0,0,1,1.422.588.789.789,0,0,0,.961-.122l1.265-1.264,1.118,1.118-1.265,1.264a.79.79,0,0,0-.122.96,5.5,5.5,0,0,1,.59,1.423.791.791,0,0,0,.765.593h1.786Z" transform="translate(-7.968 -7.968)" fill="#ea3a70"/>
  </g>
</svg>
