<svg xmlns="http://www.w3.org/2000/svg" width="544.051" height="298.515" viewBox="0 0 544.051 298.515">
  <g id="Grupo_1102908" data-name="Grupo 1102908" transform="translate(-810 -3197.557)">
    <g id="Grupo_1102907" data-name="Grupo 1102907">
      <g id="Grupo_1102906" data-name="Grupo 1102906">
        <g id="Grupo_1102905" data-name="Grupo 1102905">
          <g id="Grupo_1102904" data-name="Grupo 1102904">
            <g id="Grupo_1102903" data-name="Grupo 1102903">
              <g id="Grupo_1102902" data-name="Grupo 1102902">
                <g id="Grupo_1102787" data-name="Grupo 1102787" transform="translate(-10.051)">
                  <g id="Rectángulo_402673" data-name="Rectángulo 402673" transform="translate(820.051 3197.557)" fill="#fff" stroke="#38a8ad" stroke-width="1">
                    <rect width="544.051" height="298.515" stroke="none"/>
                    <rect x="0.5" y="0.5" width="543.051" height="297.515" fill="none"/>
                  </g>
                  <path id="Trazado_883097" data-name="Trazado 883097" d="M-27.7-4.383h-2.2V0h-1.977V-11.375h4a4.656,4.656,0,0,1,3.039.883,3.122,3.122,0,0,1,1.07,2.555,3.2,3.2,0,0,1-.551,1.91,3.5,3.5,0,0,1-1.535,1.184L-23.3-.1V0h-2.117Zm-2.2-1.586h2.031a2.259,2.259,0,0,0,1.563-.5,1.757,1.757,0,0,0,.563-1.379,1.871,1.871,0,0,0-.52-1.414,2.207,2.207,0,0,0-1.551-.516H-29.9ZM-18.355.156A3.928,3.928,0,0,1-21.281-.98,4.124,4.124,0,0,1-22.4-4.008v-.234A5.072,5.072,0,0,1-21.914-6.5a3.716,3.716,0,0,1,1.371-1.551,3.625,3.625,0,0,1,1.969-.555,3.318,3.318,0,0,1,2.668,1.1,4.658,4.658,0,0,1,.941,3.117v.766h-5.523a2.539,2.539,0,0,0,.7,1.656,2.1,2.1,0,0,0,1.543.609,2.571,2.571,0,0,0,2.125-1.055l1.023.977A3.418,3.418,0,0,1-16.453-.262,4.244,4.244,0,0,1-18.355.156Zm-.227-7.242a1.6,1.6,0,0,0-1.262.547,2.835,2.835,0,0,0-.613,1.523h3.617v-.141A2.307,2.307,0,0,0-17.348-6.6,1.586,1.586,0,0,0-18.582-7.086ZM-8.441,0A2.93,2.93,0,0,1-8.66-.789a2.955,2.955,0,0,1-2.219.945A2.982,2.982,0,0,1-12.957-.57a2.325,2.325,0,0,1-.8-1.8,2.4,2.4,0,0,1,1-2.074,4.865,4.865,0,0,1,2.871-.723h1.164v-.555A1.481,1.481,0,0,0-9.09-6.77a1.456,1.456,0,0,0-1.117-.395,1.672,1.672,0,0,0-1.062.324,1,1,0,0,0-.414.824h-1.9a2.107,2.107,0,0,1,.461-1.3,3.071,3.071,0,0,1,1.254-.949,4.4,4.4,0,0,1,1.77-.344,3.547,3.547,0,0,1,2.367.746,2.661,2.661,0,0,1,.906,2.1v3.813A4.321,4.321,0,0,0-6.5-.133V0Zm-2.086-1.367a2.159,2.159,0,0,0,1.059-.273,1.827,1.827,0,0,0,.746-.734V-3.969H-9.746a2.8,2.8,0,0,0-1.586.367,1.189,1.189,0,0,0-.531,1.039,1.109,1.109,0,0,0,.363.871A1.407,1.407,0,0,0-10.527-1.367Zm9.164.008a1.716,1.716,0,0,0,1.18-.414A1.415,1.415,0,0,0,.316-2.8H2.105a2.789,2.789,0,0,1-.492,1.473A3.228,3.228,0,0,1,.363-.242a3.725,3.725,0,0,1-1.7.4A3.6,3.6,0,0,1-4.152-.992,4.555,4.555,0,0,1-5.191-4.164v-.2A4.479,4.479,0,0,1-4.16-7.449a3.571,3.571,0,0,1,2.813-1.16,3.473,3.473,0,0,1,2.457.879,3.148,3.148,0,0,1,1,2.309H.316a1.738,1.738,0,0,0-.5-1.2,1.6,1.6,0,0,0-1.184-.469,1.671,1.671,0,0,0-1.422.668,3.408,3.408,0,0,0-.508,2.027v.3a3.465,3.465,0,0,0,.5,2.051A1.669,1.669,0,0,0-1.363-1.359Zm8.375,0a1.716,1.716,0,0,0,1.18-.414,1.415,1.415,0,0,0,.5-1.023H10.48a2.789,2.789,0,0,1-.492,1.473A3.228,3.228,0,0,1,8.738-.242a3.725,3.725,0,0,1-1.7.4A3.6,3.6,0,0,1,4.223-.992,4.555,4.555,0,0,1,3.184-4.164v-.2a4.479,4.479,0,0,1,1.031-3.09,3.571,3.571,0,0,1,2.813-1.16,3.473,3.473,0,0,1,2.457.879,3.148,3.148,0,0,1,1,2.309H8.691a1.738,1.738,0,0,0-.5-1.2,1.6,1.6,0,0,0-1.184-.469,1.671,1.671,0,0,0-1.422.668,3.408,3.408,0,0,0-.508,2.027v.3a3.465,3.465,0,0,0,.5,2.051A1.669,1.669,0,0,0,7.012-1.359ZM13.934,0h-1.9V-8.453h1.9ZM11.918-10.648a1.008,1.008,0,0,1,.277-.727,1.048,1.048,0,0,1,.793-.289,1.061,1.061,0,0,1,.8.289,1,1,0,0,1,.281.727.977.977,0,0,1-.281.715,1.069,1.069,0,0,1-.8.285,1.056,1.056,0,0,1-.793-.285A.984.984,0,0,1,11.918-10.648ZM15.645-4.3a4.984,4.984,0,0,1,.492-2.238A3.6,3.6,0,0,1,17.52-8.074a3.9,3.9,0,0,1,2.047-.535,3.692,3.692,0,0,1,2.777,1.1A4.333,4.333,0,0,1,23.5-4.586l.008.445a5.029,5.029,0,0,1-.48,2.234A3.551,3.551,0,0,1,21.648-.383a3.925,3.925,0,0,1-2.066.539,3.667,3.667,0,0,1-2.863-1.191,4.563,4.563,0,0,1-1.074-3.176Zm1.9.164A3.406,3.406,0,0,0,18.082-2.1a1.752,1.752,0,0,0,1.5.738,1.733,1.733,0,0,0,1.5-.75,3.762,3.762,0,0,0,.535-2.2,3.362,3.362,0,0,0-.551-2.031,1.759,1.759,0,0,0-1.5-.75,1.743,1.743,0,0,0-1.477.738A3.691,3.691,0,0,0,17.543-4.141ZM20.09-12h2.164L20.09-9.633H18.566Zm6.781,3.547.055.977a3.039,3.039,0,0,1,2.461-1.133q2.641,0,2.688,3.023V0h-1.9V-5.477a1.741,1.741,0,0,0-.348-1.191,1.462,1.462,0,0,0-1.137-.387A1.829,1.829,0,0,0,26.98-6.016V0h-1.9V-8.453Zm-50.7,14,.055.977a3.039,3.039,0,0,1,2.461-1.133q2.641,0,2.688,3.023V14h-1.9V8.523a1.741,1.741,0,0,0-.348-1.191A1.462,1.462,0,0,0-22,6.945a1.829,1.829,0,0,0-1.711,1.039V14h-1.9V5.547Zm12.258,7.625a2.944,2.944,0,0,1-2.375.984,2.624,2.624,0,0,1-2.082-.8,3.423,3.423,0,0,1-.707-2.328V5.547h1.9V11q0,1.609,1.336,1.609a1.876,1.876,0,0,0,1.867-.992V5.547h1.9V14H-11.52Zm7.242-.531a1.716,1.716,0,0,0,1.18-.414,1.415,1.415,0,0,0,.5-1.023H-.855a2.789,2.789,0,0,1-.492,1.473A3.228,3.228,0,0,1-2.6,13.758a3.725,3.725,0,0,1-1.7.4,3.6,3.6,0,0,1-2.812-1.148A4.555,4.555,0,0,1-8.152,9.836v-.2a4.479,4.479,0,0,1,1.031-3.09,3.571,3.571,0,0,1,2.813-1.16,3.473,3.473,0,0,1,2.457.879,3.148,3.148,0,0,1,1,2.309H-2.645a1.738,1.738,0,0,0-.5-1.2,1.6,1.6,0,0,0-1.184-.469,1.671,1.671,0,0,0-1.422.668,3.408,3.408,0,0,0-.508,2.027v.3a3.465,3.465,0,0,0,.5,2.051A1.669,1.669,0,0,0-4.324,12.641ZM2.6,14H.7V2H2.6Zm5.789.156A3.928,3.928,0,0,1,5.461,13.02,4.124,4.124,0,0,1,4.34,9.992V9.758A5.072,5.072,0,0,1,4.828,7.5,3.716,3.716,0,0,1,6.2,5.945a3.625,3.625,0,0,1,1.969-.555,3.318,3.318,0,0,1,2.668,1.1,4.658,4.658,0,0,1,.941,3.117v.766H6.254a2.539,2.539,0,0,0,.7,1.656,2.1,2.1,0,0,0,1.543.609,2.571,2.571,0,0,0,2.125-1.055l1.023.977a3.418,3.418,0,0,1-1.355,1.176A4.244,4.244,0,0,1,8.387,14.156ZM8.16,6.914A1.6,1.6,0,0,0,6.9,7.461a2.835,2.835,0,0,0-.613,1.523H9.9V8.844A2.307,2.307,0,0,0,9.395,7.4,1.586,1.586,0,0,0,8.16,6.914ZM18.3,14a2.93,2.93,0,0,1-.219-.789,2.955,2.955,0,0,1-2.219.945,2.982,2.982,0,0,1-2.078-.727,2.325,2.325,0,0,1-.8-1.8,2.4,2.4,0,0,1,1-2.074,4.865,4.865,0,0,1,2.871-.723H18.02V8.281a1.481,1.481,0,0,0-.367-1.051,1.456,1.456,0,0,0-1.117-.395,1.672,1.672,0,0,0-1.062.324,1,1,0,0,0-.414.824h-1.9a2.107,2.107,0,0,1,.461-1.3,3.071,3.071,0,0,1,1.254-.949,4.4,4.4,0,0,1,1.77-.344,3.547,3.547,0,0,1,2.367.746,2.661,2.661,0,0,1,.906,2.1v3.813a4.321,4.321,0,0,0,.32,1.82V14Zm-2.086-1.367a2.159,2.159,0,0,0,1.059-.273,1.827,1.827,0,0,0,.746-.734V10.031H17a2.8,2.8,0,0,0-1.586.367,1.189,1.189,0,0,0-.531,1.039,1.109,1.109,0,0,0,.363.871A1.407,1.407,0,0,0,16.215,12.633ZM26.332,7.281a4.7,4.7,0,0,0-.773-.062,1.741,1.741,0,0,0-1.758,1V14H21.9V5.547h1.813l.047.945a2.139,2.139,0,0,1,1.906-1.1,1.777,1.777,0,0,1,.672.109Z" transform="translate(1279.885 3233.749)" fill="#12263f"/>
                  <path id="Trazado_883096" data-name="Trazado 883096" d="M5.854-3.809H2.35v2.625h4.1V0H.867V-8.531H6.4v1.2H2.35V-4.98h3.5ZM9.029,0H7.605V-9H9.029Zm4.342.117a2.946,2.946,0,0,1-2.194-.853,3.093,3.093,0,0,1-.841-2.271v-.176a3.8,3.8,0,0,1,.366-1.7A2.787,2.787,0,0,1,11.73-6.041a2.719,2.719,0,0,1,1.477-.416,2.488,2.488,0,0,1,2,.826,3.494,3.494,0,0,1,.706,2.338v.574H11.771A1.9,1.9,0,0,0,12.3-1.477a1.574,1.574,0,0,0,1.157.457,1.928,1.928,0,0,0,1.594-.791l.768.732A2.563,2.563,0,0,1,14.8-.2,3.183,3.183,0,0,1,13.371.117ZM13.2-5.314a1.2,1.2,0,0,0-.946.41,2.126,2.126,0,0,0-.46,1.143h2.713v-.105a1.731,1.731,0,0,0-.381-1.081A1.19,1.19,0,0,0,13.2-5.314ZM19.623-1.02a1.287,1.287,0,0,0,.885-.311,1.061,1.061,0,0,0,.375-.768h1.342a2.091,2.091,0,0,1-.369,1.1,2.421,2.421,0,0,1-.937.812,2.794,2.794,0,0,1-1.277.3,2.7,2.7,0,0,1-2.109-.861,3.416,3.416,0,0,1-.779-2.379V-3.27a3.359,3.359,0,0,1,.773-2.317,2.678,2.678,0,0,1,2.109-.87,2.6,2.6,0,0,1,1.843.659,2.361,2.361,0,0,1,.747,1.731H20.883a1.3,1.3,0,0,0-.372-.9,1.2,1.2,0,0,0-.888-.352,1.253,1.253,0,0,0-1.066.5,2.556,2.556,0,0,0-.381,1.521v.229a2.6,2.6,0,0,0,.372,1.538A1.252,1.252,0,0,0,19.623-1.02Zm5.461-6.861V-6.34H26.2v1.055H25.084v3.539a.779.779,0,0,0,.144.524.666.666,0,0,0,.513.161,2.193,2.193,0,0,0,.5-.059v1.1A3.507,3.507,0,0,1,25.3.117q-1.641,0-1.641-1.811V-5.285H22.617V-6.34H23.66V-7.881Zm5.525,2.842a3.523,3.523,0,0,0-.58-.047,1.306,1.306,0,0,0-1.318.75V0H27.287V-6.34h1.359l.035.709a1.6,1.6,0,0,1,1.43-.826,1.333,1.333,0,0,1,.5.082Zm.422,1.811A3.738,3.738,0,0,1,31.4-4.907a2.7,2.7,0,0,1,1.037-1.148,2.922,2.922,0,0,1,1.535-.4,2.769,2.769,0,0,1,2.083.826,3.249,3.249,0,0,1,.864,2.191l.006.334a3.772,3.772,0,0,1-.36,1.676A2.664,2.664,0,0,1,35.534-.287a2.944,2.944,0,0,1-1.55.4,2.75,2.75,0,0,1-2.147-.894,3.422,3.422,0,0,1-.806-2.382Zm1.424.123a2.555,2.555,0,0,0,.4,1.532,1.314,1.314,0,0,0,1.125.554,1.3,1.3,0,0,0,1.122-.562,2.822,2.822,0,0,0,.4-1.646,2.522,2.522,0,0,0-.413-1.523,1.319,1.319,0,0,0-1.122-.562,1.307,1.307,0,0,0-1.107.554A2.768,2.768,0,0,0,32.455-3.105Zm7-3.234.041.732a2.28,2.28,0,0,1,1.846-.85q1.98,0,2.016,2.268V0H41.93V-4.107A1.306,1.306,0,0,0,41.669-5a1.1,1.1,0,0,0-.853-.29,1.372,1.372,0,0,0-1.283.779V0H38.109V-6.34ZM47.6.117A2.946,2.946,0,0,1,45.4-.735a3.093,3.093,0,0,1-.841-2.271v-.176a3.8,3.8,0,0,1,.366-1.7,2.787,2.787,0,0,1,1.028-1.163,2.719,2.719,0,0,1,1.477-.416,2.488,2.488,0,0,1,2,.826,3.494,3.494,0,0,1,.706,2.338v.574H46a1.9,1.9,0,0,0,.524,1.242,1.574,1.574,0,0,0,1.157.457,1.928,1.928,0,0,0,1.594-.791l.768.732A2.563,2.563,0,0,1,49.022-.2,3.183,3.183,0,0,1,47.6.117Zm-.17-5.432a1.2,1.2,0,0,0-.946.41,2.126,2.126,0,0,0-.46,1.143h2.713v-.105a1.731,1.731,0,0,0-.381-1.081A1.19,1.19,0,0,0,47.426-5.314ZM54.8-1.723a.645.645,0,0,0-.313-.58,3.334,3.334,0,0,0-1.04-.352,5.346,5.346,0,0,1-1.213-.387,1.619,1.619,0,0,1-1.066-1.494,1.688,1.688,0,0,1,.691-1.371,2.733,2.733,0,0,1,1.758-.551,2.844,2.844,0,0,1,1.837.563,1.785,1.785,0,0,1,.7,1.459H54.727a.877.877,0,0,0-.3-.683,1.168,1.168,0,0,0-.809-.272,1.262,1.262,0,0,0-.765.217.683.683,0,0,0-.3.58.577.577,0,0,0,.275.51,3.787,3.787,0,0,0,1.113.366,5.27,5.27,0,0,1,1.315.439,1.863,1.863,0,0,1,.709.612A1.561,1.561,0,0,1,56.2-1.8a1.652,1.652,0,0,1-.709,1.386,3.023,3.023,0,0,1-1.857.53,3.278,3.278,0,0,1-1.389-.281,2.285,2.285,0,0,1-.949-.773A1.831,1.831,0,0,1,50.953-2h1.383a1,1,0,0,0,.381.776,1.48,1.48,0,0,0,.932.272,1.44,1.44,0,0,0,.855-.214A.662.662,0,0,0,54.8-1.723Zm5.361-1.494a3.769,3.769,0,0,1,.68-2.353,2.178,2.178,0,0,1,1.822-.888,2.069,2.069,0,0,1,1.629.7V-9h1.424V0H64.424l-.07-.656a2.1,2.1,0,0,1-1.705.773,2.166,2.166,0,0,1-1.8-.9A3.907,3.907,0,0,1,60.158-3.217Zm1.424.123a2.639,2.639,0,0,0,.372,1.509,1.207,1.207,0,0,0,1.058.542,1.345,1.345,0,0,0,1.277-.779V-4.529a1.324,1.324,0,0,0-1.266-.762,1.216,1.216,0,0,0-1.066.548A2.939,2.939,0,0,0,61.582-3.094ZM69.99.117A2.946,2.946,0,0,1,67.8-.735a3.093,3.093,0,0,1-.841-2.271v-.176a3.8,3.8,0,0,1,.366-1.7A2.787,2.787,0,0,1,68.35-6.041a2.719,2.719,0,0,1,1.477-.416,2.488,2.488,0,0,1,2,.826,3.494,3.494,0,0,1,.706,2.338v.574H68.391a1.9,1.9,0,0,0,.524,1.242,1.574,1.574,0,0,0,1.157.457,1.928,1.928,0,0,0,1.594-.791l.768.732A2.563,2.563,0,0,1,71.417-.2,3.183,3.183,0,0,1,69.99.117Zm-.17-5.432a1.2,1.2,0,0,0-.946.41,2.126,2.126,0,0,0-.46,1.143h2.713v-.105a1.731,1.731,0,0,0-.381-1.081A1.19,1.19,0,0,0,69.82-5.314ZM78.861-1.8,80.2-6.34h1.471L79.477,0H78.24L76.025-6.34H77.5Zm7.4,1.8A2.2,2.2,0,0,1,86.1-.592a2.216,2.216,0,0,1-1.664.709,2.237,2.237,0,0,1-1.559-.545,1.743,1.743,0,0,1-.6-1.348,1.8,1.8,0,0,1,.753-1.556,3.649,3.649,0,0,1,2.153-.542h.873v-.416a1.11,1.11,0,0,0-.275-.788,1.092,1.092,0,0,0-.838-.3,1.254,1.254,0,0,0-.8.243.753.753,0,0,0-.311.618H82.406a1.58,1.58,0,0,1,.346-.976,2.3,2.3,0,0,1,.94-.712,3.3,3.3,0,0,1,1.327-.258,2.66,2.66,0,0,1,1.775.56,2,2,0,0,1,.68,1.573v2.859A3.241,3.241,0,0,0,87.715-.1V0ZM84.7-1.025a1.62,1.62,0,0,0,.794-.205,1.37,1.37,0,0,0,.56-.551v-1.2h-.768a2.1,2.1,0,0,0-1.189.275.892.892,0,0,0-.4.779.832.832,0,0,0,.272.653A1.055,1.055,0,0,0,84.7-1.025ZM90.48,0H89.057V-9H90.48Zm4.342.117a2.946,2.946,0,0,1-2.194-.853,3.093,3.093,0,0,1-.841-2.271v-.176a3.8,3.8,0,0,1,.366-1.7,2.787,2.787,0,0,1,1.028-1.163,2.719,2.719,0,0,1,1.477-.416,2.488,2.488,0,0,1,2,.826,3.494,3.494,0,0,1,.706,2.338v.574H93.223a1.9,1.9,0,0,0,.524,1.242A1.574,1.574,0,0,0,94.9-1.02,1.928,1.928,0,0,0,96.5-1.811l.768.732A2.563,2.563,0,0,1,96.249-.2,3.183,3.183,0,0,1,94.822.117Zm-.17-5.432a1.2,1.2,0,0,0-.946.41,2.126,2.126,0,0,0-.46,1.143h2.713v-.105a1.731,1.731,0,0,0-.381-1.081A1.19,1.19,0,0,0,94.652-5.314ZM99.791-6.34l.041.732a2.28,2.28,0,0,1,1.846-.85q1.98,0,2.016,2.268V0H102.27V-4.107A1.306,1.306,0,0,0,102.009-5a1.1,1.1,0,0,0-.853-.29,1.372,1.372,0,0,0-1.283.779V0H98.449V-6.34Zm7.957,5.32a1.287,1.287,0,0,0,.885-.311,1.061,1.061,0,0,0,.375-.768h1.342a2.091,2.091,0,0,1-.369,1.1,2.421,2.421,0,0,1-.937.812,2.794,2.794,0,0,1-1.277.3,2.7,2.7,0,0,1-2.109-.861,3.416,3.416,0,0,1-.779-2.379V-3.27a3.359,3.359,0,0,1,.773-2.317,2.678,2.678,0,0,1,2.109-.87A2.6,2.6,0,0,1,109.6-5.8a2.361,2.361,0,0,1,.747,1.731h-1.342a1.3,1.3,0,0,0-.372-.9,1.2,1.2,0,0,0-.888-.352,1.253,1.253,0,0,0-1.066.5,2.556,2.556,0,0,0-.381,1.521v.229a2.6,2.6,0,0,0,.372,1.538A1.252,1.252,0,0,0,107.748-1.02ZM112.939,0h-1.424V-6.34h1.424Zm-1.512-7.986a.756.756,0,0,1,.208-.545.786.786,0,0,1,.595-.217.8.8,0,0,1,.6.217.75.75,0,0,1,.211.545.733.733,0,0,1-.211.536.8.8,0,0,1-.6.214.792.792,0,0,1-.595-.214A.738.738,0,0,1,111.428-7.986ZM118.277,0a2.2,2.2,0,0,1-.164-.592,2.216,2.216,0,0,1-1.664.709,2.237,2.237,0,0,1-1.559-.545,1.743,1.743,0,0,1-.6-1.348,1.8,1.8,0,0,1,.753-1.556,3.649,3.649,0,0,1,2.153-.542h.873v-.416a1.11,1.11,0,0,0-.275-.788,1.092,1.092,0,0,0-.838-.3,1.254,1.254,0,0,0-.8.243.753.753,0,0,0-.311.618h-1.424a1.58,1.58,0,0,1,.346-.976,2.3,2.3,0,0,1,.94-.712,3.3,3.3,0,0,1,1.327-.258,2.66,2.66,0,0,1,1.775.56,2,2,0,0,1,.68,1.573v2.859A3.241,3.241,0,0,0,119.73-.1V0Zm-1.564-1.025a1.62,1.62,0,0,0,.794-.205,1.37,1.37,0,0,0,.56-.551v-1.2H117.3a2.1,2.1,0,0,0-1.189.275.892.892,0,0,0-.4.779.832.832,0,0,0,.272.653A1.055,1.055,0,0,0,116.713-1.025Zm5.156-.475a.813.813,0,0,1,.615.226.784.784,0,0,1,.217.565.756.756,0,0,1-.217.554.826.826,0,0,1-.615.22.828.828,0,0,1-.6-.217.743.743,0,0,1-.223-.557.784.784,0,0,1,.217-.565A.805.805,0,0,1,121.869-1.5ZM2.35,10.83V14H.867V5.469H4.131A3.3,3.3,0,0,1,6.4,6.213a2.5,2.5,0,0,1,.841,1.969,2.418,2.418,0,0,1-.823,1.951,3.463,3.463,0,0,1-2.306.7Zm0-1.189H4.131a1.754,1.754,0,0,0,1.207-.372,1.367,1.367,0,0,0,.416-1.075,1.475,1.475,0,0,0-.422-1.1,1.626,1.626,0,0,0-1.16-.425H2.35Zm5.707,1.131a3.738,3.738,0,0,1,.369-1.679A2.7,2.7,0,0,1,9.463,7.944,2.922,2.922,0,0,1,11,7.543a2.769,2.769,0,0,1,2.083.826,3.249,3.249,0,0,1,.864,2.191l.006.334a3.772,3.772,0,0,1-.36,1.676,2.664,2.664,0,0,1-1.031,1.143,2.944,2.944,0,0,1-1.55.4,2.75,2.75,0,0,1-2.147-.894,3.422,3.422,0,0,1-.806-2.382Zm1.424.123a2.555,2.555,0,0,0,.4,1.532,1.314,1.314,0,0,0,1.125.554,1.3,1.3,0,0,0,1.122-.562,2.822,2.822,0,0,0,.4-1.646,2.522,2.522,0,0,0-.413-1.523,1.392,1.392,0,0,0-2.229-.009A2.768,2.768,0,0,0,9.48,10.895ZM17.76,12.98a1.287,1.287,0,0,0,.885-.311,1.061,1.061,0,0,0,.375-.768h1.342a2.091,2.091,0,0,1-.369,1.1,2.421,2.421,0,0,1-.937.812,2.794,2.794,0,0,1-1.277.3,2.7,2.7,0,0,1-2.109-.861,3.416,3.416,0,0,1-.779-2.379V10.73a3.359,3.359,0,0,1,.773-2.317,2.678,2.678,0,0,1,2.109-.87,2.6,2.6,0,0,1,1.843.659,2.361,2.361,0,0,1,.747,1.731H19.02a1.3,1.3,0,0,0-.372-.9,1.2,1.2,0,0,0-.888-.352,1.253,1.253,0,0,0-1.066.5,2.556,2.556,0,0,0-.381,1.521v.229a2.6,2.6,0,0,0,.372,1.538A1.252,1.252,0,0,0,17.76,12.98ZM25.225,14a2.2,2.2,0,0,1-.164-.592,2.4,2.4,0,0,1-3.223.164,1.743,1.743,0,0,1-.6-1.348,1.8,1.8,0,0,1,.753-1.556,3.649,3.649,0,0,1,2.153-.542h.873V9.711a1.11,1.11,0,0,0-.275-.788,1.092,1.092,0,0,0-.838-.3,1.254,1.254,0,0,0-.8.243.753.753,0,0,0-.311.618H21.369a1.58,1.58,0,0,1,.346-.976,2.3,2.3,0,0,1,.94-.712,3.3,3.3,0,0,1,1.327-.258,2.66,2.66,0,0,1,1.775.56,2,2,0,0,1,.68,1.573v2.859a3.241,3.241,0,0,0,.24,1.365V14ZM23.66,12.975a1.62,1.62,0,0,0,.794-.205,1.37,1.37,0,0,0,.56-.551v-1.2h-.768a2.1,2.1,0,0,0-1.189.275.892.892,0,0,0-.4.779.832.832,0,0,0,.272.653A1.055,1.055,0,0,0,23.66,12.975Zm10.049,1.143a2.946,2.946,0,0,1-2.194-.853,3.093,3.093,0,0,1-.841-2.271v-.176a3.8,3.8,0,0,1,.366-1.7,2.787,2.787,0,0,1,1.028-1.163,2.719,2.719,0,0,1,1.477-.416,2.488,2.488,0,0,1,2,.826,3.494,3.494,0,0,1,.706,2.338v.574H32.109a1.9,1.9,0,0,0,.524,1.242,1.574,1.574,0,0,0,1.157.457,1.928,1.928,0,0,0,1.594-.791l.768.732a2.563,2.563,0,0,1-1.017.882A3.183,3.183,0,0,1,33.709,14.117Zm-.17-5.432a1.2,1.2,0,0,0-.946.41,2.126,2.126,0,0,0-.46,1.143h2.713v-.105a1.731,1.731,0,0,0-.381-1.081A1.19,1.19,0,0,0,33.539,8.686ZM38.678,7.66l.041.732a2.28,2.28,0,0,1,1.846-.85q1.98,0,2.016,2.268V14H41.156V9.893A1.306,1.306,0,0,0,40.9,9a1.1,1.1,0,0,0-.853-.29,1.372,1.372,0,0,0-1.283.779V14H37.336V7.66Zm8.145,6.457a2.946,2.946,0,0,1-2.194-.853,3.093,3.093,0,0,1-.841-2.271v-.176a3.8,3.8,0,0,1,.366-1.7,2.787,2.787,0,0,1,1.028-1.163,2.719,2.719,0,0,1,1.477-.416,2.488,2.488,0,0,1,2,.826,3.494,3.494,0,0,1,.706,2.338v.574H45.223a1.9,1.9,0,0,0,.524,1.242,1.574,1.574,0,0,0,1.157.457,1.928,1.928,0,0,0,1.594-.791l.768.732a2.563,2.563,0,0,1-1.017.882A3.183,3.183,0,0,1,46.822,14.117Zm-.17-5.432a1.2,1.2,0,0,0-.946.41,2.126,2.126,0,0,0-.46,1.143h2.713v-.105a1.731,1.731,0,0,0-.381-1.081A1.19,1.19,0,0,0,46.652,8.686Zm7.137.275a3.523,3.523,0,0,0-.58-.047,1.306,1.306,0,0,0-1.318.75V14H50.467V7.66h1.359l.035.709a1.6,1.6,0,0,1,1.43-.826,1.333,1.333,0,0,1,.5.082Zm.65,1.822a3.708,3.708,0,0,1,.694-2.358,2.229,2.229,0,0,1,1.843-.882,2.088,2.088,0,0,1,1.705.756l.064-.639h1.283v6.146a2.555,2.555,0,0,1-.776,1.969,2.957,2.957,0,0,1-2.095.721,3.376,3.376,0,0,1-1.362-.29,2.421,2.421,0,0,1-1.011-.759l.674-.855a2.035,2.035,0,0,0,1.617.779,1.573,1.573,0,0,0,1.119-.384,1.471,1.471,0,0,0,.41-1.128v-.428a2.1,2.1,0,0,1-1.641.686,2.223,2.223,0,0,1-1.819-.885A3.828,3.828,0,0,1,54.439,10.783Zm1.418.123a2.552,2.552,0,0,0,.39,1.5,1.253,1.253,0,0,0,1.081.548,1.37,1.37,0,0,0,1.277-.738V9.43a1.351,1.351,0,0,0-1.266-.721,1.258,1.258,0,0,0-1.093.557A2.858,2.858,0,0,0,55.857,10.906ZM63.023,14H61.6V7.66h1.424Zm-.27-8.959h1.623L62.754,6.816H61.611ZM68.432,14a2.2,2.2,0,0,1-.164-.592,2.4,2.4,0,0,1-3.223.164,1.743,1.743,0,0,1-.6-1.348,1.8,1.8,0,0,1,.753-1.556,3.649,3.649,0,0,1,2.153-.542h.873V9.711a1.11,1.11,0,0,0-.275-.788,1.092,1.092,0,0,0-.838-.3,1.254,1.254,0,0,0-.8.243A.753.753,0,0,0,66,9.488H64.576a1.58,1.58,0,0,1,.346-.976,2.3,2.3,0,0,1,.94-.712,3.3,3.3,0,0,1,1.327-.258,2.66,2.66,0,0,1,1.775.56,2,2,0,0,1,.68,1.573v2.859a3.241,3.241,0,0,0,.24,1.365V14Zm-1.564-1.025a1.62,1.62,0,0,0,.794-.205,1.37,1.37,0,0,0,.56-.551v-1.2h-.768a2.1,2.1,0,0,0-1.189.275.892.892,0,0,0-.4.779.832.832,0,0,0,.272.653A1.055,1.055,0,0,0,66.867,12.975Zm5.156-.475a.813.813,0,0,1,.615.226.784.784,0,0,1,.217.565.756.756,0,0,1-.217.554.96.96,0,0,1-1.219,0,.743.743,0,0,1-.223-.557.784.784,0,0,1,.217-.565A.805.805,0,0,1,72.023,12.5ZM2.35,26.816H6.223V28H.867V19.469H2.35Zm4.605-2.045a3.738,3.738,0,0,1,.369-1.679,2.7,2.7,0,0,1,1.037-1.148,2.922,2.922,0,0,1,1.535-.4,2.769,2.769,0,0,1,2.083.826,3.249,3.249,0,0,1,.864,2.191l.006.334a3.772,3.772,0,0,1-.36,1.676,2.664,2.664,0,0,1-1.031,1.143,2.944,2.944,0,0,1-1.55.4,2.75,2.75,0,0,1-2.147-.894,3.422,3.422,0,0,1-.806-2.382Zm1.424.123a2.555,2.555,0,0,0,.4,1.532,1.314,1.314,0,0,0,1.125.554,1.3,1.3,0,0,0,1.122-.562,2.822,2.822,0,0,0,.4-1.646,2.522,2.522,0,0,0-.413-1.523,1.392,1.392,0,0,0-2.229-.009A2.768,2.768,0,0,0,8.379,24.895Zm9.229,1.383a.645.645,0,0,0-.313-.58,3.334,3.334,0,0,0-1.04-.352,5.346,5.346,0,0,1-1.213-.387,1.619,1.619,0,0,1-1.066-1.494,1.688,1.688,0,0,1,.691-1.371,2.733,2.733,0,0,1,1.758-.551,2.844,2.844,0,0,1,1.837.563,1.785,1.785,0,0,1,.7,1.459H17.537a.877.877,0,0,0-.3-.683,1.168,1.168,0,0,0-.809-.272,1.262,1.262,0,0,0-.765.217.683.683,0,0,0-.3.58.577.577,0,0,0,.275.51,3.787,3.787,0,0,0,1.113.366,5.27,5.27,0,0,1,1.315.439,1.863,1.863,0,0,1,.709.612,1.561,1.561,0,0,1,.231.867,1.652,1.652,0,0,1-.709,1.386,3.023,3.023,0,0,1-1.857.53,3.278,3.278,0,0,1-1.389-.281,2.285,2.285,0,0,1-.949-.773A1.831,1.831,0,0,1,13.764,26h1.383a1,1,0,0,0,.381.776,1.48,1.48,0,0,0,.932.272,1.44,1.44,0,0,0,.855-.214A.662.662,0,0,0,17.607,26.277Zm8.42,1.84a2.946,2.946,0,0,1-2.194-.853,3.093,3.093,0,0,1-.841-2.271v-.176a3.8,3.8,0,0,1,.366-1.7,2.787,2.787,0,0,1,1.028-1.163,2.719,2.719,0,0,1,1.477-.416,2.488,2.488,0,0,1,2,.826,3.494,3.494,0,0,1,.706,2.338v.574H24.428a1.9,1.9,0,0,0,.524,1.242,1.574,1.574,0,0,0,1.157.457,1.928,1.928,0,0,0,1.594-.791l.768.732a2.563,2.563,0,0,1-1.017.882A3.183,3.183,0,0,1,26.027,28.117Zm-.17-5.432a1.2,1.2,0,0,0-.946.41,2.126,2.126,0,0,0-.46,1.143h2.713v-.105a1.731,1.731,0,0,0-.381-1.081A1.19,1.19,0,0,0,25.857,22.686ZM31.189,28H29.766V19h1.424Zm4.342.117a2.946,2.946,0,0,1-2.194-.853,3.093,3.093,0,0,1-.841-2.271v-.176a3.8,3.8,0,0,1,.366-1.7,2.787,2.787,0,0,1,1.028-1.163,2.719,2.719,0,0,1,1.477-.416,2.488,2.488,0,0,1,2,.826,3.494,3.494,0,0,1,.706,2.338v.574H33.932a1.9,1.9,0,0,0,.524,1.242,1.574,1.574,0,0,0,1.157.457,1.928,1.928,0,0,0,1.594-.791l.768.732a2.563,2.563,0,0,1-1.017.882A3.183,3.183,0,0,1,35.531,28.117Zm-.17-5.432a1.2,1.2,0,0,0-.946.41,2.126,2.126,0,0,0-.46,1.143h2.713v-.105a1.731,1.731,0,0,0-.381-1.081A1.19,1.19,0,0,0,35.361,22.686Zm5.156-1.025.041.662a2.281,2.281,0,0,1,1.828-.779,1.753,1.753,0,0,1,1.74.973,2.249,2.249,0,0,1,1.945-.973,1.977,1.977,0,0,1,1.562.58,2.554,2.554,0,0,1,.524,1.711V28H46.734V23.875a1.261,1.261,0,0,0-.264-.885,1.154,1.154,0,0,0-.873-.281,1.185,1.185,0,0,0-.794.261,1.375,1.375,0,0,0-.431.683L44.379,28H42.955V23.828a1.016,1.016,0,0,0-1.143-1.119,1.253,1.253,0,0,0-1.213.7V28H39.176V21.66Zm11.895,6.457a2.946,2.946,0,0,1-2.194-.853,3.093,3.093,0,0,1-.841-2.271v-.176a3.8,3.8,0,0,1,.366-1.7,2.787,2.787,0,0,1,1.028-1.163,2.719,2.719,0,0,1,1.477-.416,2.488,2.488,0,0,1,2,.826,3.494,3.494,0,0,1,.706,2.338v.574H50.813a1.9,1.9,0,0,0,.524,1.242,1.574,1.574,0,0,0,1.157.457,1.928,1.928,0,0,0,1.594-.791l.768.732a2.563,2.563,0,0,1-1.017.882A3.183,3.183,0,0,1,52.412,28.117Zm-.17-5.432a1.2,1.2,0,0,0-.946.41,2.126,2.126,0,0,0-.46,1.143h2.713v-.105a1.731,1.731,0,0,0-.381-1.081A1.19,1.19,0,0,0,52.242,22.686Zm5.139-1.025.041.732a2.28,2.28,0,0,1,1.846-.85q1.98,0,2.016,2.268V28H59.859V23.893A1.306,1.306,0,0,0,59.6,23a1.1,1.1,0,0,0-.853-.29,1.372,1.372,0,0,0-1.283.779V28H56.039V21.66Zm7.137-1.541V21.66h1.119v1.055H64.518v3.539a.779.779,0,0,0,.144.524.666.666,0,0,0,.513.161,2.193,2.193,0,0,0,.5-.059v1.1a3.507,3.507,0,0,1-.937.135q-1.641,0-1.641-1.811V22.715H62.051V21.66h1.043V20.119Zm1.764,4.652a3.738,3.738,0,0,1,.369-1.679,2.7,2.7,0,0,1,1.037-1.148,2.922,2.922,0,0,1,1.535-.4,2.769,2.769,0,0,1,2.083.826,3.249,3.249,0,0,1,.864,2.191l.006.334a3.772,3.772,0,0,1-.36,1.676,2.664,2.664,0,0,1-1.031,1.143,2.944,2.944,0,0,1-1.55.4,2.75,2.75,0,0,1-2.147-.894,3.422,3.422,0,0,1-.806-2.382Zm1.424.123a2.555,2.555,0,0,0,.4,1.532,1.314,1.314,0,0,0,1.125.554,1.3,1.3,0,0,0,1.122-.562,2.822,2.822,0,0,0,.4-1.646,2.522,2.522,0,0,0-.413-1.523,1.392,1.392,0,0,0-2.229-.009A2.768,2.768,0,0,0,67.705,24.895Zm9.229,1.383a.645.645,0,0,0-.313-.58,3.334,3.334,0,0,0-1.04-.352,5.346,5.346,0,0,1-1.213-.387A1.619,1.619,0,0,1,73.3,23.465a1.688,1.688,0,0,1,.691-1.371,2.733,2.733,0,0,1,1.758-.551,2.844,2.844,0,0,1,1.837.563,1.785,1.785,0,0,1,.7,1.459H76.863a.877.877,0,0,0-.3-.683,1.168,1.168,0,0,0-.809-.272,1.262,1.262,0,0,0-.765.217.683.683,0,0,0-.3.58.577.577,0,0,0,.275.51,3.787,3.787,0,0,0,1.113.366,5.27,5.27,0,0,1,1.315.439,1.863,1.863,0,0,1,.709.612,1.561,1.561,0,0,1,.231.867,1.652,1.652,0,0,1-.709,1.386,3.023,3.023,0,0,1-1.857.53,3.278,3.278,0,0,1-1.389-.281,2.285,2.285,0,0,1-.949-.773A1.831,1.831,0,0,1,73.09,26h1.383a1,1,0,0,0,.381.776,1.48,1.48,0,0,0,.932.272,1.44,1.44,0,0,0,.855-.214A.662.662,0,0,0,76.934,26.277Zm8.232.7a1.287,1.287,0,0,0,.885-.311,1.061,1.061,0,0,0,.375-.768h1.342a2.091,2.091,0,0,1-.369,1.1,2.421,2.421,0,0,1-.937.812,2.794,2.794,0,0,1-1.277.3,2.7,2.7,0,0,1-2.109-.861,3.416,3.416,0,0,1-.779-2.379V24.73a3.359,3.359,0,0,1,.773-2.317,2.678,2.678,0,0,1,2.109-.87,2.6,2.6,0,0,1,1.843.659,2.361,2.361,0,0,1,.747,1.731H86.426a1.3,1.3,0,0,0-.372-.9,1.2,1.2,0,0,0-.888-.352,1.253,1.253,0,0,0-1.066.5,2.556,2.556,0,0,0-.381,1.521v.229a2.6,2.6,0,0,0,.372,1.538A1.252,1.252,0,0,0,85.166,26.98Zm3.41-2.209a3.738,3.738,0,0,1,.369-1.679,2.7,2.7,0,0,1,1.037-1.148,2.922,2.922,0,0,1,1.535-.4,2.769,2.769,0,0,1,2.083.826,3.249,3.249,0,0,1,.864,2.191l.006.334a3.772,3.772,0,0,1-.36,1.676,2.664,2.664,0,0,1-1.031,1.143,2.944,2.944,0,0,1-1.55.4,2.75,2.75,0,0,1-2.147-.894,3.422,3.422,0,0,1-.806-2.382ZM90,24.895a2.555,2.555,0,0,0,.4,1.532,1.314,1.314,0,0,0,1.125.554,1.3,1.3,0,0,0,1.122-.562,2.822,2.822,0,0,0,.4-1.646,2.522,2.522,0,0,0-.413-1.523,1.392,1.392,0,0,0-2.229-.009A2.768,2.768,0,0,0,90,24.895Zm7-3.234.041.732a2.28,2.28,0,0,1,1.846-.85q1.98,0,2.016,2.268V28H99.475V23.893A1.306,1.306,0,0,0,99.214,23a1.1,1.1,0,0,0-.853-.29,1.372,1.372,0,0,0-1.283.779V28H95.654V21.66Zm8.906,4.617a.645.645,0,0,0-.313-.58,3.334,3.334,0,0,0-1.04-.352,5.346,5.346,0,0,1-1.213-.387,1.619,1.619,0,0,1-1.066-1.494,1.688,1.688,0,0,1,.691-1.371,2.733,2.733,0,0,1,1.758-.551,2.844,2.844,0,0,1,1.837.563,1.785,1.785,0,0,1,.7,1.459h-1.424a.877.877,0,0,0-.3-.683,1.168,1.168,0,0,0-.809-.272,1.262,1.262,0,0,0-.765.217.683.683,0,0,0-.3.58.577.577,0,0,0,.275.51,3.787,3.787,0,0,0,1.113.366,5.27,5.27,0,0,1,1.315.439,1.863,1.863,0,0,1,.709.612,1.561,1.561,0,0,1,.231.867,1.652,1.652,0,0,1-.709,1.386,3.023,3.023,0,0,1-1.857.53,3.278,3.278,0,0,1-1.389-.281,2.285,2.285,0,0,1-.949-.773,1.831,1.831,0,0,1-.34-1.061h1.383a1,1,0,0,0,.381.776,1.48,1.48,0,0,0,.932.272,1.44,1.44,0,0,0,.855-.214A.662.662,0,0,0,105.9,26.277Zm5.432,1.84a2.946,2.946,0,0,1-2.194-.853,3.093,3.093,0,0,1-.841-2.271v-.176a3.8,3.8,0,0,1,.366-1.7,2.787,2.787,0,0,1,1.028-1.163,2.719,2.719,0,0,1,1.477-.416,2.488,2.488,0,0,1,2,.826,3.494,3.494,0,0,1,.706,2.338v.574h-4.143a1.9,1.9,0,0,0,.524,1.242,1.574,1.574,0,0,0,1.157.457,1.928,1.928,0,0,0,1.594-.791l.768.732a2.563,2.563,0,0,1-1.017.882A3.183,3.183,0,0,1,111.334,28.117Zm-.17-5.432a1.2,1.2,0,0,0-.946.41,2.126,2.126,0,0,0-.46,1.143h2.713v-.105a1.731,1.731,0,0,0-.381-1.081A1.19,1.19,0,0,0,111.164,22.686Zm7.137.275a3.523,3.523,0,0,0-.58-.047,1.306,1.306,0,0,0-1.318.75V28h-1.424V21.66h1.359l.035.709a1.6,1.6,0,0,1,1.43-.826,1.333,1.333,0,0,1,.5.082Zm3.24,3.234,1.342-4.535h1.471l-2.2,6.34H120.92l-2.215-6.34h1.477Zm7.4,1.8a2.2,2.2,0,0,1-.164-.592,2.4,2.4,0,0,1-3.223.164,1.743,1.743,0,0,1-.6-1.348,1.8,1.8,0,0,1,.753-1.556,3.649,3.649,0,0,1,2.153-.542h.873v-.416a1.11,1.11,0,0,0-.275-.788,1.092,1.092,0,0,0-.838-.3,1.254,1.254,0,0,0-.8.243.753.753,0,0,0-.311.618h-1.424a1.58,1.58,0,0,1,.346-.976,2.3,2.3,0,0,1,.94-.712,3.3,3.3,0,0,1,1.327-.258,2.66,2.66,0,0,1,1.775.56,2,2,0,0,1,.68,1.573v2.859a3.241,3.241,0,0,0,.24,1.365V28Zm-1.564-1.025a1.62,1.62,0,0,0,.794-.205,1.37,1.37,0,0,0,.56-.551v-1.2h-.768a2.1,2.1,0,0,0-1.189.275.892.892,0,0,0-.4.779.832.832,0,0,0,.272.653A1.055,1.055,0,0,0,127.377,26.975Zm5.59-5.314.041.732a2.28,2.28,0,0,1,1.846-.85q1.98,0,2.016,2.268V28h-1.424V23.893a1.306,1.306,0,0,0-.261-.894,1.1,1.1,0,0,0-.853-.29,1.372,1.372,0,0,0-1.283.779V28h-1.424V21.66ZM2.244,42H.82V35.66H2.244ZM.732,34.014a.756.756,0,0,1,.208-.545.786.786,0,0,1,.595-.217.8.8,0,0,1,.6.217.75.75,0,0,1,.211.545.733.733,0,0,1-.211.536.8.8,0,0,1-.6.214A.792.792,0,0,1,.94,34.55.738.738,0,0,1,.732,34.014Zm2.795,4.77a3.769,3.769,0,0,1,.68-2.353,2.178,2.178,0,0,1,1.822-.888,2.069,2.069,0,0,1,1.629.7V33H9.082v9H7.793l-.07-.656a2.1,2.1,0,0,1-1.705.773,2.166,2.166,0,0,1-1.8-.9A3.907,3.907,0,0,1,3.527,38.783Zm1.424.123a2.639,2.639,0,0,0,.372,1.509,1.207,1.207,0,0,0,1.058.542,1.345,1.345,0,0,0,1.277-.779V37.471a1.324,1.324,0,0,0-1.266-.762,1.216,1.216,0,0,0-1.066.548A2.939,2.939,0,0,0,4.951,38.906Zm8.408,3.211a2.946,2.946,0,0,1-2.194-.853,3.093,3.093,0,0,1-.841-2.271v-.176a3.8,3.8,0,0,1,.366-1.7,2.787,2.787,0,0,1,1.028-1.163,2.719,2.719,0,0,1,1.477-.416,2.488,2.488,0,0,1,2,.826,3.494,3.494,0,0,1,.706,2.338v.574H11.76a1.9,1.9,0,0,0,.524,1.242,1.574,1.574,0,0,0,1.157.457,1.928,1.928,0,0,0,1.594-.791l.768.732a2.563,2.563,0,0,1-1.017.882A3.183,3.183,0,0,1,13.359,42.117Zm-.17-5.432a1.2,1.2,0,0,0-.946.41,2.126,2.126,0,0,0-.46,1.143H14.5v-.105a1.731,1.731,0,0,0-.381-1.081A1.19,1.19,0,0,0,13.189,36.686Zm5.139-1.025.041.732a2.28,2.28,0,0,1,1.846-.85q1.98,0,2.016,2.268V42H20.807V37.893A1.306,1.306,0,0,0,20.546,37a1.1,1.1,0,0,0-.853-.29,1.372,1.372,0,0,0-1.283.779V42H16.986V35.66Zm7.137-1.541V35.66h1.119v1.055H25.465v3.539a.779.779,0,0,0,.144.524.666.666,0,0,0,.513.161,2.193,2.193,0,0,0,.5-.059v1.1a3.507,3.507,0,0,1-.937.135q-1.641,0-1.641-1.811V36.715H23V35.66h1.043V34.119ZM29.186,42H27.762V35.66h1.424Zm-1.512-7.986a.756.756,0,0,1,.208-.545.786.786,0,0,1,.595-.217.8.8,0,0,1,.6.217.75.75,0,0,1,.211.545.733.733,0,0,1-.211.536.8.8,0,0,1-.6.214.792.792,0,0,1-.595-.214A.738.738,0,0,1,27.674,34.014Zm2.795,4.77a3.769,3.769,0,0,1,.68-2.353,2.178,2.178,0,0,1,1.822-.888,2.069,2.069,0,0,1,1.629.7V33h1.424v9H34.734l-.07-.656a2.1,2.1,0,0,1-1.705.773,2.166,2.166,0,0,1-1.8-.9A3.907,3.907,0,0,1,30.469,38.783Zm1.424.123a2.639,2.639,0,0,0,.372,1.509,1.207,1.207,0,0,0,1.058.542,1.345,1.345,0,0,0,1.277-.779V37.471a1.324,1.324,0,0,0-1.266-.762,1.216,1.216,0,0,0-1.066.548A2.939,2.939,0,0,0,31.893,38.906ZM41.3,42a2.2,2.2,0,0,1-.164-.592,2.4,2.4,0,0,1-3.223.164,1.743,1.743,0,0,1-.6-1.348,1.8,1.8,0,0,1,.753-1.556,3.649,3.649,0,0,1,2.153-.542h.873v-.416a1.11,1.11,0,0,0-.275-.788,1.092,1.092,0,0,0-.838-.3,1.254,1.254,0,0,0-.8.243.753.753,0,0,0-.311.618H37.441a1.58,1.58,0,0,1,.346-.976,2.3,2.3,0,0,1,.94-.712,3.3,3.3,0,0,1,1.327-.258,2.66,2.66,0,0,1,1.775.56,2,2,0,0,1,.68,1.573v2.859a3.241,3.241,0,0,0,.24,1.365V42Zm-1.564-1.025a1.62,1.62,0,0,0,.794-.205,1.37,1.37,0,0,0,.56-.551v-1.2h-.768a2.1,2.1,0,0,0-1.189.275.892.892,0,0,0-.4.779.832.832,0,0,0,.272.653A1.055,1.055,0,0,0,39.732,40.975Zm4-2.191a3.769,3.769,0,0,1,.68-2.353,2.178,2.178,0,0,1,1.822-.888,2.069,2.069,0,0,1,1.629.7V33h1.424v9H48l-.07-.656a2.1,2.1,0,0,1-1.705.773,2.166,2.166,0,0,1-1.8-.9A3.907,3.907,0,0,1,43.734,38.783Zm1.424.123a2.639,2.639,0,0,0,.372,1.509,1.207,1.207,0,0,0,1.058.542,1.345,1.345,0,0,0,1.277-.779V37.471a1.324,1.324,0,0,0-1.266-.762,1.216,1.216,0,0,0-1.066.548A2.939,2.939,0,0,0,45.158,38.906Zm6.5,1.594a.813.813,0,0,1,.615.226.784.784,0,0,1,.217.565.756.756,0,0,1-.217.554.96.96,0,0,1-1.219,0,.743.743,0,0,1-.223-.557.784.784,0,0,1,.217-.565A.805.805,0,0,1,51.662,40.5ZM2.35,54.816H6.223V56H.867V47.469H2.35ZM11.01,56a2.2,2.2,0,0,1-.164-.592,2.216,2.216,0,0,1-1.664.709,2.237,2.237,0,0,1-1.559-.545,1.743,1.743,0,0,1-.6-1.348,1.8,1.8,0,0,1,.753-1.556,3.649,3.649,0,0,1,2.153-.542H10.8v-.416a1.11,1.11,0,0,0-.275-.788,1.092,1.092,0,0,0-.838-.3,1.254,1.254,0,0,0-.8.243.753.753,0,0,0-.311.618H7.154a1.58,1.58,0,0,1,.346-.976,2.3,2.3,0,0,1,.94-.712,3.3,3.3,0,0,1,1.327-.258,2.66,2.66,0,0,1,1.775.56,2,2,0,0,1,.68,1.573v2.859a3.241,3.241,0,0,0,.24,1.365V56ZM9.445,54.975a1.62,1.62,0,0,0,.794-.205,1.37,1.37,0,0,0,.56-.551v-1.2h-.768a2.1,2.1,0,0,0-1.189.275.892.892,0,0,0-.4.779.832.832,0,0,0,.272.653A1.055,1.055,0,0,0,9.445,54.975Zm9.492-.779,1.342-4.535H21.75L19.553,56H18.316L16.1,49.66h1.477Zm6.492,1.922a2.946,2.946,0,0,1-2.194-.853,3.093,3.093,0,0,1-.841-2.271v-.176a3.8,3.8,0,0,1,.366-1.7,2.787,2.787,0,0,1,1.028-1.163,2.719,2.719,0,0,1,1.477-.416,2.488,2.488,0,0,1,2,.826,3.494,3.494,0,0,1,.706,2.338v.574H23.83a1.9,1.9,0,0,0,.524,1.242,1.574,1.574,0,0,0,1.157.457,1.928,1.928,0,0,0,1.594-.791l.768.732a2.563,2.563,0,0,1-1.017.882A3.183,3.183,0,0,1,25.43,56.117Zm-.17-5.432a1.2,1.2,0,0,0-.946.41,2.126,2.126,0,0,0-.46,1.143h2.713v-.105a1.731,1.731,0,0,0-.381-1.081A1.19,1.19,0,0,0,25.26,50.686ZM30.592,56H29.168V47h1.424Zm1.283-3.229a3.738,3.738,0,0,1,.369-1.679,2.7,2.7,0,0,1,1.037-1.148,2.922,2.922,0,0,1,1.535-.4,2.769,2.769,0,0,1,2.083.826,3.249,3.249,0,0,1,.864,2.191l.006.334a3.772,3.772,0,0,1-.36,1.676,2.664,2.664,0,0,1-1.031,1.143,2.944,2.944,0,0,1-1.55.4,2.75,2.75,0,0,1-2.147-.894,3.422,3.422,0,0,1-.806-2.382Zm1.424.123a2.555,2.555,0,0,0,.4,1.532,1.314,1.314,0,0,0,1.125.554,1.3,1.3,0,0,0,1.122-.562,2.822,2.822,0,0,0,.4-1.646,2.522,2.522,0,0,0-.413-1.523,1.392,1.392,0,0,0-2.229-.009A2.768,2.768,0,0,0,33.3,52.895Zm8.279,2.086a1.287,1.287,0,0,0,.885-.311,1.061,1.061,0,0,0,.375-.768H44.18a2.091,2.091,0,0,1-.369,1.1,2.421,2.421,0,0,1-.937.812,2.794,2.794,0,0,1-1.277.3,2.7,2.7,0,0,1-2.109-.861,3.416,3.416,0,0,1-.779-2.379V52.73a3.359,3.359,0,0,1,.773-2.317,2.678,2.678,0,0,1,2.109-.87,2.6,2.6,0,0,1,1.843.659,2.361,2.361,0,0,1,.747,1.731H42.838a1.3,1.3,0,0,0-.372-.9,1.2,1.2,0,0,0-.888-.352,1.253,1.253,0,0,0-1.066.5,2.556,2.556,0,0,0-.381,1.521v.229a2.6,2.6,0,0,0,.372,1.538A1.252,1.252,0,0,0,41.578,54.98ZM46.77,56H45.346V49.66H46.77Zm-1.512-7.986a.756.756,0,0,1,.208-.545.786.786,0,0,1,.595-.217.8.8,0,0,1,.6.217.75.75,0,0,1,.211.545.733.733,0,0,1-.211.536.8.8,0,0,1-.6.214.792.792,0,0,1-.595-.214A.738.738,0,0,1,45.258,48.014Zm2.795,4.77a3.769,3.769,0,0,1,.68-2.353,2.178,2.178,0,0,1,1.822-.888,2.069,2.069,0,0,1,1.629.7V47h1.424v9H52.318l-.07-.656a2.1,2.1,0,0,1-1.705.773,2.166,2.166,0,0,1-1.8-.9A3.907,3.907,0,0,1,48.053,52.783Zm1.424.123a2.639,2.639,0,0,0,.372,1.509,1.207,1.207,0,0,0,1.058.542,1.345,1.345,0,0,0,1.277-.779V51.471a1.324,1.324,0,0,0-1.266-.762,1.216,1.216,0,0,0-1.066.548A2.939,2.939,0,0,0,49.477,52.906ZM58.881,56a2.2,2.2,0,0,1-.164-.592,2.4,2.4,0,0,1-3.223.164,1.743,1.743,0,0,1-.6-1.348,1.8,1.8,0,0,1,.753-1.556,3.649,3.649,0,0,1,2.153-.542h.873v-.416a1.11,1.11,0,0,0-.275-.788,1.092,1.092,0,0,0-.838-.3,1.254,1.254,0,0,0-.8.243.753.753,0,0,0-.311.618H55.025a1.58,1.58,0,0,1,.346-.976,2.3,2.3,0,0,1,.94-.712,3.3,3.3,0,0,1,1.327-.258,2.66,2.66,0,0,1,1.775.56,2,2,0,0,1,.68,1.573v2.859a3.241,3.241,0,0,0,.24,1.365V56Zm-1.564-1.025a1.62,1.62,0,0,0,.794-.205,1.37,1.37,0,0,0,.56-.551v-1.2H57.9a2.1,2.1,0,0,0-1.189.275.892.892,0,0,0-.4.779.832.832,0,0,0,.272.653A1.055,1.055,0,0,0,57.316,54.975Zm4-2.191A3.769,3.769,0,0,1,62,50.431a2.178,2.178,0,0,1,1.822-.888,2.069,2.069,0,0,1,1.629.7V47h1.424v9H65.584l-.07-.656a2.1,2.1,0,0,1-1.705.773,2.166,2.166,0,0,1-1.8-.9A3.907,3.907,0,0,1,61.318,52.783Zm1.424.123a2.639,2.639,0,0,0,.372,1.509,1.207,1.207,0,0,0,1.058.542,1.345,1.345,0,0,0,1.277-.779V51.471a1.324,1.324,0,0,0-1.266-.762,1.216,1.216,0,0,0-1.066.548A2.939,2.939,0,0,0,62.742,52.906Zm8.338-.123a3.769,3.769,0,0,1,.68-2.353,2.178,2.178,0,0,1,1.822-.888,2.069,2.069,0,0,1,1.629.7V47h1.424v9H75.346l-.07-.656a2.1,2.1,0,0,1-1.705.773,2.166,2.166,0,0,1-1.8-.9A3.907,3.907,0,0,1,71.08,52.783Zm1.424.123a2.639,2.639,0,0,0,.372,1.509,1.207,1.207,0,0,0,1.058.542,1.345,1.345,0,0,0,1.277-.779V51.471a1.324,1.324,0,0,0-1.266-.762,1.216,1.216,0,0,0-1.066.548A2.939,2.939,0,0,0,72.5,52.906Zm8.408,3.211a2.946,2.946,0,0,1-2.194-.853,3.093,3.093,0,0,1-.841-2.271v-.176a3.8,3.8,0,0,1,.366-1.7,2.787,2.787,0,0,1,1.028-1.163,2.719,2.719,0,0,1,1.477-.416,2.488,2.488,0,0,1,2,.826,3.494,3.494,0,0,1,.706,2.338v.574H79.313a1.9,1.9,0,0,0,.524,1.242,1.574,1.574,0,0,0,1.157.457,1.928,1.928,0,0,0,1.594-.791l.768.732a2.563,2.563,0,0,1-1.017.882A3.183,3.183,0,0,1,80.912,56.117Zm-.17-5.432a1.2,1.2,0,0,0-.946.41,2.126,2.126,0,0,0-.46,1.143h2.713v-.105a1.731,1.731,0,0,0-.381-1.081A1.19,1.19,0,0,0,80.742,50.686Zm9.369,2.209a3.775,3.775,0,0,1-.668,2.347,2.32,2.32,0,0,1-3.463.19v3.006H84.557V49.66h1.313l.059.645a2.091,2.091,0,0,1,1.705-.762,2.161,2.161,0,0,1,1.819.864,3.875,3.875,0,0,1,.659,2.4Zm-1.418-.123a2.644,2.644,0,0,0-.378-1.506,1.229,1.229,0,0,0-1.081-.557,1.31,1.31,0,0,0-1.254.721v2.813a1.322,1.322,0,0,0,1.266.738,1.227,1.227,0,0,0,1.063-.548A2.911,2.911,0,0,0,88.693,52.771Zm5.414,3.346a2.946,2.946,0,0,1-2.194-.853,3.093,3.093,0,0,1-.841-2.271v-.176a3.8,3.8,0,0,1,.366-1.7,2.787,2.787,0,0,1,1.028-1.163,2.719,2.719,0,0,1,1.477-.416,2.488,2.488,0,0,1,2,.826,3.494,3.494,0,0,1,.706,2.338v.574H92.508a1.9,1.9,0,0,0,.524,1.242,1.574,1.574,0,0,0,1.157.457,1.928,1.928,0,0,0,1.594-.791l.768.732a2.563,2.563,0,0,1-1.017.882A3.183,3.183,0,0,1,94.107,56.117Zm-.17-5.432a1.2,1.2,0,0,0-.946.41,2.126,2.126,0,0,0-.46,1.143h2.713v-.105a1.731,1.731,0,0,0-.381-1.081A1.19,1.19,0,0,0,93.938,50.686Zm5.139-1.025.041.732a2.28,2.28,0,0,1,1.846-.85q1.98,0,2.016,2.268V56h-1.424V51.893a1.306,1.306,0,0,0-.261-.894,1.1,1.1,0,0,0-.853-.29,1.372,1.372,0,0,0-1.283.779V56H97.734V49.66Zm5.086,3.123a3.769,3.769,0,0,1,.68-2.353,2.178,2.178,0,0,1,1.822-.888,2.069,2.069,0,0,1,1.629.7V47h1.424v9h-1.289l-.07-.656a2.1,2.1,0,0,1-1.705.773,2.166,2.166,0,0,1-1.8-.9A3.907,3.907,0,0,1,104.162,52.783Zm1.424.123a2.639,2.639,0,0,0,.372,1.509,1.207,1.207,0,0,0,1.058.542,1.345,1.345,0,0,0,1.277-.779V51.471a1.324,1.324,0,0,0-1.266-.762,1.216,1.216,0,0,0-1.066.548A2.939,2.939,0,0,0,105.586,52.906Zm8.408,3.211a2.946,2.946,0,0,1-2.194-.853,3.093,3.093,0,0,1-.841-2.271v-.176a3.8,3.8,0,0,1,.366-1.7,2.787,2.787,0,0,1,1.028-1.163,2.719,2.719,0,0,1,1.477-.416,2.488,2.488,0,0,1,2,.826,3.494,3.494,0,0,1,.706,2.338v.574h-4.143a1.9,1.9,0,0,0,.524,1.242,1.574,1.574,0,0,0,1.157.457,1.928,1.928,0,0,0,1.594-.791l.768.732a2.563,2.563,0,0,1-1.017.882A3.183,3.183,0,0,1,113.994,56.117Zm-.17-5.432a1.2,1.2,0,0,0-.946.41,2.126,2.126,0,0,0-.46,1.143h2.713v-.105a1.731,1.731,0,0,0-.381-1.081A1.19,1.19,0,0,0,113.824,50.686Zm6.539,2.1a3.769,3.769,0,0,1,.68-2.353,2.178,2.178,0,0,1,1.822-.888,2.069,2.069,0,0,1,1.629.7V47h1.424v9h-1.289l-.07-.656a2.1,2.1,0,0,1-1.705.773,2.166,2.166,0,0,1-1.8-.9A3.907,3.907,0,0,1,120.363,52.783Zm1.424.123a2.639,2.639,0,0,0,.372,1.509,1.207,1.207,0,0,0,1.058.542,1.345,1.345,0,0,0,1.277-.779V51.471a1.324,1.324,0,0,0-1.266-.762,1.216,1.216,0,0,0-1.066.548A2.939,2.939,0,0,0,121.787,52.906Zm8.408,3.211A2.946,2.946,0,0,1,128,55.265a3.093,3.093,0,0,1-.841-2.271v-.176a3.8,3.8,0,0,1,.366-1.7,2.787,2.787,0,0,1,1.028-1.163,2.719,2.719,0,0,1,1.477-.416,2.488,2.488,0,0,1,2,.826,3.494,3.494,0,0,1,.706,2.338v.574H128.6a1.9,1.9,0,0,0,.524,1.242,1.574,1.574,0,0,0,1.157.457,1.928,1.928,0,0,0,1.594-.791l.768.732a2.563,2.563,0,0,1-1.017.882A3.183,3.183,0,0,1,130.2,56.117Zm-.17-5.432a1.2,1.2,0,0,0-.946.41,2.126,2.126,0,0,0-.46,1.143h2.713v-.105a1.731,1.731,0,0,0-.381-1.081A1.19,1.19,0,0,0,130.025,50.686ZM1.23,70V64.715H.264V63.66H1.23v-.58a2.177,2.177,0,0,1,.586-1.629,2.244,2.244,0,0,1,1.641-.574,3.291,3.291,0,0,1,.8.105L4.219,62.1a2.8,2.8,0,0,0-.545-.047A.914.914,0,0,0,2.654,63.1v.563H3.943v1.055H2.654V70Zm7.541,0a2.2,2.2,0,0,1-.164-.592,2.216,2.216,0,0,1-1.664.709,2.237,2.237,0,0,1-1.559-.545,1.743,1.743,0,0,1-.6-1.348,1.8,1.8,0,0,1,.753-1.556,3.649,3.649,0,0,1,2.153-.542h.873v-.416a1.11,1.11,0,0,0-.275-.788,1.092,1.092,0,0,0-.838-.3,1.254,1.254,0,0,0-.8.243.753.753,0,0,0-.311.618H4.916a1.58,1.58,0,0,1,.346-.976A2.3,2.3,0,0,1,6.2,63.8a3.3,3.3,0,0,1,1.327-.258A2.66,2.66,0,0,1,9.3,64.1a2,2,0,0,1,.68,1.573v2.859a3.241,3.241,0,0,0,.24,1.365V70ZM7.207,68.975A1.62,1.62,0,0,0,8,68.77a1.37,1.37,0,0,0,.56-.551v-1.2H7.793A2.1,2.1,0,0,0,6.6,67.3a.892.892,0,0,0-.4.779.832.832,0,0,0,.272.653A1.055,1.055,0,0,0,7.207,68.975Zm6.873.006a1.287,1.287,0,0,0,.885-.311,1.061,1.061,0,0,0,.375-.768h1.342a2.091,2.091,0,0,1-.369,1.1,2.421,2.421,0,0,1-.937.812,2.794,2.794,0,0,1-1.277.3,2.7,2.7,0,0,1-2.109-.861,3.416,3.416,0,0,1-.779-2.379V66.73a3.359,3.359,0,0,1,.773-2.317,2.678,2.678,0,0,1,2.109-.87,2.6,2.6,0,0,1,1.843.659,2.361,2.361,0,0,1,.747,1.731H15.34a1.3,1.3,0,0,0-.372-.9,1.2,1.2,0,0,0-.888-.352,1.253,1.253,0,0,0-1.066.5,2.556,2.556,0,0,0-.381,1.521v.229A2.6,2.6,0,0,0,13,68.474,1.252,1.252,0,0,0,14.08,68.98Zm5.461-6.861V63.66H20.66v1.055H19.541v3.539a.779.779,0,0,0,.144.524.666.666,0,0,0,.513.161,2.193,2.193,0,0,0,.5-.059v1.1a3.507,3.507,0,0,1-.937.135q-1.641,0-1.641-1.811V64.715H17.074V63.66h1.043V62.119ZM21.3,66.771a3.738,3.738,0,0,1,.369-1.679,2.7,2.7,0,0,1,1.037-1.148,2.922,2.922,0,0,1,1.535-.4,2.769,2.769,0,0,1,2.083.826,3.249,3.249,0,0,1,.864,2.191l.006.334a3.772,3.772,0,0,1-.36,1.676,2.664,2.664,0,0,1-1.031,1.143,2.944,2.944,0,0,1-1.55.4,2.75,2.75,0,0,1-2.147-.894,3.422,3.422,0,0,1-.806-2.382Zm1.424.123a2.555,2.555,0,0,0,.4,1.532,1.314,1.314,0,0,0,1.125.554,1.3,1.3,0,0,0,1.122-.562,2.822,2.822,0,0,0,.4-1.646,2.522,2.522,0,0,0-.413-1.523,1.392,1.392,0,0,0-2.229-.009A2.768,2.768,0,0,0,22.729,66.895Zm8.994-1.934a3.523,3.523,0,0,0-.58-.047,1.306,1.306,0,0,0-1.318.75V70H28.4V63.66H29.76l.035.709a1.6,1.6,0,0,1,1.43-.826,1.333,1.333,0,0,1,.5.082Zm3.691,5.156a2.946,2.946,0,0,1-2.194-.853,3.093,3.093,0,0,1-.841-2.271v-.176a3.8,3.8,0,0,1,.366-1.7,2.787,2.787,0,0,1,1.028-1.163,2.719,2.719,0,0,1,1.477-.416,2.488,2.488,0,0,1,2,.826,3.494,3.494,0,0,1,.706,2.338v.574H33.814a1.9,1.9,0,0,0,.524,1.242,1.574,1.574,0,0,0,1.157.457,1.928,1.928,0,0,0,1.594-.791l.768.732a2.563,2.563,0,0,1-1.017.882A3.183,3.183,0,0,1,35.414,70.117Zm-.17-5.432a1.2,1.2,0,0,0-.946.41,2.126,2.126,0,0,0-.46,1.143h2.713v-.105a1.731,1.731,0,0,0-.381-1.081A1.19,1.19,0,0,0,35.244,64.686Zm7.371,3.592a.645.645,0,0,0-.313-.58,3.334,3.334,0,0,0-1.04-.352,5.346,5.346,0,0,1-1.213-.387,1.619,1.619,0,0,1-1.066-1.494,1.688,1.688,0,0,1,.691-1.371,2.733,2.733,0,0,1,1.758-.551,2.844,2.844,0,0,1,1.837.563,1.785,1.785,0,0,1,.7,1.459H42.545a.877.877,0,0,0-.3-.683,1.168,1.168,0,0,0-.809-.272,1.262,1.262,0,0,0-.765.217.683.683,0,0,0-.3.58.577.577,0,0,0,.275.51,3.787,3.787,0,0,0,1.113.366,5.27,5.27,0,0,1,1.315.439,1.863,1.863,0,0,1,.709.612,1.561,1.561,0,0,1,.231.867,1.652,1.652,0,0,1-.709,1.386,3.023,3.023,0,0,1-1.857.53,3.278,3.278,0,0,1-1.389-.281,2.285,2.285,0,0,1-.949-.773A1.831,1.831,0,0,1,38.771,68h1.383a1,1,0,0,0,.381.776,1.48,1.48,0,0,0,.932.272,1.44,1.44,0,0,0,.855-.214A.662.662,0,0,0,42.615,68.277Zm8.42,1.84a2.946,2.946,0,0,1-2.194-.853A3.093,3.093,0,0,1,48,66.994v-.176a3.8,3.8,0,0,1,.366-1.7,2.787,2.787,0,0,1,1.028-1.163,2.719,2.719,0,0,1,1.477-.416,2.488,2.488,0,0,1,2,.826,3.494,3.494,0,0,1,.706,2.338v.574H49.436a1.9,1.9,0,0,0,.524,1.242,1.574,1.574,0,0,0,1.157.457,1.928,1.928,0,0,0,1.594-.791l.768.732a2.563,2.563,0,0,1-1.017.882A3.183,3.183,0,0,1,51.035,70.117Zm-.17-5.432a1.2,1.2,0,0,0-.946.41,2.126,2.126,0,0,0-.46,1.143h2.713v-.105a1.731,1.731,0,0,0-.381-1.081A1.19,1.19,0,0,0,50.865,64.686Zm6.094,1.061,1.207-2.086h1.582l-1.939,3.123,2,3.217h-1.57l-1.266-2.168L55.717,70H54.135l2-3.217L54.205,63.66h1.57ZM62.5,62.119V63.66h1.119v1.055H62.5v3.539a.779.779,0,0,0,.144.524.666.666,0,0,0,.513.161,2.193,2.193,0,0,0,.5-.059v1.1a3.507,3.507,0,0,1-.937.135q-1.641,0-1.641-1.811V64.715H60.035V63.66h1.043V62.119Zm5,8a2.946,2.946,0,0,1-2.194-.853,3.093,3.093,0,0,1-.841-2.271v-.176a3.8,3.8,0,0,1,.366-1.7,2.787,2.787,0,0,1,1.028-1.163,2.719,2.719,0,0,1,1.477-.416,2.488,2.488,0,0,1,2,.826,3.494,3.494,0,0,1,.706,2.338v.574H65.9a1.9,1.9,0,0,0,.524,1.242,1.574,1.574,0,0,0,1.157.457,1.928,1.928,0,0,0,1.594-.791l.768.732a2.563,2.563,0,0,1-1.017.882A3.183,3.183,0,0,1,67.5,70.117Zm-.17-5.432a1.2,1.2,0,0,0-.946.41,2.126,2.126,0,0,0-.46,1.143h2.713v-.105a1.731,1.731,0,0,0-.381-1.081A1.19,1.19,0,0,0,67.33,64.686Zm7.137.275a3.523,3.523,0,0,0-.58-.047,1.306,1.306,0,0,0-1.318.75V70H71.145V63.66H72.5l.035.709a1.6,1.6,0,0,1,1.43-.826,1.333,1.333,0,0,1,.5.082Zm2.221-1.3.041.732a2.28,2.28,0,0,1,1.846-.85q1.98,0,2.016,2.268V70H79.166V65.893A1.306,1.306,0,0,0,78.905,65a1.1,1.1,0,0,0-.853-.29,1.372,1.372,0,0,0-1.283.779V70H75.346V63.66Zm5.086,3.111a3.738,3.738,0,0,1,.369-1.679,2.7,2.7,0,0,1,1.037-1.148,2.922,2.922,0,0,1,1.535-.4,2.769,2.769,0,0,1,2.083.826,3.249,3.249,0,0,1,.864,2.191l.006.334a3.772,3.772,0,0,1-.36,1.676,2.664,2.664,0,0,1-1.031,1.143,2.944,2.944,0,0,1-1.55.4,2.75,2.75,0,0,1-2.147-.894,3.422,3.422,0,0,1-.806-2.382Zm1.424.123a2.555,2.555,0,0,0,.4,1.532,1.314,1.314,0,0,0,1.125.554,1.3,1.3,0,0,0,1.122-.562,2.822,2.822,0,0,0,.4-1.646,2.522,2.522,0,0,0-.413-1.523,1.392,1.392,0,0,0-2.229-.009A2.768,2.768,0,0,0,83.2,66.895Zm9.229,1.383a.645.645,0,0,0-.313-.58,3.334,3.334,0,0,0-1.04-.352,5.346,5.346,0,0,1-1.213-.387,1.619,1.619,0,0,1-1.066-1.494,1.688,1.688,0,0,1,.691-1.371,2.733,2.733,0,0,1,1.758-.551,2.844,2.844,0,0,1,1.837.563,1.785,1.785,0,0,1,.7,1.459H92.355a.877.877,0,0,0-.3-.683,1.168,1.168,0,0,0-.809-.272,1.262,1.262,0,0,0-.765.217.683.683,0,0,0-.3.58.577.577,0,0,0,.275.51,3.787,3.787,0,0,0,1.113.366,5.27,5.27,0,0,1,1.315.439,1.863,1.863,0,0,1,.709.612,1.561,1.561,0,0,1,.231.867,1.652,1.652,0,0,1-.709,1.386,3.023,3.023,0,0,1-1.857.53,3.278,3.278,0,0,1-1.389-.281,2.285,2.285,0,0,1-.949-.773A1.831,1.831,0,0,1,88.582,68h1.383a1,1,0,0,0,.381.776,1.48,1.48,0,0,0,.932.272,1.44,1.44,0,0,0,.855-.214A.662.662,0,0,0,92.426,68.277Zm3.527.223a.813.813,0,0,1,.615.226.784.784,0,0,1,.217.565.756.756,0,0,1-.217.554.96.96,0,0,1-1.219,0,.743.743,0,0,1-.223-.557.784.784,0,0,1,.217-.565A.805.805,0,0,1,95.953,68.5Z" transform="translate(842.923 3291.043)" fill="#12263f"/>
                  <circle id="Elipse_11553" data-name="Elipse 11553" cx="2.038" cy="2.038" r="2.038" transform="translate(836.352 3285.175)" fill="#727997"/>
                  <circle id="Elipse_11554" data-name="Elipse 11554" cx="2.038" cy="2.038" r="2.038" transform="translate(836.352 3298.42)" fill="#727997"/>
                  <circle id="Elipse_11555" data-name="Elipse 11555" cx="2.038" cy="2.038" r="2.038" transform="translate(836.352 3313.702)" fill="#727997"/>
                  <circle id="Elipse_11556" data-name="Elipse 11556" cx="2.038" cy="2.038" r="2.038" transform="translate(836.352 3342.229)" fill="#727997"/>
                  <path id="Trazado_883018" data-name="Trazado 883018" d="M-8963-7946.974v136.151" transform="translate(10075.452 11190.378)" fill="#3f7b7e" stroke="#3f7b7e" stroke-width="2"/>
                  <path id="Trazado_883031" data-name="Trazado 883031" d="M0,0V318.381" transform="translate(953.012 3379.556) rotate(-90)" fill="#3f7b7e" stroke="#3f7b7e" stroke-width="2"/>
                  <path id="Trazado_883027" data-name="Trazado 883027" d="M-8963-7946.974v31.954" transform="translate(10132.507 11326.528)" fill="#3f7b7e" stroke="#3f7b7e" stroke-width="2"/>
                  <path id="Trazado_883028" data-name="Trazado 883028" d="M-8963-7946.974v31.954" transform="translate(10234.389 11326.528)" fill="#3f7b7e" stroke="#3f7b7e" stroke-width="2"/>
                  <path id="Trazado_883029" data-name="Trazado 883029" d="M-8963-7946.974v31.954" transform="translate(10017.89 11326.528)" fill="#3f7b7e" stroke="#3f7b7e" stroke-width="2"/>
                  <path id="Trazado_883030" data-name="Trazado 883030" d="M-8963-7946.974v31.954" transform="translate(9916.007 11326.528)" fill="#3f7b7e" stroke="#3f7b7e" stroke-width="2"/>
                  <path id="Trazado_883019" data-name="Trazado 883019" d="M-8963-7946.974v61.939" transform="translate(9977.646 11235.206)" fill="#3f7b7e" stroke="#3f7b7e" stroke-width="2"/>
                  <path id="Trazado_883020" data-name="Trazado 883020" d="M0,0V45.391" transform="translate(990.65 3288.741) rotate(-90)" fill="#3f7b7e" stroke="#3f7b7e" stroke-width="2"/>
                  <path id="Trazado_883024" data-name="Trazado 883024" d="M0,0V65.631" transform="translate(1183.77 3288.741) rotate(-90)" fill="#3f7b7e" stroke="#3f7b7e" stroke-width="2"/>
                  <path id="Trazado_883025" data-name="Trazado 883025" d="M0,0V30.548" transform="translate(1200.459 3301.477) rotate(-150)" fill="#3f7b7e" stroke="#3f7b7e" stroke-width="2"/>
                  <path id="Trazado_883026" data-name="Trazado 883026" d="M0,0V30.548" transform="translate(1208.096 3301.477) rotate(-150)" fill="#3f7b7e" stroke="#3f7b7e" stroke-width="2"/>
                  <path id="Trazado_883021" data-name="Trazado 883021" d="M0,0V24.957" transform="translate(990.65 3303.005) rotate(-90)" fill="#3f7b7e" stroke="#3f7b7e" stroke-width="2"/>
                  <path id="Trazado_883022" data-name="Trazado 883022" d="M0,0V24.957" transform="translate(990.65 3317.268) rotate(-90)" fill="#3f7b7e" stroke="#3f7b7e" stroke-width="2"/>
                  <path id="Trazado_883023" data-name="Trazado 883023" d="M0,0V25.016" transform="translate(990.649 3349.87) rotate(-90)" fill="#3f7b7e" stroke="#3f7b7e" stroke-width="2"/>
                  <g id="Rectángulo_402667" data-name="Rectángulo 402667" transform="translate(1036.041 3216.914)" fill="#fff" stroke="#ffc03c" stroke-width="1">
                    <rect width="147.729" height="26.489" stroke="none"/>
                    <rect x="0.5" y="0.5" width="146.729" height="25.489" fill="none"/>
                  </g>
                  <g id="Rectángulo_402668" data-name="Rectángulo 402668" transform="translate(1036.041 3274.987)" fill="#fff" stroke="#ffc03c" stroke-width="1">
                    <rect width="147.729" height="26.489" stroke="none"/>
                    <rect x="0.5" y="0.5" width="146.729" height="25.489" fill="none"/>
                  </g>
                  <g id="Rectángulo_402669" data-name="Rectángulo 402669" transform="translate(850.615 3411.509)" fill="#fff" stroke="#ffc03c" stroke-width="1">
                    <rect width="147.729" height="26.489" stroke="none"/>
                    <rect x="0.5" y="0.5" width="146.729" height="25.489" fill="none"/>
                  </g>
                  <g id="Rectángulo_402670" data-name="Rectángulo 402670" transform="translate(1010.57 3411.509)" fill="#fff" stroke="#ffc03c" stroke-width="1">
                    <rect width="88.637" height="26.489" stroke="none"/>
                    <rect x="0.5" y="0.5" width="87.637" height="25.489" fill="none"/>
                  </g>
                  <g id="Rectángulo_402671" data-name="Rectángulo 402671" transform="translate(1112.453 3411.509)" fill="#fff" stroke="#ffc03c" stroke-width="1">
                    <rect width="106.976" height="26.489" stroke="none"/>
                    <rect x="0.5" y="0.5" width="105.976" height="25.489" fill="none"/>
                  </g>
                  <g id="Rectángulo_402672" data-name="Rectángulo 402672" transform="translate(1231.655 3411.509)" fill="#fff" stroke="#ffc03c" stroke-width="1">
                    <rect width="106.976" height="43.809" stroke="none"/>
                    <rect x="0.5" y="0.5" width="105.976" height="42.809" fill="none"/>
                  </g>
                  <path id="Trazado_883094" data-name="Trazado 883094" d="M-48.605-3.7a4.107,4.107,0,0,1-1.344,2.84A4.581,4.581,0,0,1-53.066.156a4.436,4.436,0,0,1-2.395-.645,4.231,4.231,0,0,1-1.6-1.832,6.611,6.611,0,0,1-.586-2.758V-6.141a6.659,6.659,0,0,1,.57-2.836,4.3,4.3,0,0,1,1.637-1.891,4.566,4.566,0,0,1,2.465-.664,4.386,4.386,0,0,1,3.031,1.023,4.276,4.276,0,0,1,1.336,2.891h-1.969a2.81,2.81,0,0,0-.715-1.77,2.363,2.363,0,0,0-1.684-.543,2.309,2.309,0,0,0-1.98.941,4.7,4.7,0,0,0-.707,2.762v1.008A4.988,4.988,0,0,0-55-2.406a2.191,2.191,0,0,0,1.934.969,2.555,2.555,0,0,0,1.75-.523A2.729,2.729,0,0,0-50.574-3.7ZM-41.973,0a2.93,2.93,0,0,1-.219-.789A2.955,2.955,0,0,1-44.41.156,2.982,2.982,0,0,1-46.488-.57a2.325,2.325,0,0,1-.8-1.8,2.4,2.4,0,0,1,1-2.074,4.865,4.865,0,0,1,2.871-.723h1.164v-.555a1.481,1.481,0,0,0-.367-1.051,1.456,1.456,0,0,0-1.117-.395A1.672,1.672,0,0,0-44.8-6.84a1,1,0,0,0-.414.824h-1.9a2.107,2.107,0,0,1,.461-1.3A3.071,3.071,0,0,1-45.4-8.266a4.4,4.4,0,0,1,1.77-.344,3.547,3.547,0,0,1,2.367.746,2.661,2.661,0,0,1,.906,2.1v3.813a4.321,4.321,0,0,0,.32,1.82V0Zm-2.086-1.367A2.16,2.16,0,0,0-43-1.641a1.827,1.827,0,0,0,.746-.734V-3.969h-1.023a2.8,2.8,0,0,0-1.586.367,1.189,1.189,0,0,0-.531,1.039,1.109,1.109,0,0,0,.363.871A1.407,1.407,0,0,0-44.059-1.367Zm7.477-7.086.055.883A3.042,3.042,0,0,1-34.09-8.609a2.337,2.337,0,0,1,2.32,1.3,3,3,0,0,1,2.594-1.3,2.636,2.636,0,0,1,2.082.773,3.405,3.405,0,0,1,.7,2.281V0h-1.9V-5.5a1.681,1.681,0,0,0-.352-1.18,1.539,1.539,0,0,0-1.164-.375,1.581,1.581,0,0,0-1.059.348,1.833,1.833,0,0,0-.574.91l.008,5.8h-1.9V-5.562a1.354,1.354,0,0,0-1.523-1.492,1.671,1.671,0,0,0-1.617.93V0h-1.9V-8.453Zm19.555,4.313a5.078,5.078,0,0,1-.879,3.133A2.863,2.863,0,0,1-20.324.156a2.758,2.758,0,0,1-2.312-1.07L-22.73,0h-1.719V-12h1.9v4.359a2.748,2.748,0,0,1,2.211-.969,2.9,2.9,0,0,1,2.43,1.148,5.162,5.162,0,0,1,.883,3.211Zm-1.9-.164a3.589,3.589,0,0,0-.484-2.062,1.613,1.613,0,0,0-1.406-.687,1.763,1.763,0,0,0-1.734,1.078v3.484a1.781,1.781,0,0,0,1.75,1.1,1.6,1.6,0,0,0,1.375-.664,3.477,3.477,0,0,0,.5-2.008ZM-13.418,0h-1.9V-8.453h1.9Zm-2.016-10.648a1.008,1.008,0,0,1,.277-.727,1.048,1.048,0,0,1,.793-.289,1.061,1.061,0,0,1,.8.289,1,1,0,0,1,.281.727.977.977,0,0,1-.281.715,1.069,1.069,0,0,1-.8.285,1.056,1.056,0,0,1-.793-.285A.984.984,0,0,1-15.434-10.648ZM-11.707-4.3a4.984,4.984,0,0,1,.492-2.238A3.6,3.6,0,0,1-9.832-8.074a3.9,3.9,0,0,1,2.047-.535,3.692,3.692,0,0,1,2.777,1.1A4.333,4.333,0,0,1-3.855-4.586l.008.445a5.029,5.029,0,0,1-.48,2.234A3.551,3.551,0,0,1-5.7-.383,3.925,3.925,0,0,1-7.77.156a3.667,3.667,0,0,1-2.863-1.191,4.563,4.563,0,0,1-1.074-3.176Zm1.9.164A3.406,3.406,0,0,0-9.27-2.1a1.752,1.752,0,0,0,1.5.738,1.733,1.733,0,0,0,1.5-.75,3.762,3.762,0,0,0,.535-2.2,3.362,3.362,0,0,0-.551-2.031,1.759,1.759,0,0,0-1.5-.75,1.743,1.743,0,0,0-1.477.738A3.691,3.691,0,0,0-9.809-4.141ZM1.387-4.3a5,5,0,0,1,.906-3.148A2.945,2.945,0,0,1,4.746-8.609a2.768,2.768,0,0,1,2.242.992L7.1-8.453H8.785V3.25h-1.9V-.719A2.834,2.834,0,0,1,4.73.156,2.917,2.917,0,0,1,2.3-1.027,5.23,5.23,0,0,1,1.387-4.3Zm1.9.164A3.528,3.528,0,0,0,3.8-2.1a1.631,1.631,0,0,0,1.418.738A1.8,1.8,0,0,0,6.887-2.32V-6.164A1.8,1.8,0,0,0,5.23-7.086,1.659,1.659,0,0,0,3.8-6.359,3.849,3.849,0,0,0,3.285-4.133Zm12.664,3.3a2.944,2.944,0,0,1-2.375.984,2.624,2.624,0,0,1-2.082-.8,3.423,3.423,0,0,1-.707-2.328V-8.453h1.9V-3q0,1.609,1.336,1.609a1.876,1.876,0,0,0,1.867-.992v-6.07h1.9V0H16ZM21.762,0h-1.9V-8.453h1.9ZM21.4-11.945h2.164L21.4-9.578H19.879Zm4.3,3.492.055.883A3.042,3.042,0,0,1,28.2-8.609a2.337,2.337,0,0,1,2.32,1.3,3,3,0,0,1,2.594-1.3,2.636,2.636,0,0,1,2.082.773,3.405,3.405,0,0,1,.7,2.281V0H34V-5.5a1.681,1.681,0,0,0-.352-1.18,1.539,1.539,0,0,0-1.164-.375,1.581,1.581,0,0,0-1.059.348,1.833,1.833,0,0,0-.574.91L30.855,0h-1.9V-5.562a1.354,1.354,0,0,0-1.523-1.492,1.671,1.671,0,0,0-1.617.93V0h-1.9V-8.453ZM39.863,0h-1.9V-8.453h1.9ZM37.848-10.648a1.008,1.008,0,0,1,.277-.727,1.048,1.048,0,0,1,.793-.289,1.061,1.061,0,0,1,.8.289,1,1,0,0,1,.281.727.977.977,0,0,1-.281.715,1.069,1.069,0,0,1-.8.285,1.056,1.056,0,0,1-.793-.285A.984.984,0,0,1,37.848-10.648ZM45.4-1.359a1.716,1.716,0,0,0,1.18-.414,1.415,1.415,0,0,0,.5-1.023h1.789a2.789,2.789,0,0,1-.492,1.473,3.228,3.228,0,0,1-1.25,1.082,3.725,3.725,0,0,1-1.7.4A3.6,3.6,0,0,1,42.613-.992a4.555,4.555,0,0,1-1.039-3.172v-.2a4.479,4.479,0,0,1,1.031-3.09,3.571,3.571,0,0,1,2.813-1.16,3.473,3.473,0,0,1,2.457.879,3.148,3.148,0,0,1,1,2.309H47.082a1.738,1.738,0,0,0-.5-1.2A1.6,1.6,0,0,0,45.4-7.086a1.671,1.671,0,0,0-1.422.668,3.408,3.408,0,0,0-.508,2.027v.3a3.465,3.465,0,0,0,.5,2.051A1.669,1.669,0,0,0,45.4-1.359ZM49.949-4.3a4.984,4.984,0,0,1,.492-2.238,3.6,3.6,0,0,1,1.383-1.531,3.9,3.9,0,0,1,2.047-.535,3.692,3.692,0,0,1,2.777,1.1A4.333,4.333,0,0,1,57.8-4.586l.008.445a5.029,5.029,0,0,1-.48,2.234A3.551,3.551,0,0,1,55.953-.383a3.925,3.925,0,0,1-2.066.539,3.667,3.667,0,0,1-2.863-1.191,4.563,4.563,0,0,1-1.074-3.176Zm1.9.164A3.406,3.406,0,0,0,52.387-2.1a1.752,1.752,0,0,0,1.5.738,1.733,1.733,0,0,0,1.5-.75,3.762,3.762,0,0,0,.535-2.2,3.362,3.362,0,0,0-.551-2.031,1.759,1.759,0,0,0-1.5-.75,1.743,1.743,0,0,0-1.477.738A3.691,3.691,0,0,0,51.848-4.141Z" transform="translate(1109.323 3235.952)" fill="#12263f"/>
                  <path id="Trazado_883095" data-name="Trazado 883095" d="M-58.3-4.383h-2.2V0H-62.48V-11.375h4a4.656,4.656,0,0,1,3.039.883,3.122,3.122,0,0,1,1.07,2.555,3.2,3.2,0,0,1-.551,1.91,3.5,3.5,0,0,1-1.535,1.184L-53.9-.1V0H-56.02Zm-2.2-1.586h2.031a2.259,2.259,0,0,0,1.563-.5,1.757,1.757,0,0,0,.563-1.379,1.871,1.871,0,0,0-.52-1.414,2.207,2.207,0,0,0-1.551-.516H-60.5ZM-48.957.156A3.928,3.928,0,0,1-51.883-.98,4.124,4.124,0,0,1-53-4.008v-.234A5.072,5.072,0,0,1-52.516-6.5a3.716,3.716,0,0,1,1.371-1.551,3.625,3.625,0,0,1,1.969-.555,3.318,3.318,0,0,1,2.668,1.1,4.658,4.658,0,0,1,.941,3.117v.766H-51.09a2.539,2.539,0,0,0,.7,1.656,2.1,2.1,0,0,0,1.543.609,2.571,2.571,0,0,0,2.125-1.055l1.023.977A3.418,3.418,0,0,1-47.055-.262,4.244,4.244,0,0,1-48.957.156Zm-.227-7.242a1.6,1.6,0,0,0-1.262.547,2.835,2.835,0,0,0-.613,1.523h3.617v-.141A2.307,2.307,0,0,0-47.949-6.6,1.586,1.586,0,0,0-49.184-7.086ZM-39.043,0a2.93,2.93,0,0,1-.219-.789A2.955,2.955,0,0,1-41.48.156,2.982,2.982,0,0,1-43.559-.57a2.325,2.325,0,0,1-.8-1.8,2.4,2.4,0,0,1,1-2.074,4.865,4.865,0,0,1,2.871-.723h1.164v-.555a1.481,1.481,0,0,0-.367-1.051,1.456,1.456,0,0,0-1.117-.395,1.672,1.672,0,0,0-1.062.324,1,1,0,0,0-.414.824h-1.9a2.107,2.107,0,0,1,.461-1.3,3.071,3.071,0,0,1,1.254-.949,4.4,4.4,0,0,1,1.77-.344,3.547,3.547,0,0,1,2.367.746,2.661,2.661,0,0,1,.906,2.1v3.813a4.321,4.321,0,0,0,.32,1.82V0Zm-2.086-1.367a2.16,2.16,0,0,0,1.059-.273,1.827,1.827,0,0,0,.746-.734V-3.969h-1.023a2.8,2.8,0,0,0-1.586.367,1.189,1.189,0,0,0-.531,1.039,1.109,1.109,0,0,0,.363.871A1.407,1.407,0,0,0-41.129-1.367Zm9.164.008a1.716,1.716,0,0,0,1.18-.414,1.415,1.415,0,0,0,.5-1.023H-28.5a2.789,2.789,0,0,1-.492,1.473,3.228,3.228,0,0,1-1.25,1.082,3.725,3.725,0,0,1-1.7.4A3.6,3.6,0,0,1-34.754-.992a4.555,4.555,0,0,1-1.039-3.172v-.2a4.479,4.479,0,0,1,1.031-3.09,3.571,3.571,0,0,1,2.813-1.16,3.473,3.473,0,0,1,2.457.879,3.148,3.148,0,0,1,1,2.309h-1.789a1.738,1.738,0,0,0-.5-1.2,1.6,1.6,0,0,0-1.184-.469,1.671,1.671,0,0,0-1.422.668,3.408,3.408,0,0,0-.508,2.027v.3a3.465,3.465,0,0,0,.5,2.051A1.669,1.669,0,0,0-31.965-1.359Zm8.375,0a1.716,1.716,0,0,0,1.18-.414,1.415,1.415,0,0,0,.5-1.023h1.789a2.789,2.789,0,0,1-.492,1.473,3.228,3.228,0,0,1-1.25,1.082,3.725,3.725,0,0,1-1.7.4A3.6,3.6,0,0,1-26.379-.992a4.555,4.555,0,0,1-1.039-3.172v-.2a4.479,4.479,0,0,1,1.031-3.09,3.571,3.571,0,0,1,2.813-1.16,3.473,3.473,0,0,1,2.457.879,3.148,3.148,0,0,1,1,2.309H-21.91a1.738,1.738,0,0,0-.5-1.2,1.6,1.6,0,0,0-1.184-.469,1.671,1.671,0,0,0-1.422.668,3.408,3.408,0,0,0-.508,2.027v.3a3.465,3.465,0,0,0,.5,2.051A1.669,1.669,0,0,0-23.59-1.359ZM-16.668,0h-1.9V-8.453h1.9Zm-2.016-10.648a1.008,1.008,0,0,1,.277-.727,1.048,1.048,0,0,1,.793-.289,1.061,1.061,0,0,1,.8.289,1,1,0,0,1,.281.727.977.977,0,0,1-.281.715,1.069,1.069,0,0,1-.8.285,1.056,1.056,0,0,1-.793-.285A.984.984,0,0,1-18.684-10.648ZM-14.957-4.3a4.984,4.984,0,0,1,.492-2.238,3.6,3.6,0,0,1,1.383-1.531,3.9,3.9,0,0,1,2.047-.535,3.692,3.692,0,0,1,2.777,1.1A4.333,4.333,0,0,1-7.105-4.586l.008.445a5.029,5.029,0,0,1-.48,2.234A3.551,3.551,0,0,1-8.953-.383,3.925,3.925,0,0,1-11.02.156a3.667,3.667,0,0,1-2.863-1.191,4.563,4.563,0,0,1-1.074-3.176Zm1.9.164A3.406,3.406,0,0,0-12.52-2.1a1.752,1.752,0,0,0,1.5.738,1.733,1.733,0,0,0,1.5-.75,3.762,3.762,0,0,0,.535-2.2,3.362,3.362,0,0,0-.551-2.031,1.759,1.759,0,0,0-1.5-.75,1.743,1.743,0,0,0-1.477.738A3.691,3.691,0,0,0-13.059-4.141ZM-10.512-12h2.164l-2.164,2.367h-1.523ZM-3.73-8.453l.055.977A3.039,3.039,0,0,1-1.215-8.609q2.641,0,2.688,3.023V0h-1.9V-5.477A1.741,1.741,0,0,0-.773-6.668,1.462,1.462,0,0,0-1.91-7.055,1.829,1.829,0,0,0-3.621-6.016V0h-1.9V-8.453ZM7.035-4.3a5,5,0,0,1,.906-3.148,2.945,2.945,0,0,1,2.453-1.164,2.768,2.768,0,0,1,2.242.992l.109-.836h1.688V3.25h-1.9V-.719a2.834,2.834,0,0,1-2.156.875,2.917,2.917,0,0,1-2.43-1.184A5.23,5.23,0,0,1,7.035-4.3Zm1.9.164A3.528,3.528,0,0,0,9.445-2.1a1.631,1.631,0,0,0,1.418.738,1.8,1.8,0,0,0,1.672-.961V-6.164a1.8,1.8,0,0,0-1.656-.922,1.659,1.659,0,0,0-1.426.727A3.849,3.849,0,0,0,8.934-4.133ZM21.6-.828a2.944,2.944,0,0,1-2.375.984,2.624,2.624,0,0,1-2.082-.8,3.423,3.423,0,0,1-.707-2.328V-8.453h1.9V-3q0,1.609,1.336,1.609a1.876,1.876,0,0,0,1.867-.992v-6.07h1.9V0H21.645ZM27.41,0h-1.9V-8.453h1.9Zm-.359-11.945h2.164L27.051-9.578H25.527Zm4.3,3.492.055.883a3.042,3.042,0,0,1,2.438-1.039,2.337,2.337,0,0,1,2.32,1.3,3,3,0,0,1,2.594-1.3,2.636,2.636,0,0,1,2.082.773,3.405,3.405,0,0,1,.7,2.281V0h-1.9V-5.5a1.681,1.681,0,0,0-.352-1.18,1.539,1.539,0,0,0-1.164-.375,1.581,1.581,0,0,0-1.059.348,1.833,1.833,0,0,0-.574.91L36.5,0h-1.9V-5.562a1.354,1.354,0,0,0-1.523-1.492,1.671,1.671,0,0,0-1.617.93V0h-1.9V-8.453ZM45.512,0h-1.9V-8.453h1.9ZM43.5-10.648a1.008,1.008,0,0,1,.277-.727,1.048,1.048,0,0,1,.793-.289,1.061,1.061,0,0,1,.8.289,1,1,0,0,1,.281.727.977.977,0,0,1-.281.715,1.069,1.069,0,0,1-.8.285,1.056,1.056,0,0,1-.793-.285A.984.984,0,0,1,43.5-10.648Zm7.555,9.289a1.716,1.716,0,0,0,1.18-.414,1.415,1.415,0,0,0,.5-1.023H54.52a2.789,2.789,0,0,1-.492,1.473,3.228,3.228,0,0,1-1.25,1.082,3.725,3.725,0,0,1-1.7.4A3.6,3.6,0,0,1,48.262-.992a4.555,4.555,0,0,1-1.039-3.172v-.2a4.479,4.479,0,0,1,1.031-3.09,3.571,3.571,0,0,1,2.813-1.16,3.473,3.473,0,0,1,2.457.879,3.148,3.148,0,0,1,1,2.309H52.73a1.738,1.738,0,0,0-.5-1.2,1.6,1.6,0,0,0-1.184-.469,1.671,1.671,0,0,0-1.422.668,3.408,3.408,0,0,0-.508,2.027v.3a3.465,3.465,0,0,0,.5,2.051A1.669,1.669,0,0,0,51.051-1.359ZM61,0a2.93,2.93,0,0,1-.219-.789,2.955,2.955,0,0,1-2.219.945A2.982,2.982,0,0,1,56.488-.57a2.325,2.325,0,0,1-.8-1.8,2.4,2.4,0,0,1,1-2.074,4.865,4.865,0,0,1,2.871-.723h1.164v-.555a1.481,1.481,0,0,0-.367-1.051,1.456,1.456,0,0,0-1.117-.395,1.672,1.672,0,0,0-1.062.324,1,1,0,0,0-.414.824h-1.9a2.107,2.107,0,0,1,.461-1.3,3.071,3.071,0,0,1,1.254-.949,4.4,4.4,0,0,1,1.77-.344,3.547,3.547,0,0,1,2.367.746,2.661,2.661,0,0,1,.906,2.1v3.813a4.321,4.321,0,0,0,.32,1.82V0ZM58.918-1.367a2.16,2.16,0,0,0,1.059-.273,1.827,1.827,0,0,0,.746-.734V-3.969H59.7a2.8,2.8,0,0,0-1.586.367,1.189,1.189,0,0,0-.531,1.039,1.109,1.109,0,0,0,.363.871A1.407,1.407,0,0,0,58.918-1.367Z" transform="translate(1109.21 3295.043)" fill="#12263f"/>
                  <path id="Trazado_883098" data-name="Trazado 883098" d="M-58.66,0V-11.375H-55.3a5.269,5.269,0,0,1,2.676.672A4.581,4.581,0,0,1-50.816-8.8a6.051,6.051,0,0,1,.641,2.828v.57a6.026,6.026,0,0,1-.645,2.844A4.526,4.526,0,0,1-52.656-.664,5.513,5.513,0,0,1-55.387,0Zm1.977-9.781v8.2h1.289a2.968,2.968,0,0,0,2.387-.973,4.237,4.237,0,0,0,.848-2.793v-.633a4.347,4.347,0,0,0-.8-2.828A2.853,2.853,0,0,0-55.3-9.781ZM-44.668.156A3.928,3.928,0,0,1-47.594-.98a4.124,4.124,0,0,1-1.121-3.027v-.234A5.072,5.072,0,0,1-48.227-6.5a3.716,3.716,0,0,1,1.371-1.551,3.625,3.625,0,0,1,1.969-.555,3.318,3.318,0,0,1,2.668,1.1,4.658,4.658,0,0,1,.941,3.117v.766H-46.8a2.539,2.539,0,0,0,.7,1.656,2.1,2.1,0,0,0,1.543.609,2.571,2.571,0,0,0,2.125-1.055l1.023.977A3.418,3.418,0,0,1-42.766-.262,4.244,4.244,0,0,1-44.668.156Zm-.227-7.242a1.6,1.6,0,0,0-1.262.547,2.835,2.835,0,0,0-.613,1.523h3.617v-.141A2.307,2.307,0,0,0-43.66-6.6,1.586,1.586,0,0,0-44.895-7.086ZM-35.066-2.3a.861.861,0,0,0-.418-.773,4.445,4.445,0,0,0-1.387-.469,7.129,7.129,0,0,1-1.617-.516A2.158,2.158,0,0,1-39.91-6.047a2.25,2.25,0,0,1,.922-1.828,3.644,3.644,0,0,1,2.344-.734,3.792,3.792,0,0,1,2.449.75,2.38,2.38,0,0,1,.934,1.945h-1.9a1.17,1.17,0,0,0-.406-.91,1.557,1.557,0,0,0-1.078-.363,1.682,1.682,0,0,0-1.02.289.911.911,0,0,0-.395.773.769.769,0,0,0,.367.68,5.049,5.049,0,0,0,1.484.488,7.027,7.027,0,0,1,1.754.586,2.484,2.484,0,0,1,.945.816A2.082,2.082,0,0,1-33.2-2.4a2.2,2.2,0,0,1-.945,1.848,4.031,4.031,0,0,1-2.477.707,4.371,4.371,0,0,1-1.852-.375A3.047,3.047,0,0,1-39.738-1.25a2.441,2.441,0,0,1-.453-1.414h1.844a1.338,1.338,0,0,0,.508,1.035,1.973,1.973,0,0,0,1.242.363,1.92,1.92,0,0,0,1.141-.285A.883.883,0,0,0-35.066-2.3Zm6.992.938a1.716,1.716,0,0,0,1.18-.414,1.415,1.415,0,0,0,.5-1.023h1.789A2.789,2.789,0,0,1-25.1-1.324a3.228,3.228,0,0,1-1.25,1.082,3.725,3.725,0,0,1-1.7.4A3.6,3.6,0,0,1-30.863-.992,4.555,4.555,0,0,1-31.9-4.164v-.2a4.479,4.479,0,0,1,1.031-3.09,3.571,3.571,0,0,1,2.813-1.16A3.473,3.473,0,0,1-25.6-7.73a3.148,3.148,0,0,1,1,2.309h-1.789a1.738,1.738,0,0,0-.5-1.2,1.6,1.6,0,0,0-1.184-.469,1.671,1.671,0,0,0-1.422.668A3.408,3.408,0,0,0-30-4.391v.3a3.465,3.465,0,0,0,.5,2.051A1.669,1.669,0,0,0-28.074-1.359ZM-23.527-4.3a4.984,4.984,0,0,1,.492-2.238,3.6,3.6,0,0,1,1.383-1.531,3.9,3.9,0,0,1,2.047-.535,3.692,3.692,0,0,1,2.777,1.1,4.333,4.333,0,0,1,1.152,2.922l.008.445a5.029,5.029,0,0,1-.48,2.234A3.551,3.551,0,0,1-17.523-.383,3.925,3.925,0,0,1-19.59.156a3.667,3.667,0,0,1-2.863-1.191,4.563,4.563,0,0,1-1.074-3.176Zm1.9.164A3.406,3.406,0,0,0-21.09-2.1a1.752,1.752,0,0,0,1.5.738,1.733,1.733,0,0,0,1.5-.75,3.762,3.762,0,0,0,.535-2.2,3.362,3.362,0,0,0-.551-2.031,1.759,1.759,0,0,0-1.5-.75,1.743,1.743,0,0,0-1.477.738A3.691,3.691,0,0,0-21.629-4.141Zm9.352-4.312.055.883A3.042,3.042,0,0,1-9.785-8.609a2.337,2.337,0,0,1,2.32,1.3,3,3,0,0,1,2.594-1.3,2.636,2.636,0,0,1,2.082.773,3.405,3.405,0,0,1,.7,2.281V0h-1.9V-5.5A1.681,1.681,0,0,0-4.34-6.68,1.539,1.539,0,0,0-5.5-7.055a1.581,1.581,0,0,0-1.059.348,1.833,1.833,0,0,0-.574.91L-7.129,0h-1.9V-5.562a1.354,1.354,0,0,0-1.523-1.492,1.671,1.671,0,0,0-1.617.93V0h-1.9V-8.453ZM7.262-4.141a5.033,5.033,0,0,1-.891,3.129A2.852,2.852,0,0,1,3.98.156,2.871,2.871,0,0,1,1.754-.758V3.25h-1.9v-11.7h1.75l.078.859A2.788,2.788,0,0,1,3.957-8.609,2.881,2.881,0,0,1,6.383-7.457a5.167,5.167,0,0,1,.879,3.2ZM5.371-4.3a3.526,3.526,0,0,0-.5-2.008,1.638,1.638,0,0,0-1.441-.742,1.747,1.747,0,0,0-1.672.961v3.75a1.763,1.763,0,0,0,1.688.984,1.636,1.636,0,0,0,1.418-.73A3.881,3.881,0,0,0,5.371-4.3Zm3.141,0A4.984,4.984,0,0,1,9-6.543a3.6,3.6,0,0,1,1.383-1.531,3.9,3.9,0,0,1,2.047-.535,3.692,3.692,0,0,1,2.777,1.1,4.333,4.333,0,0,1,1.152,2.922l.008.445a5.029,5.029,0,0,1-.48,2.234A3.551,3.551,0,0,1,14.516-.383a3.925,3.925,0,0,1-2.066.539A3.667,3.667,0,0,1,9.586-1.035,4.563,4.563,0,0,1,8.512-4.211Zm1.9.164A3.406,3.406,0,0,0,10.949-2.1a1.752,1.752,0,0,0,1.5.738,1.733,1.733,0,0,0,1.5-.75,3.762,3.762,0,0,0,.535-2.2,3.362,3.362,0,0,0-.551-2.031,1.759,1.759,0,0,0-1.5-.75,1.743,1.743,0,0,0-1.477.738A3.691,3.691,0,0,0,10.41-4.141ZM22.715-2.3A.861.861,0,0,0,22.3-3.07a4.445,4.445,0,0,0-1.387-.469,7.129,7.129,0,0,1-1.617-.516,2.158,2.158,0,0,1-1.422-1.992,2.25,2.25,0,0,1,.922-1.828,3.644,3.644,0,0,1,2.344-.734,3.792,3.792,0,0,1,2.449.75,2.38,2.38,0,0,1,.934,1.945h-1.9a1.17,1.17,0,0,0-.406-.91,1.557,1.557,0,0,0-1.078-.363,1.682,1.682,0,0,0-1.02.289.911.911,0,0,0-.395.773.769.769,0,0,0,.367.68,5.049,5.049,0,0,0,1.484.488,7.027,7.027,0,0,1,1.754.586,2.484,2.484,0,0,1,.945.816A2.082,2.082,0,0,1,24.582-2.4a2.2,2.2,0,0,1-.945,1.848A4.031,4.031,0,0,1,21.16.156a4.371,4.371,0,0,1-1.852-.375A3.047,3.047,0,0,1,18.043-1.25a2.441,2.441,0,0,1-.453-1.414h1.844a1.338,1.338,0,0,0,.508,1.035,1.973,1.973,0,0,0,1.242.363,1.92,1.92,0,0,0,1.141-.285A.883.883,0,0,0,22.715-2.3ZM28.254,0h-1.9V-8.453h1.9ZM26.238-10.648a1.008,1.008,0,0,1,.277-.727,1.048,1.048,0,0,1,.793-.289,1.061,1.061,0,0,1,.8.289,1,1,0,0,1,.281.727.977.977,0,0,1-.281.715,1.069,1.069,0,0,1-.8.285,1.056,1.056,0,0,1-.793-.285A.984.984,0,0,1,26.238-10.648Zm7.555,9.289a1.716,1.716,0,0,0,1.18-.414,1.415,1.415,0,0,0,.5-1.023h1.789a2.789,2.789,0,0,1-.492,1.473A3.228,3.228,0,0,1,35.52-.242a3.725,3.725,0,0,1-1.7.4A3.6,3.6,0,0,1,31-.992a4.555,4.555,0,0,1-1.039-3.172v-.2A4.479,4.479,0,0,1,31-7.449a3.571,3.571,0,0,1,2.813-1.16,3.473,3.473,0,0,1,2.457.879,3.148,3.148,0,0,1,1,2.309H35.473a1.738,1.738,0,0,0-.5-1.2,1.6,1.6,0,0,0-1.184-.469,1.671,1.671,0,0,0-1.422.668,3.408,3.408,0,0,0-.508,2.027v.3a3.465,3.465,0,0,0,.5,2.051A1.669,1.669,0,0,0,33.793-1.359ZM40.715,0h-1.9V-8.453h1.9ZM38.7-10.648a1.008,1.008,0,0,1,.277-.727,1.048,1.048,0,0,1,.793-.289,1.061,1.061,0,0,1,.8.289,1,1,0,0,1,.281.727.977.977,0,0,1-.281.715,1.069,1.069,0,0,1-.8.285,1.056,1.056,0,0,1-.793-.285A.984.984,0,0,1,38.7-10.648ZM42.426-4.3a4.984,4.984,0,0,1,.492-2.238A3.6,3.6,0,0,1,44.3-8.074a3.9,3.9,0,0,1,2.047-.535,3.692,3.692,0,0,1,2.777,1.1,4.333,4.333,0,0,1,1.152,2.922l.008.445a5.029,5.029,0,0,1-.48,2.234A3.551,3.551,0,0,1,48.43-.383a3.925,3.925,0,0,1-2.066.539A3.667,3.667,0,0,1,43.5-1.035a4.563,4.563,0,0,1-1.074-3.176Zm1.9.164A3.406,3.406,0,0,0,44.863-2.1a1.752,1.752,0,0,0,1.5.738,1.733,1.733,0,0,0,1.5-.75,3.762,3.762,0,0,0,.535-2.2,3.362,3.362,0,0,0-.551-2.031,1.759,1.759,0,0,0-1.5-.75,1.743,1.743,0,0,0-1.477.738A3.691,3.691,0,0,0,44.324-4.141ZM46.871-12h2.164L46.871-9.633H45.348Zm6.781,3.547.055.977a3.039,3.039,0,0,1,2.461-1.133q2.641,0,2.688,3.023V0h-1.9V-5.477a1.741,1.741,0,0,0-.348-1.191,1.462,1.462,0,0,0-1.137-.387,1.829,1.829,0,0,0-1.711,1.039V0h-1.9V-8.453Z" transform="translate(923.86 3431.566)" fill="#12263f"/>
                  <path id="Trazado_883099" data-name="Trazado 883099" d="M-21.531-2.93a1.374,1.374,0,0,0-.527-1.156,6.345,6.345,0,0,0-1.9-.82,9.186,9.186,0,0,1-2.187-.922A2.919,2.919,0,0,1-27.7-8.375a2.772,2.772,0,0,1,1.121-2.266,4.538,4.538,0,0,1,2.91-.891,4.916,4.916,0,0,1,2.117.438,3.475,3.475,0,0,1,1.461,1.246,3.2,3.2,0,0,1,.531,1.793h-1.969a1.782,1.782,0,0,0-.559-1.395,2.305,2.305,0,0,0-1.6-.5,2.408,2.408,0,0,0-1.5.414,1.379,1.379,0,0,0-.535,1.156,1.247,1.247,0,0,0,.578,1.043,6.66,6.66,0,0,0,1.906.813,8.768,8.768,0,0,1,2.133.9,3.392,3.392,0,0,1,1.18,1.156,3.011,3.011,0,0,1,.375,1.527,2.707,2.707,0,0,1-1.09,2.262A4.727,4.727,0,0,1-23.6.156,5.557,5.557,0,0,1-25.871-.3,3.812,3.812,0,0,1-27.48-1.562a3.144,3.144,0,0,1-.574-1.875h1.977a1.84,1.84,0,0,0,.641,1.5,2.805,2.805,0,0,0,1.836.531,2.437,2.437,0,0,0,1.551-.418A1.349,1.349,0,0,0-21.531-2.93ZM-15.961,0h-1.9V-8.453h1.9Zm-.359-11.945h2.164L-16.32-9.578h-1.523Zm4.281,3.492.055.977A3.039,3.039,0,0,1-9.523-8.609q2.641,0,2.688,3.023V0h-1.9V-5.477a1.741,1.741,0,0,0-.348-1.191,1.462,1.462,0,0,0-1.137-.387A1.829,1.829,0,0,0-11.93-6.016V0h-1.9V-8.453Zm9.516-2.055v2.055h1.492v1.406H-2.523v4.719a1.039,1.039,0,0,0,.191.7.888.888,0,0,0,.684.215,2.924,2.924,0,0,0,.664-.078V-.023a4.676,4.676,0,0,1-1.25.18q-2.188,0-2.187-2.414V-7.047H-5.812V-8.453h1.391v-2.055ZM4.141.156A3.928,3.928,0,0,1,1.215-.98,4.124,4.124,0,0,1,.094-4.008v-.234A5.072,5.072,0,0,1,.582-6.5,3.716,3.716,0,0,1,1.953-8.055a3.625,3.625,0,0,1,1.969-.555,3.318,3.318,0,0,1,2.668,1.1,4.658,4.658,0,0,1,.941,3.117v.766H2.008a2.539,2.539,0,0,0,.7,1.656,2.1,2.1,0,0,0,1.543.609A2.571,2.571,0,0,0,6.375-2.414L7.4-1.437A3.418,3.418,0,0,1,6.043-.262,4.244,4.244,0,0,1,4.141.156ZM3.914-7.086a1.6,1.6,0,0,0-1.262.547,2.835,2.835,0,0,0-.613,1.523H5.656v-.141A2.307,2.307,0,0,0,5.148-6.6,1.586,1.586,0,0,0,3.914-7.086ZM13.742-2.3a.861.861,0,0,0-.418-.773,4.445,4.445,0,0,0-1.387-.469,7.129,7.129,0,0,1-1.617-.516A2.158,2.158,0,0,1,8.9-6.047,2.25,2.25,0,0,1,9.82-7.875a3.644,3.644,0,0,1,2.344-.734,3.792,3.792,0,0,1,2.449.75,2.38,2.38,0,0,1,.934,1.945h-1.9a1.17,1.17,0,0,0-.406-.91,1.557,1.557,0,0,0-1.078-.363,1.682,1.682,0,0,0-1.02.289.911.911,0,0,0-.395.773.769.769,0,0,0,.367.68,5.049,5.049,0,0,0,1.484.488,7.027,7.027,0,0,1,1.754.586,2.484,2.484,0,0,1,.945.816A2.082,2.082,0,0,1,15.609-2.4a2.2,2.2,0,0,1-.945,1.848,4.031,4.031,0,0,1-2.477.707,4.371,4.371,0,0,1-1.852-.375A3.047,3.047,0,0,1,9.07-1.25a2.441,2.441,0,0,1-.453-1.414h1.844a1.338,1.338,0,0,0,.508,1.035,1.973,1.973,0,0,0,1.242.363,1.92,1.92,0,0,0,1.141-.285A.883.883,0,0,0,13.742-2.3ZM19.281,0h-1.9V-8.453h1.9ZM17.266-10.648a1.008,1.008,0,0,1,.277-.727,1.048,1.048,0,0,1,.793-.289,1.061,1.061,0,0,1,.8.289,1,1,0,0,1,.281.727.977.977,0,0,1-.281.715,1.069,1.069,0,0,1-.8.285,1.056,1.056,0,0,1-.793-.285A.984.984,0,0,1,17.266-10.648ZM26.086-2.3a.861.861,0,0,0-.418-.773,4.445,4.445,0,0,0-1.387-.469,7.129,7.129,0,0,1-1.617-.516,2.158,2.158,0,0,1-1.422-1.992,2.25,2.25,0,0,1,.922-1.828,3.644,3.644,0,0,1,2.344-.734,3.792,3.792,0,0,1,2.449.75,2.38,2.38,0,0,1,.934,1.945h-1.9a1.17,1.17,0,0,0-.406-.91,1.557,1.557,0,0,0-1.078-.363,1.682,1.682,0,0,0-1.02.289.911.911,0,0,0-.395.773.769.769,0,0,0,.367.68,5.049,5.049,0,0,0,1.484.488,7.027,7.027,0,0,1,1.754.586,2.484,2.484,0,0,1,.945.816A2.082,2.082,0,0,1,27.953-2.4a2.2,2.2,0,0,1-.945,1.848,4.031,4.031,0,0,1-2.477.707A4.371,4.371,0,0,1,22.68-.219,3.047,3.047,0,0,1,21.414-1.25a2.441,2.441,0,0,1-.453-1.414H22.8a1.338,1.338,0,0,0,.508,1.035,1.973,1.973,0,0,0,1.242.363A1.92,1.92,0,0,0,25.7-1.551.883.883,0,0,0,26.086-2.3Z" transform="translate(1054.853 3431.566)" fill="#12263f"/>
                  <path id="Trazado_883100" data-name="Trazado 883100" d="M-33.344-2.93a1.374,1.374,0,0,0-.527-1.156,6.345,6.345,0,0,0-1.9-.82,9.186,9.186,0,0,1-2.187-.922,2.919,2.919,0,0,1-1.555-2.547,2.772,2.772,0,0,1,1.121-2.266,4.538,4.538,0,0,1,2.91-.891,4.916,4.916,0,0,1,2.117.438,3.475,3.475,0,0,1,1.461,1.246,3.2,3.2,0,0,1,.531,1.793h-1.969A1.782,1.782,0,0,0-33.9-9.449a2.305,2.305,0,0,0-1.6-.5,2.408,2.408,0,0,0-1.5.414,1.379,1.379,0,0,0-.535,1.156,1.247,1.247,0,0,0,.578,1.043,6.66,6.66,0,0,0,1.906.813,8.768,8.768,0,0,1,2.133.9,3.392,3.392,0,0,1,1.18,1.156,3.011,3.011,0,0,1,.375,1.527,2.707,2.707,0,0,1-1.09,2.262,4.727,4.727,0,0,1-2.957.84A5.557,5.557,0,0,1-37.684-.3a3.812,3.812,0,0,1-1.609-1.262,3.144,3.144,0,0,1-.574-1.875h1.977a1.84,1.84,0,0,0,.641,1.5,2.805,2.805,0,0,0,1.836.531,2.437,2.437,0,0,0,1.551-.418A1.349,1.349,0,0,0-33.344-2.93Zm8.648,2.1A2.944,2.944,0,0,1-27.07.156a2.624,2.624,0,0,1-2.082-.8,3.423,3.423,0,0,1-.707-2.328V-8.453h1.9V-3q0,1.609,1.336,1.609a1.876,1.876,0,0,0,1.867-.992v-6.07h1.9V0h-1.789ZM-16.187-2.3a.861.861,0,0,0-.418-.773,4.445,4.445,0,0,0-1.387-.469,7.129,7.129,0,0,1-1.617-.516,2.158,2.158,0,0,1-1.422-1.992,2.25,2.25,0,0,1,.922-1.828,3.644,3.644,0,0,1,2.344-.734,3.792,3.792,0,0,1,2.449.75,2.38,2.38,0,0,1,.934,1.945h-1.9a1.17,1.17,0,0,0-.406-.91,1.557,1.557,0,0,0-1.078-.363,1.682,1.682,0,0,0-1.02.289.911.911,0,0,0-.395.773.769.769,0,0,0,.367.68,5.049,5.049,0,0,0,1.484.488,7.027,7.027,0,0,1,1.754.586,2.484,2.484,0,0,1,.945.816A2.082,2.082,0,0,1-14.32-2.4a2.2,2.2,0,0,1-.945,1.848,4.031,4.031,0,0,1-2.477.707,4.371,4.371,0,0,1-1.852-.375A3.047,3.047,0,0,1-20.859-1.25a2.441,2.441,0,0,1-.453-1.414h1.844a1.338,1.338,0,0,0,.508,1.035,1.973,1.973,0,0,0,1.242.363,1.92,1.92,0,0,0,1.141-.285A.883.883,0,0,0-16.187-2.3Zm5.9-8.211v2.055H-8.8v1.406h-1.492v4.719a1.039,1.039,0,0,0,.191.7.888.888,0,0,0,.684.215,2.924,2.924,0,0,0,.664-.078V-.023A4.676,4.676,0,0,1-10,.156q-2.187,0-2.187-2.414V-7.047h-1.391V-8.453h1.391v-2.055ZM-5.328,0h-1.9V-8.453h1.9ZM-7.344-10.648a1.008,1.008,0,0,1,.277-.727,1.048,1.048,0,0,1,.793-.289,1.061,1.061,0,0,1,.8.289,1,1,0,0,1,.281.727.977.977,0,0,1-.281.715,1.069,1.069,0,0,1-.8.285,1.056,1.056,0,0,1-.793-.285A.984.984,0,0,1-7.344-10.648Zm6.461.141v2.055H.609v1.406H-.883v4.719a1.039,1.039,0,0,0,.191.7.888.888,0,0,0,.684.215,2.924,2.924,0,0,0,.664-.078V-.023a4.676,4.676,0,0,1-1.25.18q-2.188,0-2.187-2.414V-7.047H-4.172V-8.453h1.391v-2.055ZM7.18-.828A2.944,2.944,0,0,1,4.8.156a2.624,2.624,0,0,1-2.082-.8,3.423,3.423,0,0,1-.707-2.328V-8.453h1.9V-3q0,1.609,1.336,1.609a1.876,1.876,0,0,0,1.867-.992v-6.07h1.9V0H7.227Zm7.242-.531a1.716,1.716,0,0,0,1.18-.414A1.415,1.415,0,0,0,16.1-2.8h1.789A2.789,2.789,0,0,1,17.4-1.324a3.228,3.228,0,0,1-1.25,1.082,3.725,3.725,0,0,1-1.7.4A3.6,3.6,0,0,1,11.633-.992a4.555,4.555,0,0,1-1.039-3.172v-.2a4.479,4.479,0,0,1,1.031-3.09,3.571,3.571,0,0,1,2.813-1.16,3.473,3.473,0,0,1,2.457.879,3.148,3.148,0,0,1,1,2.309H16.1a1.738,1.738,0,0,0-.5-1.2,1.6,1.6,0,0,0-1.184-.469A1.671,1.671,0,0,0,13-6.418a3.408,3.408,0,0,0-.508,2.027v.3a3.465,3.465,0,0,0,.5,2.051A1.669,1.669,0,0,0,14.422-1.359ZM21.344,0h-1.9V-8.453h1.9ZM19.328-10.648a1.008,1.008,0,0,1,.277-.727,1.048,1.048,0,0,1,.793-.289,1.061,1.061,0,0,1,.8.289,1,1,0,0,1,.281.727.977.977,0,0,1-.281.715,1.069,1.069,0,0,1-.8.285,1.056,1.056,0,0,1-.793-.285A.984.984,0,0,1,19.328-10.648ZM23.055-4.3a4.984,4.984,0,0,1,.492-2.238A3.6,3.6,0,0,1,24.93-8.074a3.9,3.9,0,0,1,2.047-.535,3.692,3.692,0,0,1,2.777,1.1,4.333,4.333,0,0,1,1.152,2.922l.008.445a5.029,5.029,0,0,1-.48,2.234A3.551,3.551,0,0,1,29.059-.383a3.925,3.925,0,0,1-2.066.539,3.667,3.667,0,0,1-2.863-1.191,4.563,4.563,0,0,1-1.074-3.176Zm1.9.164A3.406,3.406,0,0,0,25.492-2.1a1.752,1.752,0,0,0,1.5.738,1.733,1.733,0,0,0,1.5-.75,3.762,3.762,0,0,0,.535-2.2,3.362,3.362,0,0,0-.551-2.031,1.759,1.759,0,0,0-1.5-.75,1.743,1.743,0,0,0-1.477.738A3.691,3.691,0,0,0,24.953-4.141ZM27.5-12h2.164L27.5-9.633H25.977Zm6.781,3.547.055.977A3.039,3.039,0,0,1,36.8-8.609q2.641,0,2.688,3.023V0h-1.9V-5.477a1.741,1.741,0,0,0-.348-1.191A1.462,1.462,0,0,0,36.1-7.055a1.829,1.829,0,0,0-1.711,1.039V0h-1.9V-8.453Z" transform="translate(1165.697 3431.566)" fill="#12263f"/>
                  <path id="Trazado_883101" data-name="Trazado 883101" d="M-19.465,0V-11.375h3.359a5.269,5.269,0,0,1,2.676.672A4.581,4.581,0,0,1-11.621-8.8a6.051,6.051,0,0,1,.641,2.828v.57a6.026,6.026,0,0,1-.645,2.844A4.526,4.526,0,0,1-13.461-.664,5.513,5.513,0,0,1-16.191,0Zm1.977-9.781v8.2H-16.2a2.968,2.968,0,0,0,2.387-.973,4.237,4.237,0,0,0,.848-2.793v-.633a4.347,4.347,0,0,0-.8-2.828,2.853,2.853,0,0,0-2.336-.977ZM-9.551-4.3a4.984,4.984,0,0,1,.492-2.238A3.6,3.6,0,0,1-7.676-8.074a3.9,3.9,0,0,1,2.047-.535,3.692,3.692,0,0,1,2.777,1.1A4.333,4.333,0,0,1-1.7-4.586l.008.445a5.029,5.029,0,0,1-.48,2.234A3.551,3.551,0,0,1-3.547-.383,3.925,3.925,0,0,1-5.613.156,3.667,3.667,0,0,1-8.477-1.035,4.563,4.563,0,0,1-9.551-4.211Zm1.9.164A3.406,3.406,0,0,0-7.113-2.1a1.752,1.752,0,0,0,1.5.738,1.733,1.733,0,0,0,1.5-.75,3.762,3.762,0,0,0,.535-2.2,3.362,3.362,0,0,0-.551-2.031,1.759,1.759,0,0,0-1.5-.75,1.743,1.743,0,0,0-1.477.738A3.691,3.691,0,0,0-7.652-4.141Zm14.984,0a5.078,5.078,0,0,1-.879,3.133A2.863,2.863,0,0,1,4.035.156,2.758,2.758,0,0,1,1.723-.914L1.629,0H-.09V-12h1.9v4.359A2.748,2.748,0,0,1,4.02-8.609a2.9,2.9,0,0,1,2.43,1.148A5.162,5.162,0,0,1,7.332-4.25ZM5.434-4.3a3.589,3.589,0,0,0-.484-2.062,1.613,1.613,0,0,0-1.406-.687A1.763,1.763,0,0,0,1.809-5.977v3.484a1.781,1.781,0,0,0,1.75,1.1,1.6,1.6,0,0,0,1.375-.664,3.477,3.477,0,0,0,.5-2.008ZM10.941,0h-1.9V-12h1.9ZM16.73.156A3.928,3.928,0,0,1,13.8-.98a4.124,4.124,0,0,1-1.121-3.027v-.234A5.072,5.072,0,0,1,13.172-6.5a3.716,3.716,0,0,1,1.371-1.551,3.625,3.625,0,0,1,1.969-.555,3.318,3.318,0,0,1,2.668,1.1,4.658,4.658,0,0,1,.941,3.117v.766H14.6a2.539,2.539,0,0,0,.7,1.656,2.1,2.1,0,0,0,1.543.609,2.571,2.571,0,0,0,2.125-1.055l1.023.977A3.418,3.418,0,0,1,18.633-.262,4.244,4.244,0,0,1,16.73.156ZM16.5-7.086a1.6,1.6,0,0,0-1.262.547,2.835,2.835,0,0,0-.613,1.523h3.617v-.141A2.307,2.307,0,0,0,17.738-6.6,1.586,1.586,0,0,0,16.5-7.086ZM-34.035,13.7a.861.861,0,0,0-.418-.773,4.445,4.445,0,0,0-1.387-.469,7.129,7.129,0,0,1-1.617-.516,2.158,2.158,0,0,1-1.422-1.992,2.25,2.25,0,0,1,.922-1.828,3.644,3.644,0,0,1,2.344-.734,3.792,3.792,0,0,1,2.449.75,2.38,2.38,0,0,1,.934,1.945h-1.9a1.17,1.17,0,0,0-.406-.91,1.557,1.557,0,0,0-1.078-.363,1.682,1.682,0,0,0-1.02.289.911.911,0,0,0-.395.773.769.769,0,0,0,.367.68,5.049,5.049,0,0,0,1.484.488,7.027,7.027,0,0,1,1.754.586,2.484,2.484,0,0,1,.945.816,2.082,2.082,0,0,1,.309,1.156,2.2,2.2,0,0,1-.945,1.848,4.031,4.031,0,0,1-2.477.707,4.371,4.371,0,0,1-1.852-.375,3.047,3.047,0,0,1-1.266-1.031,2.441,2.441,0,0,1-.453-1.414h1.844a1.338,1.338,0,0,0,.508,1.035,1.973,1.973,0,0,0,1.242.363,1.92,1.92,0,0,0,1.141-.285A.883.883,0,0,0-34.035,13.7Zm8.641,1.469a2.944,2.944,0,0,1-2.375.984,2.624,2.624,0,0,1-2.082-.8,3.423,3.423,0,0,1-.707-2.328V7.547h1.9V13q0,1.609,1.336,1.609a1.876,1.876,0,0,0,1.867-.992V7.547h1.9V16h-1.789Zm8.508-1.469a.861.861,0,0,0-.418-.773,4.445,4.445,0,0,0-1.387-.469,7.129,7.129,0,0,1-1.617-.516A2.158,2.158,0,0,1-21.73,9.953a2.25,2.25,0,0,1,.922-1.828,3.644,3.644,0,0,1,2.344-.734,3.792,3.792,0,0,1,2.449.75,2.38,2.38,0,0,1,.934,1.945h-1.9a1.17,1.17,0,0,0-.406-.91,1.557,1.557,0,0,0-1.078-.363,1.682,1.682,0,0,0-1.02.289.911.911,0,0,0-.395.773.769.769,0,0,0,.367.68,5.049,5.049,0,0,0,1.484.488,7.027,7.027,0,0,1,1.754.586,2.484,2.484,0,0,1,.945.816A2.082,2.082,0,0,1-15.02,13.6a2.2,2.2,0,0,1-.945,1.848,4.031,4.031,0,0,1-2.477.707,4.371,4.371,0,0,1-1.852-.375,3.047,3.047,0,0,1-1.266-1.031,2.441,2.441,0,0,1-.453-1.414h1.844a1.338,1.338,0,0,0,.508,1.035,1.973,1.973,0,0,0,1.242.363,1.92,1.92,0,0,0,1.141-.285A.883.883,0,0,0-16.887,13.7Zm5.9-8.211V7.547H-9.5V8.953h-1.492v4.719a1.039,1.039,0,0,0,.191.7.888.888,0,0,0,.684.215,2.924,2.924,0,0,0,.664-.078v1.469a4.676,4.676,0,0,1-1.25.18q-2.187,0-2.187-2.414V8.953h-1.391V7.547h1.391V5.492ZM-6.027,16h-1.9V7.547h1.9ZM-8.043,5.352a1.008,1.008,0,0,1,.277-.727,1.048,1.048,0,0,1,.793-.289,1.061,1.061,0,0,1,.8.289,1,1,0,0,1,.281.727.977.977,0,0,1-.281.715,1.069,1.069,0,0,1-.8.285,1.056,1.056,0,0,1-.793-.285A.984.984,0,0,1-8.043,5.352Zm6.461.141V7.547H-.09V8.953H-1.582v4.719a1.039,1.039,0,0,0,.191.7.888.888,0,0,0,.684.215,2.925,2.925,0,0,0,.664-.078v1.469a4.676,4.676,0,0,1-1.25.18q-2.188,0-2.187-2.414V8.953H-4.871V7.547H-3.48V5.492Zm8.063,9.68a2.944,2.944,0,0,1-2.375.984,2.624,2.624,0,0,1-2.082-.8,3.423,3.423,0,0,1-.707-2.328V7.547h1.9V13q0,1.609,1.336,1.609a1.876,1.876,0,0,0,1.867-.992V7.547h1.9V16H6.527Zm7.242-.531a1.716,1.716,0,0,0,1.18-.414,1.415,1.415,0,0,0,.5-1.023h1.789a2.789,2.789,0,0,1-.492,1.473,3.228,3.228,0,0,1-1.25,1.082,3.725,3.725,0,0,1-1.7.4,3.6,3.6,0,0,1-2.812-1.148,4.555,4.555,0,0,1-1.039-3.172v-.2a4.479,4.479,0,0,1,1.031-3.09,3.571,3.571,0,0,1,2.813-1.16A3.473,3.473,0,0,1,16.2,8.27a3.148,3.148,0,0,1,1,2.309H15.4a1.738,1.738,0,0,0-.5-1.2,1.6,1.6,0,0,0-1.184-.469,1.671,1.671,0,0,0-1.422.668,3.408,3.408,0,0,0-.508,2.027v.3a3.465,3.465,0,0,0,.5,2.051A1.669,1.669,0,0,0,13.723,14.641ZM20.645,16h-1.9V7.547h1.9ZM18.629,5.352a1.008,1.008,0,0,1,.277-.727,1.048,1.048,0,0,1,.793-.289,1.061,1.061,0,0,1,.8.289,1,1,0,0,1,.281.727.977.977,0,0,1-.281.715,1.069,1.069,0,0,1-.8.285,1.056,1.056,0,0,1-.793-.285A.984.984,0,0,1,18.629,5.352ZM22.355,11.7a4.984,4.984,0,0,1,.492-2.238A3.6,3.6,0,0,1,24.23,7.926a3.9,3.9,0,0,1,2.047-.535,3.692,3.692,0,0,1,2.777,1.1,4.333,4.333,0,0,1,1.152,2.922l.008.445a5.029,5.029,0,0,1-.48,2.234,3.551,3.551,0,0,1-1.375,1.523,3.925,3.925,0,0,1-2.066.539,3.667,3.667,0,0,1-2.863-1.191,4.563,4.563,0,0,1-1.074-3.176Zm1.9.164a3.406,3.406,0,0,0,.539,2.043,1.752,1.752,0,0,0,1.5.738,1.733,1.733,0,0,0,1.5-.75,3.762,3.762,0,0,0,.535-2.2,3.362,3.362,0,0,0-.551-2.031A1.856,1.856,0,0,0,24.8,9.652,3.691,3.691,0,0,0,24.254,11.859ZM26.8,4h2.164L26.8,6.367H25.277Zm6.781,3.547.055.977A3.039,3.039,0,0,1,36.1,7.391q2.641,0,2.688,3.023V16h-1.9V10.523a1.741,1.741,0,0,0-.348-1.191A1.462,1.462,0,0,0,35.4,8.945a1.829,1.829,0,0,0-1.711,1.039V16h-1.9V7.547Z" transform="translate(1284.899 3431.566)" fill="#12263f"/>
                </g>
              </g>
            </g>
          </g>
        </g>
      </g>
    </g>
  </g>
</svg>
