<svg xmlns="http://www.w3.org/2000/svg" width="544" height="350.442" viewBox="0 0 544 350.442">
  <g id="Grupo_1102911" data-name="Grupo 1102911" transform="translate(-821 -4991.86)">
    <g id="Grupo_1102910" data-name="Grupo 1102910">
      <g id="Grupo_1102909" data-name="Grupo 1102909">
        <g id="Rectángulo_402665" data-name="Rectángulo 402665" transform="translate(821 4991.86)" fill="#fff" stroke="#ea3a70" stroke-width="1">
          <rect width="544" height="350.442" stroke="none"/>
          <rect x="0.5" y="0.5" width="543" height="349.442" fill="none"/>
        </g>
        <g id="Grupo_1102793" data-name="Grupo 1102793" transform="translate(330.091 -1836.322)">
          <g id="Grupo_1102792" data-name="Grupo 1102792" transform="translate(580.051 6838.64)">
            <ellipse id="Elipse_11557" data-name="Elipse 11557" cx="109" cy="109.5" rx="109" ry="109.5" transform="translate(73.858 -0.458)" fill="#69ccd1" opacity="0.438"/>
            <circle id="Elipse_11558" data-name="Elipse 11558" cx="109.5" cy="109.5" r="109.5" transform="translate(-0.142 111.542)" fill="#ffc03c" opacity="0.438"/>
            <circle id="Elipse_11559" data-name="Elipse 11559" cx="109.5" cy="109.5" r="109.5" transform="translate(145.858 111.542)" fill="#ea3a70" opacity="0.438"/>
            <path id="Trazado_883123" data-name="Trazado 883123" d="M-30.041-5.546H-35.1v3.428h5.941V0H-37.74V-12.8h8.561v2.136H-35.1v3.05h5.063Zm9.062,2.188A1.353,1.353,0,0,0-21.507-4.5a6.917,6.917,0,0,0-1.9-.844,13.458,13.458,0,0,1-2.171-.875A3.547,3.547,0,0,1-27.756-9.4a3.09,3.09,0,0,1,.584-1.85,3.812,3.812,0,0,1,1.679-1.27,6.318,6.318,0,0,1,2.457-.457,5.751,5.751,0,0,1,2.443.5,3.891,3.891,0,0,1,1.666,1.4,3.668,3.668,0,0,1,.593,2.057h-2.637a1.726,1.726,0,0,0-.554-1.367,2.276,2.276,0,0,0-1.556-.488,2.432,2.432,0,0,0-1.5.409,1.289,1.289,0,0,0-.536,1.077,1.235,1.235,0,0,0,.628,1.046,7.1,7.1,0,0,0,1.85.791,7.994,7.994,0,0,1,3.278,1.679,3.343,3.343,0,0,1,1.028,2.5A3.08,3.08,0,0,1-19.591-.769a5.5,5.5,0,0,1-3.384.945,6.534,6.534,0,0,1-2.689-.541,4.256,4.256,0,0,1-1.85-1.481,3.793,3.793,0,0,1-.637-2.18h2.646q0,2.118,2.531,2.118a2.462,2.462,0,0,0,1.468-.382A1.244,1.244,0,0,0-20.979-3.357Zm7.066-1.151V0H-16.55V-12.8h4.992a5.776,5.776,0,0,1,2.536.527,3.886,3.886,0,0,1,1.683,1.5,4.178,4.178,0,0,1,.589,2.21A3.674,3.674,0,0,1-8.038-5.594,5.363,5.363,0,0,1-11.6-4.509Zm0-2.136h2.355a2.316,2.316,0,0,0,1.6-.492,1.79,1.79,0,0,0,.549-1.406,2.111,2.111,0,0,0-.554-1.521,2.068,2.068,0,0,0-1.529-.6h-2.417ZM-2.136,0H-4.772V-12.8h2.637Zm-.817-16.251H-.185l-2.435,2.725H-4.685Zm8,11.566h-2.1V0H.308V-12.8H5.063a5.375,5.375,0,0,1,3.5,1.011A3.488,3.488,0,0,1,9.791-8.93a3.937,3.937,0,0,1-.567,2.184A3.866,3.866,0,0,1,7.506-5.353L10.274-.123V0H7.444ZM2.944-6.82H5.071a2.178,2.178,0,0,0,1.538-.505,1.806,1.806,0,0,0,.545-1.393,1.933,1.933,0,0,0-.514-1.424,2.137,2.137,0,0,0-1.578-.519H2.944ZM14.6,0H11.962V-12.8H14.6ZM26.675-10.661h-3.92V0H20.118V-10.661H16.251V-12.8H26.675ZM37.863-12.8v8.429a4.315,4.315,0,0,1-1.314,3.322A5.066,5.066,0,0,1,32.959.176,5.123,5.123,0,0,1,29.4-1.011a4.242,4.242,0,0,1-1.345-3.261V-12.8h2.637v8.446a2.438,2.438,0,0,0,.6,1.833,2.311,2.311,0,0,0,1.666.576q2.224,0,2.259-2.338V-12.8Z" transform="translate(181.858 81.542)" fill="#12263f"/>
            <path id="Trazado_883124" data-name="Trazado 883124" d="M-25.12-1.655h-2.754L-28.45,0h-1.284l2.686-7.109h1.108L-23.25,0h-1.289Zm-2.407-1h2.061L-26.5-5.6Zm8.115,2.134A1.84,1.84,0,0,1-20.9.1a1.64,1.64,0,0,1-1.3-.5,2.139,2.139,0,0,1-.442-1.455V-5.283h1.187v3.408q0,1.006.835,1.006a1.173,1.173,0,0,0,1.167-.62V-5.283h1.187V0h-1.118Zm3.843-6.05v1.284h.933V-4.4h-.933v2.949a.649.649,0,0,0,.12.437.555.555,0,0,0,.427.134,1.828,1.828,0,0,0,.415-.049v.918A2.922,2.922,0,0,1-15.388.1q-1.367,0-1.367-1.509V-4.4h-.869v-.879h.869V-6.567ZM-14.1-2.69a3.115,3.115,0,0,1,.308-1.4,2.247,2.247,0,0,1,.864-.957,2.435,2.435,0,0,1,1.279-.334,2.308,2.308,0,0,1,1.736.688,2.708,2.708,0,0,1,.72,1.826l0,.278a3.143,3.143,0,0,1-.3,1.4,2.22,2.22,0,0,1-.859.952A2.453,2.453,0,0,1-11.638.1a2.292,2.292,0,0,1-1.79-.745A2.852,2.852,0,0,1-14.1-2.632Zm1.187.1a2.129,2.129,0,0,0,.337,1.277,1.1,1.1,0,0,0,.938.461,1.083,1.083,0,0,0,.935-.469,2.351,2.351,0,0,0,.334-1.372,2.1,2.1,0,0,0-.344-1.27,1.1,1.1,0,0,0-.935-.469,1.089,1.089,0,0,0-.923.461A2.307,2.307,0,0,0-12.913-2.588Zm6.9,1.738a1.073,1.073,0,0,0,.737-.259.884.884,0,0,0,.313-.64h1.118a1.743,1.743,0,0,1-.308.92,2.018,2.018,0,0,1-.781.676A2.328,2.328,0,0,1-6,.1,2.253,2.253,0,0,1-7.756-.62,2.847,2.847,0,0,1-8.406-2.6v-.122a2.8,2.8,0,0,1,.645-1.931A2.232,2.232,0,0,1-6-5.381a2.171,2.171,0,0,1,1.536.549,1.968,1.968,0,0,1,.623,1.443H-4.963a1.087,1.087,0,0,0-.31-.747,1,1,0,0,0-.74-.293,1.044,1.044,0,0,0-.889.417,2.13,2.13,0,0,0-.317,1.267v.19a2.166,2.166,0,0,0,.31,1.282A1.043,1.043,0,0,0-6.013-.85ZM.251-.518A1.84,1.84,0,0,1-1.233.1a1.64,1.64,0,0,1-1.3-.5A2.139,2.139,0,0,1-2.976-1.86V-5.283H-1.79v3.408q0,1.006.835,1.006a1.173,1.173,0,0,0,1.167-.62V-5.283H1.4V0H.281ZM5.374-4.2a2.936,2.936,0,0,0-.483-.039,1.088,1.088,0,0,0-1.1.625V0H2.6V-5.283H3.738l.029.591a1.337,1.337,0,0,1,1.191-.688,1.111,1.111,0,0,1,.42.068ZM9.133,0A1.831,1.831,0,0,1,9-.493,1.847,1.847,0,0,1,7.61.1a1.864,1.864,0,0,1-1.3-.454,1.453,1.453,0,0,1-.5-1.123,1.5,1.5,0,0,1,.627-1.3A3.041,3.041,0,0,1,8.23-3.228h.728v-.347a.925.925,0,0,0-.229-.657.91.91,0,0,0-.7-.247,1.045,1.045,0,0,0-.664.2.627.627,0,0,0-.259.515H5.92a1.317,1.317,0,0,1,.288-.813,1.919,1.919,0,0,1,.784-.593A2.753,2.753,0,0,1,8.1-5.381a2.217,2.217,0,0,1,1.479.466A1.663,1.663,0,0,1,10.144-3.6v2.383a2.7,2.7,0,0,0,.2,1.138V0ZM7.83-.854a1.35,1.35,0,0,0,.662-.171,1.142,1.142,0,0,0,.466-.459v-1h-.64a1.749,1.749,0,0,0-.991.229.743.743,0,0,0-.332.649.693.693,0,0,0,.227.544A.879.879,0,0,0,7.83-.854Zm5.728,0a1.073,1.073,0,0,0,.737-.259.884.884,0,0,0,.313-.64h1.118a1.743,1.743,0,0,1-.308.92,2.018,2.018,0,0,1-.781.676A2.328,2.328,0,0,1,13.572.1,2.253,2.253,0,0,1,11.814-.62,2.847,2.847,0,0,1,11.165-2.6v-.122a2.8,2.8,0,0,1,.645-1.931,2.232,2.232,0,0,1,1.758-.725,2.171,2.171,0,0,1,1.536.549,1.968,1.968,0,0,1,.623,1.443H14.607a1.087,1.087,0,0,0-.31-.747,1,1,0,0,0-.74-.293,1.044,1.044,0,0,0-.889.417,2.13,2.13,0,0,0-.317,1.267v.19a2.166,2.166,0,0,0,.31,1.282A1.043,1.043,0,0,0,13.557-.85ZM17.883,0H16.7V-5.283h1.187Zm-1.26-6.655a.63.63,0,0,1,.173-.454.655.655,0,0,1,.5-.181.663.663,0,0,1,.5.181.625.625,0,0,1,.176.454.61.61,0,0,1-.176.447.668.668,0,0,1-.5.178.66.66,0,0,1-.5-.178A.615.615,0,0,1,16.624-6.655ZM18.953-2.69a3.115,3.115,0,0,1,.308-1.4,2.247,2.247,0,0,1,.864-.957A2.435,2.435,0,0,1,21.4-5.381a2.308,2.308,0,0,1,1.736.688,2.708,2.708,0,0,1,.72,1.826l0,.278a3.143,3.143,0,0,1-.3,1.4,2.22,2.22,0,0,1-.859.952A2.453,2.453,0,0,1,21.414.1a2.292,2.292,0,0,1-1.79-.745,2.852,2.852,0,0,1-.671-1.985Zm1.187.1a2.129,2.129,0,0,0,.337,1.277,1.1,1.1,0,0,0,.938.461,1.083,1.083,0,0,0,.935-.469,2.351,2.351,0,0,0,.334-1.372,2.1,2.1,0,0,0-.344-1.27,1.1,1.1,0,0,0-.935-.469,1.089,1.089,0,0,0-.923.461A2.307,2.307,0,0,0,20.139-2.588ZM21.731-7.5h1.353L21.731-6.021h-.952Zm4.238,2.217.034.61a1.9,1.9,0,0,1,1.538-.708q1.65,0,1.68,1.89V0H28.035V-3.423a1.088,1.088,0,0,0-.217-.745.914.914,0,0,0-.71-.242,1.143,1.143,0,0,0-1.069.649V0H24.851V-5.283Z" transform="translate(122.858 144.542)" fill="#12263f"/>
            <path id="Trazado_883125" data-name="Trazado 883125" d="M-24.866-3.174h-2.92V-.986h3.413V0h-4.648V-7.109h4.614v1h-3.379V-4.15h2.92Zm4.346,1.738a.538.538,0,0,0-.261-.483,2.778,2.778,0,0,0-.867-.293,4.455,4.455,0,0,1-1.011-.322,1.349,1.349,0,0,1-.889-1.245,1.406,1.406,0,0,1,.576-1.143,2.278,2.278,0,0,1,1.465-.459,2.37,2.37,0,0,1,1.531.469A1.487,1.487,0,0,1-19.392-3.7h-1.187a.731.731,0,0,0-.254-.569.973.973,0,0,0-.674-.227,1.051,1.051,0,0,0-.637.181.57.57,0,0,0-.247.483.481.481,0,0,0,.229.425,3.156,3.156,0,0,0,.928.305,4.392,4.392,0,0,1,1.1.366,1.552,1.552,0,0,1,.591.51,1.3,1.3,0,0,1,.193.723,1.377,1.377,0,0,1-.591,1.155A2.519,2.519,0,0,1-21.492.1a2.732,2.732,0,0,1-1.157-.234,1.9,1.9,0,0,1-.791-.645,1.526,1.526,0,0,1-.283-.884h1.152a.836.836,0,0,0,.317.647,1.233,1.233,0,0,0,.776.227,1.2,1.2,0,0,0,.713-.178A.552.552,0,0,0-20.52-1.436Zm3.687-5.132v1.284h.933V-4.4h-.933v2.949a.65.65,0,0,0,.12.437.555.555,0,0,0,.427.134,1.828,1.828,0,0,0,.415-.049v.918A2.922,2.922,0,0,1-16.653.1Q-18.02.1-18.02-1.411V-4.4h-.869v-.879h.869V-6.567ZM-13.733,0h-1.187V-5.283h1.187Zm-1.26-6.655a.63.63,0,0,1,.173-.454.655.655,0,0,1,.5-.181.663.663,0,0,1,.5.181.625.625,0,0,1,.176.454.61.61,0,0,1-.176.447.668.668,0,0,1-.5.178.66.66,0,0,1-.5-.178A.615.615,0,0,1-14.993-6.655ZM-11.179,0h-1.187V-7.5h1.187Zm1.069-2.69a3.115,3.115,0,0,1,.308-1.4,2.247,2.247,0,0,1,.864-.957,2.435,2.435,0,0,1,1.279-.334,2.308,2.308,0,0,1,1.736.688A2.708,2.708,0,0,1-5.2-2.866l0,.278a3.143,3.143,0,0,1-.3,1.4,2.22,2.22,0,0,1-.859.952A2.453,2.453,0,0,1-7.649.1a2.292,2.292,0,0,1-1.79-.745,2.852,2.852,0,0,1-.671-1.985Zm1.187.1a2.129,2.129,0,0,0,.337,1.277,1.1,1.1,0,0,0,.938.461,1.083,1.083,0,0,0,.935-.469A2.351,2.351,0,0,0-6.379-2.69a2.1,2.1,0,0,0-.344-1.27,1.1,1.1,0,0,0-.935-.469,1.089,1.089,0,0,0-.923.461A2.307,2.307,0,0,0-8.923-2.588Zm7-.093a3.141,3.141,0,0,1,.566-1.96,1.815,1.815,0,0,1,1.519-.74,1.724,1.724,0,0,1,1.357.586V-7.5H2.7V0H1.628L1.57-.547A1.749,1.749,0,0,1,.149.1a1.8,1.8,0,0,1-1.5-.747A3.256,3.256,0,0,1-1.926-2.681Zm1.187.1A2.2,2.2,0,0,0-.43-1.321a1.006,1.006,0,0,0,.881.452,1.121,1.121,0,0,0,1.064-.649V-3.774A1.1,1.1,0,0,0,.461-4.409a1.013,1.013,0,0,0-.889.457A2.449,2.449,0,0,0-.74-2.578ZM6.267.1a2.455,2.455,0,0,1-1.829-.71,2.577,2.577,0,0,1-.7-1.892v-.146a3.17,3.17,0,0,1,.305-1.414A2.323,2.323,0,0,1,4.9-5.034a2.265,2.265,0,0,1,1.23-.347A2.074,2.074,0,0,1,7.8-4.692a2.911,2.911,0,0,1,.588,1.948v.479H4.934A1.587,1.587,0,0,0,5.371-1.23a1.312,1.312,0,0,0,.964.381,1.607,1.607,0,0,0,1.328-.659L8.3-.9a2.136,2.136,0,0,1-.847.735A2.652,2.652,0,0,1,6.267.1ZM6.125-4.429a1,1,0,0,0-.789.342,1.772,1.772,0,0,0-.383.952H7.214v-.088a1.442,1.442,0,0,0-.317-.9A.992.992,0,0,0,6.125-4.429ZM13.66-1.5l1.118-3.779H16L14.172,0h-1.03L11.3-5.283h1.23ZM18.005,0H16.819V-5.283h1.187Zm-1.26-6.655a.63.63,0,0,1,.173-.454.655.655,0,0,1,.5-.181.663.663,0,0,1,.5.181.625.625,0,0,1,.176.454.61.61,0,0,1-.176.447.668.668,0,0,1-.5.178.66.66,0,0,1-.5-.178A.615.615,0,0,1,16.746-6.655Zm2.329,3.975a3.141,3.141,0,0,1,.566-1.96,1.815,1.815,0,0,1,1.519-.74,1.724,1.724,0,0,1,1.357.586V-7.5H23.7V0H22.629l-.059-.547A1.749,1.749,0,0,1,21.15.1a1.8,1.8,0,0,1-1.5-.747A3.256,3.256,0,0,1,19.075-2.681Zm1.187.1a2.2,2.2,0,0,0,.31,1.257,1.006,1.006,0,0,0,.881.452,1.121,1.121,0,0,0,1.064-.649V-3.774a1.1,1.1,0,0,0-1.055-.635,1.013,1.013,0,0,0-.889.457A2.449,2.449,0,0,0,20.261-2.578ZM28.1,0a1.831,1.831,0,0,1-.137-.493A1.847,1.847,0,0,1,26.575.1a1.864,1.864,0,0,1-1.3-.454,1.453,1.453,0,0,1-.5-1.123,1.5,1.5,0,0,1,.627-1.3,3.041,3.041,0,0,1,1.794-.452h.728v-.347a.925.925,0,0,0-.229-.657.91.91,0,0,0-.7-.247,1.045,1.045,0,0,0-.664.2.627.627,0,0,0-.259.515H24.885a1.317,1.317,0,0,1,.288-.813,1.919,1.919,0,0,1,.784-.593,2.753,2.753,0,0,1,1.106-.215,2.217,2.217,0,0,1,1.479.466A1.663,1.663,0,0,1,29.109-3.6v2.383a2.7,2.7,0,0,0,.2,1.138V0Zm-1.3-.854a1.35,1.35,0,0,0,.662-.171,1.142,1.142,0,0,0,.466-.459v-1h-.64a1.749,1.749,0,0,0-.991.229.743.743,0,0,0-.332.649.693.693,0,0,0,.227.544A.879.879,0,0,0,26.794-.854ZM-7.344,11.564a.538.538,0,0,0-.261-.483,2.778,2.778,0,0,0-.867-.293,4.455,4.455,0,0,1-1.011-.322,1.349,1.349,0,0,1-.889-1.245,1.406,1.406,0,0,1,.576-1.143A2.278,2.278,0,0,1-8.33,7.619,2.37,2.37,0,0,1-6.8,8.088,1.487,1.487,0,0,1-6.216,9.3H-7.4a.731.731,0,0,0-.254-.569.973.973,0,0,0-.674-.227,1.051,1.051,0,0,0-.637.181.57.57,0,0,0-.247.483.481.481,0,0,0,.229.425,3.156,3.156,0,0,0,.928.305,4.392,4.392,0,0,1,1.1.366,1.552,1.552,0,0,1,.591.51,1.3,1.3,0,0,1,.193.723,1.377,1.377,0,0,1-.591,1.155,2.519,2.519,0,0,1-1.548.442,2.732,2.732,0,0,1-1.157-.234,1.9,1.9,0,0,1-.791-.645,1.526,1.526,0,0,1-.283-.884h1.152a.836.836,0,0,0,.317.647,1.233,1.233,0,0,0,.776.227,1.2,1.2,0,0,0,.713-.178A.552.552,0,0,0-7.344,11.564ZM-1.987,13a1.831,1.831,0,0,1-.137-.493,1.847,1.847,0,0,1-1.387.591,1.864,1.864,0,0,1-1.3-.454,1.453,1.453,0,0,1-.5-1.123,1.5,1.5,0,0,1,.627-1.3,3.041,3.041,0,0,1,1.794-.452h.728V9.426a.925.925,0,0,0-.229-.657.91.91,0,0,0-.7-.247,1.045,1.045,0,0,0-.664.2.627.627,0,0,0-.259.515H-5.2a1.317,1.317,0,0,1,.288-.813,1.919,1.919,0,0,1,.784-.593,2.753,2.753,0,0,1,1.106-.215,2.217,2.217,0,0,1,1.479.466A1.663,1.663,0,0,1-.977,9.4v2.383a2.7,2.7,0,0,0,.2,1.138V13Zm-1.3-.854a1.35,1.35,0,0,0,.662-.171,1.142,1.142,0,0,0,.466-.459v-1H-2.8a1.749,1.749,0,0,0-.991.229.743.743,0,0,0-.332.649.693.693,0,0,0,.227.544A.879.879,0,0,0-3.291,12.146ZM1.367,7.717l.034.61a1.9,1.9,0,0,1,1.538-.708q1.65,0,1.68,1.89V13H3.433V9.577a1.088,1.088,0,0,0-.217-.745.914.914,0,0,0-.71-.242,1.143,1.143,0,0,0-1.069.649V13H.249V7.717ZM5.605,10.31a3.115,3.115,0,0,1,.308-1.4,2.247,2.247,0,0,1,.864-.957,2.435,2.435,0,0,1,1.279-.334,2.308,2.308,0,0,1,1.736.688,2.708,2.708,0,0,1,.72,1.826l0,.278a3.143,3.143,0,0,1-.3,1.4,2.22,2.22,0,0,1-.859.952,2.453,2.453,0,0,1-1.292.337,2.292,2.292,0,0,1-1.79-.745,2.852,2.852,0,0,1-.671-1.985Zm1.187.1a2.129,2.129,0,0,0,.337,1.277,1.1,1.1,0,0,0,.938.461A1.083,1.083,0,0,0,9,11.682a2.351,2.351,0,0,0,.334-1.372,2.1,2.1,0,0,0-.344-1.27,1.16,1.16,0,0,0-1.858-.007A2.307,2.307,0,0,0,6.792,10.412Z" transform="translate(233.858 144.542)" fill="#12263f"/>
            <path id="Trazado_883126" data-name="Trazado 883126" d="M-27.515-2.642V0H-28.75V-7.109h2.72a2.752,2.752,0,0,1,1.892.62,2.084,2.084,0,0,1,.7,1.641,2.015,2.015,0,0,1-.686,1.626,2.885,2.885,0,0,1-1.921.581Zm0-.991h1.484a1.462,1.462,0,0,0,1.006-.31,1.14,1.14,0,0,0,.347-.9,1.23,1.23,0,0,0-.352-.92A1.355,1.355,0,0,0-26-6.113h-1.519ZM-20.146.1a2.455,2.455,0,0,1-1.829-.71,2.577,2.577,0,0,1-.7-1.892v-.146a3.17,3.17,0,0,1,.305-1.414,2.323,2.323,0,0,1,.857-.969,2.265,2.265,0,0,1,1.23-.347,2.074,2.074,0,0,1,1.667.688,2.911,2.911,0,0,1,.588,1.948v.479h-3.452a1.587,1.587,0,0,0,.437,1.035,1.312,1.312,0,0,0,.964.381,1.607,1.607,0,0,0,1.328-.659l.64.61a2.136,2.136,0,0,1-.847.735A2.652,2.652,0,0,1-20.146.1Zm-.142-4.526a1,1,0,0,0-.789.342,1.772,1.772,0,0,0-.383.952H-19.2v-.088a1.442,1.442,0,0,0-.317-.9A.992.992,0,0,0-20.288-4.429Zm4.282-.854.034.61a1.9,1.9,0,0,1,1.538-.708q1.65,0,1.68,1.89V0H-13.94V-3.423a1.088,1.088,0,0,0-.217-.745.914.914,0,0,0-.71-.242,1.143,1.143,0,0,0-1.069.649V0h-1.187V-5.283Zm7.422,3.848a.538.538,0,0,0-.261-.483,2.778,2.778,0,0,0-.867-.293,4.455,4.455,0,0,1-1.011-.322,1.349,1.349,0,0,1-.889-1.245,1.406,1.406,0,0,1,.576-1.143A2.278,2.278,0,0,1-9.57-5.381a2.37,2.37,0,0,1,1.531.469A1.487,1.487,0,0,1-7.456-3.7H-8.643A.731.731,0,0,0-8.9-4.265a.973.973,0,0,0-.674-.227,1.051,1.051,0,0,0-.637.181.57.57,0,0,0-.247.483.481.481,0,0,0,.229.425A3.156,3.156,0,0,0-9.3-3.1a4.392,4.392,0,0,1,1.1.366,1.552,1.552,0,0,1,.591.51,1.3,1.3,0,0,1,.193.723A1.377,1.377,0,0,1-8.008-.344,2.519,2.519,0,0,1-9.556.1a2.732,2.732,0,0,1-1.157-.234A1.9,1.9,0,0,1-11.5-.781a1.526,1.526,0,0,1-.283-.884h1.152a.836.836,0,0,0,.317.647,1.233,1.233,0,0,0,.776.227,1.2,1.2,0,0,0,.713-.178A.552.552,0,0,0-8.584-1.436ZM-3.228,0a1.831,1.831,0,0,1-.137-.493A1.847,1.847,0,0,1-4.751.1a1.864,1.864,0,0,1-1.3-.454,1.453,1.453,0,0,1-.5-1.123,1.5,1.5,0,0,1,.627-1.3,3.041,3.041,0,0,1,1.794-.452H-3.4v-.347a.925.925,0,0,0-.229-.657.91.91,0,0,0-.7-.247,1.045,1.045,0,0,0-.664.2.627.627,0,0,0-.259.515H-6.44a1.317,1.317,0,0,1,.288-.813,1.919,1.919,0,0,1,.784-.593,2.753,2.753,0,0,1,1.106-.215,2.217,2.217,0,0,1,1.479.466A1.663,1.663,0,0,1-2.217-3.6v2.383a2.7,2.7,0,0,0,.2,1.138V0Zm-1.3-.854a1.35,1.35,0,0,0,.662-.171A1.142,1.142,0,0,0-3.4-1.484v-1h-.64a1.749,1.749,0,0,0-.991.229.743.743,0,0,0-.332.649.693.693,0,0,0,.227.544A.879.879,0,0,0-4.531-.854ZM.142-5.283l.034.552A1.9,1.9,0,0,1,1.7-5.381a1.46,1.46,0,0,1,1.45.811,1.874,1.874,0,0,1,1.621-.811,1.647,1.647,0,0,1,1.3.483,2.128,2.128,0,0,1,.437,1.426V0H5.322V-3.437a1.051,1.051,0,0,0-.22-.737.962.962,0,0,0-.728-.234.988.988,0,0,0-.662.217,1.146,1.146,0,0,0-.359.569L3.359,0H2.173V-3.477a.846.846,0,0,0-.952-.933A1.044,1.044,0,0,0,.21-3.828V0H-.977V-5.283ZM8.989,0H7.8V-5.283H8.989ZM7.729-6.655A.63.63,0,0,1,7.9-7.109a.655.655,0,0,1,.5-.181.663.663,0,0,1,.5.181.625.625,0,0,1,.176.454.61.61,0,0,1-.176.447.668.668,0,0,1-.5.178.66.66,0,0,1-.5-.178A.615.615,0,0,1,7.729-6.655ZM12.607.1a2.455,2.455,0,0,1-1.829-.71,2.577,2.577,0,0,1-.7-1.892v-.146a3.17,3.17,0,0,1,.305-1.414,2.323,2.323,0,0,1,.857-.969,2.265,2.265,0,0,1,1.23-.347,2.074,2.074,0,0,1,1.667.688,2.911,2.911,0,0,1,.588,1.948v.479H11.274a1.587,1.587,0,0,0,.437,1.035,1.312,1.312,0,0,0,.964.381A1.607,1.607,0,0,0,14-1.509l.64.61a2.136,2.136,0,0,1-.847.735A2.652,2.652,0,0,1,12.607.1Zm-.142-4.526a1,1,0,0,0-.789.342,1.772,1.772,0,0,0-.383.952h2.261v-.088a1.442,1.442,0,0,0-.317-.9A.992.992,0,0,0,12.466-4.429Zm4.282-.854.034.61a1.9,1.9,0,0,1,1.538-.708q1.65,0,1.68,1.89V0H18.813V-3.423a1.088,1.088,0,0,0-.217-.745.914.914,0,0,0-.71-.242,1.143,1.143,0,0,0-1.069.649V0H15.63V-5.283ZM22.7-6.567v1.284h.933V-4.4H22.7v2.949a.65.65,0,0,0,.12.437.555.555,0,0,0,.427.134,1.828,1.828,0,0,0,.415-.049v.918A2.922,2.922,0,0,1,22.876.1q-1.367,0-1.367-1.509V-4.4H20.64v-.879h.869V-6.567Zm1.47,3.877a3.115,3.115,0,0,1,.308-1.4,2.247,2.247,0,0,1,.864-.957,2.435,2.435,0,0,1,1.279-.334,2.308,2.308,0,0,1,1.736.688,2.708,2.708,0,0,1,.72,1.826l0,.278a3.143,3.143,0,0,1-.3,1.4,2.22,2.22,0,0,1-.859.952A2.453,2.453,0,0,1,26.626.1a2.292,2.292,0,0,1-1.79-.745,2.852,2.852,0,0,1-.671-1.985Zm1.187.1a2.129,2.129,0,0,0,.337,1.277,1.1,1.1,0,0,0,.938.461,1.083,1.083,0,0,0,.935-.469A2.351,2.351,0,0,0,27.9-2.69a2.1,2.1,0,0,0-.344-1.27,1.1,1.1,0,0,0-.935-.469,1.089,1.089,0,0,0-.923.461A2.307,2.307,0,0,0,25.352-2.588Zm-37.859,13a3.146,3.146,0,0,1-.557,1.956,1.783,1.783,0,0,1-1.494.73,1.8,1.8,0,0,1-1.392-.571v2.5h-1.187V7.717h1.094l.049.537a1.743,1.743,0,0,1,1.421-.635,1.8,1.8,0,0,1,1.516.72,3.23,3.23,0,0,1,.549,2Zm-1.182-.1A2.2,2.2,0,0,0-14,9.055a1.024,1.024,0,0,0-.9-.464,1.092,1.092,0,0,0-1.045.6v2.344a1.1,1.1,0,0,0,1.055.615,1.023,1.023,0,0,0,.886-.457A2.426,2.426,0,0,0-13.689,10.31Zm1.963,0a3.115,3.115,0,0,1,.308-1.4,2.247,2.247,0,0,1,.864-.957,2.435,2.435,0,0,1,1.279-.334,2.308,2.308,0,0,1,1.736.688,2.708,2.708,0,0,1,.72,1.826l0,.278a3.143,3.143,0,0,1-.3,1.4,2.22,2.22,0,0,1-.859.952,2.453,2.453,0,0,1-1.292.337,2.292,2.292,0,0,1-1.79-.745,2.852,2.852,0,0,1-.671-1.985Zm1.187.1a2.129,2.129,0,0,0,.337,1.277,1.1,1.1,0,0,0,.938.461,1.083,1.083,0,0,0,.935-.469A2.351,2.351,0,0,0-8,10.31,2.1,2.1,0,0,0-8.34,9.04a1.1,1.1,0,0,0-.935-.469,1.089,1.089,0,0,0-.923.461A2.307,2.307,0,0,0-10.54,10.412Zm7.69,1.152a.538.538,0,0,0-.261-.483,2.778,2.778,0,0,0-.867-.293,4.455,4.455,0,0,1-1.011-.322,1.349,1.349,0,0,1-.889-1.245A1.406,1.406,0,0,1-5.3,8.078a2.278,2.278,0,0,1,1.465-.459A2.37,2.37,0,0,1-2.3,8.088,1.487,1.487,0,0,1-1.721,9.3H-2.908a.731.731,0,0,0-.254-.569.973.973,0,0,0-.674-.227,1.051,1.051,0,0,0-.637.181.57.57,0,0,0-.247.483A.481.481,0,0,0-4.49,9.6a3.156,3.156,0,0,0,.928.305,4.392,4.392,0,0,1,1.1.366,1.552,1.552,0,0,1,.591.51,1.3,1.3,0,0,1,.193.723,1.377,1.377,0,0,1-.591,1.155,2.519,2.519,0,0,1-1.548.442,2.732,2.732,0,0,1-1.157-.234,1.9,1.9,0,0,1-.791-.645,1.526,1.526,0,0,1-.283-.884H-4.9a.836.836,0,0,0,.317.647,1.233,1.233,0,0,0,.776.227,1.2,1.2,0,0,0,.713-.178A.552.552,0,0,0-2.849,11.564ZM.613,13H-.574V7.717H.613ZM-.647,6.345a.63.63,0,0,1,.173-.454.655.655,0,0,1,.5-.181.663.663,0,0,1,.5.181A.625.625,0,0,1,.7,6.345a.61.61,0,0,1-.176.447.668.668,0,0,1-.5.178.66.66,0,0,1-.5-.178A.615.615,0,0,1-.647,6.345Zm4.038.088V7.717h.933V8.6H3.391v2.949a.649.649,0,0,0,.12.437.555.555,0,0,0,.427.134,1.828,1.828,0,0,0,.415-.049v.918a2.922,2.922,0,0,1-.781.112Q2.2,13.1,2.2,11.589V8.6H1.335V7.717H2.2V6.433ZM6.492,13H5.305V7.717H6.492ZM5.232,6.345a.63.63,0,0,1,.173-.454.655.655,0,0,1,.5-.181.663.663,0,0,1,.5.181.625.625,0,0,1,.176.454.61.61,0,0,1-.176.447.668.668,0,0,1-.5.178.66.66,0,0,1-.5-.178A.615.615,0,0,1,5.232,6.345ZM9.646,11.5l1.118-3.779H11.99L10.159,13H9.128L7.283,7.717h1.23Zm2.788-1.187a3.115,3.115,0,0,1,.308-1.4,2.247,2.247,0,0,1,.864-.957,2.435,2.435,0,0,1,1.279-.334,2.308,2.308,0,0,1,1.736.688,2.708,2.708,0,0,1,.72,1.826l0,.278a3.143,3.143,0,0,1-.3,1.4,2.22,2.22,0,0,1-.859.952A2.453,2.453,0,0,1,14.9,13.1a2.292,2.292,0,0,1-1.79-.745,2.852,2.852,0,0,1-.671-1.985Zm1.187.1a2.129,2.129,0,0,0,.337,1.277,1.1,1.1,0,0,0,.938.461,1.083,1.083,0,0,0,.935-.469,2.351,2.351,0,0,0,.334-1.372,2.1,2.1,0,0,0-.344-1.27,1.16,1.16,0,0,0-1.858-.007A2.307,2.307,0,0,0,13.621,10.412Z" transform="translate(176.858 240.542)" fill="#12263f"/>
            <path id="Trazado_883121" data-name="Trazado 883121" d="M-25.343-12.8l3.287,9.281,3.27-9.281h3.463V0h-2.646V-3.5l.264-6.038L-21.16,0H-22.97l-3.445-9.527.264,6.029V0h-2.637V-12.8ZM-5.322-5.546h-5.062v3.428h5.941V0h-8.578V-12.8H-4.46v2.136h-5.924v3.05h5.063ZM7.51,0H4.874L-.259-8.42V0H-2.9V-12.8H-.259L4.882-4.359V-12.8H7.51ZM19.446-10.661h-3.92V0H12.889V-10.661H9.022V-12.8H19.446Zm9.2,5.115H23.585v3.428h5.941V0H20.949V-12.8h8.561v2.136H23.585v3.05h5.063Z" transform="translate(276.858 239.542)" fill="#12263f"/>
            <path id="Trazado_883122" data-name="Trazado 883122" d="M-23.449-4.263a4.528,4.528,0,0,1-1.525,3.252A5.355,5.355,0,0,1-28.6.176a4.816,4.816,0,0,1-3.872-1.657,6.793,6.793,0,0,1-1.411-4.548v-.782a7.671,7.671,0,0,1,.65-3.252,4.874,4.874,0,0,1,1.859-2.158,5.207,5.207,0,0,1,2.808-.751A5.217,5.217,0,0,1-25-11.786a4.866,4.866,0,0,1,1.564,3.331h-2.637a2.673,2.673,0,0,0-.69-1.8,2.555,2.555,0,0,0-1.806-.558,2.24,2.24,0,0,0-1.973.945,5.3,5.3,0,0,0-.672,2.931v.967a5.667,5.667,0,0,0,.628,3.032,2.2,2.2,0,0,0,1.982.958,2.6,2.6,0,0,0,1.824-.558,2.521,2.521,0,0,0,.69-1.727ZM-12.032-12.8v8.429a4.315,4.315,0,0,1-1.314,3.322A5.066,5.066,0,0,1-16.937.176,5.123,5.123,0,0,1-20.5-1.011a4.242,4.242,0,0,1-1.345-3.261V-12.8H-19.2v8.446a2.438,2.438,0,0,0,.6,1.833,2.311,2.311,0,0,0,1.666.576q2.224,0,2.259-2.338V-12.8Zm9.861,7.251H-7.233v3.428h5.941V0H-9.87V-12.8H-1.31v2.136H-7.233v3.05h5.063Zm7.163.861h-2.1V0H.255V-12.8H5.01a5.375,5.375,0,0,1,3.5,1.011A3.488,3.488,0,0,1,9.738-8.93a3.937,3.937,0,0,1-.567,2.184A3.866,3.866,0,0,1,7.453-5.353L10.222-.123V0H7.392ZM2.892-6.82H5.019a2.178,2.178,0,0,0,1.538-.505A1.806,1.806,0,0,0,7.1-8.719a1.933,1.933,0,0,0-.514-1.424,2.137,2.137,0,0,0-1.578-.519H2.892ZM14.379-4.509V0H11.742V-12.8h4.992a5.776,5.776,0,0,1,2.536.527,3.886,3.886,0,0,1,1.683,1.5,4.178,4.178,0,0,1,.589,2.21,3.674,3.674,0,0,1-1.288,2.966A5.363,5.363,0,0,1,16.69-4.509Zm0-2.136h2.355a2.316,2.316,0,0,0,1.6-.492,1.79,1.79,0,0,0,.549-1.406,2.111,2.111,0,0,0-.554-1.521,2.068,2.068,0,0,0-1.529-.6H14.379Zm19.485.536A7.725,7.725,0,0,1,33.2-2.795,5.03,5.03,0,0,1,31.285-.6a5.288,5.288,0,0,1-2.852.773,5.324,5.324,0,0,1-2.839-.765A5.08,5.08,0,0,1,23.66-2.773a7.5,7.5,0,0,1-.694-3.265v-.633A7.685,7.685,0,0,1,23.647-10,5.072,5.072,0,0,1,25.572-12.2a5.3,5.3,0,0,1,2.843-.769,5.3,5.3,0,0,1,2.843.769A5.072,5.072,0,0,1,33.183-10a7.663,7.663,0,0,1,.681,3.318Zm-2.672-.58a5.385,5.385,0,0,0-.721-3.059,2.349,2.349,0,0,0-2.057-1.046A2.349,2.349,0,0,0,26.367-9.76a5.324,5.324,0,0,0-.729,3.028v.624a5.453,5.453,0,0,0,.721,3.041,2.342,2.342,0,0,0,2.074,1.081,2.321,2.321,0,0,0,2.039-1.042,5.421,5.421,0,0,0,.721-3.037Z" transform="translate(77.858 239.542)" fill="#12263f"/>
          </g>
        </g>
      </g>
    </g>
  </g>
</svg>
