<svg xmlns="http://www.w3.org/2000/svg" width="544" height="350.442" viewBox="0 0 544 350.442">
  <g id="Grupo_1102914" data-name="Grupo 1102914" transform="translate(-810.063 -5638.86)">
    <g id="Grupo_1102913" data-name="Grupo 1102913">
      <g id="Grupo_1102912" data-name="Grupo 1102912">
        <g id="Trazado_883042" data-name="Trazado 883042" transform="translate(810.063 5638.86)" fill="#fff">
          <path d="M 543.5 349.9419860839844 L 0.5 349.9419860839844 L 0.5 0.4999777972698212 L 543.5 0.4999777972698212 L 543.5 349.9419860839844 Z" stroke="none"/>
          <path d="M 1 0.999969482421875 L 1 349.4419860839844 L 543 349.4419860839844 L 543 0.999969482421875 L 1 0.999969482421875 M 0 -3.0517578125e-05 L 544 -3.0517578125e-05 L 544 350.4419860839844 L 0 350.4419860839844 L 0 -3.0517578125e-05 Z" stroke="none" fill="#69ccd1"/>
        </g>
        <g id="Grupo_1102804" data-name="Grupo 1102804" transform="translate(441.989 -1123.764)">
          <rect id="Rectángulo_402679" data-name="Rectángulo 402679" width="157.164" height="52.287" rx="11" transform="translate(421 6911.995)" fill="#ffda57"/>
          <rect id="Rectángulo_402678" data-name="Rectángulo 402678" width="157.644" height="52.287" rx="11" transform="translate(701.553 6911.995)" fill="#81e3e8"/>
          <rect id="Rectángulo_401373" data-name="Rectángulo 401373" width="157.644" height="52.287" rx="11" transform="translate(561.036 6778.398)" fill="#dee4f0"/>
          <path id="Trazado_883038" data-name="Trazado 883038" d="M21.926,12.533a2.958,2.958,0,0,1-1,2.124,3.5,3.5,0,0,1-2.368.775,3.145,3.145,0,0,1-2.529-1.082,4.437,4.437,0,0,1-.921-2.971v-.511a5.01,5.01,0,0,1,.425-2.124,3.183,3.183,0,0,1,1.214-1.409,3.4,3.4,0,0,1,1.834-.491,3.407,3.407,0,0,1,2.331.775A3.178,3.178,0,0,1,21.937,9.8H20.215a1.746,1.746,0,0,0-.451-1.174,1.669,1.669,0,0,0-1.18-.365,1.463,1.463,0,0,0-1.289.617,3.458,3.458,0,0,0-.439,1.914v.631a3.7,3.7,0,0,0,.41,1.98,1.436,1.436,0,0,0,1.294.626,1.7,1.7,0,0,0,1.191-.365,1.646,1.646,0,0,0,.451-1.128Zm4.742,2.153a2.08,2.08,0,0,1-1.7.746,1.962,1.962,0,0,1-1.524-.574,2.451,2.451,0,0,1-.537-1.682V9.106h1.659v4.013q0,.97.884.97a1.2,1.2,0,0,0,1.16-.586v-4.4h1.665v6.211H26.713Zm5.718.746a3.049,3.049,0,0,1-2.224-.838,2.979,2.979,0,0,1-.858-2.233V12.2a3.752,3.752,0,0,1,.362-1.673A2.654,2.654,0,0,1,30.689,9.39a2.876,2.876,0,0,1,1.513-.4,2.578,2.578,0,0,1,2.006.8,3.266,3.266,0,0,1,.732,2.279v.677H30.984a1.541,1.541,0,0,0,.485.976,1.466,1.466,0,0,0,1.025.367,1.791,1.791,0,0,0,1.5-.695l.815.913a2.49,2.49,0,0,1-1.01.824A3.315,3.315,0,0,1,32.385,15.432Zm-.189-5.1a1.039,1.039,0,0,0-.8.333,1.72,1.72,0,0,0-.393.953h2.308v-.132a1.226,1.226,0,0,0-.3-.852A1.072,1.072,0,0,0,32.2,10.335Zm7.176.327a4.507,4.507,0,0,0-.6-.046,1.215,1.215,0,0,0-1.234.637v4.064H35.881V9.106h1.567l.046.741a1.537,1.537,0,0,1,1.383-.855,1.738,1.738,0,0,1,.517.075Zm6.389,1.607a3.725,3.725,0,0,1-.652,2.3,2.089,2.089,0,0,1-1.759.864,1.935,1.935,0,0,1-1.521-.654v2.928H40.169v-8.6h1.538l.057.608a1.95,1.95,0,0,1,1.573-.723,2.1,2.1,0,0,1,1.785.85,3.826,3.826,0,0,1,.637,2.342ZM44.1,12.149a2.444,2.444,0,0,0-.307-1.338,1,1,0,0,0-.893-.471,1.086,1.086,0,0,0-1.073.6V13.48a1.1,1.1,0,0,0,1.085.614Q44.1,14.095,44.1,12.149Zm2.428.006a3.684,3.684,0,0,1,.356-1.648A2.605,2.605,0,0,1,47.91,9.387a2.989,2.989,0,0,1,1.553-.4,2.828,2.828,0,0,1,2.052.769,3.087,3.087,0,0,1,.887,2.09l.011.425a3.246,3.246,0,0,1-.8,2.293,3.093,3.093,0,0,1-4.285,0,3.3,3.3,0,0,1-.8-2.342Zm1.659.121a2.315,2.315,0,0,0,.333,1.352,1.2,1.2,0,0,0,1.894.006,2.534,2.534,0,0,0,.339-1.478,2.292,2.292,0,0,0-.339-1.343,1.1,1.1,0,0,0-.953-.476,1.084,1.084,0,0,0-.941.474A2.576,2.576,0,0,0,48.188,12.275Zm7.916-.109a3.743,3.743,0,0,1,.652-2.313,2.114,2.114,0,0,1,1.782-.861,1.9,1.9,0,0,1,1.5.677V6.5H61.7v8.817H60.2l-.08-.66a1.952,1.952,0,0,1-1.6.775,2.108,2.108,0,0,1-1.759-.864A3.864,3.864,0,0,1,56.1,12.166Zm1.659.121a2.445,2.445,0,0,0,.3,1.338.991.991,0,0,0,.884.465,1.11,1.11,0,0,0,1.085-.649V10.989a1.094,1.094,0,0,0-1.073-.649Q57.764,10.34,57.764,12.286Zm8.083,3.146a3.049,3.049,0,0,1-2.224-.838,2.979,2.979,0,0,1-.858-2.233V12.2a3.752,3.752,0,0,1,.362-1.673A2.654,2.654,0,0,1,64.15,9.39a2.876,2.876,0,0,1,1.513-.4,2.578,2.578,0,0,1,2.006.8,3.266,3.266,0,0,1,.732,2.279v.677H64.446a1.541,1.541,0,0,0,.485.976,1.466,1.466,0,0,0,1.025.367,1.791,1.791,0,0,0,1.5-.695l.815.913a2.49,2.49,0,0,1-1.01.824A3.315,3.315,0,0,1,65.846,15.432Zm-.189-5.1a1.039,1.039,0,0,0-.8.333,1.72,1.72,0,0,0-.393.953H66.77v-.132a1.226,1.226,0,0,0-.3-.852A1.072,1.072,0,0,0,65.657,10.335Zm9.2,3.76a1.088,1.088,0,0,0,.746-.253.885.885,0,0,0,.3-.672h1.556a2.128,2.128,0,0,1-.344,1.157,2.273,2.273,0,0,1-.927.815,2.9,2.9,0,0,1-1.3.29,2.7,2.7,0,0,1-2.1-.847,3.351,3.351,0,0,1-.769-2.339v-.109a3.312,3.312,0,0,1,.763-2.29,2.665,2.665,0,0,1,2.1-.855,2.612,2.612,0,0,1,1.869.663,2.348,2.348,0,0,1,.715,1.765H75.9a1.131,1.131,0,0,0-.3-.784,1.112,1.112,0,0,0-1.633.121,2.442,2.442,0,0,0-.3,1.369V12.3a2.473,2.473,0,0,0,.293,1.378A1.012,1.012,0,0,0,74.853,14.095Zm3.289-1.94a3.684,3.684,0,0,1,.356-1.648,2.606,2.606,0,0,1,1.025-1.119,2.99,2.99,0,0,1,1.553-.4,2.828,2.828,0,0,1,2.052.769,3.087,3.087,0,0,1,.887,2.09l.011.425a3.246,3.246,0,0,1-.8,2.293,3.093,3.093,0,0,1-4.285,0,3.3,3.3,0,0,1-.8-2.342Zm1.659.121a2.316,2.316,0,0,0,.333,1.352,1.2,1.2,0,0,0,1.894.006,2.534,2.534,0,0,0,.339-1.478,2.292,2.292,0,0,0-.339-1.343,1.1,1.1,0,0,0-.953-.476,1.084,1.084,0,0,0-.941.474A2.576,2.576,0,0,0,79.8,12.275Zm6.774-3.169.052.718a2.169,2.169,0,0,1,1.785-.832,1.8,1.8,0,0,1,1.47.58,2.705,2.705,0,0,1,.494,1.734v4.013H88.716V11.345a1.076,1.076,0,0,0-.23-.766,1.028,1.028,0,0,0-.763-.238,1.141,1.141,0,0,0-1.051.6v4.38H85.014V9.106Zm4.8,3.048a3.684,3.684,0,0,1,.356-1.648,2.606,2.606,0,0,1,1.025-1.119,2.989,2.989,0,0,1,1.553-.4,2.828,2.828,0,0,1,2.052.769,3.087,3.087,0,0,1,.887,2.09l.011.425a3.246,3.246,0,0,1-.8,2.293,3.093,3.093,0,0,1-4.285,0,3.3,3.3,0,0,1-.8-2.342Zm1.659.121a2.315,2.315,0,0,0,.333,1.352,1.2,1.2,0,0,0,1.894.006,2.534,2.534,0,0,0,.339-1.478,2.292,2.292,0,0,0-.339-1.343,1.1,1.1,0,0,0-.953-.476,1.084,1.084,0,0,0-.941.474A2.576,2.576,0,0,0,93.033,12.275Zm7.83,1.82a1.088,1.088,0,0,0,.746-.253.885.885,0,0,0,.3-.672h1.556a2.128,2.128,0,0,1-.344,1.157,2.273,2.273,0,0,1-.927.815,2.9,2.9,0,0,1-1.3.29,2.7,2.7,0,0,1-2.1-.847,3.351,3.351,0,0,1-.769-2.339v-.109a3.312,3.312,0,0,1,.763-2.29,2.665,2.665,0,0,1,2.1-.855,2.612,2.612,0,0,1,1.869.663,2.348,2.348,0,0,1,.715,1.765h-1.556a1.131,1.131,0,0,0-.3-.784,1.112,1.112,0,0,0-1.633.121,2.442,2.442,0,0,0-.3,1.369V12.3a2.473,2.473,0,0,0,.293,1.378A1.012,1.012,0,0,0,100.863,14.095Zm5.3,1.223H104.5V9.106h1.665ZM104.4,7.5a.817.817,0,0,1,.25-.614,1.076,1.076,0,0,1,1.358,0,.877.877,0,0,1,0,1.234,1.064,1.064,0,0,1-1.349,0A.814.814,0,0,1,104.4,7.5Zm4.684,1.607.052.695a2.183,2.183,0,0,1,1.785-.809,1.657,1.657,0,0,1,1.648.947,2.133,2.133,0,0,1,1.866-.947,1.853,1.853,0,0,1,1.5.588,2.7,2.7,0,0,1,.494,1.771v3.967h-1.665V11.356a1.183,1.183,0,0,0-.207-.772.916.916,0,0,0-.729-.244,1.035,1.035,0,0,0-1.033.712l.006,4.265h-1.659V11.362a1.168,1.168,0,0,0-.212-.781.925.925,0,0,0-.723-.241,1.075,1.075,0,0,0-1.022.586v4.391h-1.659V9.106Zm10.373,6.211h-1.665V9.106h1.665ZM117.694,7.5a.817.817,0,0,1,.25-.614,1.076,1.076,0,0,1,1.358,0,.877.877,0,0,1,0,1.234,1.064,1.064,0,0,1-1.349,0A.814.814,0,0,1,117.694,7.5Zm5.987,7.933a3.049,3.049,0,0,1-2.224-.838,2.979,2.979,0,0,1-.858-2.233V12.2a3.752,3.752,0,0,1,.362-1.673,2.654,2.654,0,0,1,1.025-1.137,2.876,2.876,0,0,1,1.513-.4,2.578,2.578,0,0,1,2.006.8,3.266,3.266,0,0,1,.732,2.279v.677h-3.955a1.541,1.541,0,0,0,.485.976,1.466,1.466,0,0,0,1.025.367,1.791,1.791,0,0,0,1.5-.695l.815.913a2.49,2.49,0,0,1-1.01.824A3.315,3.315,0,0,1,123.682,15.432Zm-.189-5.1a1.039,1.039,0,0,0-.8.333,1.72,1.72,0,0,0-.393.953h2.308v-.132a1.226,1.226,0,0,0-.3-.852A1.072,1.072,0,0,0,123.492,10.335ZM128.7,9.106l.052.718a2.169,2.169,0,0,1,1.785-.832,1.8,1.8,0,0,1,1.47.58A2.705,2.705,0,0,1,132.5,11.3v4.013h-1.659V11.345a1.076,1.076,0,0,0-.23-.766,1.028,1.028,0,0,0-.763-.238,1.141,1.141,0,0,0-1.051.6v4.38h-1.659V9.106Zm7.044-1.527V9.106h1.062v1.217h-1.062v3.1a.74.74,0,0,0,.132.494.663.663,0,0,0,.505.149,2.646,2.646,0,0,0,.488-.04v1.257a3.415,3.415,0,0,1-1,.149,1.584,1.584,0,0,1-1.78-1.762V10.323h-.907V9.106h.907V7.579Zm1.556,4.575a3.684,3.684,0,0,1,.356-1.648,2.606,2.606,0,0,1,1.025-1.119,2.989,2.989,0,0,1,1.553-.4,2.828,2.828,0,0,1,2.052.769,3.087,3.087,0,0,1,.887,2.09l.011.425a3.246,3.246,0,0,1-.8,2.293,3.093,3.093,0,0,1-4.285,0,3.3,3.3,0,0,1-.8-2.342Zm1.659.121a2.315,2.315,0,0,0,.333,1.352,1.2,1.2,0,0,0,1.894.006,2.534,2.534,0,0,0,.339-1.478,2.292,2.292,0,0,0-.339-1.343,1.1,1.1,0,0,0-.953-.476,1.083,1.083,0,0,0-.941.474A2.576,2.576,0,0,0,138.963,12.275Zm8.611,1.326a.535.535,0,0,0-.3-.479,3.423,3.423,0,0,0-.967-.313q-2.216-.465-2.216-1.883a1.707,1.707,0,0,1,.686-1.381,2.767,2.767,0,0,1,1.794-.554,2.978,2.978,0,0,1,1.891.557,1.755,1.755,0,0,1,.709,1.447H147.51a.8.8,0,0,0-.23-.588.972.972,0,0,0-.718-.232.993.993,0,0,0-.649.189.6.6,0,0,0-.23.482.511.511,0,0,0,.261.445,2.687,2.687,0,0,0,.881.293,7.2,7.2,0,0,1,1.045.278,1.717,1.717,0,0,1,1.315,1.67,1.62,1.62,0,0,1-.729,1.375,3.145,3.145,0,0,1-1.883.525,3.285,3.285,0,0,1-1.386-.278,2.326,2.326,0,0,1-.95-.763,1.774,1.774,0,0,1-.344-1.048h1.573a.866.866,0,0,0,.327.677,1.3,1.3,0,0,0,.815.235,1.2,1.2,0,0,0,.72-.181A.563.563,0,0,0,147.573,13.6ZM52.052,26.06a3.743,3.743,0,0,1,.652-2.313,2.114,2.114,0,0,1,1.782-.861,1.9,1.9,0,0,1,1.5.677V20.394h1.665v8.817h-1.5l-.08-.66a1.952,1.952,0,0,1-1.6.775,2.108,2.108,0,0,1-1.759-.864A3.864,3.864,0,0,1,52.052,26.06Zm1.659.121a2.445,2.445,0,0,0,.3,1.338.991.991,0,0,0,.884.465,1.11,1.11,0,0,0,1.085-.649V24.883a1.094,1.094,0,0,0-1.073-.649Q53.711,24.234,53.711,26.18Zm6.975,3.031H59.021V23h1.665Zm-1.762-7.819a.817.817,0,0,1,.25-.614,1.076,1.076,0,0,1,1.358,0,.877.877,0,0,1,0,1.234,1.064,1.064,0,0,1-1.349,0A.814.814,0,0,1,58.923,21.393Zm6.492,6.1a.535.535,0,0,0-.3-.479,3.423,3.423,0,0,0-.967-.313q-2.216-.465-2.216-1.883a1.707,1.707,0,0,1,.686-1.381,2.767,2.767,0,0,1,1.794-.554,2.978,2.978,0,0,1,1.891.557,1.755,1.755,0,0,1,.709,1.447H65.353a.8.8,0,0,0-.23-.588.972.972,0,0,0-.718-.232.993.993,0,0,0-.649.189.6.6,0,0,0-.23.482.511.511,0,0,0,.261.445,2.687,2.687,0,0,0,.881.293,7.2,7.2,0,0,1,1.045.278,1.717,1.717,0,0,1,1.315,1.67A1.62,1.62,0,0,1,66.3,28.8a3.145,3.145,0,0,1-1.883.525,3.285,3.285,0,0,1-1.386-.278,2.326,2.326,0,0,1-.95-.763,1.774,1.774,0,0,1-.344-1.048h1.573a.866.866,0,0,0,.327.677,1.3,1.3,0,0,0,.815.235,1.2,1.2,0,0,0,.72-.181A.563.563,0,0,0,65.416,27.5Zm8.272-1.332a3.725,3.725,0,0,1-.652,2.3,2.089,2.089,0,0,1-1.759.864,1.935,1.935,0,0,1-1.521-.654V31.6H68.1V23h1.538l.057.608a1.95,1.95,0,0,1,1.573-.723,2.1,2.1,0,0,1,1.785.85,3.826,3.826,0,0,1,.637,2.342Zm-1.659-.121a2.445,2.445,0,0,0-.307-1.338,1,1,0,0,0-.893-.471,1.086,1.086,0,0,0-1.073.6v2.543a1.1,1.1,0,0,0,1.085.614Q72.029,27.989,72.029,26.043Zm2.428.006a3.684,3.684,0,0,1,.356-1.648,2.605,2.605,0,0,1,1.025-1.119,2.989,2.989,0,0,1,1.553-.4,2.828,2.828,0,0,1,2.052.769,3.087,3.087,0,0,1,.887,2.09l.011.425a3.246,3.246,0,0,1-.8,2.293,3.093,3.093,0,0,1-4.285,0,3.3,3.3,0,0,1-.8-2.342Zm1.659.121a2.315,2.315,0,0,0,.333,1.352,1.2,1.2,0,0,0,1.894.006,2.533,2.533,0,0,0,.339-1.478,2.292,2.292,0,0,0-.339-1.343,1.1,1.1,0,0,0-.953-.476,1.083,1.083,0,0,0-.941.474A2.576,2.576,0,0,0,76.116,26.169ZM82.89,23l.052.718a2.169,2.169,0,0,1,1.785-.832,1.8,1.8,0,0,1,1.47.58A2.705,2.705,0,0,1,86.69,25.2v4.013H85.031V25.239a1.076,1.076,0,0,0-.23-.766,1.028,1.028,0,0,0-.763-.238,1.141,1.141,0,0,0-1.051.6v4.38H81.328V23ZM89.7,29.211H88.033V23H89.7Zm-1.762-7.819a.817.817,0,0,1,.25-.614,1.076,1.076,0,0,1,1.358,0,.877.877,0,0,1,0,1.234,1.064,1.064,0,0,1-1.349,0A.814.814,0,0,1,87.936,21.393Zm8.726,4.77a3.761,3.761,0,0,1-.637,2.328,2.111,2.111,0,0,1-1.78.835,1.939,1.939,0,0,1-1.613-.775l-.075.66H91.064V20.394h1.659v3.163a1.889,1.889,0,0,1,1.51-.672,2.128,2.128,0,0,1,1.782.835,3.767,3.767,0,0,1,.646,2.351ZM95,26.043a2.471,2.471,0,0,0-.3-1.375,1.009,1.009,0,0,0-.89-.433,1.094,1.094,0,0,0-1.091.649v2.451a1.109,1.109,0,0,0,1.1.654,1.024,1.024,0,0,0,1.056-.792A4.086,4.086,0,0,0,95,26.043Zm4.432,3.169H97.769V20.394h1.665Zm4.225.115a3.049,3.049,0,0,1-2.224-.838,2.979,2.979,0,0,1-.858-2.233v-.161a3.752,3.752,0,0,1,.362-1.673,2.654,2.654,0,0,1,1.025-1.137,2.876,2.876,0,0,1,1.513-.4,2.578,2.578,0,0,1,2.006.8,3.266,3.266,0,0,1,.732,2.279v.677h-3.955a1.541,1.541,0,0,0,.485.976,1.466,1.466,0,0,0,1.025.367,1.791,1.791,0,0,0,1.5-.695l.815.913a2.49,2.49,0,0,1-1.01.824A3.315,3.315,0,0,1,103.659,29.326Zm-.189-5.1a1.039,1.039,0,0,0-.8.333,1.72,1.72,0,0,0-.393.953h2.308v-.132a1.226,1.226,0,0,0-.3-.852A1.072,1.072,0,0,0,103.469,24.229Zm7.049,3.266a.535.535,0,0,0-.3-.479,3.423,3.423,0,0,0-.967-.313q-2.216-.465-2.216-1.883a1.707,1.707,0,0,1,.686-1.381,2.767,2.767,0,0,1,1.794-.554,2.978,2.978,0,0,1,1.891.557,1.755,1.755,0,0,1,.709,1.447h-1.659a.8.8,0,0,0-.23-.588.972.972,0,0,0-.718-.232.993.993,0,0,0-.649.189.6.6,0,0,0-.23.482.511.511,0,0,0,.261.445,2.687,2.687,0,0,0,.881.293,7.2,7.2,0,0,1,1.045.278,1.717,1.717,0,0,1,1.315,1.67A1.62,1.62,0,0,1,111.4,28.8a3.145,3.145,0,0,1-1.883.525,3.285,3.285,0,0,1-1.386-.278,2.326,2.326,0,0,1-.95-.763,1.774,1.774,0,0,1-.344-1.048h1.573a.866.866,0,0,0,.327.677,1.3,1.3,0,0,0,.815.235,1.2,1.2,0,0,0,.72-.181A.563.563,0,0,0,110.519,27.5ZM59.144,40.161v2.945H57.422V34.747h3.261a3.772,3.772,0,0,1,1.656.344,2.538,2.538,0,0,1,1.1.979,2.729,2.729,0,0,1,.385,1.444,2.4,2.4,0,0,1-.841,1.937,3.5,3.5,0,0,1-2.328.709Zm0-1.395h1.538a1.513,1.513,0,0,0,1.042-.321,1.169,1.169,0,0,0,.359-.918,1.379,1.379,0,0,0-.362-.993,1.351,1.351,0,0,0-1-.39H59.144Zm9.242-.316a4.507,4.507,0,0,0-.6-.046,1.215,1.215,0,0,0-1.234.637v4.064H64.9V36.894h1.567l.046.741a1.537,1.537,0,0,1,1.383-.855,1.738,1.738,0,0,1,.517.075Zm.333,1.493a3.684,3.684,0,0,1,.356-1.648A2.606,2.606,0,0,1,70.1,37.176a2.99,2.99,0,0,1,1.553-.4,2.828,2.828,0,0,1,2.052.769,3.087,3.087,0,0,1,.887,2.09l.011.425a3.246,3.246,0,0,1-.8,2.293,3.093,3.093,0,0,1-4.285,0,3.3,3.3,0,0,1-.8-2.342Zm1.659.121a2.316,2.316,0,0,0,.333,1.352,1.2,1.2,0,0,0,1.894.006,2.534,2.534,0,0,0,.339-1.478,2.292,2.292,0,0,0-.339-1.343,1.1,1.1,0,0,0-.953-.476,1.084,1.084,0,0,0-.941.474A2.576,2.576,0,0,0,70.378,40.063Zm10.844-.006a3.761,3.761,0,0,1-.637,2.328,2.111,2.111,0,0,1-1.78.835,1.939,1.939,0,0,1-1.613-.775l-.075.66H75.625V34.288h1.659v3.163a1.889,1.889,0,0,1,1.51-.672,2.128,2.128,0,0,1,1.782.835,3.766,3.766,0,0,1,.646,2.351Zm-1.659-.121a2.471,2.471,0,0,0-.3-1.375,1.009,1.009,0,0,0-.89-.433,1.094,1.094,0,0,0-1.091.649v2.451a1.109,1.109,0,0,0,1.1.654,1.024,1.024,0,0,0,1.056-.792A4.087,4.087,0,0,0,79.563,39.937Zm4.432,3.169H82.33V34.288h1.665Zm4.225.115A3.049,3.049,0,0,1,86,42.382a2.979,2.979,0,0,1-.858-2.233v-.161a3.752,3.752,0,0,1,.362-1.673,2.654,2.654,0,0,1,1.025-1.137,2.876,2.876,0,0,1,1.513-.4,2.578,2.578,0,0,1,2.006.8,3.266,3.266,0,0,1,.732,2.279v.677H86.819a1.541,1.541,0,0,0,.485.976,1.466,1.466,0,0,0,1.025.367,1.791,1.791,0,0,0,1.5-.695l.815.913a2.49,2.49,0,0,1-1.01.824A3.315,3.315,0,0,1,88.22,43.22Zm-.189-5.1a1.039,1.039,0,0,0-.8.333,1.72,1.72,0,0,0-.393.953h2.308v-.132a1.226,1.226,0,0,0-.3-.852A1.072,1.072,0,0,0,88.03,38.123Zm5.241-1.228.052.695a2.183,2.183,0,0,1,1.785-.809,1.657,1.657,0,0,1,1.648.947,2.133,2.133,0,0,1,1.866-.947,1.853,1.853,0,0,1,1.5.588,2.7,2.7,0,0,1,.494,1.771v3.967H98.954V39.145a1.183,1.183,0,0,0-.207-.772.916.916,0,0,0-.729-.244,1.035,1.035,0,0,0-1.033.712l.006,4.265H95.332V39.15a1.168,1.168,0,0,0-.212-.781.925.925,0,0,0-.723-.241,1.075,1.075,0,0,0-1.022.586v4.391H91.716V36.894Zm12.221,6.211a1.842,1.842,0,0,1-.166-.557,2.007,2.007,0,0,1-1.567.672,2.205,2.205,0,0,1-1.513-.528,1.7,1.7,0,0,1-.6-1.332,1.755,1.755,0,0,1,.732-1.515,3.612,3.612,0,0,1,2.115-.534h.763v-.356a1.024,1.024,0,0,0-.221-.689.869.869,0,0,0-.7-.258.988.988,0,0,0-.657.2.683.683,0,0,0-.238.551h-1.659a1.667,1.667,0,0,1,.333-1,2.2,2.2,0,0,1,.941-.72,3.431,3.431,0,0,1,1.366-.261,2.711,2.711,0,0,1,1.823.577,2.018,2.018,0,0,1,.675,1.622V41.67a2.969,2.969,0,0,0,.247,1.338v.1Zm-1.372-1.154a1.429,1.429,0,0,0,.677-.164,1.075,1.075,0,0,0,.459-.439V40.281h-.62q-1.246,0-1.326.861l-.006.1a.664.664,0,0,0,.218.511A.847.847,0,0,0,104.121,41.952Z" transform="translate(557.768 6780.182)" fill="#12263f"/>
          <path id="Trazado_883036" data-name="Trazado 883036" d="M16.684,11.765h3.1v.949H15.5V5.876h1.188Zm5.119.949H20.662V5.5H21.8Zm3.48.094a2.361,2.361,0,0,1-1.759-.683,2.479,2.479,0,0,1-.674-1.82v-.141a3.049,3.049,0,0,1,.294-1.36,2.234,2.234,0,0,1,.824-.932,2.179,2.179,0,0,1,1.184-.333,2,2,0,0,1,1.6.662,2.8,2.8,0,0,1,.566,1.874v.46H24a1.526,1.526,0,0,0,.42,1,1.262,1.262,0,0,0,.928.366,1.545,1.545,0,0,0,1.278-.634l.615.587a2.055,2.055,0,0,1-.815.707A2.551,2.551,0,0,1,25.284,12.808Zm-.136-4.354a.961.961,0,0,0-.759.329,1.7,1.7,0,0,0-.369.916h2.175V9.614a1.387,1.387,0,0,0-.305-.867A.954.954,0,0,0,25.147,8.454Zm4.791,2.813,1.076-3.635h1.179l-1.761,5.082H29.44L27.665,7.632h1.184Zm5.932,1.447a1.762,1.762,0,0,1-.132-.474,1.92,1.92,0,0,1-2.583.132,1.4,1.4,0,0,1-.484-1.08,1.443,1.443,0,0,1,.6-1.247A2.925,2.925,0,0,1,35,9.61h.7V9.276a.89.89,0,0,0-.221-.632.875.875,0,0,0-.672-.237,1,1,0,0,0-.639.195.6.6,0,0,0-.249.5H32.78a1.267,1.267,0,0,1,.277-.782,1.846,1.846,0,0,1,.754-.571,2.648,2.648,0,0,1,1.064-.207,2.132,2.132,0,0,1,1.423.449,1.6,1.6,0,0,1,.545,1.261V11.54a2.6,2.6,0,0,0,.193,1.094v.08Zm-1.254-.822a1.3,1.3,0,0,0,.636-.164,1.1,1.1,0,0,0,.449-.441v-.958h-.615a1.682,1.682,0,0,0-.953.221.715.715,0,0,0-.319.625.667.667,0,0,0,.218.524A.846.846,0,0,0,34.616,11.892Zm8.853.822a1.761,1.761,0,0,1-.132-.474,1.92,1.92,0,0,1-2.583.132,1.4,1.4,0,0,1-.484-1.08,1.443,1.443,0,0,1,.6-1.247A2.925,2.925,0,0,1,42.6,9.61h.7V9.276a.89.89,0,0,0-.221-.632.875.875,0,0,0-.672-.237,1,1,0,0,0-.639.195.6.6,0,0,0-.249.5H40.379a1.267,1.267,0,0,1,.277-.782,1.846,1.846,0,0,1,.754-.571,2.648,2.648,0,0,1,1.064-.207,2.132,2.132,0,0,1,1.423.449,1.6,1.6,0,0,1,.545,1.261V11.54a2.6,2.6,0,0,0,.193,1.094v.08Zm-1.254-.822a1.3,1.3,0,0,0,.636-.164,1.1,1.1,0,0,0,.449-.441v-.958h-.615a1.682,1.682,0,0,0-.953.221.715.715,0,0,0-.319.625.667.667,0,0,0,.218.524A.846.846,0,0,0,42.215,11.892Z" transform="translate(750.449 6990.555)" fill="#12263f"/>
          <path id="Trazado_883035" data-name="Trazado 883035" d="M16.684,11.765h3.1v.949H15.5V5.876h1.188Zm5.119.949H20.662V5.5H21.8Zm3.48.094a2.361,2.361,0,0,1-1.759-.683,2.479,2.479,0,0,1-.674-1.82v-.141a3.049,3.049,0,0,1,.294-1.36,2.234,2.234,0,0,1,.824-.932,2.179,2.179,0,0,1,1.184-.333,2,2,0,0,1,1.6.662,2.8,2.8,0,0,1,.566,1.874v.46H24a1.526,1.526,0,0,0,.42,1,1.262,1.262,0,0,0,.928.366,1.545,1.545,0,0,0,1.278-.634l.615.587a2.055,2.055,0,0,1-.815.707A2.551,2.551,0,0,1,25.284,12.808Zm-.136-4.354a.961.961,0,0,0-.759.329,1.7,1.7,0,0,0-.369.916h2.175V9.614a1.387,1.387,0,0,0-.305-.867A.954.954,0,0,0,25.147,8.454Zm4.791,2.813,1.076-3.635h1.179l-1.761,5.082H29.44L27.665,7.632h1.184Zm5.932,1.447a1.762,1.762,0,0,1-.132-.474,1.92,1.92,0,0,1-2.583.132,1.4,1.4,0,0,1-.484-1.08,1.443,1.443,0,0,1,.6-1.247A2.925,2.925,0,0,1,35,9.61h.7V9.276a.89.89,0,0,0-.221-.632.875.875,0,0,0-.672-.237,1,1,0,0,0-.639.195.6.6,0,0,0-.249.5H32.78a1.267,1.267,0,0,1,.277-.782,1.846,1.846,0,0,1,.754-.571,2.648,2.648,0,0,1,1.064-.207,2.132,2.132,0,0,1,1.423.449,1.6,1.6,0,0,1,.545,1.261V11.54a2.6,2.6,0,0,0,.193,1.094v.08Zm-1.254-.822a1.3,1.3,0,0,0,.636-.164,1.1,1.1,0,0,0,.449-.441v-.958h-.615a1.682,1.682,0,0,0-.953.221.715.715,0,0,0-.319.625.667.667,0,0,0,.218.524A.846.846,0,0,0,34.616,11.892Zm8.853.822a1.761,1.761,0,0,1-.132-.474,1.92,1.92,0,0,1-2.583.132,1.4,1.4,0,0,1-.484-1.08,1.443,1.443,0,0,1,.6-1.247A2.925,2.925,0,0,1,42.6,9.61h.7V9.276a.89.89,0,0,0-.221-.632.875.875,0,0,0-.672-.237,1,1,0,0,0-.639.195.6.6,0,0,0-.249.5H40.379a1.267,1.267,0,0,1,.277-.782,1.846,1.846,0,0,1,.754-.571,2.648,2.648,0,0,1,1.064-.207,2.132,2.132,0,0,1,1.423.449,1.6,1.6,0,0,1,.545,1.261V11.54a2.6,2.6,0,0,0,.193,1.094v.08Zm-1.254-.822a1.3,1.3,0,0,0,.636-.164,1.1,1.1,0,0,0,.449-.441v-.958h-.615a1.682,1.682,0,0,0-.953.221.715.715,0,0,0-.319.625.667.667,0,0,0,.218.524A.846.846,0,0,0,42.215,11.892Z" transform="translate(750.449 6858.16)" fill="#12263f"/>
          <path id="Trazado_883041" data-name="Trazado 883041" d="M16.684,11.765h3.1v.949H15.5V5.876h1.188Zm5.119.949H20.662V5.5H21.8Zm3.48.094a2.361,2.361,0,0,1-1.759-.683,2.479,2.479,0,0,1-.674-1.82v-.141a3.049,3.049,0,0,1,.294-1.36,2.234,2.234,0,0,1,.824-.932,2.179,2.179,0,0,1,1.184-.333,2,2,0,0,1,1.6.662,2.8,2.8,0,0,1,.566,1.874v.46H24a1.526,1.526,0,0,0,.42,1,1.262,1.262,0,0,0,.928.366,1.545,1.545,0,0,0,1.278-.634l.615.587a2.055,2.055,0,0,1-.815.707A2.551,2.551,0,0,1,25.284,12.808Zm-.136-4.354a.961.961,0,0,0-.759.329,1.7,1.7,0,0,0-.369.916h2.175V9.614a1.387,1.387,0,0,0-.305-.867A.954.954,0,0,0,25.147,8.454Zm4.791,2.813,1.076-3.635h1.179l-1.761,5.082H29.44L27.665,7.632h1.184Zm5.932,1.447a1.762,1.762,0,0,1-.132-.474,1.92,1.92,0,0,1-2.583.132,1.4,1.4,0,0,1-.484-1.08,1.443,1.443,0,0,1,.6-1.247A2.925,2.925,0,0,1,35,9.61h.7V9.276a.89.89,0,0,0-.221-.632.875.875,0,0,0-.672-.237,1,1,0,0,0-.639.195.6.6,0,0,0-.249.5H32.78a1.267,1.267,0,0,1,.277-.782,1.846,1.846,0,0,1,.754-.571,2.648,2.648,0,0,1,1.064-.207,2.132,2.132,0,0,1,1.423.449,1.6,1.6,0,0,1,.545,1.261V11.54a2.6,2.6,0,0,0,.193,1.094v.08Zm-1.254-.822a1.3,1.3,0,0,0,.636-.164,1.1,1.1,0,0,0,.449-.441v-.958h-.615a1.682,1.682,0,0,0-.953.221.715.715,0,0,0-.319.625.667.667,0,0,0,.218.524A.846.846,0,0,0,34.616,11.892Zm8.853.822a1.761,1.761,0,0,1-.132-.474,1.92,1.92,0,0,1-2.583.132,1.4,1.4,0,0,1-.484-1.08,1.443,1.443,0,0,1,.6-1.247A2.925,2.925,0,0,1,42.6,9.61h.7V9.276a.89.89,0,0,0-.221-.632.875.875,0,0,0-.672-.237,1,1,0,0,0-.639.195.6.6,0,0,0-.249.5H40.379a1.267,1.267,0,0,1,.277-.782,1.846,1.846,0,0,1,.754-.571,2.648,2.648,0,0,1,1.064-.207,2.132,2.132,0,0,1,1.423.449,1.6,1.6,0,0,1,.545,1.261V11.54a2.6,2.6,0,0,0,.193,1.094v.08Zm-1.254-.822a1.3,1.3,0,0,0,.636-.164,1.1,1.1,0,0,0,.449-.441v-.958h-.615a1.682,1.682,0,0,0-.953.221.715.715,0,0,0-.319.625.667.667,0,0,0,.218.524A.846.846,0,0,0,42.215,11.892Z" transform="translate(469.896 6990.555)" fill="#12263f"/>
          <path id="Trazado_883039" data-name="Trazado 883039" d="M16.684,11.765h3.1v.949H15.5V5.876h1.188Zm5.119.949H20.662V5.5H21.8Zm3.48.094a2.361,2.361,0,0,1-1.759-.683,2.479,2.479,0,0,1-.674-1.82v-.141a3.049,3.049,0,0,1,.294-1.36,2.234,2.234,0,0,1,.824-.932,2.179,2.179,0,0,1,1.184-.333,2,2,0,0,1,1.6.662,2.8,2.8,0,0,1,.566,1.874v.46H24a1.526,1.526,0,0,0,.42,1,1.262,1.262,0,0,0,.928.366,1.545,1.545,0,0,0,1.278-.634l.615.587a2.055,2.055,0,0,1-.815.707A2.551,2.551,0,0,1,25.284,12.808Zm-.136-4.354a.961.961,0,0,0-.759.329,1.7,1.7,0,0,0-.369.916h2.175V9.614a1.387,1.387,0,0,0-.305-.867A.954.954,0,0,0,25.147,8.454Zm4.791,2.813,1.076-3.635h1.179l-1.761,5.082H29.44L27.665,7.632h1.184Zm5.932,1.447a1.762,1.762,0,0,1-.132-.474,1.92,1.92,0,0,1-2.583.132,1.4,1.4,0,0,1-.484-1.08,1.443,1.443,0,0,1,.6-1.247A2.925,2.925,0,0,1,35,9.61h.7V9.276a.89.89,0,0,0-.221-.632.875.875,0,0,0-.672-.237,1,1,0,0,0-.639.195.6.6,0,0,0-.249.5H32.78a1.267,1.267,0,0,1,.277-.782,1.846,1.846,0,0,1,.754-.571,2.648,2.648,0,0,1,1.064-.207,2.132,2.132,0,0,1,1.423.449,1.6,1.6,0,0,1,.545,1.261V11.54a2.6,2.6,0,0,0,.193,1.094v.08Zm-1.254-.822a1.3,1.3,0,0,0,.636-.164,1.1,1.1,0,0,0,.449-.441v-.958h-.615a1.682,1.682,0,0,0-.953.221.715.715,0,0,0-.319.625.667.667,0,0,0,.218.524A.846.846,0,0,0,34.616,11.892Zm8.853.822a1.761,1.761,0,0,1-.132-.474,1.92,1.92,0,0,1-2.583.132,1.4,1.4,0,0,1-.484-1.08,1.443,1.443,0,0,1,.6-1.247A2.925,2.925,0,0,1,42.6,9.61h.7V9.276a.89.89,0,0,0-.221-.632.875.875,0,0,0-.672-.237,1,1,0,0,0-.639.195.6.6,0,0,0-.249.5H40.379a1.267,1.267,0,0,1,.277-.782,1.846,1.846,0,0,1,.754-.571,2.648,2.648,0,0,1,1.064-.207,2.132,2.132,0,0,1,1.423.449,1.6,1.6,0,0,1,.545,1.261V11.54a2.6,2.6,0,0,0,.193,1.094v.08Zm-1.254-.822a1.3,1.3,0,0,0,.636-.164,1.1,1.1,0,0,0,.449-.441v-.958h-.615a1.682,1.682,0,0,0-.953.221.715.715,0,0,0-.319.625.667.667,0,0,0,.218.524A.846.846,0,0,0,42.215,11.892Z" transform="translate(469.896 6858.16)" fill="#12263f"/>
          <rect id="Rectángulo_401373-2" data-name="Rectángulo 401373" width="157.644" height="52.287" rx="11" transform="translate(561.036 7044.523)" fill="#ea3a70"/>
          <path id="Trazado_883037" data-name="Trazado 883037" d="M29.01,13.14,30.9,6.854h1.917l-2.91,8.358h-1.8l-2.9-8.358h1.912Zm7.348,2.187a3.049,3.049,0,0,1-2.224-.838,2.979,2.979,0,0,1-.858-2.233V12.1a3.752,3.752,0,0,1,.362-1.673,2.654,2.654,0,0,1,1.025-1.137,2.876,2.876,0,0,1,1.513-.4,2.578,2.578,0,0,1,2.006.8,3.266,3.266,0,0,1,.732,2.279v.677H34.957a1.541,1.541,0,0,0,.485.976,1.466,1.466,0,0,0,1.025.367,1.791,1.791,0,0,0,1.5-.695l.815.913a2.49,2.49,0,0,1-1.01.824A3.315,3.315,0,0,1,36.358,15.327Zm-.189-5.1a1.039,1.039,0,0,0-.8.333,1.72,1.72,0,0,0-.393.953h2.308v-.132a1.226,1.226,0,0,0-.3-.852A1.072,1.072,0,0,0,36.168,10.23Zm7.176.327a4.507,4.507,0,0,0-.6-.046,1.215,1.215,0,0,0-1.234.637v4.064H39.854V9h1.567l.046.741a1.537,1.537,0,0,1,1.383-.855,1.738,1.738,0,0,1,.517.075Zm2.549,4.656H44.228V9h1.665ZM44.13,7.394a.817.817,0,0,1,.25-.614,1.076,1.076,0,0,1,1.358,0,.877.877,0,0,1,0,1.234,1.064,1.064,0,0,1-1.349,0A.815.815,0,0,1,44.13,7.394Zm3.53,7.819V10.218h-.924V9h.924V8.714a2.329,2.329,0,0,1,.72-1.805,2.9,2.9,0,0,1,2-.634,6.636,6.636,0,0,1,1.883.339l-.241,1.372a7.346,7.346,0,0,0-.873-.215,4.287,4.287,0,0,0-.666-.049q-1.16,0-1.16,1.028V9h1.223v1.217H49.325v4.994Zm5.379,0H51.375V9h1.665Zm3.955-1.223a1.088,1.088,0,0,0,.746-.253.885.885,0,0,0,.3-.672H59.6a2.128,2.128,0,0,1-.344,1.157,2.273,2.273,0,0,1-.927.815,2.9,2.9,0,0,1-1.3.29,2.7,2.7,0,0,1-2.1-.847,3.351,3.351,0,0,1-.769-2.339v-.109a3.312,3.312,0,0,1,.763-2.29,2.665,2.665,0,0,1,2.1-.855,2.612,2.612,0,0,1,1.869.663,2.348,2.348,0,0,1,.715,1.765H58.039a1.131,1.131,0,0,0-.3-.784,1.112,1.112,0,0,0-1.633.121,2.442,2.442,0,0,0-.3,1.369v.172a2.473,2.473,0,0,0,.293,1.378A1.012,1.012,0,0,0,56.995,13.99Zm7.147,1.223a1.842,1.842,0,0,1-.166-.557,2.007,2.007,0,0,1-1.567.672A2.205,2.205,0,0,1,60.9,14.8a1.7,1.7,0,0,1-.6-1.332,1.755,1.755,0,0,1,.732-1.515,3.612,3.612,0,0,1,2.115-.534h.763v-.356a1.024,1.024,0,0,0-.221-.689.869.869,0,0,0-.7-.258.988.988,0,0,0-.657.2.683.683,0,0,0-.238.551H60.433a1.666,1.666,0,0,1,.333-1,2.2,2.2,0,0,1,.941-.72,3.431,3.431,0,0,1,1.366-.261,2.711,2.711,0,0,1,1.823.577,2.018,2.018,0,0,1,.674,1.622v2.692a2.97,2.97,0,0,0,.247,1.338v.1ZM62.77,14.059a1.429,1.429,0,0,0,.677-.164,1.075,1.075,0,0,0,.459-.439V12.388h-.62q-1.246,0-1.326.861l-.006.1a.664.664,0,0,0,.218.511A.847.847,0,0,0,62.77,14.059Zm6.659-.069a1.088,1.088,0,0,0,.746-.253.885.885,0,0,0,.3-.672h1.556a2.128,2.128,0,0,1-.344,1.157,2.273,2.273,0,0,1-.927.815,2.9,2.9,0,0,1-1.3.29,2.7,2.7,0,0,1-2.1-.847,3.351,3.351,0,0,1-.769-2.339v-.109a3.312,3.312,0,0,1,.763-2.29,2.665,2.665,0,0,1,2.1-.855,2.612,2.612,0,0,1,1.869.663,2.348,2.348,0,0,1,.715,1.765H70.473a1.131,1.131,0,0,0-.3-.784,1.112,1.112,0,0,0-1.633.121,2.442,2.442,0,0,0-.3,1.369v.172a2.473,2.473,0,0,0,.293,1.378A1.012,1.012,0,0,0,69.429,13.99Zm5.3,1.223H73.062V9h1.665ZM72.965,7.394a.817.817,0,0,1,.25-.614,1.076,1.076,0,0,1,1.358,0,.877.877,0,0,1,0,1.234,1.064,1.064,0,0,1-1.349,0A.815.815,0,0,1,72.965,7.394Zm2.87,4.656a3.684,3.684,0,0,1,.356-1.648,2.605,2.605,0,0,1,1.025-1.119,2.989,2.989,0,0,1,1.553-.4,2.828,2.828,0,0,1,2.052.769,3.087,3.087,0,0,1,.887,2.09l.011.425a3.246,3.246,0,0,1-.8,2.293,3.093,3.093,0,0,1-4.285,0,3.3,3.3,0,0,1-.8-2.342Zm1.659.121a2.315,2.315,0,0,0,.333,1.352,1.2,1.2,0,0,0,1.894.006,2.534,2.534,0,0,0,.339-1.478,2.292,2.292,0,0,0-.339-1.343,1.1,1.1,0,0,0-.953-.476,1.084,1.084,0,0,0-.941.474A2.576,2.576,0,0,0,77.494,12.17Zm1.6-5.775H80.9l-1.59,1.78H77.965ZM84.268,9l.052.718A2.169,2.169,0,0,1,86.1,8.886a1.8,1.8,0,0,1,1.47.58,2.705,2.705,0,0,1,.494,1.734v4.013H86.409V11.24a1.076,1.076,0,0,0-.23-.766,1.028,1.028,0,0,0-.763-.238,1.141,1.141,0,0,0-1.051.6v4.38H82.706V9Zm7.727,3.06a3.743,3.743,0,0,1,.652-2.313,2.114,2.114,0,0,1,1.782-.861,1.9,1.9,0,0,1,1.5.677V6.395h1.665v8.817h-1.5l-.08-.66a1.952,1.952,0,0,1-1.6.775,2.108,2.108,0,0,1-1.759-.864A3.864,3.864,0,0,1,91.994,12.061Zm1.659.121a2.445,2.445,0,0,0,.3,1.338.991.991,0,0,0,.884.465,1.11,1.11,0,0,0,1.085-.649V10.884a1.094,1.094,0,0,0-1.073-.649Q93.653,10.235,93.653,12.181Zm8.083,3.146a3.049,3.049,0,0,1-2.224-.838,2.979,2.979,0,0,1-.858-2.233V12.1a3.752,3.752,0,0,1,.362-1.673,2.654,2.654,0,0,1,1.025-1.137,2.876,2.876,0,0,1,1.513-.4,2.578,2.578,0,0,1,2.006.8,3.266,3.266,0,0,1,.732,2.279v.677h-3.955a1.541,1.541,0,0,0,.485.976,1.466,1.466,0,0,0,1.025.367,1.791,1.791,0,0,0,1.5-.695l.815.913a2.49,2.49,0,0,1-1.01.824A3.315,3.315,0,0,1,101.736,15.327Zm-.189-5.1a1.039,1.039,0,0,0-.8.333,1.72,1.72,0,0,0-.393.953h2.308v-.132a1.226,1.226,0,0,0-.3-.852A1.072,1.072,0,0,0,101.547,10.23ZM42.893,23.573a2.071,2.071,0,0,1,1.659-.792q2.021,0,2.049,2.348v3.978H44.943V25.174a1.154,1.154,0,0,0-.23-.789.984.984,0,0,0-.763-.255,1.129,1.129,0,0,0-1.056.563v4.414H41.234V20.289h1.659ZM49.6,29.106H47.939V22.9H49.6Zm-1.762-7.819a.817.817,0,0,1,.25-.614,1.076,1.076,0,0,1,1.358,0,.877.877,0,0,1,0,1.234,1.064,1.064,0,0,1-1.349,0A.815.815,0,0,1,47.841,21.288Zm8.72,4.77a3.725,3.725,0,0,1-.652,2.3,2.089,2.089,0,0,1-1.759.864,1.935,1.935,0,0,1-1.521-.654v2.928H50.97V22.9h1.538l.057.608a1.95,1.95,0,0,1,1.573-.723,2.1,2.1,0,0,1,1.785.85,3.826,3.826,0,0,1,.637,2.342ZM54.9,25.938A2.444,2.444,0,0,0,54.6,24.6a1,1,0,0,0-.893-.471,1.086,1.086,0,0,0-1.073.6v2.543a1.1,1.1,0,0,0,1.085.614Q54.9,27.884,54.9,25.938Zm2.428.006a3.684,3.684,0,0,1,.356-1.648,2.605,2.605,0,0,1,1.025-1.119,2.989,2.989,0,0,1,1.553-.4,2.828,2.828,0,0,1,2.052.769,3.087,3.087,0,0,1,.887,2.09l.011.425a3.246,3.246,0,0,1-.8,2.293,3.093,3.093,0,0,1-4.285,0,3.3,3.3,0,0,1-.8-2.342Zm1.659.121a2.315,2.315,0,0,0,.333,1.352,1.2,1.2,0,0,0,1.894.006,2.534,2.534,0,0,0,.339-1.478,2.292,2.292,0,0,0-.339-1.343,1.1,1.1,0,0,0-.953-.476,1.083,1.083,0,0,0-.941.474A2.576,2.576,0,0,0,58.989,26.064Zm1.6-5.775H62.4l-1.59,1.78H59.46Zm5.631,1.079V22.9h1.062v1.217H66.222v3.1a.74.74,0,0,0,.132.494.663.663,0,0,0,.505.149,2.646,2.646,0,0,0,.488-.04v1.257a3.415,3.415,0,0,1-1,.149,1.584,1.584,0,0,1-1.78-1.762V24.112h-.907V22.9h.907V21.368Zm4.845,7.853a3.049,3.049,0,0,1-2.224-.838,2.979,2.979,0,0,1-.858-2.233v-.161a3.752,3.752,0,0,1,.362-1.673,2.654,2.654,0,0,1,1.025-1.137,2.876,2.876,0,0,1,1.513-.4,2.578,2.578,0,0,1,2.006.8,3.266,3.266,0,0,1,.732,2.279v.677H69.667a1.541,1.541,0,0,0,.485.976,1.466,1.466,0,0,0,1.025.367,1.791,1.791,0,0,0,1.5-.695l.815.913a2.49,2.49,0,0,1-1.01.824A3.315,3.315,0,0,1,71.067,29.221Zm-.189-5.1a1.039,1.039,0,0,0-.8.333,1.72,1.72,0,0,0-.393.953h2.308v-.132a1.226,1.226,0,0,0-.3-.852A1.072,1.072,0,0,0,70.878,24.124Zm7.049,3.266a.535.535,0,0,0-.3-.479,3.423,3.423,0,0,0-.967-.313q-2.216-.465-2.216-1.883a1.707,1.707,0,0,1,.686-1.381,2.767,2.767,0,0,1,1.794-.554,2.978,2.978,0,0,1,1.891.557,1.755,1.755,0,0,1,.709,1.447H77.864a.8.8,0,0,0-.23-.588.972.972,0,0,0-.718-.232.993.993,0,0,0-.649.189.6.6,0,0,0-.23.482.511.511,0,0,0,.261.445,2.687,2.687,0,0,0,.881.293,7.2,7.2,0,0,1,1.045.278,1.717,1.717,0,0,1,1.315,1.67,1.62,1.62,0,0,1-.729,1.375,3.145,3.145,0,0,1-1.883.525,3.285,3.285,0,0,1-1.386-.278,2.326,2.326,0,0,1-.95-.763,1.774,1.774,0,0,1-.344-1.048h1.573a.866.866,0,0,0,.327.677,1.3,1.3,0,0,0,.815.235,1.2,1.2,0,0,0,.72-.181A.563.563,0,0,0,77.927,27.39Zm4.432,1.716H80.694V22.9h1.665ZM80.6,21.288a.817.817,0,0,1,.25-.614,1.076,1.076,0,0,1,1.358,0,.877.877,0,0,1,0,1.234,1.064,1.064,0,0,1-1.349,0A.814.814,0,0,1,80.6,21.288Zm6.492,6.1a.535.535,0,0,0-.3-.479,3.423,3.423,0,0,0-.967-.313Q83.6,26.133,83.6,24.715a1.707,1.707,0,0,1,.686-1.381,2.767,2.767,0,0,1,1.794-.554,2.978,2.978,0,0,1,1.891.557,1.755,1.755,0,0,1,.709,1.447H87.026a.8.8,0,0,0-.23-.588.972.972,0,0,0-.718-.232.993.993,0,0,0-.649.189.6.6,0,0,0-.23.482.511.511,0,0,0,.261.445,2.687,2.687,0,0,0,.881.293,7.2,7.2,0,0,1,1.045.278,1.717,1.717,0,0,1,1.315,1.67,1.62,1.62,0,0,1-.729,1.375,3.145,3.145,0,0,1-1.883.525,3.285,3.285,0,0,1-1.386-.278,2.326,2.326,0,0,1-.95-.763,1.774,1.774,0,0,1-.344-1.048h1.573a.866.866,0,0,0,.327.677,1.3,1.3,0,0,0,.815.235,1.2,1.2,0,0,0,.72-.181A.563.563,0,0,0,87.089,27.39Z" transform="translate(574.946 7052.824)" fill="#fff"/>
          <path id="Trazado_883040" data-name="Trazado 883040" d="M23.812,15.317H22.09l-3.352-5.5v5.5H17.016V6.959h1.722L22.1,12.47V6.959h1.716Zm5.115-.631a2.08,2.08,0,0,1-1.7.746,1.962,1.962,0,0,1-1.524-.574,2.451,2.451,0,0,1-.537-1.682V9.106h1.659v4.013q0,.97.884.97a1.2,1.2,0,0,0,1.16-.586v-4.4h1.665v6.211H28.973Zm5.718.746a3.049,3.049,0,0,1-2.224-.838,2.979,2.979,0,0,1-.858-2.233V12.2a3.752,3.752,0,0,1,.362-1.673A2.654,2.654,0,0,1,32.948,9.39a2.876,2.876,0,0,1,1.513-.4,2.578,2.578,0,0,1,2.006.8,3.266,3.266,0,0,1,.732,2.279v.677H33.244a1.541,1.541,0,0,0,.485.976,1.466,1.466,0,0,0,1.025.367,1.791,1.791,0,0,0,1.5-.695l.815.913a2.49,2.49,0,0,1-1.01.824A3.315,3.315,0,0,1,34.645,15.432Zm-.189-5.1a1.039,1.039,0,0,0-.8.333,1.72,1.72,0,0,0-.393.953h2.308v-.132a1.226,1.226,0,0,0-.3-.852A1.072,1.072,0,0,0,34.455,10.335Zm5.936,2.956,1.154-4.185h1.734l-2.1,6.211H39.6L37.5,9.106h1.734Zm3.272-1.137a3.684,3.684,0,0,1,.356-1.648,2.605,2.605,0,0,1,1.025-1.119,2.989,2.989,0,0,1,1.553-.4,2.828,2.828,0,0,1,2.052.769,3.087,3.087,0,0,1,.887,2.09l.011.425a3.246,3.246,0,0,1-.8,2.293,3.093,3.093,0,0,1-4.285,0,3.3,3.3,0,0,1-.8-2.342Zm1.659.121a2.315,2.315,0,0,0,.333,1.352,1.2,1.2,0,0,0,1.894.006,2.534,2.534,0,0,0,.339-1.478,2.292,2.292,0,0,0-.339-1.343,1.1,1.1,0,0,0-.953-.476,1.084,1.084,0,0,0-.941.474A2.576,2.576,0,0,0,45.322,12.275Zm10.758,1.82a1.088,1.088,0,0,0,.746-.253.885.885,0,0,0,.3-.672H58.68a2.128,2.128,0,0,1-.344,1.157,2.273,2.273,0,0,1-.927.815,2.9,2.9,0,0,1-1.3.29,2.7,2.7,0,0,1-2.1-.847,3.351,3.351,0,0,1-.769-2.339v-.109A3.312,3.312,0,0,1,54,9.847a2.665,2.665,0,0,1,2.1-.855,2.612,2.612,0,0,1,1.869.663,2.348,2.348,0,0,1,.715,1.765H57.124a1.131,1.131,0,0,0-.3-.784,1.112,1.112,0,0,0-1.633.121,2.442,2.442,0,0,0-.3,1.369V12.3a2.473,2.473,0,0,0,.293,1.378A1.012,1.012,0,0,0,56.08,14.095Zm7.267.591a2.08,2.08,0,0,1-1.7.746,1.962,1.962,0,0,1-1.524-.574,2.451,2.451,0,0,1-.537-1.682V9.106h1.659v4.013q0,.97.884.97a1.2,1.2,0,0,0,1.16-.586v-4.4h1.665v6.211H63.393Zm5.718.746a3.049,3.049,0,0,1-2.224-.838,2.979,2.979,0,0,1-.858-2.233V12.2a3.752,3.752,0,0,1,.362-1.673A2.654,2.654,0,0,1,67.368,9.39a2.876,2.876,0,0,1,1.513-.4,2.578,2.578,0,0,1,2.006.8,3.266,3.266,0,0,1,.732,2.279v.677H67.664a1.541,1.541,0,0,0,.485.976,1.466,1.466,0,0,0,1.025.367,1.791,1.791,0,0,0,1.5-.695l.815.913a2.49,2.49,0,0,1-1.01.824A3.315,3.315,0,0,1,69.065,15.432Zm-.189-5.1a1.039,1.039,0,0,0-.8.333,1.72,1.72,0,0,0-.393.953h2.308v-.132a1.226,1.226,0,0,0-.3-.852A1.072,1.072,0,0,0,68.875,10.335Zm7.176.327a4.507,4.507,0,0,0-.6-.046,1.215,1.215,0,0,0-1.234.637v4.064H72.561V9.106h1.567l.046.741a1.537,1.537,0,0,1,1.383-.855,1.738,1.738,0,0,1,.517.075Zm6.389,1.607a3.725,3.725,0,0,1-.652,2.3,2.089,2.089,0,0,1-1.759.864,1.935,1.935,0,0,1-1.521-.654v2.928H76.849v-8.6h1.538l.057.608a1.95,1.95,0,0,1,1.573-.723,2.1,2.1,0,0,1,1.785.85,3.826,3.826,0,0,1,.637,2.342Zm-1.659-.121a2.445,2.445,0,0,0-.307-1.338,1,1,0,0,0-.893-.471,1.086,1.086,0,0,0-1.073.6V13.48a1.1,1.1,0,0,0,1.085.614Q80.781,14.095,80.781,12.149Zm2.428.006a3.683,3.683,0,0,1,.356-1.648A2.605,2.605,0,0,1,84.59,9.387a2.989,2.989,0,0,1,1.553-.4,2.828,2.828,0,0,1,2.052.769,3.087,3.087,0,0,1,.887,2.09l.011.425a3.246,3.246,0,0,1-.8,2.293,3.093,3.093,0,0,1-4.285,0,3.3,3.3,0,0,1-.8-2.342Zm1.659.121a2.315,2.315,0,0,0,.333,1.352,1.2,1.2,0,0,0,1.894.006,2.534,2.534,0,0,0,.339-1.478,2.292,2.292,0,0,0-.339-1.343,1.1,1.1,0,0,0-.953-.476,1.083,1.083,0,0,0-.941.474A2.576,2.576,0,0,0,84.868,12.275Zm7.916-.109a3.743,3.743,0,0,1,.652-2.313,2.114,2.114,0,0,1,1.782-.861,1.9,1.9,0,0,1,1.5.677V6.5h1.665v8.817h-1.5l-.08-.66a1.952,1.952,0,0,1-1.6.775,2.108,2.108,0,0,1-1.759-.864A3.864,3.864,0,0,1,92.784,12.166Zm1.659.121a2.445,2.445,0,0,0,.3,1.338.991.991,0,0,0,.884.465,1.11,1.11,0,0,0,1.085-.649V10.989a1.094,1.094,0,0,0-1.073-.649Q94.443,10.34,94.443,12.286Zm8.083,3.146a3.049,3.049,0,0,1-2.224-.838,2.979,2.979,0,0,1-.858-2.233V12.2a3.752,3.752,0,0,1,.362-1.673A2.654,2.654,0,0,1,100.83,9.39a2.876,2.876,0,0,1,1.513-.4,2.578,2.578,0,0,1,2.006.8,3.266,3.266,0,0,1,.732,2.279v.677h-3.955a1.541,1.541,0,0,0,.485.976,1.466,1.466,0,0,0,1.025.367,1.791,1.791,0,0,0,1.5-.695l.815.913a2.49,2.49,0,0,1-1.01.824A3.315,3.315,0,0,1,102.526,15.432Zm-.189-5.1a1.039,1.039,0,0,0-.8.333,1.72,1.72,0,0,0-.393.953h2.308v-.132a1.226,1.226,0,0,0-.3-.852A1.072,1.072,0,0,0,102.336,10.335ZM25.055,27.989a1.088,1.088,0,0,0,.746-.253.885.885,0,0,0,.3-.672h1.556a2.128,2.128,0,0,1-.344,1.157,2.273,2.273,0,0,1-.927.815,2.9,2.9,0,0,1-1.3.29,2.7,2.7,0,0,1-2.1-.847,3.351,3.351,0,0,1-.769-2.339v-.109a3.312,3.312,0,0,1,.763-2.29,2.665,2.665,0,0,1,2.1-.855,2.612,2.612,0,0,1,1.869.663,2.348,2.348,0,0,1,.715,1.765H26.1a1.131,1.131,0,0,0-.3-.784,1.112,1.112,0,0,0-1.633.121,2.442,2.442,0,0,0-.3,1.369v.172a2.473,2.473,0,0,0,.293,1.378A1.012,1.012,0,0,0,25.055,27.989Zm3.289-1.94A3.684,3.684,0,0,1,28.7,24.4a2.605,2.605,0,0,1,1.025-1.119,2.989,2.989,0,0,1,1.553-.4,2.828,2.828,0,0,1,2.052.769,3.087,3.087,0,0,1,.887,2.09l.011.425a3.246,3.246,0,0,1-.8,2.293,3.093,3.093,0,0,1-4.285,0,3.3,3.3,0,0,1-.8-2.342ZM30,26.169a2.315,2.315,0,0,0,.333,1.352,1.2,1.2,0,0,0,1.894.006,2.534,2.534,0,0,0,.339-1.478,2.292,2.292,0,0,0-.339-1.343,1.1,1.1,0,0,0-.953-.476,1.083,1.083,0,0,0-.941.474A2.576,2.576,0,0,0,30,26.169ZM36.777,23l.052.718a2.169,2.169,0,0,1,1.785-.832,1.8,1.8,0,0,1,1.47.58,2.705,2.705,0,0,1,.494,1.734v4.013H38.918V25.239a1.076,1.076,0,0,0-.23-.766,1.028,1.028,0,0,0-.763-.238,1.141,1.141,0,0,0-1.051.6v4.38H35.216V23Zm4.8,3.048a3.684,3.684,0,0,1,.356-1.648,2.605,2.605,0,0,1,1.025-1.119,2.989,2.989,0,0,1,1.553-.4,2.828,2.828,0,0,1,2.052.769,3.087,3.087,0,0,1,.887,2.09l.011.425a3.246,3.246,0,0,1-.8,2.293,3.093,3.093,0,0,1-4.285,0,3.3,3.3,0,0,1-.8-2.342Zm1.659.121a2.315,2.315,0,0,0,.333,1.352,1.2,1.2,0,0,0,1.894.006,2.534,2.534,0,0,0,.339-1.478,2.292,2.292,0,0,0-.339-1.343,1.1,1.1,0,0,0-.953-.476,1.083,1.083,0,0,0-.941.474A2.576,2.576,0,0,0,43.235,26.169Zm7.83,1.82a1.088,1.088,0,0,0,.746-.253.885.885,0,0,0,.3-.672h1.556a2.128,2.128,0,0,1-.344,1.157,2.273,2.273,0,0,1-.927.815,2.9,2.9,0,0,1-1.3.29,2.7,2.7,0,0,1-2.1-.847,3.351,3.351,0,0,1-.769-2.339v-.109a3.312,3.312,0,0,1,.763-2.29,2.665,2.665,0,0,1,2.1-.855,2.612,2.612,0,0,1,1.869.663,2.348,2.348,0,0,1,.715,1.765H52.11a1.131,1.131,0,0,0-.3-.784,1.112,1.112,0,0,0-1.633.121,2.442,2.442,0,0,0-.3,1.369v.172a2.473,2.473,0,0,0,.293,1.378A1.012,1.012,0,0,0,51.065,27.989Zm5.3,1.223H54.7V23h1.665ZM54.6,21.393a.817.817,0,0,1,.25-.614,1.076,1.076,0,0,1,1.358,0,.877.877,0,0,1,0,1.234,1.064,1.064,0,0,1-1.349,0A.814.814,0,0,1,54.6,21.393ZM59.286,23l.052.695a2.183,2.183,0,0,1,1.785-.809,1.657,1.657,0,0,1,1.648.947,2.133,2.133,0,0,1,1.866-.947,1.853,1.853,0,0,1,1.5.588,2.7,2.7,0,0,1,.494,1.771v3.967H64.969V25.251a1.183,1.183,0,0,0-.207-.772.916.916,0,0,0-.729-.244A1.035,1.035,0,0,0,63,24.946l.006,4.265H61.347V25.256a1.168,1.168,0,0,0-.212-.781.925.925,0,0,0-.723-.241,1.075,1.075,0,0,0-1.022.586v4.391H57.73V23Zm10.373,6.211H67.994V23h1.665ZM67.9,21.393a.817.817,0,0,1,.25-.614,1.076,1.076,0,0,1,1.358,0,.877.877,0,0,1,0,1.234,1.064,1.064,0,0,1-1.349,0A.814.814,0,0,1,67.9,21.393Zm5.987,7.933a3.049,3.049,0,0,1-2.224-.838,2.979,2.979,0,0,1-.858-2.233v-.161a3.752,3.752,0,0,1,.362-1.673,2.654,2.654,0,0,1,1.025-1.137,2.876,2.876,0,0,1,1.513-.4,2.578,2.578,0,0,1,2.006.8,3.266,3.266,0,0,1,.732,2.279v.677H72.483a1.541,1.541,0,0,0,.485.976,1.466,1.466,0,0,0,1.025.367,1.791,1.791,0,0,0,1.5-.695l.815.913a2.49,2.49,0,0,1-1.01.824A3.315,3.315,0,0,1,73.884,29.326Zm-.189-5.1a1.039,1.039,0,0,0-.8.333,1.72,1.72,0,0,0-.393.953h2.308v-.132a1.226,1.226,0,0,0-.3-.852A1.072,1.072,0,0,0,73.694,24.229ZM78.907,23l.052.718a2.169,2.169,0,0,1,1.785-.832,1.8,1.8,0,0,1,1.47.58,2.705,2.705,0,0,1,.494,1.734v4.013H81.048V25.239a1.076,1.076,0,0,0-.23-.766,1.028,1.028,0,0,0-.763-.238,1.141,1.141,0,0,0-1.051.6v4.38H77.345V23Zm7.044-1.527V23h1.062v1.217H85.95v3.1a.74.74,0,0,0,.132.494.663.663,0,0,0,.505.149,2.646,2.646,0,0,0,.488-.04v1.257a3.415,3.415,0,0,1-1,.149,1.584,1.584,0,0,1-1.78-1.762V24.217h-.907V23h.907V21.473Zm1.556,4.575a3.684,3.684,0,0,1,.356-1.648,2.605,2.605,0,0,1,1.025-1.119,2.989,2.989,0,0,1,1.553-.4,2.828,2.828,0,0,1,2.052.769,3.087,3.087,0,0,1,.887,2.09l.011.425a3.246,3.246,0,0,1-.8,2.293,3.093,3.093,0,0,1-4.285,0,3.3,3.3,0,0,1-.8-2.342Zm1.659.121a2.315,2.315,0,0,0,.333,1.352,1.2,1.2,0,0,0,1.894.006,2.534,2.534,0,0,0,.339-1.478,2.292,2.292,0,0,0-.339-1.343,1.1,1.1,0,0,0-.953-.476,1.083,1.083,0,0,0-.941.474A2.576,2.576,0,0,0,89.165,26.169ZM97.776,27.5a.535.535,0,0,0-.3-.479,3.423,3.423,0,0,0-.967-.313q-2.216-.465-2.216-1.883a1.707,1.707,0,0,1,.686-1.381,2.767,2.767,0,0,1,1.794-.554,2.978,2.978,0,0,1,1.891.557,1.755,1.755,0,0,1,.709,1.447H97.712a.8.8,0,0,0-.23-.588.972.972,0,0,0-.718-.232.993.993,0,0,0-.649.189.6.6,0,0,0-.23.482.511.511,0,0,0,.261.445,2.687,2.687,0,0,0,.881.293,7.2,7.2,0,0,1,1.045.278,1.717,1.717,0,0,1,1.315,1.67A1.62,1.62,0,0,1,98.66,28.8a3.145,3.145,0,0,1-1.883.525,3.285,3.285,0,0,1-1.386-.278,2.326,2.326,0,0,1-.95-.763,1.774,1.774,0,0,1-.344-1.048h1.573a.866.866,0,0,0,.327.677,1.3,1.3,0,0,0,.815.235,1.2,1.2,0,0,0,.72-.181A.563.563,0,0,0,97.776,27.5Zm-72.66,15.61H23.393l-3.352-5.5v5.5H18.319V34.747h1.722L23.4,40.258V34.747h1.716Zm5.115-.631a2.08,2.08,0,0,1-1.7.746,1.962,1.962,0,0,1-1.524-.574,2.451,2.451,0,0,1-.537-1.682v-4.07h1.659v4.013q0,.97.884.97a1.2,1.2,0,0,0,1.16-.586v-4.4h1.665v6.211H30.276Zm5.718.746a3.049,3.049,0,0,1-2.224-.838,2.979,2.979,0,0,1-.858-2.233v-.161a3.752,3.752,0,0,1,.362-1.673,2.654,2.654,0,0,1,1.025-1.137,2.876,2.876,0,0,1,1.513-.4,2.578,2.578,0,0,1,2.006.8,3.266,3.266,0,0,1,.732,2.279v.677H34.547a1.541,1.541,0,0,0,.485.976,1.466,1.466,0,0,0,1.025.367,1.791,1.791,0,0,0,1.5-.695l.815.913a2.49,2.49,0,0,1-1.01.824A3.315,3.315,0,0,1,35.948,43.22Zm-.189-5.1a1.039,1.039,0,0,0-.8.333,1.72,1.72,0,0,0-.393.953h2.308v-.132a1.226,1.226,0,0,0-.3-.852A1.072,1.072,0,0,0,35.758,38.123Zm5.936,2.956,1.154-4.185h1.734l-2.1,6.211H40.9l-2.1-6.211H40.54Zm3.272-1.137a3.684,3.684,0,0,1,.356-1.648,2.605,2.605,0,0,1,1.025-1.119,2.989,2.989,0,0,1,1.553-.4,2.828,2.828,0,0,1,2.052.769,3.087,3.087,0,0,1,.887,2.09l.011.425a3.246,3.246,0,0,1-.8,2.293,3.093,3.093,0,0,1-4.285,0,3.3,3.3,0,0,1-.8-2.342Zm1.659.121a2.315,2.315,0,0,0,.333,1.352,1.2,1.2,0,0,0,1.894.006,2.534,2.534,0,0,0,.339-1.478,2.292,2.292,0,0,0-.339-1.343,1.1,1.1,0,0,0-.953-.476,1.083,1.083,0,0,0-.941.474A2.576,2.576,0,0,0,46.625,40.063Zm13.766-.006a3.725,3.725,0,0,1-.652,2.3,2.089,2.089,0,0,1-1.759.864,1.935,1.935,0,0,1-1.521-.654v2.928H54.8v-8.6h1.538l.057.608a1.95,1.95,0,0,1,1.573-.723,2.1,2.1,0,0,1,1.785.85,3.826,3.826,0,0,1,.637,2.342Zm-1.659-.121a2.444,2.444,0,0,0-.307-1.338,1,1,0,0,0-.893-.471,1.086,1.086,0,0,0-1.073.6v2.543a1.1,1.1,0,0,0,1.085.614Q58.732,41.883,58.732,39.937Zm6.177-1.487a4.507,4.507,0,0,0-.6-.046,1.215,1.215,0,0,0-1.234.637v4.064H61.418V36.894h1.567l.046.741a1.537,1.537,0,0,1,1.383-.855,1.738,1.738,0,0,1,.517.075Zm.333,1.493a3.684,3.684,0,0,1,.356-1.648,2.606,2.606,0,0,1,1.025-1.119,2.99,2.99,0,0,1,1.553-.4,2.828,2.828,0,0,1,2.052.769,3.087,3.087,0,0,1,.887,2.09l.011.425a3.246,3.246,0,0,1-.8,2.293,3.093,3.093,0,0,1-4.285,0,3.3,3.3,0,0,1-.8-2.342Zm1.659.121a2.315,2.315,0,0,0,.333,1.352,1.2,1.2,0,0,0,1.894.006,2.534,2.534,0,0,0,.339-1.478,2.292,2.292,0,0,0-.339-1.343,1.1,1.1,0,0,0-.953-.476,1.083,1.083,0,0,0-.941.474A2.576,2.576,0,0,0,66.9,40.063Zm10.844-.006a3.761,3.761,0,0,1-.637,2.328,2.111,2.111,0,0,1-1.78.835,1.939,1.939,0,0,1-1.613-.775l-.075.66H72.147V34.288h1.659v3.163a1.889,1.889,0,0,1,1.51-.672,2.128,2.128,0,0,1,1.782.835,3.766,3.766,0,0,1,.646,2.351Zm-1.659-.121a2.471,2.471,0,0,0-.3-1.375,1.009,1.009,0,0,0-.89-.433,1.094,1.094,0,0,0-1.091.649v2.451a1.109,1.109,0,0,0,1.1.654,1.024,1.024,0,0,0,1.056-.792A4.086,4.086,0,0,0,76.085,39.937Zm4.432,3.169H78.852V34.288h1.665Zm4.225.115a3.049,3.049,0,0,1-2.224-.838,2.979,2.979,0,0,1-.858-2.233v-.161a3.752,3.752,0,0,1,.362-1.673,2.654,2.654,0,0,1,1.025-1.137,2.876,2.876,0,0,1,1.513-.4,2.578,2.578,0,0,1,2.006.8,3.266,3.266,0,0,1,.732,2.279v.677H83.341a1.541,1.541,0,0,0,.485.976,1.466,1.466,0,0,0,1.025.367,1.791,1.791,0,0,0,1.5-.695l.815.913a2.49,2.49,0,0,1-1.01.824A3.315,3.315,0,0,1,84.742,43.22Zm-.189-5.1a1.039,1.039,0,0,0-.8.333,1.72,1.72,0,0,0-.393.953h2.308v-.132a1.226,1.226,0,0,0-.3-.852A1.072,1.072,0,0,0,84.552,38.123Zm5.241-1.228.052.695a2.183,2.183,0,0,1,1.785-.809,1.657,1.657,0,0,1,1.648.947,2.133,2.133,0,0,1,1.866-.947,1.853,1.853,0,0,1,1.5.588,2.7,2.7,0,0,1,.494,1.771v3.967H95.477V39.145a1.183,1.183,0,0,0-.207-.772.916.916,0,0,0-.729-.244,1.035,1.035,0,0,0-1.033.712l.006,4.265H91.854V39.15a1.168,1.168,0,0,0-.212-.781.925.925,0,0,0-.723-.241,1.075,1.075,0,0,0-1.022.586v4.391H88.238V36.894Zm12.221,6.211a1.842,1.842,0,0,1-.166-.557,2.007,2.007,0,0,1-1.567.672,2.205,2.205,0,0,1-1.513-.528,1.7,1.7,0,0,1-.6-1.332,1.755,1.755,0,0,1,.732-1.515,3.612,3.612,0,0,1,2.115-.534h.763v-.356a1.023,1.023,0,0,0-.221-.689.869.869,0,0,0-.7-.258.988.988,0,0,0-.657.2.683.683,0,0,0-.238.551H98.307a1.666,1.666,0,0,1,.333-1,2.2,2.2,0,0,1,.941-.72,3.431,3.431,0,0,1,1.366-.261,2.711,2.711,0,0,1,1.823.577,2.018,2.018,0,0,1,.675,1.622V41.67a2.969,2.969,0,0,0,.247,1.338v.1Zm-1.372-1.154a1.429,1.429,0,0,0,.677-.164,1.075,1.075,0,0,0,.459-.439V40.281h-.62q-1.246,0-1.326.861l-.006.1a.664.664,0,0,0,.218.511A.847.847,0,0,0,100.643,41.952Z" transform="translate(438.728 6913.778)" fill="#12263f"/>
          <path id="Trazado_883034" data-name="Trazado 883034" d="M29.32,11.9H26.014v3.416H24.292V6.959h5.442V8.354h-3.72v2.158H29.32Zm.924.253a3.684,3.684,0,0,1,.356-1.648,2.605,2.605,0,0,1,1.025-1.119,2.989,2.989,0,0,1,1.553-.4,2.828,2.828,0,0,1,2.052.769,3.087,3.087,0,0,1,.887,2.09l.011.425a3.246,3.246,0,0,1-.8,2.293,3.093,3.093,0,0,1-4.285,0,3.3,3.3,0,0,1-.8-2.342Zm1.659.121a2.315,2.315,0,0,0,.333,1.352,1.2,1.2,0,0,0,1.894.006,2.534,2.534,0,0,0,.339-1.478,2.292,2.292,0,0,0-.339-1.343,1.1,1.1,0,0,0-.953-.476,1.084,1.084,0,0,0-.941.474A2.576,2.576,0,0,0,31.9,12.275Zm8.737-1.613a4.507,4.507,0,0,0-.6-.046,1.215,1.215,0,0,0-1.234.637v4.064H37.15V9.106h1.567l.046.741a1.537,1.537,0,0,1,1.383-.855,1.738,1.738,0,0,1,.517.075Zm2.354-1.556.052.695a2.183,2.183,0,0,1,1.785-.809,1.657,1.657,0,0,1,1.648.947,2.133,2.133,0,0,1,1.866-.947,1.853,1.853,0,0,1,1.5.588,2.7,2.7,0,0,1,.494,1.771v3.967H48.677V11.356a1.183,1.183,0,0,0-.207-.772.916.916,0,0,0-.729-.244,1.035,1.035,0,0,0-1.033.712l.006,4.265H45.055V11.362a1.168,1.168,0,0,0-.212-.781.925.925,0,0,0-.723-.241,1.075,1.075,0,0,0-1.022.586v4.391H41.438V9.106Zm12.342,5.58a2.08,2.08,0,0,1-1.7.746,1.962,1.962,0,0,1-1.524-.574,2.451,2.451,0,0,1-.537-1.682V9.106h1.659v4.013q0,.97.884.97a1.2,1.2,0,0,0,1.16-.586v-4.4h1.665v6.211H55.382Zm4.61.631H58.281V6.5h1.665Zm4.966,0a1.842,1.842,0,0,1-.166-.557,2.007,2.007,0,0,1-1.567.672,2.205,2.205,0,0,1-1.513-.528,1.7,1.7,0,0,1-.6-1.332,1.755,1.755,0,0,1,.732-1.515,3.612,3.612,0,0,1,2.115-.534h.763v-.356a1.024,1.024,0,0,0-.221-.689.869.869,0,0,0-.7-.258.988.988,0,0,0-.657.2.683.683,0,0,0-.238.551H61.2a1.666,1.666,0,0,1,.333-1,2.2,2.2,0,0,1,.941-.72,3.431,3.431,0,0,1,1.366-.261,2.711,2.711,0,0,1,1.823.577,2.018,2.018,0,0,1,.675,1.622v2.692a2.969,2.969,0,0,0,.247,1.338v.1Zm-1.372-1.154A1.429,1.429,0,0,0,64.217,14a1.075,1.075,0,0,0,.459-.439V12.493h-.62q-1.246,0-1.326.861l-.006.1a.664.664,0,0,0,.218.511A.847.847,0,0,0,63.539,14.164Zm6.659-.069a1.088,1.088,0,0,0,.746-.253.885.885,0,0,0,.3-.672H72.8a2.128,2.128,0,0,1-.344,1.157,2.273,2.273,0,0,1-.927.815,2.9,2.9,0,0,1-1.3.29,2.7,2.7,0,0,1-2.1-.847,3.351,3.351,0,0,1-.769-2.339v-.109a3.312,3.312,0,0,1,.763-2.29,2.665,2.665,0,0,1,2.1-.855,2.613,2.613,0,0,1,1.869.663A2.348,2.348,0,0,1,72.8,11.42H71.243a1.131,1.131,0,0,0-.3-.784,1.112,1.112,0,0,0-1.633.121,2.442,2.442,0,0,0-.3,1.369V12.3a2.473,2.473,0,0,0,.293,1.378A1.012,1.012,0,0,0,70.2,14.095Zm5.3,1.223H73.832V9.106H75.5ZM73.734,7.5a.817.817,0,0,1,.25-.614,1.076,1.076,0,0,1,1.358,0,.877.877,0,0,1,0,1.234,1.064,1.064,0,0,1-1.349,0A.814.814,0,0,1,73.734,7.5Zm2.87,4.656a3.684,3.684,0,0,1,.356-1.648,2.605,2.605,0,0,1,1.025-1.119,2.989,2.989,0,0,1,1.553-.4,2.828,2.828,0,0,1,2.052.769,3.087,3.087,0,0,1,.887,2.09l.011.425a3.246,3.246,0,0,1-.8,2.293,3.093,3.093,0,0,1-4.285,0,3.3,3.3,0,0,1-.8-2.342Zm1.659.121a2.315,2.315,0,0,0,.333,1.352,1.2,1.2,0,0,0,1.894.006,2.534,2.534,0,0,0,.339-1.478,2.292,2.292,0,0,0-.339-1.343,1.1,1.1,0,0,0-.953-.476,1.083,1.083,0,0,0-.941.474A2.576,2.576,0,0,0,78.264,12.275Zm1.6-5.775h1.808l-1.59,1.78H78.734Zm5.172,2.606.052.718a2.169,2.169,0,0,1,1.785-.832,1.8,1.8,0,0,1,1.47.58,2.705,2.705,0,0,1,.494,1.734v4.013H87.179V11.345a1.076,1.076,0,0,0-.23-.766,1.028,1.028,0,0,0-.763-.238,1.141,1.141,0,0,0-1.051.6v4.38H83.476V9.106Zm7.727,3.06a3.743,3.743,0,0,1,.652-2.313A2.114,2.114,0,0,1,95.2,8.991a1.9,1.9,0,0,1,1.5.677V6.5h1.665v8.817h-1.5l-.08-.66a1.952,1.952,0,0,1-1.6.775,2.108,2.108,0,0,1-1.759-.864A3.864,3.864,0,0,1,92.764,12.166Zm1.659.121a2.445,2.445,0,0,0,.3,1.338.992.992,0,0,0,.884.465A1.11,1.11,0,0,0,96.7,13.44V10.989a1.094,1.094,0,0,0-1.073-.649Q94.423,10.34,94.423,12.286Zm8.083,3.146a3.049,3.049,0,0,1-2.224-.838,2.979,2.979,0,0,1-.858-2.233V12.2a3.752,3.752,0,0,1,.362-1.673,2.654,2.654,0,0,1,1.025-1.137,2.876,2.876,0,0,1,1.513-.4,2.578,2.578,0,0,1,2.006.8,3.266,3.266,0,0,1,.732,2.279v.677H101.1a1.541,1.541,0,0,0,.485.976,1.466,1.466,0,0,0,1.025.367,1.791,1.791,0,0,0,1.5-.695l.815.913a2.491,2.491,0,0,1-1.01.824A3.315,3.315,0,0,1,102.506,15.432Zm-.189-5.1a1.039,1.039,0,0,0-.8.333,1.72,1.72,0,0,0-.393.953h2.308v-.132a1.226,1.226,0,0,0-.3-.852A1.072,1.072,0,0,0,102.316,10.335ZM42.463,23.678a2.071,2.071,0,0,1,1.659-.792q2.021,0,2.049,2.348v3.978H44.512V25.279a1.154,1.154,0,0,0-.23-.789.984.984,0,0,0-.763-.255,1.129,1.129,0,0,0-1.056.563v4.414H40.8V20.394h1.659Zm6.711,5.534H47.509V23h1.665Zm-1.762-7.819a.817.817,0,0,1,.25-.614,1.076,1.076,0,0,1,1.358,0,.877.877,0,0,1,0,1.234,1.064,1.064,0,0,1-1.349,0A.814.814,0,0,1,47.411,21.393Zm8.72,4.77a3.725,3.725,0,0,1-.652,2.3,2.089,2.089,0,0,1-1.759.864,1.935,1.935,0,0,1-1.521-.654V31.6H50.54V23h1.538l.057.608a1.95,1.95,0,0,1,1.573-.723,2.1,2.1,0,0,1,1.785.85,3.826,3.826,0,0,1,.637,2.342Zm-1.659-.121a2.445,2.445,0,0,0-.307-1.338,1,1,0,0,0-.893-.471,1.086,1.086,0,0,0-1.073.6v2.543a1.1,1.1,0,0,0,1.085.614Q54.472,27.989,54.472,26.043Zm2.428.006a3.684,3.684,0,0,1,.356-1.648,2.605,2.605,0,0,1,1.025-1.119,2.989,2.989,0,0,1,1.553-.4,2.828,2.828,0,0,1,2.052.769,3.087,3.087,0,0,1,.887,2.09l.011.425a3.246,3.246,0,0,1-.8,2.293,3.093,3.093,0,0,1-4.285,0,3.3,3.3,0,0,1-.8-2.342Zm1.659.121a2.315,2.315,0,0,0,.333,1.352,1.2,1.2,0,0,0,1.894.006,2.534,2.534,0,0,0,.339-1.478,2.292,2.292,0,0,0-.339-1.343,1.1,1.1,0,0,0-.953-.476,1.083,1.083,0,0,0-.941.474A2.576,2.576,0,0,0,58.559,26.169Zm1.6-5.775h1.808l-1.59,1.78H59.03Zm5.631,1.079V23h1.062v1.217H65.792v3.1a.74.74,0,0,0,.132.494.663.663,0,0,0,.505.149,2.646,2.646,0,0,0,.488-.04v1.257a3.415,3.415,0,0,1-1,.149,1.584,1.584,0,0,1-1.78-1.762V24.217h-.907V23h.907V21.473Zm4.845,7.853a3.049,3.049,0,0,1-2.224-.838,2.979,2.979,0,0,1-.858-2.233v-.161a3.752,3.752,0,0,1,.362-1.673,2.654,2.654,0,0,1,1.025-1.137,2.876,2.876,0,0,1,1.513-.4,2.578,2.578,0,0,1,2.006.8,3.266,3.266,0,0,1,.732,2.279v.677H69.237a1.541,1.541,0,0,0,.485.976,1.466,1.466,0,0,0,1.025.367,1.791,1.791,0,0,0,1.5-.695l.815.913a2.491,2.491,0,0,1-1.01.824A3.315,3.315,0,0,1,70.637,29.326Zm-.189-5.1a1.039,1.039,0,0,0-.8.333,1.72,1.72,0,0,0-.393.953h2.308v-.132a1.226,1.226,0,0,0-.3-.852A1.072,1.072,0,0,0,70.448,24.229ZM77.5,27.5a.535.535,0,0,0-.3-.479,3.423,3.423,0,0,0-.967-.313q-2.216-.465-2.216-1.883a1.707,1.707,0,0,1,.686-1.381,2.767,2.767,0,0,1,1.794-.554,2.978,2.978,0,0,1,1.891.557,1.755,1.755,0,0,1,.709,1.447H77.434a.8.8,0,0,0-.23-.588.972.972,0,0,0-.718-.232.993.993,0,0,0-.649.189.6.6,0,0,0-.23.482.511.511,0,0,0,.261.445,2.687,2.687,0,0,0,.881.293,7.2,7.2,0,0,1,1.045.278,1.717,1.717,0,0,1,1.315,1.67,1.62,1.62,0,0,1-.729,1.375,3.145,3.145,0,0,1-1.883.525,3.285,3.285,0,0,1-1.386-.278,2.326,2.326,0,0,1-.95-.763,1.774,1.774,0,0,1-.344-1.048H75.39a.866.866,0,0,0,.327.677,1.3,1.3,0,0,0,.815.235,1.2,1.2,0,0,0,.72-.181A.563.563,0,0,0,77.5,27.5Zm4.432,1.716H80.264V23h1.665Zm-1.762-7.819a.817.817,0,0,1,.25-.614,1.076,1.076,0,0,1,1.358,0,.877.877,0,0,1,0,1.234,1.064,1.064,0,0,1-1.349,0A.814.814,0,0,1,80.167,21.393Zm6.492,6.1a.535.535,0,0,0-.3-.479,3.423,3.423,0,0,0-.967-.313q-2.216-.465-2.216-1.883a1.707,1.707,0,0,1,.686-1.381,2.767,2.767,0,0,1,1.794-.554,2.978,2.978,0,0,1,1.891.557,1.755,1.755,0,0,1,.709,1.447H86.6a.8.8,0,0,0-.23-.588.972.972,0,0,0-.718-.232.993.993,0,0,0-.649.189.6.6,0,0,0-.23.482.511.511,0,0,0,.261.445,2.687,2.687,0,0,0,.881.293,7.2,7.2,0,0,1,1.045.278,1.717,1.717,0,0,1,1.315,1.67,1.62,1.62,0,0,1-.729,1.375,3.145,3.145,0,0,1-1.883.525,3.285,3.285,0,0,1-1.386-.278,2.326,2.326,0,0,1-.95-.763,1.774,1.774,0,0,1-.344-1.048h1.573a.866.866,0,0,0,.327.677,1.3,1.3,0,0,0,.815.235,1.2,1.2,0,0,0,.72-.181A.563.563,0,0,0,86.659,27.5Z" transform="translate(715.893 6920.725)" fill="#12263f"/>
          <g id="Grupo_1102799" data-name="Grupo 1102799" transform="translate(688.664 6831.597) rotate(45)">
            <path id="Polígono_4" data-name="Polígono 4" d="M13.36,0,26.72,22.979H0Z" transform="matrix(-0.017, 1, -1, -0.017, 82.01, 0.401)" fill="#dee4f0"/>
            <path id="Polígono_5" data-name="Polígono 5" d="M13.36,0,26.72,22.979H0Z" transform="matrix(-0.017, -1, 1, -0.017, 0.466, 27.116)" fill="#dee4f0"/>
            <rect id="Rectángulo_32269" data-name="Rectángulo 32269" width="40.079" height="10.153" transform="translate(21.66 8.551)" fill="#dee4f0"/>
          </g>
          <g id="Grupo_1102802" data-name="Grupo 1102802" transform="translate(746.654 6986.533) rotate(135)">
            <path id="Polígono_4-2" data-name="Polígono 4" d="M13.36,0,26.72,22.979H0Z" transform="matrix(0.017, 1, -1, 0.017, 81.544, 0)" fill="#69ccd1"/>
            <path id="Polígono_5-2" data-name="Polígono 5" d="M13.36,0,26.72,22.979H0Z" transform="matrix(0.017, -1, 1, 0.017, 0, 26.716)" fill="#69ccd1"/>
            <rect id="Rectángulo_32269-2" data-name="Rectángulo 32269" width="40.079" height="10.153" transform="translate(21.66 8.413)" fill="#69ccd1"/>
          </g>
          <g id="Grupo_1102801" data-name="Grupo 1102801" transform="translate(610.227 6850.771) rotate(135)">
            <path id="Polígono_4-3" data-name="Polígono 4" d="M13.36,0,26.72,22.979H0Z" transform="matrix(0.017, 1, -1, 0.017, 81.544, 0)" fill="#ffda57"/>
            <path id="Polígono_5-3" data-name="Polígono 5" d="M13.36,0,26.72,22.979H0Z" transform="matrix(0.017, -1, 1, 0.017, 0, 26.716)" fill="#ffda57"/>
            <rect id="Rectángulo_32269-3" data-name="Rectángulo 32269" width="40.079" height="10.153" transform="translate(21.66 8.413)" fill="#ffda57"/>
          </g>
          <g id="Grupo_1102803" data-name="Grupo 1102803" transform="translate(552.237 6967.358) rotate(45)">
            <path id="Polígono_4-4" data-name="Polígono 4" d="M13.36,0,26.72,22.979H0Z" transform="matrix(-0.017, 1, -1, -0.017, 82.01, 0.401)" fill="#ea3a70"/>
            <path id="Polígono_5-4" data-name="Polígono 5" d="M13.36,0,26.72,22.979H0Z" transform="matrix(-0.017, -1, 1, -0.017, 0.466, 27.117)" fill="#ea3a70"/>
            <rect id="Rectángulo_32269-4" data-name="Rectángulo 32269" width="40.079" height="10.153" transform="translate(21.66 8.551)" fill="#ea3a70"/>
          </g>
        </g>
      </g>
    </g>
  </g>
</svg>
