<svg xmlns="http://www.w3.org/2000/svg" width="58.718" height="58.718" viewBox="0 0 58.718 58.718">
  <g id="Grupo_1102884" data-name="Grupo 1102884" transform="translate(11655.607 11759.135)">
    <g id="Grupo_1102883" data-name="Grupo 1102883">
      <g id="Grupo_1102882" data-name="Grupo 1102882">
        <g id="Grupo_1102881" data-name="Grupo 1102881">
          <g id="Grupo_1102880" data-name="Grupo 1102880">
            <g id="Grupo_1102879" data-name="Grupo 1102879">
              <g id="Grupo_1102847" data-name="Grupo 1102847" transform="translate(-74 16.283)">
                <path id="Trazado_883066" data-name="Trazado 883066" d="M217.914,114.057A29.359,29.359,0,1,1,188.557,84.7a29.356,29.356,0,0,1,29.357,29.361" transform="translate(-11740.804 -11860.114)" fill="#69ccd1"/>
                <g id="rompecabezas" transform="translate(-11573.021 -11767.909)">
                  <path id="Trazado_883046" data-name="Trazado 883046" d="M212.558,442.422h-8.3v3.329a1.652,1.652,0,0,0,1.652,1.652h5a1.652,1.652,0,0,0,1.652-1.652Z" transform="translate(-187.81 -406.952)" fill="#d8ecfe"/>
                  <path id="Trazado_883047" data-name="Trazado 883047" d="M208.311,447.4h-2.405a1.652,1.652,0,0,1-1.652-1.652v-3.33h2.405v3.33A1.652,1.652,0,0,0,208.311,447.4Z" transform="translate(-187.807 -406.948)" fill="#b3dafe"/>
                  <path id="Trazado_883048" data-name="Trazado 883048" d="M189.575,413.749h-9.961a1.245,1.245,0,1,1,0-2.49h9.961a1.245,1.245,0,1,1,0,2.49Z" transform="translate(-163.997 -378.287)" fill="#eaf6ff"/>
                  <path id="Trazado_883049" data-name="Trazado 883049" d="M182.015,413.748H179.61a1.245,1.245,0,1,1,0-2.49h2.405a1.245,1.245,0,1,0,0,2.49Z" transform="translate(-163.993 -378.286)" fill="#d8ecfe"/>
                  <path id="Trazado_883050" data-name="Trazado 883050" d="M115.241,231.177a2.075,2.075,0,0,1-2.075,2.076v6.039h-4.151v-1.215a2.062,2.062,0,0,0-1.173-1.866,12.453,12.453,0,0,1-7.128-11.258v-.014h4.151v.014a2.075,2.075,0,1,0,4.151,0v-.014h4.151V229.1A2.075,2.075,0,0,1,115.241,231.177Z" transform="translate(-92.569 -206.904)" fill="#ffda57"/>
                  <path id="Trazado_883051" data-name="Trazado 883051" d="M110.619,238.076v1.215h-1.6v-1.215a2.062,2.062,0,0,0-1.173-1.866,12.453,12.453,0,0,1-7.128-11.258v-.014h1.6v.014a12.453,12.453,0,0,0,7.128,11.258A2.062,2.062,0,0,1,110.619,238.076Z" transform="translate(-92.569 -206.904)" fill="#ffc03c"/>
                  <path id="Trazado_883052" data-name="Trazado 883052" d="M268.476,201.28v.014a12.452,12.452,0,0,1-7.123,11.256,2.066,2.066,0,0,0-1.178,1.868v1.8h-4.151v-6.627a2.075,2.075,0,0,0,0-4.151V201.28h4.151a2.075,2.075,0,0,1,4.151,0Z" transform="translate(-235.427 -183.246)" fill="#69ccd1"/>
                  <path id="Trazado_883053" data-name="Trazado 883053" d="M244.671,82.236H240.52a2.075,2.075,0,0,0-4.151,0h-4.151V78.1a2.075,2.075,0,0,1,0-4.151V69.8A12.451,12.451,0,0,1,244.671,82.236Z" transform="translate(-211.622 -64.202)" fill="#fcff9b"/>
                  <path id="Trazado_883054" data-name="Trazado 883054" d="M111.091,76.023a2.075,2.075,0,0,0,2.075,2.076v4.137h-4.151v.014a2.075,2.075,0,1,1-4.151,0v-.014h-4.151A12.428,12.428,0,0,1,113.166,69.8v4.151A2.074,2.074,0,0,0,111.091,76.023Z" transform="translate(-92.569 -64.202)" fill="#ff6796"/>
                  <path id="Trazado_883055" data-name="Trazado 883055" d="M113.166,69.8v.1a12.425,12.425,0,0,0-10.848,12.336h-1.6A12.428,12.428,0,0,1,113.166,69.8Z" transform="translate(-92.569 -64.202)" fill="#ea3a70"/>
                  <g id="Grupo_1102846" data-name="Grupo 1102846" transform="translate(0.077)">
                    <path id="Trazado_883056" data-name="Trazado 883056" d="M117.349,68.509a.6.6,0,0,0-1.024.631,11.808,11.808,0,0,1,1.737,5.593h-3a2.677,2.677,0,0,0-5.21,0H106.83V71.2a.6.6,0,0,0-.6-.6,1.474,1.474,0,1,1,0-2.948.6.6,0,0,0,.6-.6V63.513a11.741,11.741,0,0,1,7.957,3.638.6.6,0,0,0,.868-.832,12.943,12.943,0,0,0-9.418-4.023h-.016a13.055,13.055,0,0,0-8.6,3.227.6.6,0,0,0,.792.9,11.844,11.844,0,0,1,7.214-2.913v3a2.677,2.677,0,0,0,0,5.217v3h-3.549a.6.6,0,0,0-.6.6v.014a1.474,1.474,0,0,1-2.948,0v-.014a.6.6,0,0,0-.6-.6H94.395a11.748,11.748,0,0,1,2.325-6.473.6.6,0,1,0-.964-.719,12.964,12.964,0,0,0-2.58,7.793,13.133,13.133,0,0,0,7.472,11.816,1.466,1.466,0,0,1,.829,1.322v1.2A1.827,1.827,0,0,0,99.4,91.518c0,1.184.815,1.847,2.076,1.846V96.1a2.329,2.329,0,0,0,2.253,2.253h5a2.329,2.329,0,0,0,2.253-2.253V93.364c1.408,0,2.076-.747,2.076-1.846,0-1.146-.721-1.846-2.076-1.846v-1.2a1.47,1.47,0,0,1,.834-1.325,13.271,13.271,0,0,0,7.467-11.814,13.022,13.022,0,0,0-1.933-6.825ZM101.163,86.064A11.916,11.916,0,0,1,94.4,75.936h3a2.677,2.677,0,0,0,5.224,0h3.013V79.5a.6.6,0,0,0,.6.6,1.474,1.474,0,1,1,0,2.948.6.6,0,0,0-.6.6v6.022H102.68v-1.2A2.674,2.674,0,0,0,101.163,86.064Zm7.565,11.087h-5a1.1,1.1,0,0,1-1.05-1.283h7.1C109.78,96.509,109.576,97.151,108.728,97.151Zm2.481-4.989h-3.717a.6.6,0,0,0-.6.6s0,0,0,0,0,0,0,0a.6.6,0,0,0,.6.6h2.286v1.293h-7.1V93.372h2.193a.6.6,0,0,0,.6-.6s0,0,0,0,0,0,0,0a.6.6,0,0,0-.6-.6h-3.624a.648.648,0,1,1,0-1.288h9.961A.644.644,0,1,1,111.209,92.161Zm.09-6.1a2.678,2.678,0,0,0-1.522,2.411v1.2H106.83V84.182a2.677,2.677,0,0,0,0-5.217v-3.03h3.549a.6.6,0,0,0,.6-.6,1.474,1.474,0,0,1,2.948,0,.6.6,0,0,0,.6.6h3.533A11.916,11.916,0,0,1,111.3,86.061Z" transform="translate(-85.709 -57.301)"/>
                    <g id="Grupo_1102845" data-name="Grupo 1102845">
                      <g id="Grupo_1102833" data-name="Grupo 1102833" transform="translate(19.919)">
                        <path id="Trazado_883057" data-name="Trazado 883057" d="M249.125,3.693a.6.6,0,0,1-.6-.6V.6a.6.6,0,0,1,1.2,0v2.49A.6.6,0,0,1,249.125,3.693Z" transform="translate(-248.524)"/>
                      </g>
                      <g id="Grupo_1102834" data-name="Grupo 1102834" transform="translate(28.633 2.668)">
                        <path id="Trazado_883058" data-name="Trazado 883058" d="M357.514,36.563a.6.6,0,0,1-.22-.821l1.245-2.157a.6.6,0,1,1,1.041.6l-1.245,2.157A.647.647,0,0,1,357.514,36.563Z" transform="translate(-357.213 -33.284)"/>
                      </g>
                      <g id="Grupo_1102837" data-name="Grupo 1102837" transform="translate(2.674 9.959)">
                        <g id="Grupo_1102835" data-name="Grupo 1102835" transform="translate(32.338)">
                          <path id="Trazado_883059" data-name="Trazado 883059" d="M436.865,126.369a.6.6,0,0,1,.22-.821l2.157-1.245a.6.6,0,0,1,.6,1.041l-2.157,1.245A.626.626,0,0,1,436.865,126.369Z" transform="translate(-436.784 -124.222)"/>
                        </g>
                        <g id="Grupo_1102836" data-name="Grupo 1102836" transform="translate(0 18.674)">
                          <path id="Trazado_883060" data-name="Trazado 883060" d="M33.5,359.285a.611.611,0,0,1,.22-.821l2.157-1.245a.6.6,0,0,1,.6,1.041l-2.157,1.245A.565.565,0,0,1,33.5,359.285Z" transform="translate(-33.429 -357.138)"/>
                        </g>
                      </g>
                      <g id="Grupo_1102838" data-name="Grupo 1102838" transform="translate(9.959 2.669)">
                        <path id="Trazado_883061" data-name="Trazado 883061" d="M125.625,36.343l-1.245-2.157a.6.6,0,0,1,1.041-.6l1.245,2.157a.61.61,0,0,1-.22.821A.627.627,0,0,1,125.625,36.343Z" transform="translate(-124.299 -33.284)"/>
                      </g>
                      <g id="Grupo_1102841" data-name="Grupo 1102841" transform="translate(2.669 9.959)">
                        <g id="Grupo_1102839" data-name="Grupo 1102839">
                          <path id="Trazado_883062" data-name="Trazado 883062" d="M35.819,126.59l-2.157-1.245a.6.6,0,0,1,.6-1.041l2.157,1.245a.573.573,0,0,1,.22.821A.613.613,0,0,1,35.819,126.59Z" transform="translate(-33.362 -124.222)"/>
                        </g>
                        <g id="Grupo_1102840" data-name="Grupo 1102840" transform="translate(32.344 18.674)">
                          <path id="Trazado_883063" data-name="Trazado 883063" d="M439.241,359.506l-2.157-1.245a.6.6,0,0,1,.6-1.042l2.157,1.245a.592.592,0,0,1,.22.821A.554.554,0,0,1,439.241,359.506Z" transform="translate(-436.784 -357.139)"/>
                        </g>
                      </g>
                      <g id="Grupo_1102844" data-name="Grupo 1102844" transform="translate(0 19.919)">
                        <g id="Grupo_1102842" data-name="Grupo 1102842">
                          <path id="Trazado_883064" data-name="Trazado 883064" d="M3.169,249.65H.678a.6.6,0,1,1,0-1.2h2.49a.6.6,0,1,1,0,1.2Z" transform="translate(-0.077 -248.447)"/>
                        </g>
                        <g id="Grupo_1102843" data-name="Grupo 1102843" transform="translate(37.347)">
                          <path id="Trazado_883065" data-name="Trazado 883065" d="M469,249.65h-2.49a.6.6,0,1,1,0-1.2H469a.6.6,0,0,1,0,1.2Z" transform="translate(-465.908 -248.447)"/>
                        </g>
                      </g>
                    </g>
                  </g>
                </g>
              </g>
            </g>
          </g>
        </g>
      </g>
    </g>
  </g>
</svg>
