<svg xmlns="http://www.w3.org/2000/svg" width="62.583" height="62.583" viewBox="0 0 62.583 62.583">
  <g id="Grupo_1102878" data-name="Grupo 1102878" transform="translate(11742.124 11763)">
    <g id="Grupo_1102877" data-name="Grupo 1102877">
      <g id="Grupo_1102876" data-name="Grupo 1102876">
        <g id="Grupo_1102875" data-name="Grupo 1102875">
          <g id="Grupo_1102874" data-name="Grupo 1102874">
            <g id="Grupo_1102873" data-name="Grupo 1102873">
              <g id="Grupo_1099426" data-name="Grupo 1099426" transform="translate(-12705.58 -12239)">
                <path id="Trazado_873227" data-name="Trazado 873227" d="M67.52,115.3A31.291,31.291,0,1,1,36.231,84.008,31.289,31.289,0,0,1,67.52,115.3" transform="translate(958.52 391.992)" fill="#fff"/>
                <g id="razon" transform="translate(963.62 484.894)">
                  <path id="Trazado_873258" data-name="Trazado 873258" d="M61.2,135.568a4.349,4.349,0,0,1-8.693.192,3.48,3.48,0,0,1-2.788-3.41c0-.074,0-.148.008-.221a5.214,5.214,0,0,1-4.457-6.042,5.218,5.218,0,0,1,0-8.7,5.214,5.214,0,0,1,4.483-6.045,3.48,3.48,0,0,1,3.105-2.984,4.349,4.349,0,0,1,8.343,1.723v25.485Z" transform="translate(-30.077 -96.67)" fill="#fc8086"/>
                  <path id="Trazado_873259" data-name="Trazado 873259" d="M124.283,249.275a3.485,3.485,0,0,0,2.6,2.278,4.349,4.349,0,0,0,8.693-.192V232.384C135.575,241.6,130.54,249.1,124.283,249.275Z" transform="translate(-104.448 -212.462)" fill="#fa4954"/>
                  <path id="Trazado_873260" data-name="Trazado 873260" d="M256,135.568a4.349,4.349,0,0,0,8.693.192,3.48,3.48,0,0,0,2.788-3.41c0-.074,0-.148-.008-.221a5.215,5.215,0,0,0,4.457-6.042,5.218,5.218,0,0,0,0-8.7,5.215,5.215,0,0,0-4.483-6.045,3.48,3.48,0,0,0-3.105-2.984A4.349,4.349,0,0,0,256,110.083v25.485Z" transform="translate(-224.872 -96.67)" fill="#fc8086"/>
                  <path id="Trazado_873261" data-name="Trazado 873261" d="M274.266,253.045a5.2,5.2,0,0,0-1.532-3.692,15.133,15.133,0,0,1-15.13,14.811,15.31,15.31,0,0,1-1.6-.085v2.8a4.349,4.349,0,0,0,8.693.192,3.48,3.48,0,0,0,2.788-3.41c0-.074,0-.148-.008-.221a5.214,5.214,0,0,0,4.457-6.042A5.213,5.213,0,0,0,274.266,253.045Z" transform="translate(-224.873 -227.977)" fill="#fa4954"/>
                  <circle id="Elipse_11489" data-name="Elipse 11489" cx="6.089" cy="6.089" r="6.089" transform="translate(10.687 5.237)" fill="#97e4f9"/>
                  <path id="Trazado_873262" data-name="Trazado 873262" d="M39.512,74.534a6.087,6.087,0,0,1-8.5,8.5,6.088,6.088,0,1,0,8.5-8.5Z" transform="translate(-19.174 -68.145)" fill="#0acefa"/>
                  <circle id="Elipse_11490" data-name="Elipse 11490" cx="6.089" cy="6.089" r="6.089" transform="translate(39.39 5.237)" fill="#6df3bf"/>
                  <path id="Trazado_873263" data-name="Trazado 873263" d="M374.326,74.534a6.087,6.087,0,0,1-8.5,8.5,6.088,6.088,0,1,0,8.5-8.5Z" transform="translate(-325.285 -68.145)" fill="#05e29a"/>
                  <circle id="Elipse_11491" data-name="Elipse 11491" cx="6.089" cy="6.089" r="6.089" transform="translate(25.038 0.453)" fill="#fba65c"/>
                  <path id="Trazado_873264" data-name="Trazado 873264" d="M206.919,18.732a6.087,6.087,0,0,1-8.5,8.5,6.088,6.088,0,1,0,8.5-8.5Z" transform="translate(-172.229 -17.127)" fill="#fb9538"/>
                  <path id="Trazado_873265" data-name="Trazado 873265" d="M64.415,97.291a.646.646,0,0,0,.646-.646V90.731a.646.646,0,0,0-1.292,0v.246a.834.834,0,0,1-.833.833.646.646,0,1,0,0,1.292,2.112,2.112,0,0,0,.833-.17v3.714A.646.646,0,0,0,64.415,97.291Z" transform="translate(-47.771 -82.363)"/>
                  <path id="Trazado_873266" data-name="Trazado 873266" d="M52.213,11.326a6.717,6.717,0,0,0-1.023-3.57.646.646,0,1,0-1.095.685A5.438,5.438,0,1,1,48.129,6.57a.646.646,0,1,0,.63-1.127A6.735,6.735,0,0,0,38.921,9.8a4.977,4.977,0,0,0-1.46-.969A6.735,6.735,0,0,0,32.813.02a.646.646,0,0,0-.323,1.251,5.443,5.443,0,1,1-2.727,0A.646.646,0,0,0,29.441.02a6.735,6.735,0,0,0-4.648,8.809,4.978,4.978,0,0,0-1.46.969,6.735,6.735,0,0,0-9.838-4.355.646.646,0,1,0,.63,1.127,5.442,5.442,0,1,1-1.966,1.871.646.646,0,0,0-1.095-.685,6.735,6.735,0,0,0,3.791,10.024,5.877,5.877,0,0,0-.378,2.07c0,.189.009.379.028.57l-.1.076a5.948,5.948,0,0,0-2.193,4.573A5.854,5.854,0,0,0,14.5,29.717c-.018.188-.028.378-.028.57h0A5.88,5.88,0,0,0,19.012,36a4.14,4.14,0,0,0,2.82,3.6,4.993,4.993,0,0,0,9.295,1.752A4.993,4.993,0,0,0,40.422,39.6a4.14,4.14,0,0,0,2.82-3.6,5.88,5.88,0,0,0,4.535-5.711h0c0-.192-.01-.382-.028-.57a5.854,5.854,0,0,0,2.289-4.648A5.947,5.947,0,0,0,47.845,20.5l-.1-.076c.019-.191.028-.381.028-.57a5.877,5.877,0,0,0-.378-2.07,6.745,6.745,0,0,0,4.814-6.454ZM26.778,42.6a3.693,3.693,0,0,1-3.621-2.93,4.15,4.15,0,0,0,3.409-4.084.646.646,0,0,0-1.292,0A2.852,2.852,0,0,1,22.5,38.443a2.84,2.84,0,0,1-2.18-2.376A5.861,5.861,0,0,0,22.79,35.2a.646.646,0,1,0-.69-1.092,4.574,4.574,0,0,1-2.4.707,4.581,4.581,0,0,1-3.931-4.525h0A4.55,4.55,0,0,1,17.932,26.4a.646.646,0,0,0-.682-1.1,5.842,5.842,0,0,0-2.423,2.977,4.562,4.562,0,0,1-1.32-3.211A4.643,4.643,0,0,1,15.22,21.5c.1-.078.2-.154.31-.227l.025-.015a4.57,4.57,0,0,1,5.65.472.646.646,0,0,0,.883-.943,5.864,5.864,0,0,0-6.314-1.11,4.572,4.572,0,0,1,.374-1.647c.207.019.416.03.627.03a6.745,6.745,0,0,0,6.658-5.724,2.837,2.837,0,0,1,2.525,2.816.646.646,0,0,0,1.292,0A4.131,4.131,0,0,0,23.887,11.1,3.69,3.69,0,0,1,25.349,10a6.743,6.743,0,0,0,5.132,3.247v5.287A1.879,1.879,0,0,1,28.6,20.408a.646.646,0,0,0,0,1.292,3.151,3.151,0,0,0,1.877-.618v3.868a4.578,4.578,0,0,1-2.622,1.142.646.646,0,0,0,.059,1.289l.06,0a5.865,5.865,0,0,0,2.5-.829v3.067A1.879,1.879,0,0,1,28.6,31.492a.646.646,0,0,0,0,1.292,3.151,3.151,0,0,0,1.877-.618V38.9a3.707,3.707,0,0,1-3.7,3.7Zm19.7-22.925a5.864,5.864,0,0,0-6.314,1.11.646.646,0,1,0,.883.943,4.57,4.57,0,0,1,5.65-.472l.025.015c.108.073.213.15.31.227a4.643,4.643,0,0,1,1.713,3.568,4.562,4.562,0,0,1-1.32,3.211A5.842,5.842,0,0,0,45,25.3a.646.646,0,0,0-.682,1.1,4.55,4.55,0,0,1,2.163,3.887h0a4.581,4.581,0,0,1-3.931,4.525,4.575,4.575,0,0,1-2.4-.707.646.646,0,1,0-.69,1.092,5.863,5.863,0,0,0,2.472.869,2.84,2.84,0,0,1-2.18,2.376,2.852,2.852,0,0,1-2.775-2.855.646.646,0,0,0-1.292,0A4.15,4.15,0,0,0,39.1,39.671a3.7,3.7,0,0,1-7.324-.773V32.166a3.151,3.151,0,0,0,1.877.618.646.646,0,0,0,0-1.292,1.879,1.879,0,0,1-1.877-1.877V26.548a5.864,5.864,0,0,0,2.5.829l.06,0a.646.646,0,0,0,.059-1.289,4.577,4.577,0,0,1-2.622-1.142V21.082a3.151,3.151,0,0,0,1.877.618.646.646,0,0,0,0-1.292,1.879,1.879,0,0,1-1.877-1.877V13.244A6.743,6.743,0,0,0,36.9,10a3.69,3.69,0,0,1,1.462,1.1A4.131,4.131,0,0,0,35,15.152a.646.646,0,0,0,1.292,0,2.837,2.837,0,0,1,2.525-2.816,6.745,6.745,0,0,0,6.658,5.724c.211,0,.42-.011.627-.03a4.57,4.57,0,0,1,.374,1.647Z" transform="translate(0)"/>
                  <path id="Trazado_873267" data-name="Trazado 873267" d="M402.229,91.377a.646.646,0,0,0,0-1.292h-2.957a.646.646,0,0,0-.646.646v2.088a1.517,1.517,0,0,0,1.516,1.516h1.218a.224.224,0,0,1,.224.224v1.218a.224.224,0,0,1-.224.224h-2.087a.646.646,0,1,0,0,1.292h2.087a1.517,1.517,0,0,0,1.516-1.516V94.558a1.517,1.517,0,0,0-1.516-1.516h-1.218a.224.224,0,0,1-.224-.224V91.377Z" transform="translate(-355.272 -82.363)"/>
                  <path id="Trazado_873268" data-name="Trazado 873268" d="M231.219,35.792a.646.646,0,1,0,1.292,0,.217.217,0,0,1,.217-.217h1.232a.217.217,0,0,1,.217.217v1.232a.217.217,0,0,1-.217.217H233.1a.646.646,0,0,0,0,1.292h.863a.217.217,0,0,1,.217.217v1.232a.217.217,0,0,1-.217.217h-1.232a.217.217,0,0,1-.217-.217.646.646,0,1,0-1.292,0,1.51,1.51,0,0,0,1.508,1.508h1.232a1.51,1.51,0,0,0,1.508-1.508V38.75a1.5,1.5,0,0,0-.273-.863,1.5,1.5,0,0,0,.273-.863V35.792a1.51,1.51,0,0,0-1.508-1.508h-1.232a1.51,1.51,0,0,0-1.508,1.508Z" transform="translate(-202.217 -31.345)"/>
                </g>
              </g>
            </g>
          </g>
        </g>
      </g>
    </g>
  </g>
</svg>
