<svg xmlns="http://www.w3.org/2000/svg" width="68.839" height="68.839" viewBox="0 0 68.839 68.839">
  <g id="Grupo_1102872" data-name="Grupo 1102872" transform="translate(11901.333 11755.579)">
    <g id="Grupo_1102871" data-name="Grupo 1102871">
      <g id="Grupo_1102870" data-name="Grupo 1102870">
        <g id="Grupo_1102869" data-name="Grupo 1102869">
          <g id="Grupo_1102851" data-name="Grupo 1102851" transform="translate(-13162.016 -11941)">
            <path id="Trazado_873228" data-name="Trazado 873228" d="M217.311,36.055A34.419,34.419,0,1,1,182.894,1.639a34.421,34.421,0,0,1,34.416,34.416" transform="translate(1112.211 183.782)" fill="#ff4e5a"/>
            <g id="diagrama-de-venn" transform="translate(1271.008 192.51)">
              <g id="Grupo_1102848" data-name="Grupo 1102848" transform="translate(0.706 0.706)">
                <circle id="Elipse_11560" data-name="Elipse 11560" cx="15.592" cy="15.592" r="15.592" transform="translate(7.796 0)" fill="#ffda57"/>
                <path id="Trazado_883067" data-name="Trazado 883067" d="M242.969,7.5c-.456,0-.908.021-1.354.059a15.592,15.592,0,0,1,0,31.066c.446.038.9.059,1.354.059a15.592,15.592,0,1,0,0-31.185Z" transform="translate(-219.581 -7.5)" fill="#fcff9b"/>
                <circle id="Elipse_11561" data-name="Elipse 11561" cx="15.592" cy="15.592" r="15.592" transform="translate(0 15.592)" fill="#ffe6ee"/>
                <path id="Trazado_883068" data-name="Trazado 883068" d="M160.133,173.167c-.456,0-.908.021-1.354.059a15.592,15.592,0,0,1,0,31.066c.446.038.9.059,1.354.059a15.592,15.592,0,1,0,0-31.185Z" transform="translate(-144.541 -157.575)" fill="#c4e3ff"/>
                <circle id="Elipse_11562" data-name="Elipse 11562" cx="15.592" cy="15.592" r="15.592" transform="translate(15.592 15.592)" fill="#69ccd1"/>
                <path id="Trazado_883069" data-name="Trazado 883069" d="M325.8,173.167c-.456,0-.908.021-1.354.059a15.592,15.592,0,0,1,0,31.066c.446.038.9.059,1.354.059a15.592,15.592,0,0,0,0-31.185Z" transform="translate(-294.615 -157.575)" fill="#228388"/>
                <path id="Trazado_883070" data-name="Trazado 883070" d="M107.173,175.256a15.6,15.6,0,0,0-7.667,11.494,15.6,15.6,0,0,1-7.8-11.567,15.612,15.612,0,0,1,15.463.073Z" transform="translate(-83.784 -157.577)" fill="#8ac9fe"/>
                <path id="Trazado_883071" data-name="Trazado 883071" d="M158.455,181.114a20.083,20.083,0,0,0-6.8,11.361,15.612,15.612,0,0,0,2.154,1.47,15.6,15.6,0,0,1,7.667-11.494A15.528,15.528,0,0,0,158.455,181.114Z" transform="translate(-138.085 -164.774)" fill="#ea3a70"/>
                <path id="Trazado_883072" data-name="Trazado 883072" d="M189.874,206.824a15.612,15.612,0,0,1-15.334,0,15.6,15.6,0,0,1,7.667-11.494A15.6,15.6,0,0,1,189.874,206.824Z" transform="translate(-158.819 -177.652)" fill="#ffc344"/>
                <path id="Trazado_883073" data-name="Trazado 883073" d="M248.039,207.993a15.525,15.525,0,0,0,2.6-1.17,15.6,15.6,0,0,0-7.667-11.494,15.618,15.618,0,0,0-1.353.881A15.572,15.572,0,0,1,248.039,207.993Z" transform="translate(-219.585 -177.652)" fill="#f6ab31"/>
                <path id="Trazado_883074" data-name="Trazado 883074" d="M188.762,319.462a15.589,15.589,0,0,1-7.8,13.507A15.616,15.616,0,0,1,173.3,317.45a15.612,15.612,0,0,0,15.334,0,15.6,15.6,0,0,1,.129,2.012Z" transform="translate(-157.577 -288.278)" fill="#fab2c8"/>
                <path id="Trazado_883075" data-name="Trazado 883075" d="M250.635,317.45a15.521,15.521,0,0,1-2.6,1.17q.022.419.023.843a15.57,15.57,0,0,1-6.442,12.625,15.615,15.615,0,0,0,1.354.882,15.615,15.615,0,0,0,7.667-15.519Z" transform="translate(-219.58 -288.278)" fill="#18a6ad"/>
                <path id="Trazado_883076" data-name="Trazado 883076" d="M271.464,175.182a15.6,15.6,0,0,1-7.8,11.567A15.6,15.6,0,0,0,256,175.256a15.614,15.614,0,0,1,15.464-.073Z" transform="translate(-232.612 -157.577)" fill="#26a6fe"/>
                <path id="Trazado_883077" data-name="Trazado 883077" d="M339.666,182.121a15.558,15.558,0,0,1-5.5,11.065,15.539,15.539,0,0,1,.311,1.672,15.6,15.6,0,0,0,7.8-11.567A15.524,15.524,0,0,0,339.666,182.121Z" transform="translate(-303.416 -165.686)" fill="#ffc03c"/>
              </g>
              <g id="Grupo_1102849" data-name="Grupo 1102849" transform="translate(0 0)">
                <path id="Trazado_883078" data-name="Trazado 883078" d="M75.605,330.133l-.008-.019a.815.815,0,0,0-.756-.507h0a.815.815,0,0,0-.756.508l-.006.016L72.223,335a.706.706,0,1,0,1.319.5l.289-.758h2.005c.192.449.274,1.163.946,1.213a.706.706,0,0,0,.66-.955Zm-1.236,3.2.47-1.233.465,1.233Z" transform="translate(-65.384 -298.585)"/>
                <path id="Trazado_883079" data-name="Trazado 883079" d="M232.342,69.93h-1.435a.706.706,0,0,0-.706.706v4.939a.706.706,0,0,0,.706.706h0s1.319-.006,1.682-.006a2.034,2.034,0,0,0,1.335-3.57,1.839,1.839,0,0,0-1.586-2.776Zm0,1.412a.431.431,0,0,1,0,.861h-.729v-.863Zm.251,3.522-.979,0V73.617h.979a.624.624,0,0,1,0,1.247Z" transform="translate(-208.535 -63.348)"/>
                <path id="Trazado_883080" data-name="Trazado 883080" d="M384.506,333.238c-.737-.555-1.108.561-2.009.532a1.764,1.764,0,1,1,.986-3.227.706.706,0,0,0,.79-1.17,3.176,3.176,0,1,0-1.776,5.808,2.694,2.694,0,0,0,1.825-.669A.835.835,0,0,0,384.506,333.238Z" transform="translate(-343.62 -297.882)"/>
                <path id="Trazado_883081" data-name="Trazado 883081" d="M40.31,17.94A16.3,16.3,0,0,0,24.094,0,16.3,16.3,0,0,0,7.853,14.928a.706.706,0,1,0,1.407.117A14.887,14.887,0,0,1,38.981,16.3c0,.3-.01.605-.028.905a16.279,16.279,0,0,0-14.861.38,16.294,16.294,0,1,0,0,28.622A16.3,16.3,0,0,0,40.31,17.94ZM31.89,17a14.794,14.794,0,0,1,6.9,1.7,14.913,14.913,0,0,1-6.5,10.02,16.147,16.147,0,0,0-.674-2.413,16.377,16.377,0,0,0-5.167-7.16q-.461-.367-.948-.7A14.8,14.8,0,0,1,31.89,17Zm-7.8,14.18q-.344,0-.684-.016l6.114-6.113q.323.622.588,1.279l-4.8,4.8q-.6.049-1.218.05Zm-4.011-.552,7.926-7.926q.413.525.78,1.087l-7.181,7.18a14.783,14.783,0,0,1-1.524-.342Zm-2.774-1.09,8.821-8.821q.5.436.953.915l-8.49,8.49q-.657-.263-1.284-.584Zm.507-2.5a14.963,14.963,0,0,1,6.276-7.823q.476.293.928.62Zm12.8.784a14.773,14.773,0,0,1,.37,1.665A14.779,14.779,0,0,1,27.7,30.742Zm-7.937-9.373A16.334,16.334,0,0,0,15.9,28.719,14.868,14.868,0,0,1,9.4,18.7a14.848,14.848,0,0,1,13.282-.252ZM31.89,46.777a14.9,14.9,0,0,1-6.384-1.437,16.32,16.32,0,0,0,7.023-11.96.706.706,0,0,0-1.406-.127A14.887,14.887,0,1,1,8.105,19.468a16.3,16.3,0,0,0,7.57,10.777,16.311,16.311,0,0,0,5.1,13.565.706.706,0,1,0,.963-1.032A14.94,14.94,0,0,1,17,31.89c0-.306.01-.609.029-.91q.682.329,1.4.6A16.3,16.3,0,0,0,40.082,19.467,14.882,14.882,0,0,1,31.89,46.777Z" transform="translate(0 0)"/>
              </g>
            </g>
          </g>
        </g>
      </g>
    </g>
  </g>
</svg>
