<svg xmlns="http://www.w3.org/2000/svg" xmlns:xlink="http://www.w3.org/1999/xlink" width="1320" height="507" viewBox="0 0 1320 507">
  <defs>
    <linearGradient id="linear-gradient" x1="0.453" y1="0.677" x2="0.008" y2="0.026" gradientUnits="objectBoundingBox">
      <stop offset="0" stop-color="#ffda57"/>
      <stop offset="1" stop-color="#e69c00"/>
    </linearGradient>
    <clipPath id="clip-path">
      <path id="Trazado_873230" data-name="Trazado 873230" d="M19,0H1301a19,19,0,0,1,19,19V488a19,19,0,0,1-19,19H19A19,19,0,0,1,0,488V19A19,19,0,0,1,19,0Z" transform="translate(144.333 70)" fill="url(#linear-gradient)"/>
    </clipPath>
  </defs>
  <g id="Grupo_1102894" data-name="Grupo 1102894" transform="translate(-156.333 -82)">
    <g id="Grupo_1102893" data-name="Grupo 1102893">
      <g id="Grupo_1102892" data-name="Grupo 1102892">
        <g id="Grupo_1102888" data-name="Grupo 1102888" transform="translate(12 12)">
          <g id="Grupo_1102887" data-name="Grupo 1102887">
            <g id="Grupo_1102886" data-name="Grupo 1102886">
              <g id="Grupo_1102885" data-name="Grupo 1102885">
                <g id="Grupo_1102884" data-name="Grupo 1102884">
                  <g id="Grupo_1102883" data-name="Grupo 1102883">
                    <g id="Grupo_1102882" data-name="Grupo 1102882">
                      <g id="Grupo_1102881" data-name="Grupo 1102881">
                        <g id="Grupo_1102880" data-name="Grupo 1102880">
                          <g id="Grupo_1102879" data-name="Grupo 1102879">
                            <g id="Grupo_1102878" data-name="Grupo 1102878">
                              <g id="Grupo_1102877" data-name="Grupo 1102877">
                                <g id="Grupo_1102876" data-name="Grupo 1102876">
                                  <path id="Trazado_873223" data-name="Trazado 873223" d="M19,0H1301a19,19,0,0,1,19,19V488a19,19,0,0,1-19,19H19A19,19,0,0,1,0,488V19A19,19,0,0,1,19,0Z" transform="translate(144.333 70)" fill="url(#linear-gradient)"/>
                                  <g id="Grupo_1102875" data-name="Grupo 1102875">
                                    <g id="Grupo_1102874" data-name="Grupo 1102874">
                                      <g id="Grupo_1102873" data-name="Grupo 1102873">
                                        <g id="Grupo_1102872" data-name="Grupo 1102872">
                                          <g id="Grupo_1102871" data-name="Grupo 1102871">
                                            <g id="Grupo_1102870" data-name="Grupo 1102870">
                                              <g id="Grupo_1102869" data-name="Grupo 1102869">
                                                <g id="Enmascarar_grupo_1098662" data-name="Enmascarar grupo 1098662" clip-path="url(#clip-path)">
                                                  <g id="Grupo_1099323" data-name="Grupo 1099323">
                                                    <path id="Trazado_873209" data-name="Trazado 873209" d="M478.142,952.85a546.383,546.383,0,0,1-141.647-38.377l209.5-424.933a11.348,11.348,0,0,0,3,.8Zm146.477-.076L553.21,490.341a11.482,11.482,0,0,0,3-.809L766.2,914.259a546.337,546.337,0,0,1-141.577,38.515M38.746,985S-30.837,920.633-57.5,882.362l597.84-397.415a13.452,13.452,0,0,0,2.589,2.751Zm851.1-144.5L559.257,487.7a13.433,13.433,0,0,0,2.592-2.757l562,339.06a492.751,492.751,0,0,1-96.117,102.729M-407.172,701s-20.93-89-20.982-134.739L538.5,478.818a11.1,11.1,0,0,0,.479,3.4Zm1454.407-87.44L563.216,482.2a11.2,11.2,0,0,0,.474-3.4v-.527h504.371v.527a446.174,446.174,0,0,1-20.826,134.754M538.968,475.413,54.794,344.546A461.455,461.455,0,0,1,115.927,220.27L540.334,472.678a10.193,10.193,0,0,0-1.365,2.735m24.236-.042a10.291,10.291,0,0,0-1.375-2.731L985.363,218.982a461.715,461.715,0,0,1,61.561,124.085Zm-20.294-5.441L211.94,117.435A523.238,523.238,0,0,1,335.5,43.56L545.956,468.086a12.991,12.991,0,0,0-3.045,1.844m16.337-.023a13.01,13.01,0,0,0-3.055-1.837L765.175,42.918a523.682,523.682,0,0,1,123.813,73.506Zm-10.276-2.638L477.012,4.908A561.768,561.768,0,0,1,551.066,0h.044a561.977,561.977,0,0,1,72.379,4.687l-70.3,462.579a17.444,17.444,0,0,0-4.217,0" transform="translate(550.486 -298)" fill="#ffc03c" opacity="0.2"/>
                                                    <g id="Grupo_1099322" data-name="Grupo 1099322" transform="translate(11706.517 12586)">
                                                      <path id="Trazado_873211" data-name="Trazado 873211" d="M203.923,407.209H140.546a28.017,28.017,0,0,1-28.017-28.017V297.813h119.41v81.379a28.017,28.017,0,0,1-28.017,28.017" transform="translate(-10738.136 -12340.209)" fill="#fcff9b"/>
                                                      <path id="Trazado_873214" data-name="Trazado 873214" d="M421.386,226.351c0-106.417-86.268-192.684-192.684-192.684S36.017,119.933,36.017,226.351A191.857,191.857,0,0,0,77.585,345.895l41.5,56.2a173.288,173.288,0,0,1,33.888,102.939v6.625a35.218,35.218,0,0,0,35.219,35.217h81.037a35.217,35.217,0,0,0,35.217-35.217v-6.624a173.29,173.29,0,0,1,33.89-102.941l41.5-56.2-.012,0a191.861,191.861,0,0,0,41.563-119.541" transform="translate(-10794.603 -12535.153)" fill="#fcff9b"/>
                                                      <path id="Trazado_873215" data-name="Trazado 873215" d="M246.875,476.711h7.119l83.6-313.1a35.275,35.275,0,0,0,1.2-9.1l-.01-.215c-.045-.5-5.007-49.541-52.829-51.044a44.384,44.384,0,0,0-27.8,8.439c-10.674-10.045-26.252-17.006-47.227-17.8L209,93.9c-20.842,1.07-36.366,7.953-47.062,17.762a44.463,44.463,0,0,0-27.749-8.405c-47.82,1.5-52.784,50.549-52.829,51.044l-.008.215a35.238,35.238,0,0,0,1.2,9.1l83.6,313.1h7.117L89.339,162.367a30.527,30.527,0,0,1-1.035-7.739c.251-2.321,5.412-44.339,46.153-45.619a36.094,36.094,0,0,1,23.124,7.106,57.182,57.182,0,0,0-14.088,40.041c.693,16.685,8.828,28.309,19.795,28.309h.09a19.122,19.122,0,0,0,16.508-8.651c8.49-12.692,5.325-36.6-7.054-53.3a52.115,52.115,0,0,0-6.129-6.92c9.091-8.539,22.7-14.926,42.515-15.947l1.548,0c19.814.754,33.372,7.376,42.412,16.2a52.5,52.5,0,0,0-5.866,6.672c-12.379,16.7-15.544,40.6-7.054,53.3a19.121,19.121,0,0,0,16.507,8.651c11.138.106,18.94-11.36,19.484-28.426a58.585,58.585,0,0,0-13.8-39.841,36.132,36.132,0,0,1,23.236-7.189c41,1.288,45.862,42.676,46.154,45.613a30.442,30.442,0,0,1-1.037,7.746ZM166.914,125.533c11.016,14.859,14.175,36.606,6.9,47.486a12.079,12.079,0,0,1-10.48,5.684h-.039c-6.681,0-12.324-9.977-12.855-22.745a53.961,53.961,0,0,1,11.922-35.724,47.9,47.9,0,0,1,4.555,5.3M269.3,155.887c-.407,12.807-5.873,22.815-12.452,22.815h-.035a12.074,12.074,0,0,1-10.48-5.684c-7.28-10.879-4.121-32.626,6.9-47.486a47.524,47.524,0,0,1,4.216-4.959A55.943,55.943,0,0,1,269.3,155.887" transform="translate(-10775.973 -12508.85)" fill="#ffda57"/>
                                                      <path id="Trazado_873216" data-name="Trazado 873216" d="M148.622,42.474a4.1,4.1,0,0,1-4.1-4.1V4.1a4.1,4.1,0,0,1,8.2,0V38.375a4.1,4.1,0,0,1-4.1,4.1" transform="translate(-10714.522 -12560)" fill="#fcff9b"/>
                                                      <path id="Trazado_873217" data-name="Trazado 873217" d="M308.162,158.333H273.885a4.1,4.1,0,0,1,0-8.2h34.277a4.1,4.1,0,0,1,0,8.2" transform="translate(-10622.076 -12449.198)" fill="#fcff9b"/>
                                                      <path id="Trazado_873218" data-name="Trazado 873218" d="M38.374,158.333H4.1a4.1,4.1,0,0,1,0-8.2H38.374a4.1,4.1,0,0,1,0,8.2" transform="translate(-10821.184 -12449.198)" fill="#fcff9b"/>
                                                      <path id="Trazado_873219" data-name="Trazado 873219" d="M259.144,268.624a4.08,4.08,0,0,1-2.9-1.2l-24.238-24.238a4.1,4.1,0,1,1,5.795-5.795l24.238,24.237a4.1,4.1,0,0,1-2.9,7" transform="translate(-10650.843 -12385.689)" fill="#fcff9b"/>
                                                      <path id="Trazado_873220" data-name="Trazado 873220" d="M68.375,77.855a4.081,4.081,0,0,1-2.9-1.2L41.24,52.417a4.1,4.1,0,0,1,5.8-5.8L71.273,70.857a4.1,4.1,0,0,1-2.9,7" transform="translate(-10791.634 -12526.479)" fill="#fcff9b"/>
                                                      <path id="Trazado_873221" data-name="Trazado 873221" d="M234.907,77.855a4.1,4.1,0,0,1-2.9-7l24.238-24.237a4.1,4.1,0,1,1,5.795,5.8L237.8,76.654a4.081,4.081,0,0,1-2.9,1.2" transform="translate(-10650.844 -12526.479)" fill="#fcff9b"/>
                                                      <path id="Trazado_873222" data-name="Trazado 873222" d="M44.139,268.624a4.1,4.1,0,0,1-2.9-7L65.478,237.39a4.1,4.1,0,0,1,5.8,5.795L47.036,267.423a4.08,4.08,0,0,1-2.9,1.2" transform="translate(-10791.634 -12385.689)" fill="#fcff9b"/>
                                                    </g>
                                                  </g>
                                                  <path id="Trazado_873377" data-name="Trazado 873377" d="M128.484,76.008A54.494,54.494,0,1,1,74,21.508a54.559,54.559,0,0,1,54.489,54.5m-17.094,0A37.4,37.4,0,1,0,74,113.4,37.436,37.436,0,0,0,111.39,76.008" transform="translate(753.838 495.492)" fill="#ffc03c"/>
                                                </g>
                                              </g>
                                            </g>
                                          </g>
                                        </g>
                                      </g>
                                    </g>
                                  </g>
                                  <g id="Grupo_1099332" data-name="Grupo 1099332" transform="matrix(0.956, -0.292, 0.292, 0.956, 15105.544, 8664.623)">
                                    <path id="Trazado_873233" data-name="Trazado 873233" d="M30.079,5.781a1.171,1.171,0,0,0-1.172,1.172V12.12a1.172,1.172,0,1,0,2.343,0V6.953a1.171,1.171,0,0,0-1.172-1.172" transform="translate(-10814.454 -11930.981)" fill="#fff"/>
                                    <path id="Trazado_873234" data-name="Trazado 873234" d="M30.079,0a1.171,1.171,0,0,0-1.172,1.172V6.339a1.172,1.172,0,0,0,2.343,0V1.172A1.171,1.171,0,0,0,30.079,0" transform="translate(-10814.454 -11934.242)" fill="#fff"/>
                                    <path id="Trazado_873235" data-name="Trazado 873235" d="M36.391,4.542H31.749a1.172,1.172,0,1,0,0,2.343h4.642a1.172,1.172,0,1,0,0-2.343" transform="translate(-10813.513 -11931.681)" fill="#fff"/>
                                    <path id="Trazado_873236" data-name="Trazado 873236" d="M30.084,4.542H25.442a1.172,1.172,0,0,0,0,2.343h4.642a1.172,1.172,0,1,0,0-2.343" transform="translate(-10817.07 -11931.681)" fill="#fff"/>
                                  </g>
                                </g>
                              </g>
                            </g>
                          </g>
                        </g>
                      </g>
                    </g>
                  </g>
                </g>
              </g>
            </g>
          </g>
        </g>
        <g id="Grupo_1102891" data-name="Grupo 1102891">
          <g id="Grupo_1102890" data-name="Grupo 1102890">
            <g id="Grupo_1102889" data-name="Grupo 1102889">
              <path id="Trazado_873232" data-name="Trazado 873232" d="M49.482,36.5a14.993,14.993,0,1,1-14.992-15,15.011,15.011,0,0,1,14.992,15m-4.7,0A10.29,10.29,0,1,0,34.49,46.792,10.3,10.3,0,0,0,44.779,36.5" transform="translate(220.519 132.502)" fill="#ea3a70"/>
            </g>
          </g>
        </g>
      </g>
    </g>
  </g>
</svg>
