<svg xmlns="http://www.w3.org/2000/svg" width="50" height="50.489" viewBox="0 0 50 50.489">
  <g id="Grupo_1102871" data-name="Grupo 1102871" transform="translate(4504 9574)">
    <g id="Algorithm" transform="translate(-4505.796 -9572.525)">
      <path id="Trazado_882938" data-name="Trazado 882938" d="M53.36,43H48.766a.765.765,0,0,0-.766.766V48.36a.765.765,0,0,0,.766.766H53.36a.765.765,0,0,0,.766-.766V43.766A.765.765,0,0,0,53.36,43Zm-.766,4.594H49.531V44.531h3.063Z" transform="translate(-9.373 -10.076)" fill="#ea3a70"/>
      <path id="Trazado_882939" data-name="Trazado 882939" d="M36.33,35.221h-5.6l.234-1.406a.766.766,0,0,0-.755-.891H27.142V28.689l4.319-3.6a.767.767,0,0,0,0-1.177l-4.319-3.6V16.079H30.2a.765.765,0,0,0,.766-.766V10.72a.765.765,0,0,0-.766-.766H27.142V6.125h1.531a3.059,3.059,0,0,0,2.954-2.3h8.531a.766.766,0,0,1,.766.766V21.548a3.058,3.058,0,0,0-2.188,2.188h-4.7a.766.766,0,0,0,0,1.531h4.7a3.056,3.056,0,1,0,3.72-3.72V4.594a2.3,2.3,0,0,0-2.3-2.3H31.627A3.059,3.059,0,0,0,28.673,0H24.079a3.063,3.063,0,0,0,0,6.125h1.531V9.954H22.548a.765.765,0,0,0-.766.766v1.531H14.125V10.72a.765.765,0,0,0-.766-.766H8.766A.765.765,0,0,0,8,10.72v4.594a.765.765,0,0,0,.766.766H10.3v3.063a.766.766,0,0,0,1.531,0V16.079H13.36a.765.765,0,0,0,.766-.766V13.782h7.657v1.531a.765.765,0,0,0,.766.766h3.063v4.235l-4.319,3.6a.766.766,0,0,0,0,1.177l4.319,3.6v4.235H22.548a.766.766,0,0,0-.755.64l-.276,1.657H14.125V33.69a.765.765,0,0,0-.766-.766H11.828V27.456a3.058,3.058,0,0,0,2.188-2.188h4.7a.766.766,0,1,0,0-1.531h-4.7a3.056,3.056,0,1,0-3.72,3.72v5.468H8.766A.765.765,0,0,0,8,33.69v4.594a.765.765,0,0,0,.766.766H13.36a.765.765,0,0,0,.766-.766V36.753h7.136l-.234,1.406a.765.765,0,0,0,.755.891h3.828v3.937a3.063,3.063,0,1,0,1.531,0V39.05h2.3a.765.765,0,0,0,.755-.64l.276-1.657h5.86a.766.766,0,1,0,0-1.531ZM43.221,24.5A1.531,1.531,0,1,1,41.69,22.97,1.531,1.531,0,0,1,43.221,24.5ZM22.548,3.063a1.533,1.533,0,0,1,1.531-1.531h4.594a1.531,1.531,0,1,1,0,3.063H24.079A1.533,1.533,0,0,1,22.548,3.063ZM12.594,14.548H9.531V11.485h3.063Zm10.72-3.063h6.125v3.063H23.314ZM26.376,21.67l3.4,2.832-3.4,2.832-3.4-2.832ZM9.531,24.5a1.531,1.531,0,1,1,1.531,1.531A1.531,1.531,0,0,1,9.531,24.5Zm3.063,13.017H9.531V34.456h3.063Zm15.314,8.422a1.531,1.531,0,1,1-1.531-1.531,1.531,1.531,0,0,1,1.531,1.531Zm-5.221-8.422.51-3.063h6.1l-.51,3.063Z" transform="translate(0)" fill="#ea3a70"/>
      <path id="Trazado_882940" data-name="Trazado 882940" d="M42.766,14.594h3.063a.765.765,0,0,0,.766-.766V10.766A.765.765,0,0,0,45.828,10H42.766a.765.765,0,0,0-.766.766v3.063a.765.765,0,0,0,.766.766Zm.766-3.063h1.531v1.531H43.531Z" transform="translate(-7.967 -2.343)" fill="#ea3a70"/>
      <path id="Trazado_882941" data-name="Trazado 882941" d="M42,21.828a.765.765,0,0,0,.766.766h3.063a.765.765,0,0,0,.766-.766V18.766A.765.765,0,0,0,45.828,18H42.766a.765.765,0,0,0-.766.766Zm1.531-2.3h1.531v1.531H43.531Z" transform="translate(-7.967 -4.218)" fill="#ea3a70"/>
    </g>
    <rect id="Rectángulo_402706" data-name="Rectángulo 402706" width="50" height="50" transform="translate(-4504 -9574)" fill="none"/>
  </g>
</svg>
