<svg xmlns="http://www.w3.org/2000/svg" width="49" height="49" viewBox="0 0 49 49">
  <g id="Grupo_1102942" data-name="Grupo 1102942" transform="translate(-1190.977 -3202.475)">
    <g id="Grupo_1102941" data-name="Grupo 1102941">
      <g id="Grupo_1102940" data-name="Grupo 1102940">
        <g id="resolucion-de-problemas" transform="translate(1188.977 3200.475)">
          <path id="Trazado_882926" data-name="Trazado 882926" d="M37.538,22.78a3.171,3.171,0,0,0,6.152-.333l3.047,1.633a.817.817,0,0,0,1.106-.335l6.114-11.43a.817.817,0,0,0-.335-1.106L42.193,5.1a.817.817,0,0,0-1.106.335L38.759,9.784a.817.817,0,0,0,1.008,1.15,1.539,1.539,0,1,1-.95,1.774.817.817,0,0,0-1.515-.2L34.973,16.86a.817.817,0,0,0,.335,1.106L38.356,19.6a3.092,3.092,0,0,0-.579.768A3.152,3.152,0,0,0,37.538,22.78ZM36.8,16.91l1.245-2.328a3.119,3.119,0,0,0,.768.58,3.173,3.173,0,1,0,2.994-5.6,3.116,3.116,0,0,0-.908-.32L42.143,6.92l9.989,5.348-5.344,9.985L43.155,20.31A.817.817,0,0,0,42,21.319a1.517,1.517,0,0,1-.073,1.269,1.54,1.54,0,1,1-2.715-1.454,1.516,1.516,0,0,1,1.014-.764.817.817,0,0,0,.2-1.516Z" transform="translate(-6.027 -0.55)" fill="#ea3a70"/>
          <path id="Trazado_882927" data-name="Trazado 882927" d="M2.817,55.033h29.4a.817.817,0,0,0,.817-.817v-14.7a.817.817,0,0,0-.817-.817h-5.6a.817.817,0,0,0-.538,1.432,1.827,1.827,0,0,1,.643,1.388,1.855,1.855,0,0,1-3.711,0,1.827,1.827,0,0,1,.643-1.388.817.817,0,0,0-.538-1.432H18.333V35.443a3.421,3.421,0,0,0,1.187.213,3.49,3.49,0,0,0,0-6.979,3.421,3.421,0,0,0-1.187.213V24.817A.817.817,0,0,0,17.517,24H2.817A.817.817,0,0,0,2,24.817v29.4A.817.817,0,0,0,2.817,55.033Zm.817-14.7H7.865a.817.817,0,0,0,.706-1.225,1.825,1.825,0,0,1-.26-.925,1.855,1.855,0,1,1,3.711,0,1.825,1.825,0,0,1-.26.925.817.817,0,0,0,.706,1.225H16.7V43.59a3.421,3.421,0,0,0-1.187-.213,3.49,3.49,0,0,0,0,6.979,3.421,3.421,0,0,0,1.187-.213V53.4H3.633ZM24.867,45.01a3.493,3.493,0,0,0,3.489-3.489,3.421,3.421,0,0,0-.212-1.188H31.4V53.4H18.333V48.618A.817.817,0,0,0,16.9,48.08a1.825,1.825,0,0,1-1.388.643,1.856,1.856,0,1,1,0-3.713,1.825,1.825,0,0,1,1.388.643.817.817,0,0,0,1.432-.537V40.333H21.59a3.421,3.421,0,0,0-.212,1.188A3.493,3.493,0,0,0,24.867,45.01ZM3.633,25.633H16.7v4.782a.817.817,0,0,0,1.432.537,1.825,1.825,0,0,1,1.388-.643,1.856,1.856,0,1,1,0,3.713,1.825,1.825,0,0,1-1.388-.643.817.817,0,0,0-1.432.537V38.7H13.616a3.435,3.435,0,0,0,.039-.519,3.489,3.489,0,1,0-6.978,0,3.435,3.435,0,0,0,.039.519H3.633Z" transform="translate(0 -4.033)" fill="#ea3a70"/>
          <path id="Trazado_882928" data-name="Trazado 882928" d="M32.267,28.133h1.286a4.036,4.036,0,0,1-1.286,1.633l-1.307.98a.817.817,0,0,0,.49,1.47h3.267a4.908,4.908,0,0,0,4.832-4.083h1.7a.817.817,0,0,0,0-1.633H38.8a.817.817,0,0,0-.817.817,3.267,3.267,0,0,1-3.267,3.267h-.9a5.7,5.7,0,0,0,1.629-3.13.817.817,0,0,0-.808-.953H32.267a1.633,1.633,0,0,1-1.633-1.633V5.267a1.633,1.633,0,0,1,1.633-1.633H52.683a1.633,1.633,0,0,1,1.633,1.633v19.6A1.633,1.633,0,0,1,52.683,26.5H49.417a.817.817,0,0,0,0,1.633h3.267a3.267,3.267,0,0,0,3.267-3.267V5.267A3.267,3.267,0,0,0,52.683,2H32.267A3.267,3.267,0,0,0,29,5.267v19.6A3.267,3.267,0,0,0,32.267,28.133Z" transform="translate(-4.95)" fill="#ea3a70"/>
          <path id="Trazado_882929" data-name="Trazado 882929" d="M49.45,32H47.817a.817.817,0,1,0,0,1.633H49.45a.817.817,0,1,0,0-1.633Z" transform="translate(-8.25 -5.5)" fill="#ea3a70"/>
          <path id="Trazado_882930" data-name="Trazado 882930" d="M22.817,4.45a.817.817,0,0,0,.817-.817V2.817a.817.817,0,1,0-1.633,0v.817A.817.817,0,0,0,22.817,4.45Z" transform="translate(-3.667)" fill="#ea3a70"/>
          <path id="Trazado_882931" data-name="Trazado 882931" d="M22.817,7A.817.817,0,0,0,22,7.817v.817a.817.817,0,1,0,1.633,0V7.817A.817.817,0,0,0,22.817,7Z" transform="translate(-3.667 -0.917)" fill="#ea3a70"/>
          <path id="Trazado_882932" data-name="Trazado 882932" d="M19.817,6.633h.817a.817.817,0,1,0,0-1.633h-.817a.817.817,0,1,0,0,1.633Z" transform="translate(-3.117 -0.55)" fill="#ea3a70"/>
          <path id="Trazado_882933" data-name="Trazado 882933" d="M24.817,6.633h.817a.817.817,0,0,0,0-1.633h-.817a.817.817,0,0,0,0,1.633Z" transform="translate(-4.033 -0.55)" fill="#ea3a70"/>
          <path id="Trazado_882934" data-name="Trazado 882934" d="M57.817,38a.817.817,0,0,0-.817.817v.817a.817.817,0,0,0,1.633,0v-.817A.817.817,0,0,0,57.817,38Z" transform="translate(-10.083 -6.6)" fill="#ea3a70"/>
          <path id="Trazado_882935" data-name="Trazado 882935" d="M57,44.633a.817.817,0,0,0,1.633,0v-.817a.817.817,0,0,0-1.633,0Z" transform="translate(-10.083 -7.517)" fill="#ea3a70"/>
          <path id="Trazado_882936" data-name="Trazado 882936" d="M55.633,41h-.817a.817.817,0,1,0,0,1.633h.817a.817.817,0,0,0,0-1.633Z" transform="translate(-9.533 -7.15)" fill="#ea3a70"/>
          <path id="Trazado_882937" data-name="Trazado 882937" d="M59.817,42.633h.817a.817.817,0,0,0,0-1.633h-.817a.817.817,0,1,0,0,1.633Z" transform="translate(-10.45 -7.15)" fill="#ea3a70"/>
        </g>
      </g>
    </g>
  </g>
</svg>
