<svg xmlns="http://www.w3.org/2000/svg" xmlns:xlink="http://www.w3.org/1999/xlink" width="94" height="97.074" viewBox="0 0 94 97.074">
  <defs>
    <clipPath id="clip-path">
      <rect id="Rectángulo_401306" data-name="Rectángulo 401306" width="63" height="63" transform="translate(239.717 3866.666)" fill="#fff" stroke="#707070" stroke-width="1"/>
    </clipPath>
  </defs>
  <g id="Grupo_1102695" data-name="Grupo 1102695" transform="translate(-855.551 -2013.13)">
    <g id="Grupo_1099482" data-name="Grupo 1099482" transform="translate(621 -1840.796)">
      <circle id="Elipse_11493" data-name="Elipse 11493" cx="42.5" cy="42.5" r="42.5" transform="translate(239.051 3866)" fill="#fcff9b"/>
      <g id="Enmascarar_grupo_1098665" data-name="Enmascarar grupo 1098665" transform="translate(10.334 10.334)" clip-path="url(#clip-path)">
        <g id="innovacion" transform="translate(241.072 3866.916)">
          <g id="Grupo_1099353" data-name="Grupo 1099353" transform="translate(0 0)">
            <g id="Grupo_1099350" data-name="Grupo 1099350">
              <path id="Trazado_873275" data-name="Trazado 873275" d="M58.348,41.338c.165.247.464.967.6,1.235a5.708,5.708,0,0,1,.338.862,5.829,5.829,0,0,1,.288,1.91,6.5,6.5,0,0,1-5.339,6.5.5.5,0,0,0-.381.352,4.088,4.088,0,0,1-3.383,3c-.18.023-.727-.4-.913-.4-.46,0-.858.246-1.273.111.008.147.013.294.013.444A7.482,7.482,0,0,1,40.661,63.1a7.574,7.574,0,0,1-6.495-3.321h0a6.441,6.441,0,0,1-1.295-2.241,7.788,7.788,0,0,1-.16-.929,7.787,7.787,0,0,1-.16.929,8,8,0,0,1-15.789-1.82c0-.15.005-.3.013-.444-.415.136-.693-.367-1.153-.367-.187,0-.536.564-.716.541a4.248,4.248,0,0,1-3.516-2.992.5.5,0,0,0-.381-.351,6.8,6.8,0,0,1-5.157-8.725c.092-.291.58-.573.709-.845.142-.3-.072-.588.111-.862A8.636,8.636,0,0,1,6.179,27.3c-.133-.283,0-.954-.091-1.257-.1-.325-.429-.283-.48-.627a6.654,6.654,0,0,1-.075-1.008,6.793,6.793,0,0,1,4.074-6.227.5.5,0,0,0,.3-.571,4.248,4.248,0,0,1,4.227-5.172,4.122,4.122,0,0,1,.753.082c0-.029.1-.048.1-.076,0-.274.287-.551.319-.817.039-.332-.274-.657-.188-.973A6.8,6.8,0,0,1,20.246,5.8c.46-.1.457.587.946.587.175,0,.827-.73,1-.717a6.276,6.276,0,0,1,9.579-3.3c.341.238.656,1.619.943,1.918.287-.3.6-1.681.943-1.918a6.276,6.276,0,0,1,9.579,3.3c.17-.013.5.586.674.586.49,0,.812-.554,1.273-.454a6.8,6.8,0,0,1,5.126,4.859c.077.282-.493.571-.453.867s.6.605.6.916c0,.028.092.054.092.083.244-.05.459.266.715.261a3.661,3.661,0,0,1,3.889,3.681,5.65,5.65,0,0,1,0,1.4.5.5,0,0,0,.3.571,6.5,6.5,0,0,1,4.168,5.956,6.819,6.819,0,0,1-.075,1.008,10.07,10.07,0,0,1-.415,1.036,7.921,7.921,0,0,1-.313,1.1,8,8,0,0,1,3.55,6.7A8.127,8.127,0,0,1,58.348,41.338Z" transform="translate(-2.571 -1.245)" fill="#fe93bb"/>
              <path id="Trazado_873276" data-name="Trazado 873276" d="M68.817,45.259c.186.279-.026.833.117,1.138.126.268.613.284.7.569a6.8,6.8,0,0,1-5.157,8.725.5.5,0,0,0-.38.351,4.249,4.249,0,0,1-3.516,2.991c-.18.023-.865-.908-1.053-.908-.46,0-.4.869-.816.733.008.147.013.294.013.444a8,8,0,0,1-14.645,4.452h0l1.608-3.768c2.889-.184,5.967-3.145,8.09-5.186a.483.483,0,0,1,.068-.067c6.653-6.443,8.4-15.636,8.5-23.425h0a62.488,62.488,0,0,0-1.741-15.2,4.162,4.162,0,0,1,.752-.082A4.247,4.247,0,0,1,65.588,21.2a.5.5,0,0,0,.3.57A6.794,6.794,0,0,1,69.958,28,6.654,6.654,0,0,1,69.882,29c-.047.318-1,.07-1.093.372-.1.329.666,1.206.522,1.512a8.636,8.636,0,0,1-.494,14.371Z" transform="translate(-12.639 -4.829)" fill="#fe76a8"/>
            </g>
            <g id="Grupo_1099352" data-name="Grupo 1099352" transform="translate(15.269 12.759)">
              <g id="Grupo_1099351" data-name="Grupo 1099351">
                <path id="Trazado_873277" data-name="Trazado 873277" d="M41.43,77.558h0c-.579,0-1.118.208-1.572-.083a2.909,2.909,0,0,1-1.339-2.451V73.112h5.571l-.126,1.912A2.309,2.309,0,0,1,41.43,77.558Z" transform="translate(-26.558 -31.434)" fill="#918291"/>
                <path id="Trazado_873278" data-name="Trazado 873278" d="M43.813,72.11l-2.891.251h-3.2A1.928,1.928,0,0,1,35.8,70.434V67.055H45.49v3.378A1.527,1.527,0,0,1,43.813,72.11Z" transform="translate(-25.899 -29.965)" fill="#7a6d79"/>
                <path id="Trazado_873279" data-name="Trazado 873279" d="M41.627,73.112v1.912a2.908,2.908,0,0,1-1.34,2.45,2.9,2.9,0,0,0,1.571.461h0a2.911,2.911,0,0,0,2.911-2.911V73.112Z" transform="translate(-26.987 -31.434)" fill="#7a6d79"/>
                <path id="Trazado_873280" data-name="Trazado 873280" d="M44.158,67.384v3.13a1.928,1.928,0,0,1-1.928,1.928h3.143A1.928,1.928,0,0,0,47.3,70.513v-3.13Z" transform="translate(-27.459 -30.045)" fill="#685e68"/>
                <path id="Trazado_873281" data-name="Trazado 873281" d="M45.124,66.823l-2.891.251H35.181a1.928,1.928,0,0,1-1.928-1.928V62.178H46.8v2.968A1.527,1.527,0,0,1,45.124,66.823Z" transform="translate(-25.282 -28.782)" fill="#918291"/>
                <path id="Trazado_873282" data-name="Trazado 873282" d="M46.7,62.589v2.657a1.928,1.928,0,0,1-1.928,1.928h3.143a1.928,1.928,0,0,0,1.928-1.928V62.589Z" transform="translate(-28.076 -28.882)" fill="#7a6d79"/>
                <path id="Trazado_873283" data-name="Trazado 873283" d="M51.55,32.985c0-8.042-5.462-14.334-13.438-14.6a15.3,15.3,0,0,0-2.2-.17A14.869,14.869,0,0,0,27.055,43.47a7.832,7.832,0,0,1,2.3,5.517v2.382a.972.972,0,0,0,.972.972H41.718l2.782-.378a.972.972,0,0,0,.972-.972l-.127-2.283a8.321,8.321,0,0,1,2.3-5.729A13.339,13.339,0,0,0,51.55,32.985Z" transform="translate(-22.729 -18.114)" fill="#ffe177"/>
                <path id="Trazado_873284" data-name="Trazado 873284" d="M42.335,18.1a14.785,14.785,0,0,0-2.2.089,14.871,14.871,0,0,1,8.833,25.259A7.842,7.842,0,0,0,46.66,48.97v2.374a.972.972,0,0,1-.972.972h3.394a.972.972,0,0,0,.972-.972V48.97a7.842,7.842,0,0,1,2.312-5.524A14.87,14.87,0,0,0,42.335,18.1Z" transform="translate(-26.951 -18.089)" fill="#ffd15b"/>
              </g>
            </g>
          </g>
          <g id="Grupo_1099360" data-name="Grupo 1099360" transform="translate(0.182 0)">
            <g id="Grupo_1099356" data-name="Grupo 1099356">
              <path id="Trazado_873285" data-name="Trazado 873285" d="M38.267,1.309a6.28,6.28,0,0,0-5.425,1.867A6.274,6.274,0,0,0,22.32,5.665c-.17-.013-.342-.02-.517-.02a6.794,6.794,0,0,0-6.793,6.794c0,.028,0,.053,0,.082h0a4.174,4.174,0,0,0-.837-.083,4.247,4.247,0,0,0-4.03,5.581A6.8,6.8,0,0,0,6.308,27.3s0,0,0,0a8.663,8.663,0,0,0-3.2,4.391" transform="translate(-2.884 -1.245)" fill="none" stroke="#000" stroke-linecap="round" stroke-linejoin="round" stroke-miterlimit="10" stroke-width="2.489"/>
              <path id="Trazado_873286" data-name="Trazado 873286" d="M33.7,82.57a8,8,0,0,0,5.022-3.091" transform="translate(-10.303 -20.219)" fill="none" stroke="#000" stroke-linecap="round" stroke-linejoin="round" stroke-miterlimit="10" stroke-width="2.489"/>
              <path id="Trazado_873287" data-name="Trazado 873287" d="M21.807,74.288a8,8,0,0,1-4.986-7.412c0-.15.005-.3.013-.444a4.245,4.245,0,0,1-5.463-3.115A6.794,6.794,0,0,1,6.73,52.833a0,0,0,0,0,0,0,8.646,8.646,0,0,1-3.919-5.581" transform="translate(-2.812 -12.403)" fill="none" stroke="#000" stroke-linecap="round" stroke-linejoin="round" stroke-miterlimit="10" stroke-width="2.489"/>
              <path id="Trazado_873288" data-name="Trazado 873288" d="M52.122,4.125a6.24,6.24,0,0,1,1.241,2.239c.17-.013.342-.02.517-.02a6.794,6.794,0,0,1,6.793,6.794c0,.028,0,.053,0,.082h0a4.174,4.174,0,0,1,.837-.083,4.247,4.247,0,0,1,4.03,5.581A6.8,6.8,0,0,1,69.374,28s0,0,0,0a8.636,8.636,0,0,1-.494,14.371,0,0,0,0,0,0,0,6.794,6.794,0,0,1-4.641,10.483,4.245,4.245,0,0,1-5.463,3.115c.008.147.013.294.013.444a8,8,0,0,1-14.453,4.727" transform="translate(-12.883 -1.943)" fill="none" stroke="#000" stroke-linecap="round" stroke-linejoin="round" stroke-miterlimit="10" stroke-width="2.489"/>
              <path id="Trazado_873289" data-name="Trazado 873289" d="M7.332,35.147A8.592,8.592,0,0,1,11.295,33.6" transform="translate(-3.908 -9.091)" fill="none" stroke="#000" stroke-linecap="round" stroke-linejoin="round" stroke-miterlimit="10" stroke-width="2.489"/>
              <path id="Trazado_873290" data-name="Trazado 873290" d="M18.824,16.132a4.253,4.253,0,0,1,3.089,2.546" transform="translate(-6.695 -4.855)" fill="none" stroke="#000" stroke-linecap="round" stroke-linejoin="round" stroke-miterlimit="10" stroke-width="2.489"/>
              <g id="Grupo_1099354" data-name="Grupo 1099354" transform="translate(3.918 40.431)">
                <path id="Trazado_873291" data-name="Trazado 873291" d="M11.453,55.843a8.587,8.587,0,0,1-3.469-1.222" transform="translate(-7.984 -54.621)" fill="none" stroke="#000" stroke-linecap="round" stroke-linejoin="round" stroke-miterlimit="10" stroke-width="2.489"/>
              </g>
              <line id="Línea_563" data-name="Línea 563" y2="10.618" transform="translate(29.958 1.931)" fill="none" stroke="#000" stroke-linecap="round" stroke-linejoin="round" stroke-miterlimit="10" stroke-width="2.489"/>
              <path id="Trazado_873292" data-name="Trazado 873292" d="M28.42,7.081l-.01.04a5.187,5.187,0,0,0,.613,3.94h0" transform="translate(-8.984 -2.66)" fill="none" stroke="#000" stroke-linecap="round" stroke-linejoin="round" stroke-miterlimit="10" stroke-width="2.489"/>
              <path id="Trazado_873293" data-name="Trazado 873293" d="M32.451,12.43a3.279,3.279,0,0,0-4.876,2.635" transform="translate(-8.818 -3.856)" fill="none" stroke="#000" stroke-linecap="round" stroke-linejoin="round" stroke-miterlimit="10" stroke-width="2.489"/>
              <path id="Trazado_873294" data-name="Trazado 873294" d="M14.144,30.02a3.279,3.279,0,0,0,1.173,5.417" transform="translate(-5.323 -8.224)" fill="none" stroke="#000" stroke-linecap="round" stroke-linejoin="round" stroke-miterlimit="10" stroke-width="2.489"/>
              <path id="Trazado_873295" data-name="Trazado 873295" d="M76.123,35.147A8.592,8.592,0,0,0,72.16,33.6" transform="translate(-19.631 -9.091)" fill="none" stroke="#000" stroke-linecap="round" stroke-linejoin="round" stroke-miterlimit="10" stroke-width="2.489"/>
              <path id="Trazado_873296" data-name="Trazado 873296" d="M64.91,16.132a4.253,4.253,0,0,0-3.089,2.546" transform="translate(-17.123 -4.855)" fill="none" stroke="#000" stroke-linecap="round" stroke-linejoin="round" stroke-miterlimit="10" stroke-width="2.489"/>
              <g id="Grupo_1099355" data-name="Grupo 1099355" transform="translate(52.529 40.431)">
                <path id="Trazado_873297" data-name="Trazado 873297" d="M72.16,55.843a8.587,8.587,0,0,0,3.468-1.222" transform="translate(-72.16 -54.621)" fill="none" stroke="#000" stroke-linecap="round" stroke-linejoin="round" stroke-miterlimit="10" stroke-width="2.489"/>
              </g>
              <path id="Trazado_873298" data-name="Trazado 873298" d="M56.059,7.081l.01.04a5.187,5.187,0,0,1-.613,3.94h0" transform="translate(-15.58 -2.66)" fill="none" stroke="#000" stroke-linecap="round" stroke-linejoin="round" stroke-miterlimit="10" stroke-width="2.489"/>
              <path id="Trazado_873299" data-name="Trazado 873299" d="M50.712,12.43a3.279,3.279,0,0,1,4.876,2.635" transform="translate(-14.429 -3.856)" fill="none" stroke="#000" stroke-linecap="round" stroke-linejoin="round" stroke-miterlimit="10" stroke-width="2.489"/>
              <path id="Trazado_873300" data-name="Trazado 873300" d="M69.89,30.02a3.279,3.279,0,0,1-1.173,5.417" transform="translate(-18.796 -8.224)" fill="none" stroke="#000" stroke-linecap="round" stroke-linejoin="round" stroke-miterlimit="10" stroke-width="2.489"/>
              <path id="Trazado_873301" data-name="Trazado 873301" d="M22.341,63.6a3.279,3.279,0,0,0,4.4,3.367" transform="translate(-7.545 -16.368)" fill="none" stroke="#000" stroke-linecap="round" stroke-linejoin="round" stroke-miterlimit="10" stroke-width="2.489"/>
            </g>
            <g id="Grupo_1099359" data-name="Grupo 1099359" transform="translate(15.086 12.759)">
              <g id="Grupo_1099358" data-name="Grupo 1099358">
                <path id="Trazado_873302" data-name="Trazado 873302" d="M52.315,30.8a14.872,14.872,0,1,0-25.26,12.643,7.828,7.828,0,0,1,2.3,5.516v2.383a.973.973,0,0,0,.973.972H44.86a.972.972,0,0,0,.972-.972V48.97a7.845,7.845,0,0,1,2.312-5.524A14.833,14.833,0,0,0,52.3,35.2" transform="translate(-22.729 -18.088)" fill="none" stroke="#000" stroke-linecap="round" stroke-linejoin="round" stroke-miterlimit="10" stroke-width="2.489"/>
                <g id="Grupo_1099357" data-name="Grupo 1099357" transform="translate(9.112 14.314)">
                  <path id="Trazado_873303" data-name="Trazado 873303" d="M46.277,36.985l-5.759,5.576-5.759-5.576" transform="translate(-34.759 -36.985)" fill="none" stroke="#000" stroke-linecap="round" stroke-linejoin="round" stroke-miterlimit="10" stroke-width="2.489"/>
                </g>
                <path id="Trazado_873304" data-name="Trazado 873304" d="M47.052,63.6v1.89a1.928,1.928,0,0,1-1.928,1.928H35.181a1.928,1.928,0,0,1-1.928-1.928V63.6" transform="translate(-25.281 -29.127)" fill="none" stroke="#000" stroke-linecap="round" stroke-linejoin="round" stroke-miterlimit="10" stroke-width="2.489"/>
                <path id="Trazado_873305" data-name="Trazado 873305" d="M45.741,68.988v1.9a1.928,1.928,0,0,1-1.928,1.928H37.726A1.928,1.928,0,0,1,35.8,70.892V68.946" transform="translate(-25.898 -30.423)" fill="none" stroke="#000" stroke-linecap="round" stroke-linejoin="round" stroke-miterlimit="10" stroke-width="2.489"/>
                <path id="Trazado_873306" data-name="Trazado 873306" d="M44.341,74.391v.93a2.911,2.911,0,0,1-2.911,2.911h0a2.911,2.911,0,0,1-2.911-2.911v-.986" transform="translate(-26.558 -31.73)" fill="none" stroke="#000" stroke-linecap="round" stroke-linejoin="round" stroke-miterlimit="10" stroke-width="2.489"/>
              </g>
              <line id="Línea_564" data-name="Línea 564" y2="13.991" transform="translate(14.871 19.89)" fill="none" stroke="#000" stroke-linecap="round" stroke-linejoin="round" stroke-miterlimit="10" stroke-width="2.489"/>
            </g>
            <path id="Trazado_873307" data-name="Trazado 873307" d="M21.323,71.315h0A5.145,5.145,0,0,1,22.1,68.6l.756-1.217" transform="translate(-7.302 -17.286)" fill="none" stroke="#000" stroke-linecap="round" stroke-linejoin="round" stroke-miterlimit="10" stroke-width="2.489"/>
            <path id="Trazado_873308" data-name="Trazado 873308" d="M60.968,63.6a3.279,3.279,0,0,1-4.4,3.367" transform="translate(-15.849 -16.368)" fill="none" stroke="#000" stroke-linecap="round" stroke-linejoin="round" stroke-miterlimit="10" stroke-width="2.489"/>
            <path id="Trazado_873309" data-name="Trazado 873309" d="M62.91,71.315h0a5.145,5.145,0,0,0-.774-2.714l-.756-1.217" transform="translate(-17.017 -17.286)" fill="none" stroke="#000" stroke-linecap="round" stroke-linejoin="round" stroke-miterlimit="10" stroke-width="2.489"/>
          </g>
        </g>
      </g>
    </g>
    <g id="Elipse_11500" data-name="Elipse 11500" transform="translate(855.551 2088.204)" fill="none" stroke="#69ccd1" stroke-width="5">
      <circle cx="11" cy="11" r="11" stroke="none"/>
      <circle cx="11" cy="11" r="8.5" fill="none"/>
    </g>
    <g id="Grupo_1099484" data-name="Grupo 1099484" transform="translate(11717.769 13947.372)">
      <path id="Trazado_873233" data-name="Trazado 873233" d="M30.616,5.781A1.708,1.708,0,0,0,28.907,7.49v7.539a1.709,1.709,0,0,0,3.418,0V7.49a1.708,1.708,0,0,0-1.709-1.709" transform="translate(-10811.126 -11926.832)" fill="#ea3a70"/>
      <path id="Trazado_873234" data-name="Trazado 873234" d="M30.616,0a1.708,1.708,0,0,0-1.709,1.709V9.248a1.709,1.709,0,0,0,3.418,0V1.709A1.708,1.708,0,0,0,30.616,0" transform="translate(-10811.126 -11934.242)" fill="#ea3a70"/>
      <path id="Trazado_873235" data-name="Trazado 873235" d="M39.059,4.542H32.286a1.709,1.709,0,1,0,0,3.418h6.773a1.709,1.709,0,1,0,0-3.418" transform="translate(-10808.985 -11928.421)" fill="#ea3a70"/>
      <path id="Trazado_873236" data-name="Trazado 873236" d="M32.752,4.542H25.979a1.709,1.709,0,0,0,0,3.418h6.773a1.709,1.709,0,1,0,0-3.418" transform="translate(-10817.07 -11928.421)" fill="#ea3a70"/>
    </g>
  </g>
</svg>
