<svg xmlns="http://www.w3.org/2000/svg" width="94" height="97.073" viewBox="0 0 94 97.073">
  <g id="Grupo_1102924" data-name="Grupo 1102924" transform="translate(-855.551 -7084.711)">
    <g id="Grupo_1102923" data-name="Grupo 1102923">
      <g id="Grupo_1102922" data-name="Grupo 1102922">
        <circle id="Elipse_11493" data-name="Elipse 11493" cx="42.5" cy="42.5" r="42.5" transform="translate(860.051 7096.784)" fill="#fcff9b"/>
        <g id="Elipse_11552" data-name="Elipse 11552" transform="translate(855.551 7159.784)" fill="none" stroke="#ffc03c" stroke-width="5">
          <circle cx="11" cy="11" r="11" stroke="none"/>
          <circle cx="11" cy="11" r="8.5" fill="none"/>
        </g>
        <g id="Grupo_1102779" data-name="Grupo 1102779" transform="translate(11717.769 19018.953)">
          <path id="Trazado_873233" data-name="Trazado 873233" d="M30.616,5.781A1.708,1.708,0,0,0,28.907,7.49v7.539a1.709,1.709,0,0,0,3.418,0V7.49a1.708,1.708,0,0,0-1.709-1.709" transform="translate(-10811.126 -11926.832)" fill="#ea3a70"/>
          <path id="Trazado_873234" data-name="Trazado 873234" d="M30.616,0a1.708,1.708,0,0,0-1.709,1.709V9.248a1.709,1.709,0,0,0,3.418,0V1.709A1.708,1.708,0,0,0,30.616,0" transform="translate(-10811.126 -11934.242)" fill="#ea3a70"/>
          <path id="Trazado_873235" data-name="Trazado 873235" d="M39.059,4.542H32.286a1.709,1.709,0,1,0,0,3.418h6.773a1.709,1.709,0,1,0,0-3.418" transform="translate(-10808.985 -11928.421)" fill="#ea3a70"/>
          <path id="Trazado_873236" data-name="Trazado 873236" d="M32.752,4.542H25.979a1.709,1.709,0,0,0,0,3.418h6.773a1.709,1.709,0,1,0,0-3.418" transform="translate(-10817.07 -11928.421)" fill="#ea3a70"/>
        </g>
        <g id="mente" transform="translate(875.197 7113.641)">
          <g id="Grupo_1102486" data-name="Grupo 1102486" transform="translate(0 3.486)">
            <g id="Grupo_1102482" data-name="Grupo 1102482" transform="translate(1.147 1.153)">
              <g id="Grupo_1102481" data-name="Grupo 1102481">
                <g id="Grupo_1102480" data-name="Grupo 1102480">
                  <path id="Trazado_882744" data-name="Trazado 882744" d="M57.6,34.09a11.249,11.249,0,0,1-1.026,2.872l-4.7,7.066a10.057,10.057,0,0,0-1.687,5.6v7.465H32.1V53.738a2,2,0,0,0-1.994-2.017H25.936a3.424,3.424,0,0,1-3.408-3.442V42.535a1.985,1.985,0,0,0-1.972-1.994H18.824a1.293,1.293,0,0,1-1.106-1.949l4.217-7.305a5.209,5.209,0,0,0,.672-2.211l.319-4.855a9.982,9.982,0,0,1,1.311-4.376c4.832-8.263,14.6-8.263,14.6-8.263C49.356,11.274,54.451,18.02,56.6,22.249a12.567,12.567,0,0,1,1.345,5.676v2.849A15.7,15.7,0,0,1,57.6,34.09Z" transform="translate(-17.54 -11.571)" fill="#f4d2b1"/>
                </g>
              </g>
            </g>
            <g id="Grupo_1102485" data-name="Grupo 1102485">
              <g id="Grupo_1102484" data-name="Grupo 1102484">
                <g id="Grupo_1102483" data-name="Grupo 1102483">
                  <path id="Trazado_882745" data-name="Trazado 882745" d="M32.258,58.359H50.345a1.143,1.143,0,0,0,1.14-1.14V49.754A8.891,8.891,0,0,1,52.977,44.8l4.7-7.066a11.709,11.709,0,0,0,1.185-3.237,15.958,15.958,0,0,0,.376-3.6V28.043a13.63,13.63,0,0,0-1.459-6.189c-2.222-4.354-7.6-11.636-18.816-11.283-.433,0-10.451.114-15.545,8.833a11.242,11.242,0,0,0-1.47,4.878l-.319,4.866a3.989,3.989,0,0,1-.524,1.721l-4.217,7.305a2.439,2.439,0,0,0,2.1,3.658h1.732a.842.842,0,0,1,.832.855v5.744A4.57,4.57,0,0,0,26.1,53.014h4.171a.866.866,0,0,1,.855.878v3.351A1.114,1.114,0,0,0,32.258,58.359ZM49.2,56.079H33.4V53.868a3.145,3.145,0,0,0-3.134-3.157H26.092a2.3,2.3,0,0,1-2.279-2.3V42.665A3.135,3.135,0,0,0,20.7,39.531H18.969a.138.138,0,0,1-.125-.068.137.137,0,0,1,0-.16L23.06,32a6.123,6.123,0,0,0,.821-2.712l.319-4.866a8.7,8.7,0,0,1,1.162-3.875c4.433-7.579,13.517-7.7,13.608-7.7A17.583,17.583,0,0,1,55.713,22.88a11.367,11.367,0,0,1,1.219,5.163v2.849a13.4,13.4,0,0,1-.319,3.089,10.1,10.1,0,0,1-.9,2.542l-4.661,7.009a11.186,11.186,0,0,0-1.88,6.223v6.325Z" transform="translate(-16.55 -10.559)"/>
                </g>
              </g>
            </g>
          </g>
          <g id="Grupo_1102501" data-name="Grupo 1102501" transform="translate(9.93 10.257)">
            <g id="Grupo_1102493" data-name="Grupo 1102493">
              <g id="Grupo_1102489" data-name="Grupo 1102489" transform="translate(1.128 1.14)">
                <g id="Grupo_1102488" data-name="Grupo 1102488">
                  <g id="Grupo_1102487" data-name="Grupo 1102487">
                    <path id="Trazado_882746" data-name="Trazado 882746" d="M24.25,31.233V26.606h3.032a8.365,8.365,0,0,1,.8-2.017l-2.12-2.12,3.271-3.26L31.316,21.3a8.6,8.6,0,0,1,2.051-.866V17.5h4.627v2.929a8.6,8.6,0,0,1,2.051.866L42.12,19.21l3.271,3.271-2.12,2.12a9.188,9.188,0,0,1,.8,2.017H47.1v4.627H43.989a8.106,8.106,0,0,1-.832,1.9L45.38,35.37l-3.271,3.271-2.257-2.257a8.666,8.666,0,0,1-1.869.752v3.214H33.356V37.137a8.666,8.666,0,0,1-1.869-.752L29.23,38.641,25.96,35.37l2.222-2.222a9.174,9.174,0,0,1-.832-1.9h-3.1Z" transform="translate(-24.25 -17.5)" fill="#69ccd1"/>
                  </g>
                </g>
              </g>
              <g id="Grupo_1102492" data-name="Grupo 1102492">
                <g id="Grupo_1102491" data-name="Grupo 1102491">
                  <g id="Grupo_1102490" data-name="Grupo 1102490">
                    <path id="Trazado_882747" data-name="Trazado 882747" d="M33.484,41.619h4.627a1.143,1.143,0,0,0,1.14-1.14V38.1c.171-.068.331-.125.5-.205l1.687,1.687a1.135,1.135,0,0,0,1.607,0l3.271-3.271a1.128,1.128,0,0,0,.331-.809,1.177,1.177,0,0,0-.331-.809l-1.63-1.63.239-.547h2.3a1.143,1.143,0,0,0,1.14-1.14V26.746a1.143,1.143,0,0,0-1.14-1.14H45.041c-.08-.217-.16-.433-.251-.638l1.539-1.539a1.135,1.135,0,0,0,0-1.607l-3.271-3.271a1.135,1.135,0,0,0-1.607,0l-1.493,1.493c-.228-.1-.456-.205-.7-.3V17.64a1.143,1.143,0,0,0-1.14-1.14H33.5a1.143,1.143,0,0,0-1.14,1.14v2.1a7.49,7.49,0,0,0-.7.3L30.168,18.54a1.156,1.156,0,0,0-1.607,0L25.29,21.811a1.135,1.135,0,0,0,0,1.607l1.539,1.539c-.091.205-.171.422-.251.638H24.39a1.143,1.143,0,0,0-1.14,1.14v4.627a1.143,1.143,0,0,0,1.14,1.14h2.3a5.7,5.7,0,0,0,.239.547l-1.63,1.63a1.135,1.135,0,0,0,0,1.607l3.271,3.271a1.135,1.135,0,0,0,1.607,0l1.687-1.687c.16.068.331.137.5.205v2.382A1.109,1.109,0,0,0,33.484,41.619Zm3.487-2.279H34.624V37.265a1.135,1.135,0,0,0-.832-1.094,7.279,7.279,0,0,1-1.618-.65,1.122,1.122,0,0,0-1.356.194l-1.459,1.459L27.695,35.51l1.425-1.425a1.139,1.139,0,0,0,.182-1.379,7.563,7.563,0,0,1-.718-1.653,1.16,1.16,0,0,0-1.094-.821H25.518V27.885H27.41a1.146,1.146,0,0,0,1.106-.855,7.309,7.309,0,0,1,.684-1.744,1.122,1.122,0,0,0-.194-1.356L27.695,22.62l1.664-1.664,1.276,1.276a1.139,1.139,0,0,0,1.379.182,7.189,7.189,0,0,1,1.778-.752,1.135,1.135,0,0,0,.832-1.094V18.779h2.348v1.789a1.135,1.135,0,0,0,.832,1.094,7.189,7.189,0,0,1,1.778.752,1.123,1.123,0,0,0,1.379-.182l1.276-1.276L43.9,22.62l-1.311,1.311a1.156,1.156,0,0,0-.194,1.356,7.31,7.31,0,0,1,.684,1.744,1.136,1.136,0,0,0,1.105.855h1.892v2.348H44.106a1.145,1.145,0,0,0-1.094.821,7.807,7.807,0,0,1-.718,1.653,1.123,1.123,0,0,0,.182,1.379L43.9,35.51l-1.664,1.664-1.459-1.459a1.156,1.156,0,0,0-1.356-.194,8.163,8.163,0,0,1-1.618.661,1.135,1.135,0,0,0-.832,1.094Z" transform="translate(-23.25 -16.5)"/>
                  </g>
                </g>
              </g>
            </g>
            <g id="Grupo_1102500" data-name="Grupo 1102500" transform="translate(6.781 6.656)">
              <g id="Grupo_1102496" data-name="Grupo 1102496" transform="translate(1.14 1.14)">
                <g id="Grupo_1102495" data-name="Grupo 1102495">
                  <g id="Grupo_1102494" data-name="Grupo 1102494">
                    <ellipse id="Elipse_11534" data-name="Elipse 11534" cx="4.627" cy="4.627" rx="4.627" ry="4.627" fill="#fff"/>
                  </g>
                </g>
              </g>
              <g id="Grupo_1102499" data-name="Grupo 1102499">
                <g id="Grupo_1102498" data-name="Grupo 1102498">
                  <g id="Grupo_1102497" data-name="Grupo 1102497">
                    <path id="Trazado_882748" data-name="Trazado 882748" d="M34.987,33.874a5.767,5.767,0,1,0-5.767-5.767A5.774,5.774,0,0,0,34.987,33.874Zm0-9.254A3.487,3.487,0,1,1,31.5,28.107,3.487,3.487,0,0,1,34.987,24.619Z" transform="translate(-29.22 -22.34)"/>
                  </g>
                </g>
              </g>
            </g>
          </g>
          <g id="Grupo_1102505" data-name="Grupo 1102505" transform="translate(35.527 2.279)">
            <g id="Grupo_1102504" data-name="Grupo 1102504">
              <g id="Grupo_1102503" data-name="Grupo 1102503">
                <g id="Grupo_1102502" data-name="Grupo 1102502">
                  <path id="Trazado_882749" data-name="Trazado 882749" d="M11.152,18.618a1.14,1.14,0,0,0,1.128-.98l.809-5.858H23.483a1.14,1.14,0,1,0,0-2.279h-11.4a1.141,1.141,0,0,0-1.128.98l-.946,6.838a1.143,1.143,0,0,0,.969,1.288A.921.921,0,0,0,11.152,18.618Z" transform="translate(-10 -9.5)"/>
                </g>
              </g>
            </g>
          </g>
          <g id="Grupo_1102512" data-name="Grupo 1102512" transform="translate(47.87 0)">
            <g id="Grupo_1102508" data-name="Grupo 1102508" transform="translate(1.41 1.206)">
              <g id="Grupo_1102507" data-name="Grupo 1102507" transform="translate(0 0)">
                <g id="Grupo_1102506" data-name="Grupo 1102506">
                  <ellipse id="Elipse_11535" data-name="Elipse 11535" cx="2.111" cy="2.111" rx="2.111" ry="2.111" fill="#ea3a70"/>
                </g>
              </g>
            </g>
            <g id="Grupo_1102511" data-name="Grupo 1102511" transform="translate(0)">
              <g id="Grupo_1102510" data-name="Grupo 1102510">
                <g id="Grupo_1102509" data-name="Grupo 1102509">
                  <path id="Trazado_882750" data-name="Trazado 882750" d="M9.419,14.338A3.419,3.419,0,1,0,6,10.919,3.429,3.429,0,0,0,9.419,14.338Zm0-4.559a1.14,1.14,0,1,1-1.14,1.14A1.143,1.143,0,0,1,9.419,9.779Z" transform="translate(-6 -7.5)"/>
                </g>
              </g>
            </g>
          </g>
          <g id="Grupo_1102516" data-name="Grupo 1102516" transform="translate(35.54 34.113)">
            <g id="Grupo_1102515" data-name="Grupo 1102515" transform="translate(0)">
              <g id="Grupo_1102514" data-name="Grupo 1102514">
                <g id="Grupo_1102513" data-name="Grupo 1102513">
                  <path id="Trazado_882751" data-name="Trazado 882751" d="M12.072,46.627h11.4a1.14,1.14,0,1,0,0-2.279H13.064l-.8-5.926a1.138,1.138,0,0,0-2.257.3l.923,6.918a1.162,1.162,0,0,0,1.14.992Z" transform="translate(-10 -37.432)"/>
                </g>
              </g>
            </g>
          </g>
          <g id="Grupo_1102523" data-name="Grupo 1102523" transform="translate(47.87 38.749)">
            <g id="Grupo_1102519" data-name="Grupo 1102519" transform="translate(1.41 1.055)">
              <g id="Grupo_1102518" data-name="Grupo 1102518" transform="translate(0 0)">
                <g id="Grupo_1102517" data-name="Grupo 1102517">
                  <ellipse id="Elipse_11536" data-name="Elipse 11536" cx="2.111" cy="2.412" rx="2.111" ry="2.412" fill="#69ccd1"/>
                </g>
              </g>
            </g>
            <g id="Grupo_1102522" data-name="Grupo 1102522" transform="translate(0)">
              <g id="Grupo_1102521" data-name="Grupo 1102521">
                <g id="Grupo_1102520" data-name="Grupo 1102520">
                  <path id="Trazado_882752" data-name="Trazado 882752" d="M9.419,48.338A3.419,3.419,0,1,0,6,44.919,3.429,3.429,0,0,0,9.419,48.338Zm0-4.559a1.14,1.14,0,1,1-1.14,1.14A1.143,1.143,0,0,1,9.419,43.779Z" transform="translate(-6 -41.5)"/>
                </g>
              </g>
            </g>
          </g>
          <g id="Grupo_1102527" data-name="Grupo 1102527" transform="translate(40.405 22.794)">
            <g id="Grupo_1102526" data-name="Grupo 1102526" transform="translate(0)">
              <g id="Grupo_1102525" data-name="Grupo 1102525">
                <g id="Grupo_1102524" data-name="Grupo 1102524">
                  <path id="Trazado_882753" data-name="Trazado 882753" d="M11.14,29.779H18.6a1.14,1.14,0,1,0,0-2.279H11.14a1.14,1.14,0,1,0,0,2.279Z" transform="translate(-10 -27.5)"/>
                </g>
              </g>
            </g>
          </g>
          <g id="Grupo_1102534" data-name="Grupo 1102534" transform="translate(47.87 20.514)">
            <g id="Grupo_1102530" data-name="Grupo 1102530" transform="translate(1.41 1.197)">
              <g id="Grupo_1102529" data-name="Grupo 1102529" transform="translate(0 0)">
                <g id="Grupo_1102528" data-name="Grupo 1102528">
                  <ellipse id="Elipse_11537" data-name="Elipse 11537" cx="2.111" cy="2.111" rx="2.111" ry="2.111" fill="#ffc03c"/>
                </g>
              </g>
            </g>
            <g id="Grupo_1102533" data-name="Grupo 1102533" transform="translate(0)">
              <g id="Grupo_1102532" data-name="Grupo 1102532">
                <g id="Grupo_1102531" data-name="Grupo 1102531">
                  <path id="Trazado_882754" data-name="Trazado 882754" d="M9.419,32.338A3.419,3.419,0,1,0,6,28.919,3.429,3.429,0,0,0,9.419,32.338Zm0-4.559a1.14,1.14,0,1,1-1.14,1.14A1.143,1.143,0,0,1,9.419,27.779Z" transform="translate(-6 -25.5)"/>
                </g>
              </g>
            </g>
          </g>
        </g>
      </g>
    </g>
  </g>
</svg>
