<svg xmlns="http://www.w3.org/2000/svg" width="94" height="97.073" viewBox="0 0 94 97.073">
  <g id="Grupo_1102921" data-name="Grupo 1102921" transform="translate(-233 -7084.711)">
    <g id="Grupo_1102920" data-name="Grupo 1102920">
      <g id="Grupo_1102919" data-name="Grupo 1102919">
        <g id="Grupo_1102918" data-name="Grupo 1102918">
          <circle id="Elipse_11493" data-name="Elipse 11493" cx="42.5" cy="42.5" r="42.5" transform="translate(239.051 7096.784)" fill="#fcff9b"/>
          <g id="Elipse_11494" data-name="Elipse 11494" transform="translate(233 7159.784)" fill="none" stroke="#ea3a70" stroke-width="5">
            <circle cx="11" cy="11" r="11" stroke="none"/>
            <circle cx="11" cy="11" r="8.5" fill="none"/>
          </g>
          <g id="Grupo_1099377" data-name="Grupo 1099377" transform="translate(11095.218 19018.953)">
            <path id="Trazado_873233" data-name="Trazado 873233" d="M30.616,5.781A1.708,1.708,0,0,0,28.907,7.49v7.539a1.709,1.709,0,0,0,3.418,0V7.49a1.708,1.708,0,0,0-1.709-1.709" transform="translate(-10811.126 -11926.832)" fill="#69ccd1"/>
            <path id="Trazado_873234" data-name="Trazado 873234" d="M30.616,0a1.708,1.708,0,0,0-1.709,1.709V9.248a1.709,1.709,0,0,0,3.418,0V1.709A1.708,1.708,0,0,0,30.616,0" transform="translate(-10811.126 -11934.242)" fill="#69ccd1"/>
            <path id="Trazado_873235" data-name="Trazado 873235" d="M39.059,4.542H32.286a1.709,1.709,0,1,0,0,3.418h6.773a1.709,1.709,0,1,0,0-3.418" transform="translate(-10808.985 -11928.421)" fill="#69ccd1"/>
            <path id="Trazado_873236" data-name="Trazado 873236" d="M32.752,4.542H25.979a1.709,1.709,0,0,0,0,3.418h6.773a1.709,1.709,0,1,0,0-3.418" transform="translate(-10817.07 -11928.421)" fill="#69ccd1"/>
          </g>
          <g id="pensamiento-lateral" transform="translate(255 7116.607)">
            <path id="Trazado_882755" data-name="Trazado 882755" d="M125.395,156.243c-.68.234-1.135.915-1.238,2.212-.013.194,0,3.317.027,3.826H111.193c.341-10.941-10.512-18.97-8.616-28.622a14.9,14.9,0,0,1,5.594-9c6.478-4.947,19.746-4.126,24.861,2.274,1.043,1.556-.178,1.9-.322,3.212-.109.991,1.145,4.577,1.42,6.161.366,2.116-1.186,2.1-1.147,3.645.02.78.535,2.065,2.088,4.443.442.685.794,1.1.7,1.829-.166,1.266-2.023.653-2.625,1.88a1.572,1.572,0,0,0-.02,1.091c.32.719.262,1.069.137,1.308a1.721,1.721,0,0,1-.945.664,2.463,2.463,0,0,1,.866.929,1.668,1.668,0,0,1-.175,1.182,2.286,2.286,0,0,0-.016,1.063,2.465,2.465,0,0,1-.491,2.33c-.567.465-1.53.46-2.81.349q-2.282-.3-4.293-.774Z" transform="translate(-92.18 -108.832)" fill="#fdb0a0" fill-rule="evenodd"/>
            <path id="Trazado_882756" data-name="Trazado 882756" d="M135.51,163.413h-7.883c.341-10.941-10.512-18.97-8.616-28.622a14.9,14.9,0,0,1,5.594-9,17.054,17.054,0,0,1,8.452-3.061c4.55.484,8.871,2.269,11.321,5.335,1.043,1.556-.178,1.9-.322,3.212-.109.991,1.146,4.577,1.42,6.161.366,2.116-1.186,2.1-1.147,3.645.02.78.535,2.065,2.088,4.443.442.685.794,1.1.7,1.829-.166,1.266-2.024.653-2.625,1.88a1.573,1.573,0,0,0-.021,1.091c.32.719.262,1.069.137,1.308a1.721,1.721,0,0,1-.945.664,2.463,2.463,0,0,1,.866.929,1.667,1.667,0,0,1-.175,1.182,2.285,2.285,0,0,0-.016,1.063,2.465,2.465,0,0,1-.491,2.33,1.834,1.834,0,0,1-.9.361l-.144-.012q-2.282-.3-4.293-.774s-1.089-.274-1.62-.429a24.849,24.849,0,0,1-4.8-1.923.752.752,0,0,0-.712,1.325c3.73,2.005,4.094,2.014,4.139,7.065Z" transform="translate(-105.292 -109.964)" fill="#ffcec0" fill-rule="evenodd"/>
            <path id="Trazado_882757" data-name="Trazado 882757" d="M462.542,314.361a2.082,2.082,0,1,0,.762-2.844A2.082,2.082,0,0,0,462.542,314.361Z" transform="translate(-461.511 -278.212)" fill="#b1224e" fill-rule="evenodd"/>
            <path id="Trazado_882758" data-name="Trazado 882758" d="M463.609,316.387a2.105,2.105,0,0,0,.3-.145.861.861,0,1,0-.3.145Z" transform="translate(-460.037 -279.331)" fill="#ea3a70" fill-rule="evenodd"/>
            <ellipse id="Elipse_11538" data-name="Elipse 11538" cx="2.274" cy="2.274" rx="2.274" ry="2.274" transform="translate(25.691 5.434) rotate(-93.154)" fill="#fdc72e"/>
            <g id="Grupo_1102535" data-name="Grupo 1102535" transform="translate(11.794 0.874)">
              <path id="Trazado_882759" data-name="Trazado 882759" d="M229.522,16.438a2.275,2.275,0,1,0-1.539-2.153A2.275,2.275,0,0,0,229.522,16.438Z" transform="translate(-212.753 -12.132)" fill="#ffda57" fill-rule="evenodd"/>
              <path id="Trazado_882760" data-name="Trazado 882760" d="M350.035,347.825a2.612,2.612,0,1,0,.956-3.568,2.612,2.612,0,0,0-.956,3.568Z" transform="translate(-349.685 -308.243)" fill="#4cacb1" fill-rule="evenodd"/>
              <path id="Trazado_882761" data-name="Trazado 882761" d="M351.563,349.906a2.612,2.612,0,1,0-1.527-1.2,2.614,2.614,0,0,0,1.527,1.2Z" transform="translate(-348.213 -309.123)" fill="#69ccd1" fill-rule="evenodd"/>
              <path id="Trazado_882762" data-name="Trazado 882762" d="M74.048,71.806A2.588,2.588,0,1,0,75,68.27a2.588,2.588,0,0,0-.947,3.536Z" transform="translate(-43.987 -61.926)" fill="#b1224e" fill-rule="evenodd"/>
              <path id="Trazado_882763" data-name="Trazado 882763" d="M75.555,73.883a2.588,2.588,0,0,0,0-4.963,2.588,2.588,0,0,0,0,4.963Z" transform="translate(-42.515 -62.816)" fill="#ea3a70" fill-rule="evenodd"/>
              <path id="Trazado_882764" data-name="Trazado 882764" d="M11.093,221.2a2.588,2.588,0,1,0,3.17-1.83A2.588,2.588,0,0,0,11.093,221.2Z" transform="translate(25.449 -197.015)" fill="#4cacb1" fill-rule="evenodd"/>
              <path id="Trazado_882765" data-name="Trazado 882765" d="M12.858,225.244a2.588,2.588,0,0,0,0-4.963,2.588,2.588,0,0,0,0,4.963Z" transform="translate(26.921 -197.906)" fill="#69ccd1" fill-rule="evenodd"/>
              <path id="Trazado_882766" data-name="Trazado 882766" d="M158.643,160.974l1.956-.386.859-2.071-1.111-1.657,2.291-2.291,1.657,1.111,2.071-.859.386-1.956h3.239l.386,1.956,2.071.859,1.657-1.111,2.291,2.291-1.111,1.657.859,2.071,1.956.386v3.239l-1.956.386-.859,2.071,1.111,1.657-2.291,2.291-1.657-1.111-2.071.859-.386,1.956h-3.239l-.386-1.956-2.071-.859-1.657,1.111-2.291-2.291,1.111-1.657L160.6,164.6l-1.956-.386Z" transform="translate(-152.339 -137.738)" fill="#f23353" fill-rule="evenodd"/>
              <path id="Trazado_882767" data-name="Trazado 882767" d="M158.643,164.214l1.956.386.859,2.071-1.111,1.657,1.911,1.911,1.452-.974,2.655,1.1.386,1.956h2.294l.386-1.956,2.655-1.1,1.452.974,1.911-1.911-1.111-1.657.859-2.071,1.956-.386v-3.239l-1.956-.386-.859-2.071,1.111-1.657-1.911-1.911-1.452.974-2.655-1.1-.386-1.956h-2.294l-.386,1.956-2.655,1.1-1.452-.974-1.911,1.911,1.111,1.657-.859,2.071-1.956.386Z" transform="translate(-151.393 -137.738)" fill="#ea3a70" fill-rule="evenodd"/>
            </g>
            <ellipse id="Elipse_11539" data-name="Elipse 11539" cx="5.007" cy="5.007" rx="5.007" ry="5.007" transform="translate(26.974 32.619) rotate(-121.72)" fill="#f23353"/>
            <ellipse id="Elipse_11540" data-name="Elipse 11540" cx="4.983" cy="4.983" rx="4.983" ry="4.983" transform="translate(31.064 31.993) rotate(-162.236)" fill="#f3f3ff"/>
            <path id="Trazado_882768" data-name="Trazado 882768" d="M352.236,31.631a1.537,1.537,0,0,1-1.532,1.532h-5.642a1.537,1.537,0,0,1-1.532-1.532v-2.1c0-4.217-4.354-5.4-4.354-11.069,0-5.2,4.354-7.8,8.707-7.8s8.707,2.6,8.707,7.8c0,5.668-4.353,6.852-4.353,11.069v2.1Z" transform="translate(-338.442 -9.942)" fill="#f5b329" fill-rule="evenodd"/>
            <path id="Trazado_882769" data-name="Trazado 882769" d="M350.506,31.631a1.537,1.537,0,0,1-1.532,1.532h-3.912a1.537,1.537,0,0,1-1.532-1.532v-2.5c0-4.217-4.353-5.4-4.353-11.069a7.419,7.419,0,0,1,5.47-7.3,10.85,10.85,0,0,1,1.507-.105c4.354,0,8.707,2.6,8.707,7.8,0,5.668-4.353,6.852-4.353,11.069v2.1Z" transform="translate(-336.712 -9.942)" fill="#ffda57" fill-rule="evenodd"/>
            <path id="Trazado_882770" data-name="Trazado 882770" d="M398.5,210.034v2.7a1.177,1.177,0,0,0,1.174,1.174h2.314a1.177,1.177,0,0,0,1.174-1.174v-2.7H398.5Z" transform="translate(-391.386 -187.887)" fill="#495586" fill-rule="evenodd"/>
            <path id="Trazado_882771" data-name="Trazado 882771" d="M399.671,213.908h.522a1.177,1.177,0,0,0,1.174-1.174v-2.7H398.5v2.7A1.178,1.178,0,0,0,399.671,213.908Z" transform="translate(-389.595 -187.887)" fill="#5d689e" fill-rule="evenodd"/>
            <path id="Trazado_882772" data-name="Trazado 882772" d="M379.646,193.29a1.538,1.538,0,0,0,1.534,1.534h5.647a1.538,1.538,0,0,0,1.534-1.534v-1.5h-8.714Z" transform="translate(-374.562 -171.601)" fill="#5d689e" fill-rule="evenodd"/>
            <path id="Trazado_882773" data-name="Trazado 882773" d="M381.18,194.824h3.913a1.538,1.538,0,0,0,1.534-1.534v-1.5h-6.98v1.349A1.621,1.621,0,0,0,381.18,194.824Z" transform="translate(-372.828 -171.601)" fill="#7986bf" fill-rule="evenodd"/>
            <path id="Trazado_882774" data-name="Trazado 882774" d="M5.682,39.774a1.33,1.33,0,0,0,1.814.486,1.329,1.329,0,0,0-.669-2.481,1.336,1.336,0,0,0-1.281.985,1.322,1.322,0,0,0,.135,1.009Zm11.11,4.307a1.861,1.861,0,1,0,2.095-2.726,1.892,1.892,0,0,0-.487-.064,1.859,1.859,0,0,0-1.607,2.79ZM23.8,56.673H35.226c-.016-1.115-.021-2.938-.01-3.128a4.363,4.363,0,0,1,.472-1.761A27.026,27.026,0,0,1,30.079,49.6a.752.752,0,0,1,.71-1.326,31.779,31.779,0,0,0,10.788,3.146,3.917,3.917,0,0,0,2.245-.182c.358-.295.311-.95.223-1.652a2.727,2.727,0,0,1,.083-1.476c.01-.02.016-.038.026-.057a.989.989,0,0,0,.114-.544,1.733,1.733,0,0,0-.539-.54.63.63,0,0,1-.057-.042.751.751,0,0,1,.15-1.3,1.615,1.615,0,0,0,.57-.32c.036-.063.016-.273-.156-.653a.738.738,0,0,1-.047-.149,2.3,2.3,0,0,1,.078-1.578,2.648,2.648,0,0,1,1.887-1.3c.612-.173.648-.223.664-.344.047-.347-.073-.549-.425-1.082-.052-.076-.1-.156-.156-.235-1.5-2.3-2.183-3.787-2.208-4.83a2.79,2.79,0,0,1,.731-1.92,1.672,1.672,0,0,0,.425-1.611c-.052-.3-.145-.69-.254-1.123H42.308v.868a.752.752,0,0,1-.607.738l-1.56.308-.555,1.328.887,1.323a.749.749,0,0,1-.088.951l-2.291,2.292a.756.756,0,0,1-.954.093L35.817,37.5l-1.327.551-.311,1.562a.75.75,0,0,1-.736.607H30.2a.75.75,0,0,1-.736-.607l-.311-1.562L27.828,37.5l-1.322.887a.756.756,0,0,1-.954-.093l-.612-.614-3.686,3.688.062.1a3.364,3.364,0,0,1-.731,4.24c1.68,3.336,3.152,6.958,3.214,10.964Zm19.959-31.43a3.623,3.623,0,0,1,.5-1.4c.28-.514.368-.674-.031-1.278a11.034,11.034,0,0,0-2.157-2.011l-2.3,2.3.617.614a.75.75,0,0,1,.088.951l-.886,1.323.555,1.327,1.56.308a.752.752,0,0,1,.607.738v.868h2.208a13.336,13.336,0,0,1-.757-3.736Zm-8.616-7.461a18.422,18.422,0,0,1,5.62,1.946L38.7,21.786l-.612-.614a.756.756,0,0,0-.954-.093l-1.322.888-1.327-.551-.311-1.562a.75.75,0,0,0-.736-.607h-.866V17.462a22.758,22.758,0,0,1,2.566.32Zm-1.8-10.754A1.522,1.522,0,1,0,31.825,8.55,1.524,1.524,0,0,0,33.344,7.028ZM30.555,22.1l.264-1.35h2.006l.264,1.35a.759.759,0,0,0,.451.549l2.074.86a.748.748,0,0,0,.705-.07l1.146-.767,1.415,1.417-.767,1.144a.747.747,0,0,0-.067.707l.855,2.072a.762.762,0,0,0,.55.45l1.353.266v2L39.451,31a.761.761,0,0,0-.55.45l-.855,2.072a.748.748,0,0,0,.067.708l.767,1.144L37.466,36.79l-1.146-.768a.75.75,0,0,0-.705-.07l-2.074.86a.759.759,0,0,0-.451.55l-.264,1.35H30.82l-.264-1.35a.748.748,0,0,0-.451-.55l-2.074-.86a.75.75,0,0,0-.705.07l-1.146.768-1.415-1.417.767-1.144a.764.764,0,0,0,.073-.708l-.861-2.072a.761.761,0,0,0-.55-.45l-1.353-.266v-2l1.353-.266a.762.762,0,0,0,.55-.45l.861-2.072a.762.762,0,0,0-.073-.707l-.767-1.144,1.415-1.417,1.146.767a.748.748,0,0,0,.705.07l2.074-.86a.747.747,0,0,0,.451-.549Zm23.8,9.4a1.836,1.836,0,1,0,.954-3.546,1.9,1.9,0,0,0-.482-.063,1.837,1.837,0,0,0-.472,3.61Zm-6.739-16.27a1.836,1.836,0,1,0,.472-3.609,1.8,1.8,0,0,0-.912.246,1.835,1.835,0,0,0,.441,3.363ZM4.1,38.376a2.793,2.793,0,0,1,1.322-1.721,2.832,2.832,0,0,1,3.867,1.037A2.8,2.8,0,0,1,9.658,39.3l5.894,2.059a3.378,3.378,0,0,1,.664-.766,24.147,24.147,0,0,1-2.68-7.868.752.752,0,1,1,1.493-.175A22.683,22.683,0,0,0,17.553,39.9a3.341,3.341,0,0,1,1.721.006,3.388,3.388,0,0,1,.918.4l3.686-3.686L23.261,36a.749.749,0,0,1-.088-.951l.886-1.323L23.5,32.4l-1.56-.308a.752.752,0,0,1-.607-.738V28.111a.752.752,0,0,1,.607-.738l1.56-.308.555-1.327-.886-1.324a.749.749,0,0,1,.088-.951l2.291-2.291a.756.756,0,0,1,.954-.093l1.322.888,1.327-.551.311-1.562a.75.75,0,0,1,.736-.607h.866V17.407a20.726,20.726,0,0,0-7.087,1.157.752.752,0,1,1-.513-1.414,22.239,22.239,0,0,1,7.6-1.248V9.961a3.025,3.025,0,1,1,1.509,0v5.991a24.288,24.288,0,0,1,2.841.349,19.667,19.667,0,0,1,6.444,2.325l3.4-3.4c-.016-.032-.036-.065-.057-.1A3.335,3.335,0,1,1,48.1,16.8a3.4,3.4,0,0,1-.871-.115,3.448,3.448,0,0,1-.907-.392l-3.178,3.179a12.14,12.14,0,0,1,2.276,2.172.293.293,0,0,1,.036.051,2.362,2.362,0,0,1,.124,2.86,2.343,2.343,0,0,0-.321.85,18.286,18.286,0,0,0,.752,3.326c.026.082.047.164.067.246h5.5l.031-.112A3.338,3.338,0,1,1,58.057,30.6a3.34,3.34,0,0,1-6.48-.112h-5.1c.078.321.145.614.187.867a3.122,3.122,0,0,1-.715,2.785,1.344,1.344,0,0,0-.415.965c.016.718.679,2.079,1.965,4.049.047.078.1.154.145.226a2.829,2.829,0,0,1,.664,2.107c-.15,1.146-1.109,1.417-1.747,1.6-.544.153-.814.254-.944.515-.021.038-.057.117.026.529a2.115,2.115,0,0,1,.083,1.883,1.7,1.7,0,0,1-.352.455,2.668,2.668,0,0,1,.285.465.5.5,0,0,1,.031.083,2.357,2.357,0,0,1-.2,1.728,3.081,3.081,0,0,0,.041.66,3.135,3.135,0,0,1-.762,3c-.819.673-2.053.629-3.349.517l-.031,0c-1.441-.191-2.815-.434-4.106-.728a1.9,1.9,0,0,0-.57,1.468c-.01.28,0,3.25.026,3.731a.748.748,0,0,1-.752.794H23.038a.753.753,0,0,1-.752-.776c.124-3.978-1.343-7.629-3.033-10.995a3.316,3.316,0,0,1-.845.11,3.393,3.393,0,0,1-.876-.116A3.365,3.365,0,0,1,15.06,42.78L9.165,40.722a2.876,2.876,0,0,1-.918.842,2.812,2.812,0,0,1-1.41.381,2.869,2.869,0,0,1-.741-.1,2.829,2.829,0,0,1-2-3.471Zm27.73-12.883a4.238,4.238,0,1,1-4.241,4.239,4.243,4.243,0,0,1,4.241-4.239Zm5.739,4.239a5.741,5.741,0,1,1-5.739-5.744,5.749,5.749,0,0,1,5.739,5.744ZM15.729,15.895a3.5,3.5,0,0,0,1.353-1.525c.539-1.15.347-1.753.249-1.812h-.01a.545.545,0,0,0-.285.134,4.9,4.9,0,0,0-1.306,3.2Zm-4.578,0a4.925,4.925,0,0,0-1.306-3.2.565.565,0,0,0-.285-.134h-.01c-.1.059-.3.662.244,1.812a3.513,3.513,0,0,0,1.358,1.525ZM13.437,5.506c-3.821,0-7.937,2.2-7.937,7.031A9.341,9.341,0,0,0,7.776,18.5a8.506,8.506,0,0,1,2.068,4.915h1.421V17.632a5.152,5.152,0,0,1-2.836-2.625c-.674-1.448-.669-2.747.016-3.473a1.56,1.56,0,0,1,1.768-.35c1.094.435,2.255,2.052,2.509,5.286a4.438,4.438,0,0,0,1.431,0c.254-3.234,1.415-4.851,2.514-5.286a1.552,1.552,0,0,1,1.763.35c.689.727.695,2.025.021,3.473a5.178,5.178,0,0,1-2.841,2.625v5.783H17.03A8.51,8.51,0,0,1,19.1,18.5a9.367,9.367,0,0,0,2.271-5.963c0-4.831-4.116-7.031-7.937-7.031Zm-.664,17.909h1.332V18a6.287,6.287,0,0,1-1.332,0Zm-2.151,3.028h5.63a.777.777,0,0,0,.778-.777V24.92H9.844v.747a.777.777,0,0,0,.778.777Zm1.664,2.791h2.307a.423.423,0,0,0,.415-.418v-.868H11.866v.868a.424.424,0,0,0,.42.418Zm6.247-5.651v2.084a2.281,2.281,0,0,1-2.022,2.266v.884a1.923,1.923,0,0,1-1.918,1.923H12.286a1.924,1.924,0,0,1-1.923-1.923v-.884a2.285,2.285,0,0,1-2.022-2.266V23.583c0-1.707-.829-2.865-1.789-4.206A10.737,10.737,0,0,1,4,12.537,7.914,7.914,0,0,1,7,6.11,10.321,10.321,0,0,1,13.437,4,10.346,10.346,0,0,1,19.881,6.11a7.925,7.925,0,0,1,3,6.426,10.737,10.737,0,0,1-2.551,6.84c-.964,1.341-1.794,2.5-1.794,4.206Z" transform="translate(-3.996 -4.001)" fill-rule="evenodd"/>
          </g>
        </g>
      </g>
    </g>
  </g>
</svg>
