<svg xmlns="http://www.w3.org/2000/svg" width="52.008" height="64.954" viewBox="0 0 52.008 64.954">
  <g id="Grupo_1099331" data-name="Grupo 1099331" transform="translate(8807.73 10823.769)">
    <path id="Trazado_873244" data-name="Trazado 873244" d="M121.824,308.939h-6.446a2.849,2.849,0,0,1-2.849-2.849v-8.277h12.145v8.277a2.849,2.849,0,0,1-2.849,2.849" transform="translate(-8900.368 -11067.754)" fill="#12263f"/>
    <g id="Grupo_1099329" data-name="Grupo 1099329" transform="translate(-8787.839 -10763.773)">
      <rect id="Rectángulo_401299" data-name="Rectángulo 401299" width="12.145" height="0.625" transform="translate(0 0)" fill="#363f4b"/>
      <path id="Trazado_873245" data-name="Trazado 873245" d="M112.529,342.125v.444c0,.061.005.121.009.181h12.126c0-.06.009-.12.009-.181v-.444Z" transform="translate(-112.529 -340.461)" fill="#363f4b"/>
      <path id="Trazado_873246" data-name="Trazado 873246" d="M125.287,352.168a2.847,2.847,0,0,0,.4-.625H114.1a2.853,2.853,0,0,0,.4.625Z" transform="translate(-113.823 -348.214)" fill="#363f4b"/>
    </g>
    <path id="Trazado_873247" data-name="Trazado 873247" d="M75.211,53.264A19.6,19.6,0,1,0,40.245,65.422l4.221,5.715a17.624,17.624,0,0,1,3.447,10.469v.674a3.582,3.582,0,0,0,3.582,3.582h8.242a3.582,3.582,0,0,0,3.582-3.582v-.674a17.624,17.624,0,0,1,3.447-10.47l4.221-5.715h0a19.513,19.513,0,0,0,4.227-12.158" transform="translate(-8837.382 -10851.484)" fill="#ffda57"/>
    <g id="Grupo_1099328" data-name="Grupo 1099328" transform="translate(-8807.73 -10823.769)">
      <path id="Trazado_873249" data-name="Trazado 873249" d="M144.941,4.32a.417.417,0,0,1-.417-.417V.417a.417.417,0,0,1,.834,0V3.9a.417.417,0,0,1-.417.417" transform="translate(-118.977 0)" fill="#263238"/>
      <path id="Trazado_873250" data-name="Trazado 873250" d="M273.69,150.969H270.2a.417.417,0,0,1,0-.834h3.486a.417.417,0,0,1,0,.834" transform="translate(-222.098 -123.596)" fill="#263238"/>
      <path id="Trazado_873251" data-name="Trazado 873251" d="M3.9,150.969H.417a.417.417,0,0,1,0-.834H3.9a.417.417,0,0,1,0,.834" transform="translate(0 -123.596)" fill="#263238"/>
      <path id="Trazado_873252" data-name="Trazado 873252" d="M233.69,239.487a.415.415,0,0,1-.295-.122L230.93,236.9a.417.417,0,0,1,.589-.589l2.465,2.465a.417.417,0,0,1-.295.712" transform="translate(-190.01 -194.439)" fill="#263238"/>
      <path id="Trazado_873253" data-name="Trazado 873253" d="M42.921,48.719a.415.415,0,0,1-.295-.122l-2.465-2.465a.417.417,0,0,1,.59-.59l2.465,2.465a.417.417,0,0,1-.295.712" transform="translate(-32.962 -37.392)" fill="#263238"/>
      <path id="Trazado_873254" data-name="Trazado 873254" d="M231.224,48.719a.417.417,0,0,1-.295-.712l2.465-2.465a.417.417,0,0,1,.589.59L231.519,48.6a.415.415,0,0,1-.295.122" transform="translate(-190.009 -37.392)" fill="#263238"/>
      <path id="Trazado_873255" data-name="Trazado 873255" d="M40.456,239.487a.417.417,0,0,1-.295-.712l2.465-2.465a.417.417,0,1,1,.59.589l-2.465,2.465a.415.415,0,0,1-.295.122" transform="translate(-32.962 -194.439)" fill="#263238"/>
    </g>
  </g>
</svg>
